<svg width="56" height="56" viewBox="0 0 56 56" fill="none" xmlns="http://www.w3.org/2000/svg">
<g clip-path="url(#clip0_2226_1261)">
<path d="M17.5 43.9403C17.0535 44.4249 16.5128 44.8132 15.911 45.0814C15.3091 45.3496 14.6588 45.492 14 45.5C11.0994 45.5 8.75 42.7569 8.75 39.375C8.75 35.9931 11.0994 33.25 14 33.25C14.6588 33.258 15.3091 33.4004 15.911 33.6686C16.5128 33.9368 17.0535 34.3251 17.5 34.8097" stroke="#92722A" stroke-width="3" stroke-linecap="round" stroke-linejoin="round"/>
<path d="M30.603 33.5999C30.603 33.5999 24.1652 31.898 23.6468 36.0062C23.1283 40.1143 32.0533 38.2199 31.4736 42.7262C30.9333 46.9174 24.5218 45.1324 24.5218 45.1324" stroke="#92722A" stroke-width="3" stroke-linecap="round" stroke-linejoin="round"/>
<path d="M10.5 24.5V8.75C10.5 8.28587 10.6844 7.84075 11.0126 7.51256C11.3408 7.18437 11.7859 7 12.25 7H33.25L45.5 19.25V24.5" stroke="#92722A" stroke-width="3" stroke-linecap="round" stroke-linejoin="round"/>
<path d="M33.25 7V19.25H45.5" stroke="#92722A" stroke-width="3" stroke-linecap="round" stroke-linejoin="round"/>
<path d="M36.75 33.25L41.125 45.5L45.5 33.25" stroke="#92722A" stroke-width="3" stroke-linecap="round" stroke-linejoin="round"/>
</g>
<defs>
<clipPath id="clip0_2226_1261">
<rect width="56" height="56" fill="white"/>
</clipPath>
</defs>
</svg>
