<svg width="56" height="56" viewBox="0 0 56 56" fill="none" xmlns="http://www.w3.org/2000/svg">
<g clip-path="url(#clip0_2116_14026)">
<path d="M17.5 43.9402C17.0535 44.4248 16.5128 44.8131 15.911 45.0813C15.3091 45.3494 14.6588 45.4919 14 45.4999C11.0994 45.4999 8.75 42.7568 8.75 39.3749C8.75 35.993 11.0994 33.2499 14 33.2499C14.6588 33.2579 15.3091 33.4003 15.911 33.6685C16.5128 33.9367 17.0535 34.325 17.5 34.8096" stroke="#4B4F58" stroke-width="3" stroke-linecap="round" stroke-linejoin="round"/>
<path d="M30.603 33.5999C30.603 33.5999 24.1652 31.898 23.6468 36.0062C23.1283 40.1143 32.0533 38.2199 31.4736 42.7262C30.9333 46.9174 24.5218 45.1324 24.5218 45.1324" stroke="#4B4F58" stroke-width="3" stroke-linecap="round" stroke-linejoin="round"/>
<path d="M10.5 24.4999V8.74988C10.5 8.28575 10.6844 7.84063 11.0126 7.51244C11.3408 7.18425 11.7859 6.99988 12.25 6.99988H33.25L45.5 19.2499V24.4999" stroke="#4B4F58" stroke-width="3" stroke-linecap="round" stroke-linejoin="round"/>
<path d="M33.25 6.99988V19.2499H45.5" stroke="#4B4F58" stroke-width="3" stroke-linecap="round" stroke-linejoin="round"/>
<path d="M36.75 33.2499L41.125 45.4999L45.5 33.2499" stroke="#4B4F58" stroke-width="3" stroke-linecap="round" stroke-linejoin="round"/>
</g>
<defs>
<clipPath id="clip0_2116_14026">
<rect width="56" height="56" fill="white"/>
</clipPath>
</defs>
</svg>
