<svg width="24" height="24" viewBox="0 0 24 24" fill="none" xmlns="http://www.w3.org/2000/svg">
<path d="M18.5747 18.2672C18.6667 18.3765 18.7255 18.5099 18.7443 18.6516C18.763 18.7933 18.7409 18.9373 18.6805 19.0669C18.6201 19.1964 18.524 19.306 18.4035 19.3827C18.2829 19.4595 18.1429 19.5001 18 19.5H2.25C2.10717 19.5 1.96732 19.4591 1.84689 19.3823C1.72647 19.3055 1.63048 19.1959 1.57021 19.0665C1.50994 18.937 1.48791 18.7929 1.50669 18.6514C1.52548 18.5098 1.5843 18.3765 1.67625 18.2672C3.07687 16.6003 4.81875 15.4162 6.75469 14.7825C5.57897 14.0502 4.67374 12.9549 4.17594 11.6624C3.67814 10.3698 3.61486 8.95028 3.99567 7.61855C4.37648 6.28681 5.18067 5.11534 6.28656 4.28135C7.39246 3.44736 8.73989 2.99625 10.125 2.99625C11.5101 2.99625 12.8575 3.44736 13.9634 4.28135C15.0693 5.11534 15.8735 6.28681 16.2543 7.61855C16.6351 8.95028 16.5719 10.3698 16.0741 11.6624C15.5763 12.9549 14.671 14.0502 13.4953 14.7825C15.4312 15.4162 17.1731 16.6003 18.5747 18.2672ZM23.1731 14.4375C23.1072 14.5517 23.0124 14.6465 22.8981 14.7123C22.7839 14.7781 22.6543 14.8127 22.5225 14.8125C22.3908 14.8129 22.2614 14.7783 22.1475 14.7122L21.7097 14.4591C21.5002 14.6388 21.2593 14.7783 20.9991 14.8706V15.375C20.9991 15.5739 20.92 15.7647 20.7794 15.9053C20.6387 16.046 20.448 16.125 20.2491 16.125C20.0501 16.125 19.8594 16.046 19.7187 15.9053C19.5781 15.7647 19.4991 15.5739 19.4991 15.375V14.8706C19.2389 14.7783 18.998 14.6388 18.7884 14.4591L18.3506 14.7122C18.2367 14.7783 18.1073 14.8129 17.9756 14.8125C17.8105 14.8126 17.6499 14.7581 17.5189 14.6576C17.3878 14.5571 17.2936 14.4161 17.2509 14.2566C17.2081 14.0971 17.2193 13.9279 17.2825 13.7753C17.3457 13.6228 17.4576 13.4953 17.6006 13.4128L18.0375 13.1606C17.9862 12.8893 17.9862 12.6107 18.0375 12.3394L17.6006 12.0872C17.5153 12.0379 17.4405 11.9724 17.3805 11.8942C17.3206 11.8161 17.2766 11.7269 17.2511 11.6317C17.2256 11.5366 17.219 11.4373 17.2319 11.3397C17.2447 11.242 17.2767 11.1478 17.3259 11.0625C17.3752 10.9772 17.4408 10.9024 17.5189 10.8424C17.597 10.7824 17.6862 10.7384 17.7814 10.7129C17.8765 10.6874 17.9758 10.6809 18.0735 10.6938C18.1711 10.7066 18.2653 10.7386 18.3506 10.7878L18.7884 11.0409C18.998 10.8612 19.2389 10.7216 19.4991 10.6294V10.125C19.4991 9.92608 19.5781 9.73532 19.7187 9.59467C19.8594 9.45401 20.0501 9.375 20.2491 9.375C20.448 9.375 20.6387 9.45401 20.7794 9.59467C20.92 9.73532 20.9991 9.92608 20.9991 10.125V10.6294C21.2593 10.7216 21.5002 10.8612 21.7097 11.0409L22.1475 10.7878C22.2328 10.7386 22.327 10.7066 22.4247 10.6938C22.5223 10.6809 22.6216 10.6874 22.7167 10.7129C22.8119 10.7384 22.9011 10.7824 22.9792 10.8424C23.0574 10.9024 23.1229 10.9772 23.1722 11.0625C23.2214 11.1478 23.2534 11.242 23.2662 11.3397C23.2791 11.4373 23.2726 11.5366 23.2471 11.6317C23.2216 11.7269 23.1776 11.8161 23.1176 11.8942C23.0576 11.9724 22.9828 12.0379 22.8975 12.0872L22.4606 12.3394C22.5119 12.6107 22.5119 12.8893 22.4606 13.1606L22.8975 13.4128C22.9829 13.462 23.0578 13.5275 23.1179 13.6056C23.178 13.6837 23.2221 13.7729 23.2477 13.868C23.2733 13.9632 23.2798 14.0625 23.2671 14.1602C23.2543 14.2579 23.2223 14.3521 23.1731 14.4375ZM20.25 13.5C20.3983 13.5 20.5433 13.456 20.6667 13.3736C20.79 13.2912 20.8861 13.1741 20.9429 13.037C20.9997 12.9 21.0145 12.7492 20.9856 12.6037C20.9566 12.4582 20.8852 12.3246 20.7803 12.2197C20.6754 12.1148 20.5418 12.0433 20.3963 12.0144C20.2508 11.9855 20.1 12.0003 19.963 12.0571C19.8259 12.1139 19.7088 12.21 19.6264 12.3333C19.544 12.4567 19.5 12.6017 19.5 12.75C19.5 12.9489 19.579 13.1397 19.7197 13.2803C19.8603 13.421 20.0511 13.5 20.25 13.5Z" fill="#92722A"/>
</svg>
