<svg id="admin_log_reports_W" data-name="admin log reports_W" xmlns="http://www.w3.org/2000/svg" xmlns:xlink="http://www.w3.org/1999/xlink" width="23.916" height="30.175" viewBox="0 0 23.916 30.175">
  <defs>
    <clipPath id="clip-path">
      <rect id="Rectangle_49803" data-name="Rectangle 49803" width="23.916" height="30.175" transform="translate(0 0)" fill="#fffefe"/>
    </clipPath>
  </defs>
  <g id="Group_114478" data-name="Group 114478" clip-path="url(#clip-path)">
    <path id="Path_110482" data-name="Path 110482" d="M0,25.592V3.679H.239q5.754-.007,11.507-.015c2.47,0,4.939.006,7.408,0,.183,0,.21.06.21.22q-.006,2.763,0,5.525,0,10.2,0,20.409c0,.35,0,.352-.349.352l-13.268,0q-.51,0-1.02.009c-.128,0-.179-.027-.177-.178.011-1.232.011-2.463.011-3.695a.694.694,0,0,0-.744-.695L.087,25.6c-.023,0-.046,0-.087-.006M16.742,5.806c-.051,0-.085-.006-.119-.006Q9.7,5.8,2.778,5.8c-.153,0-.168.06-.167.188.006.844.006,1.688.006,2.532,0,.228-.005.229.217.229q6.913,0,13.827.006a.393.393,0,0,0,.081-.018ZM9.284,17.589c-.058,0-.1-.01-.137-.01-1.079,0-2.158,0-3.237,0-.174,0-.216-.053-.214-.219.01-1.073.007-2.147.015-3.22,0-.148-.045-.184-.19-.184a3.239,3.239,0,0,0-1.609.439,3.646,3.646,0,1,0,4.059,6.028,3.3,3.3,0,0,0,1.313-2.838m1.257-1.372a3.318,3.318,0,0,0-3.4-3.4c0,.049-.012.1-.012.151-.005,1.038-.008,2.075-.015,3.112,0,.11.041.139.145.138.427,0,.855,0,1.283,0h2m2.4,3.872c0,.856,0,1.712,0,2.567a.643.643,0,0,0,.806.644.709.709,0,0,0,.6-.749q0-2.427,0-4.853c0-.041,0-.082,0-.123a.748.748,0,0,0-.747-.712.691.691,0,0,0-.665.748c.023.825.006,1.652.006,2.478m3.238,0V22.6a.641.641,0,0,0,.661.712.652.652,0,0,0,.73-.586,1.925,1.925,0,0,0,.017-.263q0-2.375,0-4.749c0-.047,0-.094,0-.141a.7.7,0,0,0-.763-.7.665.665,0,0,0-.643.728q0,1.24,0,2.481M8.846,23.059h0c-.768,0-1.536,0-2.3,0a1.734,1.734,0,0,0-.314.024.625.625,0,0,0-.53.594.636.636,0,0,0,.437.732,1.765,1.765,0,0,0,.5.064q2.206,0,4.413-.011a2.765,2.765,0,0,0,.316-.011.687.687,0,0,0,.582-.95.715.715,0,0,0-.764-.441c-.779,0-1.559,0-2.338,0m0,2.55c-.833,0-1.665,0-2.5,0a.657.657,0,0,0-.648.636.641.641,0,0,0,.582.742,5.709,5.709,0,0,0,.614.019q2.094,0,4.187,0a1.032,1.032,0,0,0,.64-.145.7.7,0,0,0,.25-.752.672.672,0,0,0-.647-.5c-.826,0-1.653,0-2.48,0" fill="#fffefe"/>
    <path id="Path_110483" data-name="Path 110483" d="M23.916,26.5H20.767v-.382q0-11.271,0-22.541c0-.235.008-.47,0-.7a.622.622,0,0,0-.569-.591,2.631,2.631,0,0,0-.281-.015H4.918c-.359,0-.361,0-.363-.359,0-.592,0-1.184,0-1.777a.174.174,0,0,1,.1-.119A.664.664,0,0,1,4.865,0H23.916Z" fill="#fffefe"/>
    <path id="Path_110484" data-name="Path 110484" d="M3.1,29.126,1.064,27.031c-.01,0,.01-.01.03-.01l1.9-.007c.1,0,.157.018.156.133-.006.633-.008,1.266-.012,1.9,0,.015-.013.03-.036.08" fill="#fffefe"/>
  </g>
</svg>
