<svg width="24" height="24" viewBox="0 0 24 24" fill="none" xmlns="http://www.w3.org/2000/svg">
	<path d="M13.5 14.7825C14.6757 14.0502 15.5809 12.9549 16.0787 11.6623C16.5765 10.3698 16.6398 8.95025 16.259 7.61852C15.8782 6.28678 15.074 5.11531 13.9681 4.28132C12.8622 3.44733 11.5148 2.99622 10.1297 2.99622C8.74458 2.99622 7.39715 3.44733 6.29125 4.28132C5.18536 5.11531 4.38117 6.28678 4.00036 7.61852C3.61955 8.95025 3.68283 10.3698 4.18063 11.6623C4.67843 12.9549 5.58366 14.0502 6.75938 14.7825C4.82344 15.4162 3.08156 16.6003 1.68094 18.2672C1.61531 18.3422 1.56531 18.4296 1.53385 18.5242C1.50238 18.6188 1.49009 18.7187 1.4977 18.8181C1.5053 18.9175 1.53265 19.0144 1.57814 19.1031C1.62362 19.1918 1.68634 19.2705 1.76261 19.3347C1.83889 19.3989 1.9272 19.4472 2.02238 19.4769C2.11755 19.5066 2.21769 19.517 2.31692 19.5075C2.41616 19.498 2.51251 19.4688 2.60034 19.4216C2.68817 19.3745 2.76571 19.3103 2.82844 19.2328C4.71094 16.9865 7.30406 15.75 10.125 15.75C12.9459 15.75 15.5391 16.9865 17.4253 19.2328C17.5534 19.3852 17.7367 19.4805 17.935 19.4977C18.1334 19.515 18.3304 19.4527 18.4828 19.3247C18.6352 19.1966 18.7305 19.0133 18.7478 18.8149C18.765 18.6166 18.7027 18.4196 18.5747 18.2672C17.1731 16.6003 15.4313 15.4162 13.5 14.7825ZM5.25 9.37497C5.25 8.41078 5.53591 7.46825 6.07159 6.66656C6.60726 5.86487 7.36863 5.24003 8.25942 4.87105C9.15021 4.50208 10.1304 4.40553 11.0761 4.59364C12.0217 4.78174 12.8904 5.24604 13.5721 5.92782C14.2539 6.6096 14.7182 7.47824 14.9063 8.4239C15.0944 9.36956 14.9979 10.3498 14.6289 11.2405C14.2599 12.1313 13.6351 12.8927 12.8334 13.4284C12.0317 13.9641 11.0892 14.25 10.125 14.25C8.83253 14.2485 7.59342 13.7344 6.6795 12.8205C5.76558 11.9065 5.25149 10.6674 5.25 9.37497ZM22.8984 13.4128L22.4616 13.1606C22.5128 12.8892 22.5128 12.6107 22.4616 12.3393L22.8984 12.0872C23.0707 11.9877 23.1965 11.8239 23.248 11.6317C23.2995 11.4395 23.2726 11.2348 23.1731 11.0625C23.0737 10.8902 22.9098 10.7644 22.7177 10.7129C22.5255 10.6614 22.3207 10.6883 22.1484 10.7878L21.7106 11.0409C21.5011 10.8611 21.2602 10.7216 21 10.6293V10.125C21 9.92605 20.921 9.73529 20.7803 9.59464C20.6397 9.45398 20.4489 9.37497 20.25 9.37497C20.0511 9.37497 19.8603 9.45398 19.7197 9.59464C19.579 9.73529 19.5 9.92605 19.5 10.125V10.6293C19.2398 10.7216 18.9989 10.8611 18.7894 11.0409L18.3516 10.7878C18.2662 10.7385 18.1721 10.7066 18.0744 10.6937C17.9767 10.6809 17.8775 10.6874 17.7823 10.7129C17.6872 10.7384 17.598 10.7824 17.5198 10.8424C17.4417 10.9024 17.3761 10.9771 17.3269 11.0625C17.2776 11.1478 17.2457 11.242 17.2328 11.3396C17.22 11.4373 17.2265 11.5365 17.252 11.6317C17.2775 11.7269 17.3215 11.816 17.3815 11.8942C17.4415 11.9723 17.5162 12.0379 17.6016 12.0872L18.0384 12.3393C17.9872 12.6107 17.9872 12.8892 18.0384 13.1606L17.6016 13.4128C17.4293 13.5122 17.3035 13.6761 17.252 13.8682C17.2005 14.0604 17.2274 14.2652 17.3269 14.4375C17.4263 14.6098 17.5902 14.7355 17.7823 14.787C17.9745 14.8385 18.1793 14.8116 18.3516 14.7122L18.7894 14.459C18.9989 14.6388 19.2398 14.7783 19.5 14.8706V15.375C19.5 15.5739 19.579 15.7646 19.7197 15.9053C19.8603 16.0459 20.0511 16.125 20.25 16.125C20.4489 16.125 20.6397 16.0459 20.7803 15.9053C20.921 15.7646 21 15.5739 21 15.375V14.8706C21.2602 14.7783 21.5011 14.6388 21.7106 14.459L22.1484 14.7122C22.2623 14.7783 22.3918 14.8129 22.5234 14.8125C22.6886 14.8125 22.8491 14.7581 22.9802 14.6576C23.1112 14.557 23.2054 14.4161 23.2482 14.2566C23.2909 14.097 23.2798 13.9279 23.2166 13.7753C23.1533 13.6227 23.0415 13.4953 22.8984 13.4128ZM19.5 12.75C19.5 12.6016 19.544 12.4566 19.6264 12.3333C19.7088 12.21 19.8259 12.1138 19.963 12.0571C20.1 12.0003 20.2508 11.9854 20.3963 12.0144C20.5418 12.0433 20.6754 12.1147 20.7803 12.2196C20.8852 12.3245 20.9566 12.4582 20.9856 12.6036C21.0145 12.7491 20.9997 12.8999 20.9429 13.037C20.8861 13.174 20.79 13.2912 20.6667 13.3736C20.5433 13.456 20.3983 13.5 20.25 13.5C20.0511 13.5 19.8603 13.4209 19.7197 13.2803C19.579 13.1396 19.5 12.9489 19.5 12.75Z" fill="#92722A"/>
</svg>
