<svg id="ApplicationsNew" xmlns="http://www.w3.org/2000/svg" xmlns:xlink="http://www.w3.org/1999/xlink" width="21.217" height="21.621" viewBox="0 0 21.217 21.621">
  <defs>
    <clipPath id="clip-path">
      <rect id="Rectangle_2582" data-name="Rectangle 2582" width="21.217" height="21.621" fill="#97722e"/>
    </clipPath>
  </defs>
  <g id="Group_96289" data-name="Group 96289" clip-path="url(#clip-path)">
    <path id="Path_82335" data-name="Path 82335" d="M20.876,10.1a2.575,2.575,0,0,0-1.306-.162,3.078,3.078,0,0,0-.535.124A.346.346,0,0,1,18.708,10a.235.235,0,0,1-.057-.169c-.006-.394,0-.788,0-1.182V5.474c0-.111-.055-.112-.132-.112h-2.68q-2.184,0-4.369-.005H2.541c-.31,0-.311,0-.311.307V16.735H8.384a3.032,3.032,0,0,0-.169,1.134,2.83,2.83,0,0,0,.336,1.1H4.125c-.634,0-1.269.008-1.9,0a3.47,3.47,0,0,1-.791-.086A1.994,1.994,0,0,1,0,16.962c.006-.867,0-1.734,0-2.6V2.029A1.946,1.946,0,0,1,.752.456,2,2,0,0,1,2.064,0H18.8a1.988,1.988,0,0,1,1.542.667,1.988,1.988,0,0,1,.538,1.359q0,3.952,0,7.9v.164M8.022,3.7a.839.839,0,0,0,.869-.842.853.853,0,1,0-.869.842M3.85,2.861a.812.812,0,0,0-.865-.851A.845.845,0,1,0,3.019,3.7a.811.811,0,0,0,.832-.839M5.505,3.7a.835.835,0,0,0,.864-.838.87.87,0,1,0-.864.838" fill="#97722e"/>
    <path id="Path_82336" data-name="Path 82336" d="M43.29,33.991a.787.787,0,0,1-.278.6c-.221.192-.44.387-.67.566a.273.273,0,0,0-.11.267q.03.611.037,1.224a3.283,3.283,0,0,1-.039.448.184.184,0,0,0,.076.183c.213.172.422.349.631.527a.849.849,0,0,1,.211,1.157c-.143.255-.3.5-.441.759a.854.854,0,0,1-1.035.389c-.29-.11-.581-.219-.874-.322a.163.163,0,0,0-.135.021,4.7,4.7,0,0,1-1.441.838.274.274,0,0,0-.192.247c-.049.291-.092.585-.159.873a.848.848,0,0,1-.834.659q-.456.007-.912,0a.865.865,0,0,1-.852-.724c-.047-.258-.091-.517-.129-.776a.335.335,0,0,0-.261-.3,4.419,4.419,0,0,1-1.359-.8.158.158,0,0,0-.181-.032c-.263.1-.531.187-.79.294a.862.862,0,0,1-1.118-.392c-.156-.278-.319-.551-.476-.829a.831.831,0,0,1,.188-1q.347-.3.706-.594a.183.183,0,0,0,.077-.171c-.019-.374-.042-.748-.046-1.123,0-.217.032-.434.042-.651a.168.168,0,0,0-.051-.12c-.235-.2-.482-.4-.712-.6A.813.813,0,0,1,32,33.535c.153-.271.31-.539.467-.807a.83.83,0,0,1,1-.371c.286.112.581.2.87.3a.188.188,0,0,0,.206-.038,4.737,4.737,0,0,1,1.413-.819.245.245,0,0,0,.18-.225c.037-.29.092-.578.15-.864a.806.806,0,0,1,.709-.657,9.1,9.1,0,0,1,1.169,0,.806.806,0,0,1,.711.643c.061.286.11.574.156.863a.293.293,0,0,0,.214.265,4.3,4.3,0,0,1,1.339.768.266.266,0,0,0,.3.05c.282-.11.569-.21.853-.317a.809.809,0,0,1,.875.287c.229.337.424.7.619,1.056a1.094,1.094,0,0,1,.065.316m-5.719,4.022a1.775,1.775,0,0,0,1.8-1.734,1.795,1.795,0,1,0-3.588-.091,1.77,1.77,0,0,0,1.786,1.825" transform="translate(-22.073 -20.806)" fill="#97722e"/>
  </g>
</svg>
