<svg width="32" height="32" viewBox="0 0 32 32" fill="none" xmlns="http://www.w3.org/2000/svg">
<rect x="0.5" y="0.5" width="31" height="31" rx="15.5" stroke="#F1F5F9"/>
<path d="M21.625 11V19.125C21.625 19.2908 21.5591 19.4497 21.4419 19.5669C21.3247 19.6842 21.1657 19.75 21 19.75C20.8342 19.75 20.6753 19.6842 20.558 19.5669C20.4408 19.4497 20.375 19.2908 20.375 19.125V12.5086L11.4422 21.4422C11.3249 21.5595 11.1658 21.6253 11 21.6253C10.8341 21.6253 10.6751 21.5595 10.5578 21.4422C10.4405 21.3249 10.3746 21.1659 10.3746 21C10.3746 20.8341 10.4405 20.6751 10.5578 20.5578L19.4914 11.625H12.875C12.7092 11.625 12.5503 11.5592 12.433 11.4419C12.3158 11.3247 12.25 11.1658 12.25 11C12.25 10.8342 12.3158 10.6753 12.433 10.5581C12.5503 10.4408 12.7092 10.375 12.875 10.375H21C21.1657 10.375 21.3247 10.4408 21.4419 10.5581C21.5591 10.6753 21.625 10.8342 21.625 11Z" fill="#5F646D"/>
</svg>
