<svg width="32" height="33" viewBox="0 0 32 33" fill="none" xmlns="http://www.w3.org/2000/svg">
<rect x="0.5" y="1" width="31" height="31" rx="15.5" stroke="#F1F5F9"/>
<path d="M21.625 11.5V19.625C21.625 19.7908 21.5592 19.9497 21.442 20.0669C21.3247 20.1842 21.1658 20.25 21 20.25C20.8343 20.25 20.6753 20.1842 20.5581 20.0669C20.4409 19.9497 20.375 19.7908 20.375 19.625V13.0086L11.4422 21.9422C11.3249 22.0595 11.1659 22.1253 11 22.1253C10.8342 22.1253 10.6751 22.0595 10.5578 21.9422C10.4405 21.8249 10.3747 21.6659 10.3747 21.5C10.3747 21.3341 10.4405 21.1751 10.5578 21.0578L19.4914 12.125H12.875C12.7093 12.125 12.5503 12.0592 12.4331 11.9419C12.3159 11.8247 12.25 11.6658 12.25 11.5C12.25 11.3342 12.3159 11.1753 12.4331 11.0581C12.5503 10.9408 12.7093 10.875 12.875 10.875H21C21.1658 10.875 21.3247 10.9408 21.442 11.0581C21.5592 11.1753 21.625 11.3342 21.625 11.5Z" fill="white"/>
</svg>
