<svg id="Beneficiaries_W" xmlns="http://www.w3.org/2000/svg" xmlns:xlink="http://www.w3.org/1999/xlink" width="31.898" height="32.279" viewBox="0 0 31.898 32.279">
  <defs>
    <clipPath id="clip-path">
      <rect id="Rectangle_49802" data-name="Rectangle 49802" width="31.898" height="32.279" fill="#020202"/>
    </clipPath>
  </defs>
  <g id="Group_114477" data-name="Group 114477" clip-path="url(#clip-path)">
    <path id="Path_110476" data-name="Path 110476" d="M15.954,26.323a4.6,4.6,0,0,1,1.952-1.937,7.621,7.621,0,0,1,1.415-.491c.423-.124.845-.25,1.267-.373a3.01,3.01,0,0,1,.393-.1.752.752,0,0,1,.655.179,3.082,3.082,0,0,0,1.79.807,2.943,2.943,0,0,0,2.146-.69,1.289,1.289,0,0,0,.137-.118.671.671,0,0,1,.707-.17c.736.212,1.475.413,2.2.645A4.618,4.618,0,0,1,31.9,28.566c-.006.723-.009,1.445,0,2.167a1.477,1.477,0,0,1-1.2,1.5,3.39,3.39,0,0,1-.749.035q-6.38,0-12.761.006A2.01,2.01,0,0,1,16,31.983a.131.131,0,0,0-.115.009,1.7,1.7,0,0,1-.962.287q-6.711-.01-13.423,0A1.511,1.511,0,0,1,0,30.858c0-.908-.023-1.817.021-2.723a4.332,4.332,0,0,1,1.231-2.8,4.587,4.587,0,0,1,2.2-1.3c.6-.163,1.19-.352,1.786-.526a2.533,2.533,0,0,1,.4-.083.7.7,0,0,1,.581.18,2.918,2.918,0,0,0,3.959.114c.051-.041.1-.08.15-.125a.633.633,0,0,1,.654-.157c.419.117.835.243,1.252.369.464.14.937.26,1.389.433a4.316,4.316,0,0,1,2.249,1.97c.017.031.033.062.051.092.005.008.015.011.033.025" fill="#020202"/>
    <path id="Path_110477" data-name="Path 110477" d="M16.6,13.619a6.81,6.81,0,1,1,6.815-6.783A6.81,6.81,0,0,1,16.6,13.619M19.074,8.43a2.47,2.47,0,0,0-2.45-2.276,1.154,1.154,0,0,1-1.063-.692,1.034,1.034,0,0,1,.077-1.084A1.128,1.128,0,0,1,17.2,4.009a1.259,1.259,0,0,1,.58,1.031.628.628,0,0,0,.674.605.641.641,0,0,0,.62-.679,2.371,2.371,0,0,0-.492-1.439,2.467,2.467,0,0,0-1.176-.852.2.2,0,0,1-.159-.2.578.578,0,0,0-.523-.547c-.367-.04-.664.1-.71.4a.464.464,0,0,1-.383.417.3.3,0,0,0-.041.019,2.45,2.45,0,0,0-.89,3.785,2.312,2.312,0,0,0,1.757.884,1.453,1.453,0,0,1,.81.235,1.15,1.15,0,0,1,.392,1.415,1.181,1.181,0,0,1-1.3.667,1.2,1.2,0,0,1-.91-1.149.627.627,0,0,0-.69-.631.615.615,0,0,0-.61.677,3.244,3.244,0,0,0,.189.9,2.284,2.284,0,0,0,1.4,1.345.323.323,0,0,1,.246.3.647.647,0,0,0,1.254.015.332.332,0,0,1,.269-.321c.033-.01.064-.028.1-.041a2.511,2.511,0,0,0,1.47-2.417" fill="#020202"/>
    <path id="Path_110478" data-name="Path 110478" d="M19.285,18.511a3.685,3.685,0,0,1,.7-2.328,3.8,3.8,0,0,1,1.43-1.191.653.653,0,0,1,.788.122,3.347,3.347,0,0,0,1.849.828,6.02,6.02,0,0,0,.929.056,2.864,2.864,0,0,1,1.606.466,3.519,3.519,0,0,1,1.323,1.482,1.982,1.982,0,0,1,.135,1.1,4.887,4.887,0,0,1-1,2.6,4.241,4.241,0,0,1-2.922,1.7,4.066,4.066,0,0,1-3.487-1.308,4.806,4.806,0,0,1-1.349-3.527" fill="#020202"/>
    <path id="Path_110479" data-name="Path 110479" d="M3.853,18.617A3.8,3.8,0,0,1,5.994,15a.662.662,0,0,1,.8.121,3.535,3.535,0,0,0,2.149.861c.349.028.706,0,1.05.049a3.282,3.282,0,0,1,2.281,1.518,2.009,2.009,0,0,1,.367,1.316,4.668,4.668,0,0,1-2.622,4.1,3.73,3.73,0,0,1-3.171.152,4.5,4.5,0,0,1-2.826-3.274,10.7,10.7,0,0,1-.17-1.217" fill="#020202"/>
    <path id="Path_110480" data-name="Path 110480" d="M19.842,14.428a4.333,4.333,0,0,1,1.214-1.4,4.268,4.268,0,0,1,2.917-.858,4.335,4.335,0,0,1,4,3.707c-.067-.052-.126-.1-.182-.144a4.276,4.276,0,0,0-2.351-1.011c-.367-.042-.739-.042-1.109-.061a2.04,2.04,0,0,1-1.242-.508,2.124,2.124,0,0,0-1.017-.519,2.061,2.061,0,0,0-1.428.284c-.266.155-.52.331-.806.514" fill="#020202"/>
    <path id="Path_110481" data-name="Path 110481" d="M12.585,15.886c-.04-.029-.071-.05-.1-.075a4.459,4.459,0,0,0-3.028-1.127,2.719,2.719,0,0,1-1.344-.25,2.986,2.986,0,0,1-.461-.308,1.972,1.972,0,0,0-2.409-.216c-.271.156-.528.336-.808.515a4.124,4.124,0,0,1,.947-1.188,4.278,4.278,0,0,1,3.038-1.08,4.374,4.374,0,0,1,4.165,3.729" fill="#020202"/>
  </g>
</svg>
