<svg id="bulk_signing__B" data-name="bulk signing _B" xmlns="http://www.w3.org/2000/svg" xmlns:xlink="http://www.w3.org/1999/xlink" width="35.206" height="35.821" viewBox="0 0 35.206 35.821">
  <defs>
    <clipPath id="clip-path">
      <rect id="Rectangle_49804" data-name="Rectangle 49804" width="35.206" height="35.821" fill="none"/>
    </clipPath>
  </defs>
  <g id="Group_114479" data-name="Group 114479" transform="translate(0 0)" clip-path="url(#clip-path)">
    <path id="Path_110485" data-name="Path 110485" d="M29.132,21.61H19.908a2.62,2.62,0,0,1-.376-.023.6.6,0,0,1-.564-.619c-.013-.261-.014-.522-.014-.783q0-5.563,0-11.126,0-.448.011-.9a.672.672,0,0,1,.717-.752c.162-.012.326-.01.489-.01h5.851c.364,0,.364,0,.364.36,0,1.549.011,3.1-.006,4.646a.927.927,0,0,0,1.247.812,3.444,3.444,0,0,0,.5-.31c.3-.218.6-.444.893-.674a.19.19,0,0,1,.272,0c.365.281.734.561,1.108.831a.986.986,0,0,0,.731.221.964.964,0,0,0,.822-1.024q-.007-2.337-.011-4.674c0-.182,0-.182.187-.182q3.191,0,6.382,0a1.19,1.19,0,0,1,.319.032.591.591,0,0,1,.463.534,4.343,4.343,0,0,1,.021.474q0,6.123,0,12.245a3.079,3.079,0,0,1-.02.362.545.545,0,0,1-.517.533,3.647,3.647,0,0,1-.488.03q-4.577,0-9.153,0Zm-6.146-5.541c-.537,0-1.073-.005-1.609,0A1.183,1.183,0,0,0,20.2,17.243c-.008.643.011,1.287,0,1.93a1.234,1.234,0,0,0,1.172,1.209c.475.011.951,0,1.427,0,.611,0,1.222,0,1.832-.007a1.107,1.107,0,0,0,.7-.284,1.23,1.23,0,0,0,.435-1c0-.588-.005-1.175,0-1.763a1.224,1.224,0,0,0-1.254-1.265c-.507.017-1.016,0-1.524,0m12.621,4.32v-.005c.415,0,.831.01,1.245,0a.618.618,0,0,0,.026-1.236,3.736,3.736,0,0,0-.5,0c-.1.005-.139-.025-.137-.131.007-.345.008-.69,0-1.035a.217.217,0,0,1,.134-.228,1.836,1.836,0,0,0,1.056-1.406,5.255,5.255,0,0,0,.032-.99A1.171,1.171,0,0,0,36.4,14.223c-.531-.011-1.064-.019-1.595,0a1.093,1.093,0,0,0-1,.912,9.585,9.585,0,0,0-.012,1.255,1.31,1.31,0,0,0,.241.648,1.9,1.9,0,0,0,.809.708c.071.035.141.064.14.168,0,.368,0,.737,0,1.105,0,.094-.038.122-.125.12-.168,0-.336-.005-.5,0a.569.569,0,0,0-.586.525.577.577,0,0,0,.474.7,1.349,1.349,0,0,0,.292.022c.354,0,.709,0,1.063,0M36.24,10.8c.085.079.14.133.2.184a.627.627,0,0,0,.982-.224.685.685,0,0,0-.221-.792c-.343-.342-.684-.687-1.028-1.029a1.242,1.242,0,0,0-.238-.192.827.827,0,0,0-.258-.091.623.623,0,0,0-.561.223c-.237.231-.471.466-.7.7-.167.168-.342.331-.5.511a.631.631,0,0,0,.131.92.619.619,0,0,0,.694-.021l.243-.182c0,.515-.005,1.021,0,1.529a.629.629,0,1,0,1.257-.023c0-.489,0-.979,0-1.513M20.17,13.237h0c0,.3-.01.606,0,.909a.9.9,0,0,0,.1.386.592.592,0,0,0,.65.276.534.534,0,0,0,.447-.505c.023-.666.022-1.331.015-2a.509.509,0,0,0-.223-.447.642.642,0,0,0-.675-.05.562.562,0,0,0-.319.533c0,.3,0,.6,0,.895m0-3.677h-.017c.013.162.013.327.041.486a.6.6,0,0,0,.552.454.57.57,0,0,0,.6-.416,2.212,2.212,0,0,0,0-1.023.549.549,0,0,0-.126-.228.573.573,0,0,0-.678-.147.557.557,0,0,0-.378.537c0,.112,0,.224,0,.335" transform="translate(-4.729 -1.846)" fill="#1a1818"/>
    <path id="Path_110486" data-name="Path 110486" d="M5.6,7.686c.136-.026.163.088.2.182.135.392.263.785.4,1.177l1.421,4.176c.173.507.347,1.013.516,1.521A1.818,1.818,0,0,0,8.9,15.832a6.56,6.56,0,0,0,.774.307.23.23,0,0,1,.128.112c.191.666.374,1.335.558,2q.231.841.456,1.684t.434,1.676a.149.149,0,0,1-.053.128,12.841,12.841,0,0,1-1.818.888,11.487,11.487,0,0,1-2.88.714c-.12.013-.143-.071-.175-.143q-.226-.518-.444-1.041c-.72-1.747-1.454-3.489-2.152-5.245-.549-1.379-1.057-2.775-1.574-4.167-.326-.877-.633-1.761-.957-2.638a.307.307,0,0,1,.074-.357A6.119,6.119,0,0,1,3.1,8.325,5.8,5.8,0,0,1,5.3,7.714l.3-.029" transform="translate(-0.292 -1.917)" fill="#1a1818"/>
    <path id="Path_110487" data-name="Path 110487" d="M37.291,44.633a.564.564,0,0,1-.579.586,1.539,1.539,0,0,1-.88-.276c-.223-.144-.444-.292-.666-.438a.332.332,0,0,0-.517.1,3.4,3.4,0,0,1-.3.4,1.516,1.516,0,0,1-2.283-.107,8.705,8.705,0,0,1-.548-.826c-.189-.294-.371-.592-.56-.886A.986.986,0,0,0,30.8,43a.314.314,0,0,0-.487.083,1.676,1.676,0,0,0-.119.311c-.1.371-.191.749-.305,1.117a1.511,1.511,0,0,1-1.448,1.116,1.479,1.479,0,0,1-1.406-.844,3.449,3.449,0,0,1-.2-.579c-.17-.614-.333-1.231-.5-1.847-.123-.463-.243-.928-.366-1.391-.02-.077-.047-.151-.07-.227a.306.306,0,0,0-.283-.23.285.285,0,0,0-.317.174c-.145.3-.283.6-.42.9q-.737,1.621-1.472,3.244a.614.614,0,0,1-.755.368.568.568,0,0,1-.395-.735c.095-.267.218-.524.335-.783.524-1.153,1.045-2.308,1.577-3.457a1.494,1.494,0,0,1,1.347-.921,1.457,1.457,0,0,1,1.352.7,2.421,2.421,0,0,1,.273.667c.223.8.428,1.611.642,2.416.1.359.2.717.3,1.075a.293.293,0,0,0,.276.254.343.343,0,0,0,.35-.249c.118-.386.232-.775.333-1.167a1.676,1.676,0,0,1,.784-1.094,1.468,1.468,0,0,1,1.872.295,10.914,10.914,0,0,1,.76,1.12c.161.245.31.5.474.742a.331.331,0,0,0,.611,0,1.638,1.638,0,0,1,1.226-.835,1.449,1.449,0,0,1,.913.2c.24.132.46.3.7.441a1.677,1.677,0,0,0,.419.184.584.584,0,0,1,.486.594" transform="translate(-5.548 -9.806)" fill="#1a1818"/>
    <path id="Path_110488" data-name="Path 110488" d="M20.332,4.325a.525.525,0,0,1,.032-.095c.654-1.15,1.322-2.291,1.961-3.451A1.423,1.423,0,0,1,23.7,0c.779,0,1.558,0,2.337,0h1.758c-.1.419-.191.817-.279,1.216-.152.691-.3,1.383-.448,2.076-.068.318-.133.636-.209.954a.168.168,0,0,1-.128.086c-.176.009-.354,0-.531,0l-5.752,0c-.032,0-.062,0-.116-.008" transform="translate(-5.073 0)" fill="#1a1818"/>
    <path id="Path_110489" data-name="Path 110489" d="M42.284,4.317a1.028,1.028,0,0,1-.137.019H36.1c-.309,0-.306,0-.371-.29q-.342-1.519-.687-3.037c-.068-.3-.137-.6-.2-.9A.874.874,0,0,1,34.825,0h.145c1.316,0,2.632,0,3.947,0a1.415,1.415,0,0,1,1.037.337,1.333,1.333,0,0,1,.24.288q1.038,1.806,2.067,3.617a.464.464,0,0,1,.023.071" transform="translate(-8.69 -0.001)" fill="#1a1818"/>
    <path id="Path_110490" data-name="Path 110490" d="M.4,7.192A3.273,3.273,0,0,1,.134,4.7,4.236,4.236,0,0,1,.548,3.637,2.115,2.115,0,0,1,1.1,3.027,3.747,3.747,0,0,1,3.4,2.25a2.223,2.223,0,0,1,1.339.458.143.143,0,0,1,.035.131,2.046,2.046,0,0,0-.063,1.355c.061.242.162.475.244.712.02.056.034.113.054.184A7.089,7.089,0,0,0,.4,7.192" transform="translate(0 -0.561)" fill="#1a1818"/>
    <path id="Path_110491" data-name="Path 110491" d="M13.533,28.067c.022.131.033.236.057.338.108.462.22.923.331,1.384.064.263.132.523.191.786a.165.165,0,0,1-.037.131,4.907,4.907,0,0,1-1.825,1.159,4.631,4.631,0,0,1-2.188.227.228.228,0,0,1-.156-.105c-.326-.71-.645-1.424-.963-2.137-.082-.185-.079-.188.126-.227a14.553,14.553,0,0,0,2.152-.531,11.353,11.353,0,0,0,1.856-.8c.137-.077.283-.14.456-.224" transform="translate(-2.219 -7.003)" fill="#1a1818"/>
    <path id="Path_110492" data-name="Path 110492" d="M12.231,13.2a.706.706,0,0,1-.45.549.574.574,0,0,1-.654-.221,1.45,1.45,0,0,1-.167-.336c-.52-1.529-1.033-3.06-1.553-4.588C9,7.414,8.591,6.226,8.185,5.038,8.068,4.694,7.947,4.351,7.845,4a.594.594,0,0,1,.415-.78A.611.611,0,0,1,9,3.645c.116.319.224.642.333.963q.5,1.46.992,2.922.519,1.525,1.042,3.051.358,1.05.71,2.1c.057.17.107.344.159.516" transform="translate(-1.95 -0.798)" fill="#1a1818"/>
    <path id="Path_110493" data-name="Path 110493" d="M13.456,39.077a3.618,3.618,0,0,0,2.643-.9c.009.009.035.023.046.045a10.1,10.1,0,0,0,1.692,2.319.266.266,0,0,1,.062.323q-.4,1.029-.792,2.059l-.092.245c-.076-.2-.141-.368-.2-.537-.19-.545-.372-1.092-.566-1.636a.57.57,0,0,0-.476-.384.591.591,0,0,0-.7.657,6.561,6.561,0,0,0,.275.948c.147.45.3.9.469,1.379-.083-.053-.142-.092-.2-.129-.656-.4-1.312-.8-1.971-1.2a.2.2,0,0,1-.113-.209c.025-.67.054-1.341.052-2.012a6.137,6.137,0,0,0-.115-.844c-.006-.039-.008-.08-.013-.125" transform="translate(-3.358 -9.526)" fill="#1a1818"/>
    <path id="Path_110494" data-name="Path 110494" d="M33.557,11.7c-.263-.2-.495-.376-.733-.544a1.363,1.363,0,0,0-.835-.269,1.386,1.386,0,0,0-.771.289c-.184.128-.358.269-.537.4-.05.038-.1.071-.175.118,0-.076-.008-.125-.008-.175,0-1.315,0-2.63,0-3.944,0-.131.038-.168.164-.167q1.391,0,2.784-.008c.14,0,.13.081.13.173l0,3.818c0,.092-.008.185-.014.307" transform="translate(-7.609 -1.846)" fill="#1a1818"/>
    <path id="Path_110495" data-name="Path 110495" d="M33.456,4.334H30.709c.021-.085.04-.158.056-.232q.295-1.335.59-2.671c.089-.4.169-.811.26-1.214C31.663,0,31.67,0,31.885,0c.164,0,.327.006.489,0a.134.134,0,0,1,.162.127q.162.75.329,1.5.287,1.293.576,2.588a1.023,1.023,0,0,1,.014.119" transform="translate(-7.663 0)" fill="#1a1818"/>
    <path id="Path_110496" data-name="Path 110496" d="M11.123,34.716a5.987,5.987,0,0,0,3.9-1.361c.029.254.069.462.073.672a4.561,4.561,0,0,1-.219,1.584,1.2,1.2,0,0,1-.519.669,2.247,2.247,0,0,1-1.165.341,1.132,1.132,0,0,1-.69-.272,4.649,4.649,0,0,1-1.327-1.494,1.375,1.375,0,0,1-.056-.14" transform="translate(-2.776 -8.323)" fill="#1a1818"/>
    <path id="Path_110497" data-name="Path 110497" d="M44.861,45.571c.219,0,.439-.013.657,0a.642.642,0,0,1,.576.588.593.593,0,0,1-.547.586c-.474.022-.949.017-1.423-.007a.55.55,0,0,1-.485-.549.588.588,0,0,1,.442-.591c.256-.043.518-.046.777-.066l0,.036" transform="translate(-10.889 -11.362)" fill="#1a1818"/>
    <path id="Path_110498" data-name="Path 110498" d="M23.813,20.57c.462,0,.923,0,1.385,0,.107,0,.143.023.142.138q-.009.77,0,1.538c0,.137-.031.187-.176.186-.924-.005-1.847,0-2.77,0-.106,0-.137-.037-.136-.138,0-.531,0-1.063,0-1.595,0-.125.062-.134.155-.134.466,0,.933,0,1.4,0v.005" transform="translate(-5.554 -5.131)" fill="#1a1818"/>
    <path id="Path_110499" data-name="Path 110499" d="M41.571,18.1c0,.215.012.406,0,.6a.7.7,0,0,1-.606.635.621.621,0,0,1-.615-.524,4.721,4.721,0,0,1-.023-.627c0-.026.044-.076.069-.076.386-.005.771,0,1.177,0" transform="translate(-10.062 -4.516)" fill="#1a1818"/>
  </g>
</svg>
