<svg width="24" height="24" viewBox="0 0 24 24" fill="none" xmlns="http://www.w3.org/2000/svg">
	<path d="M22.95 14.1C22.8712 14.1591 22.7816 14.2021 22.6861 14.2266C22.5907 14.251 22.4914 14.2564 22.3939 14.2425C22.2964 14.2286 22.2026 14.1956 22.1179 14.1454C22.0331 14.0952 21.9591 14.0288 21.9 13.95C21.448 13.3424 20.8596 12.8494 20.1822 12.5107C19.5048 12.172 18.7573 11.9971 18 12C17.8525 12 17.7083 11.9565 17.5854 11.875C17.4625 11.7935 17.3664 11.6775 17.3091 11.5416C17.2701 11.4493 17.2501 11.3502 17.2501 11.25C17.2501 11.1499 17.2701 11.0508 17.3091 10.9585C17.3664 10.8226 17.4625 10.7066 17.5854 10.6251C17.7083 10.5436 17.8525 10.5001 18 10.5C18.4208 10.5 18.8332 10.382 19.1903 10.1593C19.5474 9.93665 19.8349 9.61831 20.0201 9.24046C20.2053 8.8626 20.2809 8.44037 20.2382 8.02173C20.1955 7.60308 20.0362 7.2048 19.7785 6.87213C19.5208 6.53946 19.175 6.28572 18.7803 6.13975C18.3856 5.99378 17.9579 5.96142 17.5457 6.04634C17.1336 6.13127 16.7535 6.33008 16.4487 6.62019C16.1438 6.91031 15.9265 7.28009 15.8213 7.68755C15.7966 7.78296 15.7535 7.87259 15.6942 7.95132C15.6349 8.03004 15.5608 8.09633 15.4759 8.14639C15.391 8.19644 15.2971 8.22929 15.1995 8.24305C15.1019 8.25682 15.0026 8.25123 14.9072 8.22661C14.8118 8.20199 14.7222 8.15881 14.6434 8.09955C14.5647 8.04029 14.4984 7.9661 14.4484 7.88122C14.3983 7.79634 14.3655 7.70243 14.3517 7.60486C14.3379 7.50729 14.3435 7.40796 14.3681 7.31255C14.5142 6.74753 14.79 6.22439 15.1738 5.78475C15.5576 5.34511 16.0387 5.00111 16.5788 4.78012C17.1189 4.55913 17.7032 4.46725 18.285 4.51179C18.8669 4.55633 19.4304 4.73606 19.9306 5.03668C20.4308 5.3373 20.8539 5.75051 21.1663 6.24344C21.4787 6.73636 21.6717 7.2954 21.7301 7.87606C21.7884 8.45672 21.7104 9.04297 21.5023 9.58819C21.2942 10.1334 20.9617 10.6225 20.5313 11.0166C21.5511 11.4582 22.4376 12.1589 23.1028 13.0491C23.1619 13.1281 23.2048 13.218 23.2291 13.3136C23.2534 13.4092 23.2587 13.5087 23.2445 13.6063C23.2303 13.7039 23.1969 13.7978 23.1464 13.8825C23.0959 13.9672 23.0292 14.0412 22.95 14.1ZM17.8988 19.875C17.953 19.9604 17.9895 20.0559 18.0059 20.1557C18.0223 20.2555 18.0184 20.3576 17.9943 20.4558C17.9702 20.5541 17.9265 20.6464 17.8658 20.7274C17.8052 20.8083 17.7287 20.8761 17.6412 20.9267C17.5536 20.9774 17.4567 21.0097 17.3563 21.0219C17.2558 21.0341 17.154 21.0259 17.0569 20.9977C16.9597 20.9695 16.8693 20.922 16.791 20.8579C16.7127 20.7939 16.6481 20.7147 16.6013 20.625C16.1288 19.8251 15.4559 19.1621 14.649 18.7015C13.8421 18.2409 12.9291 17.9987 12 17.9987C11.0709 17.9987 10.1579 18.2409 9.35099 18.7015C8.54409 19.1621 7.87122 19.8251 7.39876 20.625C7.35187 20.7147 7.28734 20.7939 7.20905 20.8579C7.13075 20.922 7.04031 20.9695 6.94316 20.9977C6.84602 21.0259 6.74417 21.0341 6.64376 21.0219C6.54334 21.0097 6.44644 20.9774 6.35886 20.9267C6.27129 20.8761 6.19486 20.8083 6.13417 20.7274C6.07349 20.6464 6.0298 20.5541 6.00573 20.4558C5.98167 20.3576 5.97772 20.2555 5.99414 20.1557C6.01056 20.0559 6.04699 19.9604 6.10126 19.875C6.82838 18.6257 7.93707 17.6426 9.26438 17.07C8.5175 16.4982 7.9686 15.7067 7.69482 14.8068C7.42105 13.9068 7.43616 12.9437 7.73805 12.0528C8.03994 11.1619 8.61342 10.388 9.37789 9.83993C10.1423 9.29182 11.0594 8.99704 12 8.99704C12.9407 8.99704 13.8577 9.29182 14.6221 9.83993C15.3866 10.388 15.9601 11.1619 16.262 12.0528C16.5639 12.9437 16.579 13.9068 16.3052 14.8068C16.0314 15.7067 15.4825 16.4982 14.7356 17.07C16.063 17.6426 17.1716 18.6257 17.8988 19.875ZM12 16.5C12.5934 16.5 13.1734 16.3241 13.6667 15.9945C14.1601 15.6648 14.5446 15.1963 14.7716 14.6481C14.9987 14.0999 15.0581 13.4967 14.9424 12.9148C14.8266 12.3328 14.5409 11.7983 14.1213 11.3787C13.7018 10.9592 13.1672 10.6734 12.5853 10.5577C12.0033 10.4419 11.4001 10.5013 10.852 10.7284C10.3038 10.9555 9.83525 11.34 9.5056 11.8333C9.17596 12.3267 9.00001 12.9067 9.00001 13.5C9.00001 14.2957 9.31608 15.0588 9.87869 15.6214C10.4413 16.184 11.2044 16.5 12 16.5ZM6.75001 11.25C6.75001 11.0511 6.67099 10.8604 6.53034 10.7197C6.38969 10.5791 6.19892 10.5 6.00001 10.5C5.57919 10.5 5.16682 10.382 4.80973 10.1593C4.45264 9.93665 4.16515 9.61831 3.97991 9.24046C3.79468 8.8626 3.71912 8.44037 3.76182 8.02173C3.80452 7.60308 3.96377 7.2048 4.22149 6.87213C4.4792 6.53946 4.82504 6.28572 5.21973 6.13975C5.61442 5.99378 6.04213 5.96142 6.45429 6.04634C6.86645 6.13127 7.24653 6.33008 7.55136 6.62019C7.85619 6.91031 8.07355 7.28009 8.17876 7.68755C8.22849 7.88024 8.35273 8.04529 8.52415 8.14639C8.69557 8.24748 8.90013 8.27634 9.09282 8.22661C9.28552 8.17688 9.45057 8.05264 9.55166 7.88122C9.65276 7.7098 9.68161 7.50524 9.63188 7.31255C9.48586 6.74753 9.20999 6.22439 8.82621 5.78475C8.44243 5.34511 7.96134 5.00111 7.42122 4.78012C6.88109 4.55913 6.29685 4.46725 5.71497 4.51179C5.13309 4.55633 4.56964 4.73606 4.06944 5.03668C3.56924 5.3373 3.14611 5.75051 2.83372 6.24344C2.52132 6.73636 2.32828 7.2954 2.26995 7.87606C2.21162 8.45672 2.28962 9.04297 2.49774 9.58819C2.70586 10.1334 3.03835 10.6225 3.46876 11.0166C2.44996 11.4586 1.56443 12.1593 0.90001 13.0491C0.780538 13.2082 0.729174 13.4083 0.757216 13.6053C0.785259 13.8023 0.890411 13.9801 1.04954 14.0996C1.20867 14.219 1.40874 14.2704 1.60574 14.2424C1.80275 14.2143 1.98054 14.1092 2.10001 13.95C2.55206 13.3424 3.14046 12.8494 3.81785 12.5107C4.49523 12.172 5.24268 11.9971 6.00001 12C6.19892 12 6.38969 11.921 6.53034 11.7804C6.67099 11.6397 6.75001 11.449 6.75001 11.25Z" fill="#92722A"/>
</svg>
