<svg id="Business_User" data-name="Business User" xmlns="http://www.w3.org/2000/svg" xmlns:xlink="http://www.w3.org/1999/xlink" width="38.647" height="21.401" viewBox="0 0 38.647 21.401">
  <defs>
    <clipPath id="clip-path">
      <rect id="Rectangle_2584" data-name="Rectangle 2584" width="38.647" height="21.401" fill="#0f0f0f"/>
    </clipPath>
  </defs>
  <g id="Group_96293" data-name="Group 96293" clip-path="url(#clip-path)">
    <path id="Path_82339" data-name="Path 82339" d="M31.134,28.284c.1-.344.193-.636.276-.93s.149-.571.234-.853a.689.689,0,0,0-.227-.848.473.473,0,0,1,.1-.829,1.616,1.616,0,0,1,1.423.006.475.475,0,0,1,.126.823.723.723,0,0,0-.231.837c.163.6.326,1.2.5,1.833a.529.529,0,0,0,.066-.091q.517-1.7,1.031-3.4a1.692,1.692,0,0,0,.062-.253c.029-.209.053-.227.255-.14.382.165.752.362,1.144.494.41.14.842.217,1.262.327a6.751,6.751,0,0,1,2.482.935,2.357,2.357,0,0,1,.879,1.5A24.326,24.326,0,0,1,40.749,31c.044.636.082,1.273.108,1.91a1.8,1.8,0,0,1-.058.594.825.825,0,0,1-.734.552q-1.6.232-3.211.428a41.9,41.9,0,0,1-5.273.245,27.831,27.831,0,0,1-3.481-.2c-.938-.124-1.882-.2-2.822-.308-.334-.038-.668-.094-1-.165a.841.841,0,0,1-.67-.889c.012-.541.063-1.081.09-1.622.027-.57.068-1.14.061-1.71A10.78,10.78,0,0,1,24,27.5a2.143,2.143,0,0,1,1.268-1.568c.441-.2.917-.33,1.375-.5.317-.114.655-.138.975-.222a6.53,6.53,0,0,0,1.974-.744c.133-.087.231-.068.283.08.114.329.217.661.329.99.187.551.381,1.1.567,1.652.089.266.165.536.25.8.025.081.062.159.113.289" transform="translate(-12.911 -13.337)" fill="#0f0f0f"/>
    <path id="Path_82340" data-name="Path 82340" d="M58.791,24.464a2.525,2.525,0,0,1,.368-.154,6.73,6.73,0,0,0,1.629-.508l.532-.282c.442,1.088.718,2.226,1.152,3.36.082-.229.159-.417.218-.612.109-.359.208-.721.31-1.082a.435.435,0,0,0-.141-.531c-.327-.263-.346-.443-.127-.681A.442.442,0,0,1,63,23.837a6.4,6.4,0,0,1,.884,0,.4.4,0,0,1,.308.615.639.639,0,0,1-.143.193.487.487,0,0,0-.141.6c.152.493.276.994.413,1.491a1.887,1.887,0,0,0,.08.185l1.068-3.435c.131.066.245.118.353.18a6.987,6.987,0,0,0,2.118.681,4.9,4.9,0,0,1,1.605.567,1.986,1.986,0,0,1,1.012,1.6c.088,1.15.144,2.3.208,3.455.02.362.028.724.031,1.087a.579.579,0,0,1-.443.64,1.6,1.6,0,0,1-.33.086,44.874,44.874,0,0,1-5.894.578c-.919.014-1.839-.033-2.758-.046-.186,0-.241-.07-.249-.262-.06-1.455-.12-2.91-.213-4.364a3.64,3.64,0,0,0-.765-2.226,7.651,7.651,0,0,0-.958-.852,1.541,1.541,0,0,0-.393-.155" transform="translate(-32.149 -12.845)" fill="#0f0f0f"/>
    <path id="Path_82341" data-name="Path 82341" d="M9.922,27.488c-.041.617-.09,1.211-.119,1.805-.05,1.019-.087,2.039-.131,3.058-.011.264-.011.267-.278.268-1.1,0-2.206.027-3.307-.009-.925-.03-1.848-.145-2.772-.2a14.089,14.089,0,0,1-2.53-.475,4.417,4.417,0,0,1-.625-.221.269.269,0,0,1-.138-.168,1.222,1.222,0,0,1-.015-.359c.075-.869.131-1.741.244-2.6a7.235,7.235,0,0,1,.369-1.63,2.9,2.9,0,0,1,1.623-1.628c.762-.334,1.535-.642,2.3-.963.111-.046.216-.106.328-.151a.765.765,0,0,1,.245-.05A7.665,7.665,0,0,0,3.6,26.317H4.768c-.054.221-.086.4-.144.568a.155.155,0,0,0,.082.225q1.351.782,2.7,1.575a.294.294,0,0,0,.334.01q.916-.528,1.838-1.046c.109-.061.227-.1.348-.16" transform="translate(0 -13.214)" fill="#0f0f0f"/>
    <path id="Path_82342" data-name="Path 82342" d="M14.354,11.8c.071-.406.147-.773.2-1.144a2.234,2.234,0,0,0-.951-2.3,1.175,1.175,0,0,0-.133-.061c.169.416.559.674.565,1.15a.822.822,0,0,1-.2-.13A10.523,10.523,0,0,0,11.681,7.54a3.2,3.2,0,0,1-1.195-1.557,2.389,2.389,0,0,0-.123-.248A5.61,5.61,0,0,0,9.1,11.787c-.435,0-.837.009-1.238-.008-.072,0-.165-.1-.2-.181a4.681,4.681,0,0,1-.467-2.54A6.366,6.366,0,0,1,8.362,5.679,3.746,3.746,0,0,1,10.15,4.231a4.369,4.369,0,0,1,1.695-.167,3.411,3.411,0,0,1,1.318.248,1.784,1.784,0,0,1,.315.179,5.551,5.551,0,0,1,1.915,2.56,7,7,0,0,1,.429,2.785,4.475,4.475,0,0,1-.41,1.732.362.362,0,0,1-.361.234h-.7" transform="translate(-3.925 -2.215)" fill="#0f0f0f"/>
    <path id="Path_82343" data-name="Path 82343" d="M41.413,3.562c-.031.327-.06.655-.1.982a.381.381,0,0,0,.188.411.664.664,0,0,1,.291.734,2.433,2.433,0,0,1-.424,1.117c-.466.712-.886,1.459-1.4,2.139a2.627,2.627,0,0,1-2.438,1.111A2.731,2.731,0,0,1,35.47,8.8c-.5-.744-.971-1.513-1.446-2.275a1.831,1.831,0,0,1-.279-.975.674.674,0,0,1,.276-.6.444.444,0,0,0,.192-.433c-.019-.483-.048-.966-.041-1.448a2.78,2.78,0,0,1,1.839-2.7A4.3,4.3,0,0,1,39.789.5,2.83,2.83,0,0,1,41.4,3.057c.008.168,0,.336,0,.5h.011m-.694,1.687c.033-.327.061-.619.091-.912s.018-.29-.281-.334c-.682-.1-1.368-.2-2.042-.344A4.594,4.594,0,0,1,36.544,2.6a.742.742,0,0,0-.977-.059,1.676,1.676,0,0,0-.83,1.65c.027.338.063.675.094,1.012-.014.006-.027.016-.039.015a.9.9,0,0,1-.1-.019c-.331-.079-.408-.027-.456.32a.43.43,0,0,0,.01.2,7.089,7.089,0,0,0,.355.913c.307.581.644,1.146.977,1.712a2.465,2.465,0,0,0,3.489.94,2.607,2.607,0,0,0,.805-.8c.446-.684.837-1.406,1.239-2.119a1.183,1.183,0,0,0,.119-1.026c-.05-.138-.111-.2-.265-.141a1.355,1.355,0,0,1-.249.053" transform="translate(-18.453)" fill="#0f0f0f"/>
    <path id="Path_82344" data-name="Path 82344" d="M64.835,2.645a3.381,3.381,0,0,1,2.227.673,2.421,2.421,0,0,1,.938,2,10.531,10.531,0,0,1-.069,1.145.437.437,0,0,0,.174.4.445.445,0,0,1,.172.271,2.228,2.228,0,0,1-.108.9A11.284,11.284,0,0,1,66.58,10.5a2.209,2.209,0,0,1-2.571.584,2.9,2.9,0,0,1-1.277-1.165c-.348-.557-.7-1.112-1.041-1.671a1.457,1.457,0,0,1-.246-1,1.263,1.263,0,0,1,.172-.339,1.033,1.033,0,0,0,.169-.358c.019-.442,0-.886.006-1.329A2.409,2.409,0,0,1,63.44,2.878a5.009,5.009,0,0,1,.811-.235,3.162,3.162,0,0,1,.583-.007m-2.47,4.413c-.525,0-.632.149-.475.624a3.228,3.228,0,0,0,.232.555c.29.522.581,1.044.9,1.549a2.73,2.73,0,0,0,.532.622,2.222,2.222,0,0,0,1.989.343,1.78,1.78,0,0,0,1.185-.9c.369-.615.715-1.244,1.052-1.877a1.182,1.182,0,0,0,.112-.5c.014-.4-.052-.448-.443-.373a.242.242,0,0,1-.055-.018c.034-.261.064-.525.1-.789.02-.136-.014-.221-.163-.242-.252-.035-.5-.094-.754-.11A4.4,4.4,0,0,1,63.844,4.84.634.634,0,0,0,63,4.763a1.446,1.446,0,0,0-.713,1.465c.033.271.049.543.074.829" transform="translate(-33.593 -1.44)" fill="#0f0f0f"/>
    <path id="Path_82345" data-name="Path 82345" d="M14.4,27.32a2.644,2.644,0,0,1-1.586-.562,1.815,1.815,0,0,1-.247-.263c-.143-.173-.056-.3.08-.43a.245.245,0,0,1,.356,0,5.18,5.18,0,0,0,.474.338,1.969,1.969,0,0,0,2.192-.2c.042-.034.085-.066.125-.1a.248.248,0,0,1,.386,0c.137.13.17.274.056.407a2.263,2.263,0,0,1-.459.414,2.737,2.737,0,0,1-1.377.4" transform="translate(-6.831 -14.21)" fill="#0f0f0f"/>
  </g>
</svg>
