<svg width="30" height="30" viewBox="0 0 30 30" fill="none" xmlns="http://www.w3.org/2000/svg">
<path d="M29 15C29 7.26801 22.732 1 15 1C7.26801 1 1 7.26801 1 15C1 22.732 7.26801 29 15 29C22.732 29 29 22.732 29 15Z" stroke="#B68A35"/>
<path d="M21.0675 20.1826C21.1256 20.2408 21.1717 20.3097 21.2031 20.3856C21.2345 20.4614 21.2507 20.5428 21.2507 20.6248C21.2507 20.707 21.2345 20.7883 21.2031 20.8641C21.1717 20.94 21.1256 21.009 21.0675 21.067C21.0094 21.1251 20.9405 21.1712 20.8646 21.2026C20.7888 21.234 20.7074 21.2502 20.6253 21.2502C20.5433 21.2502 20.4619 21.234 20.3861 21.2026C20.3102 21.1712 20.2413 21.1251 20.1831 21.067L15.0003 15.8835L9.81754 21.067C9.70026 21.1843 9.5412 21.2502 9.37535 21.2502C9.20949 21.2502 9.05044 21.1843 8.93316 21.067C8.81588 20.9498 8.75 20.7907 8.75 20.6248C8.75 20.459 8.81589 20.3 8.93316 20.1826L14.1168 14.9998L8.93316 9.81705C8.81588 9.69977 8.75 9.54071 8.75 9.37486C8.75 9.20901 8.81588 9.04995 8.93316 8.93267C9.05044 8.81539 9.20949 8.74951 9.37535 8.74951C9.5412 8.74951 9.70026 8.81539 9.81754 8.93267L15.0003 14.1163L20.1831 8.93267C20.3004 8.8154 20.4595 8.74951 20.6253 8.74951C20.7912 8.74951 20.9503 8.81539 21.0675 8.93267C21.1848 9.04995 21.2507 9.20901 21.2507 9.37486C21.2507 9.54071 21.1848 9.69977 21.0675 9.81705L15.8839 14.9998L21.0675 20.1826Z" fill="#B68A35"/>
</svg>
