<svg width="30" height="30" viewBox="0 0 30 30" fill="none" xmlns="http://www.w3.org/2000/svg">
<path d="M29 15C29 7.26801 22.732 1 15 1C7.26801 1 1 7.26801 1 15C1 22.732 7.26801 29 15 29C22.732 29 29 22.732 29 15Z" fill="#E6D7A2" stroke="#B68A35"/>
<path d="M20.625 8.49951C20.857 8.4996 21.0791 8.59224 21.2432 8.75635C21.4073 8.92044 21.4999 9.1425 21.5 9.37451C21.5 9.60666 21.4074 9.82947 21.2432 9.99365L16.2373 14.9995L21.2432 20.0054V20.0063C21.3244 20.0876 21.3896 20.1834 21.4336 20.2896L21.4619 20.3706C21.4869 20.4528 21.5 20.5383 21.5 20.6245C21.5 20.7394 21.4775 20.8534 21.4336 20.9595C21.3897 21.0656 21.3244 21.1614 21.2432 21.2427L21.2441 21.2437C21.1629 21.325 21.0662 21.3901 20.96 21.4341V21.4331C20.8539 21.4771 20.7399 21.5004 20.625 21.5005C20.5102 21.5005 20.3962 21.4771 20.29 21.4331V21.4341C20.1837 21.3901 20.0872 21.325 20.0059 21.2437L15 16.2368L9.99414 21.2437C9.82997 21.4079 9.60714 21.5005 9.375 21.5005C9.14296 21.5004 8.91995 21.4078 8.75586 21.2437V21.2427C8.59219 21.0786 8.5 20.8563 8.5 20.6245C8.50008 20.3927 8.59211 20.1704 8.75586 20.0063L13.7627 14.9995L8.75684 9.99365C8.59268 9.82949 8.5 9.60666 8.5 9.37451C8.50009 9.14248 8.59275 8.92043 8.75684 8.75635C8.92092 8.59226 9.14297 8.4996 9.375 8.49951C9.60715 8.49951 9.82998 8.59218 9.99414 8.75635L15 13.7622L20.0059 8.75635C20.17 8.59223 20.3929 8.49951 20.625 8.49951Z" fill="#6C4527" stroke="#6C4527" stroke-width="0.5"/>
</svg>
