<svg xmlns="http://www.w3.org/2000/svg" width="22.158" height="23.733" viewBox="0 0 22.158 23.733">
  <g id="committess" transform="translate(-4257.1 -1004.73)">
    <path id="Path_82540" data-name="Path 82540" d="M7.081,8.866a6.539,6.539,0,0,1-1.117-.489,3.975,3.975,0,0,1-.244-.315l-.043-.876s.358-.215.459-1c0,0,.3.072.33-.588a.5.5,0,0,0-.158-.388s.861-1.994-.646-2.382c0,0-.66-.832-2.123,0,0,0-.99.7-.359,2.411,0,0-.459.387.158,1.019,0,0,.1.688.488.918l-.043.875s-.144.359-.99.689S1.056,9.31.985,10.458H5.914A1.753,1.753,0,0,1,7.081,8.866" transform="translate(4257.1 1004)" fill="#fec135"/>
    <path id="Path_82541" data-name="Path 82541" d="M19.921,8.961a9.676,9.676,0,0,1-1.349-.574,3.907,3.907,0,0,1-.244-.316L18.285,7.2s.359-.215.459-1c0,0,.3.071.33-.589a.493.493,0,0,0-.157-.387s.861-1.994-.646-2.382c0,0-.66-.832-2.124,0,0,0-.99.7-.358,2.411,0,0-.459.387.157,1.018,0,0,.1.689.488.919l-.043.875s-.143.359-.99.689c-.15.058-.3.114-.45.173a1.859,1.859,0,0,1,1.056,1.549h5.1a1.732,1.732,0,0,0-1.191-1.507" transform="translate(4257.1 1004)" fill="#fec135"/>
    <path id="Path_82542" data-name="Path 82542" d="M14.7,9.263a3.6,3.6,0,0,0-.329-.173,12.4,12.4,0,0,1-1.735-.739,5.068,5.068,0,0,1-.314-.406l-.056-1.126s.462-.277.591-1.293c0,0,.388.093.425-.757a.638.638,0,0,0-.2-.5s1.107-2.566-.831-3.065c0,0-.849-1.071-2.733,0,0,0-1.273.905-.461,3.1,0,0-.591.5.2,1.311,0,0,.129.886.628,1.181L9.828,7.927s-.184.461-1.274.886c-.337.131-.68.252-.995.4a2,2,0,0,0-1.331,1.814H15.9a2.117,2.117,0,0,0-1.2-1.765" transform="translate(4257.1 1004)" fill="#fec135"/>
    <path id="Path_82543" data-name="Path 82543" d="M22.158,10.922H0v1.723H1.067v1.313H21.091V12.645h1.067Z" transform="translate(4257.1 1004)" fill="#fec135"/>
    <rect id="Rectangle_6939" data-name="Rectangle 6939" width="20.763" height="2.216" transform="translate(4257.797 1026.247)" fill="#fec135"/>
    <rect id="Rectangle_6940" data-name="Rectangle 6940" width="3.118" height="4.267" transform="translate(4260.523 1020.038)" fill="#fec135"/>
    <rect id="Rectangle_6941" data-name="Rectangle 6941" width="3.118" height="4.267" transform="translate(4266.589 1020.038)" fill="#fec135"/>
    <rect id="Rectangle_6942" data-name="Rectangle 6942" width="3.118" height="4.267" transform="translate(4272.655 1020.038)" fill="#fec135"/>
    <path id="Path_82544" data-name="Path 82544" d="M1.6,21.837H20.557V14.779H1.6ZM7.3,20.77H2.786V15.436H7.3Zm6.036,0H8.822V15.436h4.514Zm6.035,0H14.857V15.436h4.514Z" transform="translate(4257.1 1004)" fill="#fec135"/>
  </g>
</svg>
