<svg xmlns="http://www.w3.org/2000/svg" width="20.422" height="23.355" viewBox="0 0 20.422 23.355">
  <g id="Committee_membars" data-name="Committee membars" transform="translate(-4291.165 -1004)">
    <path id="Path_82545" data-name="Path 82545" d="M38.409,7.846a1.574,1.574,0,1,0-1.574-1.574,1.574,1.574,0,0,0,1.574,1.574" transform="translate(4257.1 1004)" fill="#fec135"/>
    <path id="Path_82546" data-name="Path 82546" d="M38.041,9.66l.368,1.021.368-.973-.368-1.5Z" transform="translate(4257.1 1004)" fill="#fec135"/>
    <path id="Path_82547" data-name="Path 82547" d="M45.85,6.272a1.574,1.574,0,1,0-1.574,1.574A1.574,1.574,0,0,0,45.85,6.272" transform="translate(4257.1 1004)" fill="#fec135"/>
    <path id="Path_82548" data-name="Path 82548" d="M42.844,7.924a1.945,1.945,0,0,0-1.307,1.833c-.056,1.041-.066,1.593-.066,1.836l-.256,0V9.43a.813.813,0,0,0-.042-.263c-.132-.394-.575-1.529-1.249-1.482l-1.514,3.39-1.432-3.39a1.944,1.944,0,0,0-1.307,1.833c-.081,1.494-.066,1.995-.066,1.995l.112.006-.423-.006L34.065,13.06h7.751a2.684,2.684,0,0,1-.04-.392,2.732,2.732,0,0,1,.164-.9c.019-.054.029-.112.052-.165a2.752,2.752,0,0,1,1.747-1.557Z" transform="translate(4257.1 1004)" fill="#fec135"/>
    <path id="Path_82549" data-name="Path 82549" d="M47.04,9.406c-.134-.394-.575-1.529-1.25-1.482l-.905,2.025a2.751,2.751,0,0,1,2.2,1.691V9.669a.813.813,0,0,0-.042-.263" transform="translate(4257.1 1004)" fill="#fec135"/>
    <path id="Path_82550" data-name="Path 82550" d="M44.53,9.913c.012,0,.023,0,.035,0l.079-.209-.368-1.5L43.908,9.66l.109.305a2.712,2.712,0,0,1,.513-.052" transform="translate(4257.1 1004)" fill="#fec135"/>
    <path id="Path_82551" data-name="Path 82551" d="M48.516,6.272A1.574,1.574,0,1,0,50.09,4.7a1.574,1.574,0,0,0-1.574,1.574" transform="translate(4257.1 1004)" fill="#fec135"/>
    <path id="Path_82552" data-name="Path 82552" d="M50.09,11.075l-1.433-3.39A1.945,1.945,0,0,0,47.35,9.518a11.175,11.175,0,0,1-.265,2.134l0-.012v.026h.008a2.734,2.734,0,0,1,.195,1,2.656,2.656,0,0,1-.04.391h7.242L53.3,11.746l-.4-.005V9.43a.809.809,0,0,0-.042-.263c-.133-.394-.575-1.529-1.249-1.482Z" transform="translate(4257.1 1004)" fill="#fec135"/>
    <path id="Path_82553" data-name="Path 82553" d="M50.09,8.209,49.722,9.66l.368,1.022.368-.974Z" transform="translate(4257.1 1004)" fill="#fec135"/>
    <path id="Path_82554" data-name="Path 82554" d="M34.065,13.313V14.33h8.283a2.726,2.726,0,0,1-.488-1.017Z" transform="translate(4257.1 1004)" fill="#fec135"/>
    <path id="Path_82555" data-name="Path 82555" d="M46.712,14.33h7.775V13.313H47.2a2.726,2.726,0,0,1-.488,1.017" transform="translate(4257.1 1004)" fill="#fec135"/>
    <path id="Path_82556" data-name="Path 82556" d="M41.215,5.273A1.619,1.619,0,1,0,39.6,3.654a1.619,1.619,0,0,0,1.619,1.619" transform="translate(4257.1 1004)" fill="#fec135"/>
    <path id="Path_82557" data-name="Path 82557" d="M47.469,5.273A1.619,1.619,0,1,0,45.85,3.654a1.619,1.619,0,0,0,1.619,1.619" transform="translate(4257.1 1004)" fill="#fec135"/>
    <path id="Path_82558" data-name="Path 82558" d="M44.276,3.239A1.62,1.62,0,1,0,42.657,1.62a1.619,1.619,0,0,0,1.619,1.619" transform="translate(4257.1 1004)" fill="#fec135"/>
    <path id="Path_82559" data-name="Path 82559" d="M42.911,12.539A1.62,1.62,0,1,0,44.53,10.92a1.619,1.619,0,0,0-1.619,1.619" transform="translate(4257.1 1004)" fill="#fec135"/>
    <path id="Path_82560" data-name="Path 82560" d="M45.232,14.456H44.055a1.28,1.28,0,0,0-1.28,1.281v2.49a1.275,1.275,0,0,0,.7,1.133v3.465a.529.529,0,1,0,1.059,0V19.507h.3v3.318a.53.53,0,0,0,1.06,0v-3.5a1.274,1.274,0,0,0,.627-1.1v-2.49a1.281,1.281,0,0,0-1.281-1.281" transform="translate(4257.1 1004)" fill="#fec135"/>
  </g>
</svg>
