<svg xmlns="http://www.w3.org/2000/svg" xmlns:xlink="http://www.w3.org/1999/xlink" width="20.597" height="22.907" viewBox="0 0 20.597 22.907">
  <defs>
    <clipPath id="clip-path">
      <rect id="Rectangle_6927" data-name="Rectangle 6927" width="20.597" height="22.907" transform="translate(0 0)" fill="#fdfdfd"/>
    </clipPath>
  </defs>
  <g id="constituency_icon" data-name="constituency icon" transform="translate(0 0)">
    <g id="Group_96789" data-name="Group 96789" clip-path="url(#clip-path)">
      <path id="Path_82518" data-name="Path 82518" d="M4.405,10.068C5.036,11,5.664,11.924,6.3,12.849c.889,1.3,1.773,2.594,2.675,3.88a1.522,1.522,0,0,0,2.665.011c1.427-2.052,2.826-4.122,4.239-6.183a3.893,3.893,0,0,1,.64-.844,1.853,1.853,0,0,1,1.733-.3c1.539.345,1.792,1.65,2.325,2.756.077.159-.084.481-.21.681-.255.406-.563.778-.847,1.167a2.337,2.337,0,0,0-.554,1.409c-.009,1.215-.1,2.43-.161,3.645-.033.663-.332.966-.983.9a1.054,1.054,0,0,0-1.147.673c-.474.907-.653.984-1.608.633a1.8,1.8,0,0,0-1.488.061c-1.132.53-2.284,1.02-3.446,1.479a1.618,1.618,0,0,1-.969.038A25.656,25.656,0,0,1,6.682,22a1.639,1.639,0,0,1-.7-.594,13.865,13.865,0,0,1-.784-1.464.978.978,0,0,0-.91-.637,3.557,3.557,0,0,1-2.991-1.579c-.117-.157-.276-.282-.407-.428a.846.846,0,0,1,.04-1.353c.765-.75.666-1.263-.327-1.707a.8.8,0,0,1-.234-1.445,2.352,2.352,0,0,1,1.685-.7,1.045,1.045,0,0,0,1.127-.7,1.961,1.961,0,0,1,1.229-1.321" fill="#fdfdfd"/>
      <path id="Path_82519" data-name="Path 82519" d="M16.574,6.8A5.8,5.8,0,0,1,15.492,9.79q-2.209,3.224-4.444,6.433c-.445.642-1,.683-1.416.077C8.083,14.07,6.509,11.856,5.02,9.585a6.168,6.168,0,0,1,.393-7.224A6.293,6.293,0,0,1,12.378.344c2.5.865,4.183,3.232,4.2,6.46M5.884,6.058a4.429,4.429,0,1,0,4.431-4.449A4.435,4.435,0,0,0,5.884,6.058" fill="#fdfdfd"/>
      <path id="Path_82520" data-name="Path 82520" d="M10.514,5.395C9.522,6.287,9.3,6.953,9.771,7.56c.5.648,1.039.6,2.413-.165a1.821,1.821,0,0,1-.258.39c-.63.557-1.279,1.093-1.908,1.652-.286.254-.486.238-.747-.1C8.53,8.372,7.733,7.453,6.9,6.565c-.292-.312-.263-.509.044-.756.628-.5,1.262-1,1.839-1.565.287-.279.491-.329.733-.025.311.392.645.765,1,1.176" fill="#fdfdfd"/>
      <path id="Path_82521" data-name="Path 82521" d="M11.66,5.536,10.361,4c.779-.26,1.486-.52,2.21-.711.121-.032.345.217.482.372.944,1.066.915,1.392-.215,2.221A20.4,20.4,0,0,1,11.113,7.05a.478.478,0,0,1-.246.054.392.392,0,0,1-.38-.494.463.463,0,0,1,.1-.191,10.449,10.449,0,0,1,1.074-.883" fill="#fdfdfd"/>
    </g>
  </g>
</svg>
