<svg width="59" height="58" viewBox="0 0 59 58" fill="none" xmlns="http://www.w3.org/2000/svg">
<path d="M15.9156 51.2345C20.6931 51.2345 24.5661 47.3615 24.5661 42.584C24.5661 37.8065 20.6931 33.9336 15.9156 33.9336C11.1381 33.9336 7.26514 37.8065 7.26514 42.584C7.26514 47.3615 11.1381 51.2345 15.9156 51.2345Z" stroke="url(#paint0_linear_2011_1215)" stroke-width="2" stroke-miterlimit="10" stroke-linecap="round" stroke-linejoin="round"/>
<path d="M12.3326 29.488C14.3973 27.7285 17.4341 27.7285 19.4988 29.488C20.3836 30.242 21.4836 30.6977 22.6424 30.7902C25.3465 31.006 27.4938 33.1533 27.7096 35.8574C27.802 37.0161 28.2577 38.1162 29.0117 39.001C30.7713 41.0657 30.7713 44.1024 29.0117 46.1671C28.2578 47.0519 27.802 48.1519 27.7096 49.3107C27.4938 52.0148 25.3465 54.1621 22.6424 54.3779C21.4837 54.4704 20.3836 54.926 19.4988 55.6801C17.4341 57.4396 14.3973 57.4396 12.3326 55.6801C11.4478 54.9261 10.3478 54.4704 9.18899 54.3779C6.48489 54.1621 4.33759 52.0148 4.12182 49.3107C4.02936 48.152 3.5737 47.0519 2.81965 46.1671C1.06012 44.1024 1.06012 41.0657 2.81965 39.001C3.57359 38.1162 4.02936 37.0162 4.12182 35.8574C4.33759 33.1533 6.48489 31.006 9.18899 30.7902C10.3477 30.6977 11.4478 30.2421 12.3326 29.488Z" stroke="url(#paint1_linear_2011_1215)" stroke-width="2" stroke-miterlimit="10" stroke-linecap="round" stroke-linejoin="round"/>
<path d="M42.9763 21.5353C45.9658 19.1192 49.2671 17.106 52.8236 15.6226C53.7134 15.2515 54.547 14.7039 55.271 13.9799C58.2684 10.9825 58.2426 6.10704 55.1938 3.14192C52.1875 0.21817 47.3256 0.298627 44.4131 3.31586C43.7752 3.97677 43.2803 4.72465 42.9287 5.52053C41.3652 9.05901 39.3946 12.3969 37.0059 15.4158" stroke="url(#paint2_linear_2011_1215)" stroke-width="2" stroke-miterlimit="10" stroke-linejoin="round"/>
<path d="M45.1459 36.9389L21.5498 13.3429L17.9941 16.8986L41.5902 40.4946L45.1459 36.9389Z" stroke="url(#paint3_linear_2011_1215)" stroke-width="2" stroke-miterlimit="10" stroke-linecap="round" stroke-linejoin="round"/>
<path d="M42.7398 34.5328L45.9759 31.2967C47.8194 29.4532 47.8194 26.4643 45.9759 24.6208L33.8686 12.5136C32.0251 10.67 29.0362 10.67 27.1926 12.5136L23.9565 15.7497" stroke="url(#paint4_linear_2011_1215)" stroke-width="2" stroke-miterlimit="10" stroke-linejoin="round"/>
<path d="M19.2164 40.2397L15.0482 44.4079L12.6143 41.974" stroke="url(#paint5_linear_2011_1215)" stroke-width="2" stroke-miterlimit="10" stroke-linecap="round" stroke-linejoin="round"/>
<defs>
<linearGradient id="paint0_linear_2011_1215" x1="15.9156" y1="33.9336" x2="15.9156" y2="51.2345" gradientUnits="userSpaceOnUse">
<stop stop-color="#CBA344"/>
<stop offset="1" stop-color="#92722A"/>
<stop offset="1" stop-color="#92722A"/>
</linearGradient>
<linearGradient id="paint1_linear_2011_1215" x1="15.9157" y1="28.1684" x2="15.9157" y2="56.9997" gradientUnits="userSpaceOnUse">
<stop stop-color="#CBA344"/>
<stop offset="1" stop-color="#92722A"/>
<stop offset="1" stop-color="#92722A"/>
</linearGradient>
<linearGradient id="paint2_linear_2011_1215" x1="47.2529" y1="1" x2="47.2529" y2="21.5353" gradientUnits="userSpaceOnUse">
<stop stop-color="#CBA344"/>
<stop offset="1" stop-color="#92722A"/>
<stop offset="1" stop-color="#92722A"/>
</linearGradient>
<linearGradient id="paint3_linear_2011_1215" x1="33.3479" y1="25.1409" x2="29.7922" y2="28.6966" gradientUnits="userSpaceOnUse">
<stop stop-color="#CBA344"/>
<stop offset="1" stop-color="#92722A"/>
<stop offset="1" stop-color="#92722A"/>
</linearGradient>
<linearGradient id="paint4_linear_2011_1215" x1="35.6575" y1="11.1309" x2="35.6575" y2="34.5328" gradientUnits="userSpaceOnUse">
<stop stop-color="#CBA344"/>
<stop offset="1" stop-color="#92722A"/>
<stop offset="1" stop-color="#92722A"/>
</linearGradient>
<linearGradient id="paint5_linear_2011_1215" x1="15.9153" y1="40.2397" x2="15.9153" y2="44.4079" gradientUnits="userSpaceOnUse">
<stop stop-color="#CBA344"/>
<stop offset="1" stop-color="#92722A"/>
<stop offset="1" stop-color="#92722A"/>
</linearGradient>
</defs>
</svg>
