<svg width="58" height="58" viewBox="0 0 58 58" fill="none" xmlns="http://www.w3.org/2000/svg">
<path d="M19.7826 29.8258C14.1621 29.8258 9.60571 25.2696 9.60571 19.6491V7.292C9.60571 3.81697 12.4228 1 15.8977 1H29.9593V19.6491C29.9593 25.2695 25.4031 29.8258 19.7826 29.8258Z" stroke="url(#paint0_linear_2011_1273)" stroke-width="2" stroke-miterlimit="10" stroke-linejoin="round"/>
<path d="M37.2827 35.1054C35.5347 31.9571 32.1765 29.8259 28.3202 29.8259H11.2447C5.5868 29.8259 1 34.4126 1 40.0707V49.5645H33.5193" stroke="url(#paint1_linear_2011_1273)" stroke-width="2" stroke-miterlimit="10" stroke-linecap="round" stroke-linejoin="round"/>
<path d="M9.60571 13.0352H21.7013C26.2621 13.0352 29.9593 9.33799 29.9593 4.77722V1" stroke="url(#paint2_linear_2011_1273)" stroke-width="2" stroke-miterlimit="10"/>
<path d="M44.7719 56.9997C51.5253 56.9997 57.0001 51.525 57.0001 44.7715C57.0001 38.0181 51.5253 32.5434 44.7719 32.5434C38.0184 32.5434 32.5437 38.0181 32.5437 44.7715C32.5437 51.525 38.0184 56.9997 44.7719 56.9997Z" stroke="url(#paint3_linear_2011_1273)" stroke-width="2" stroke-miterlimit="10"/>
<path d="M50.3632 41.6472L43.5728 48.4376L39.1812 44.046" stroke="url(#paint4_linear_2011_1273)" stroke-width="2" stroke-miterlimit="10" stroke-linecap="round" stroke-linejoin="round"/>
<defs>
<linearGradient id="paint0_linear_2011_1273" x1="19.7825" y1="1" x2="19.7825" y2="29.8258" gradientUnits="userSpaceOnUse">
<stop stop-color="#CBA344"/>
<stop offset="1" stop-color="#92722A"/>
<stop offset="1" stop-color="#92722A"/>
</linearGradient>
<linearGradient id="paint1_linear_2011_1273" x1="19.1413" y1="29.8259" x2="19.1413" y2="49.5645" gradientUnits="userSpaceOnUse">
<stop stop-color="#CBA344"/>
<stop offset="1" stop-color="#92722A"/>
<stop offset="1" stop-color="#92722A"/>
</linearGradient>
<linearGradient id="paint2_linear_2011_1273" x1="19.7825" y1="1" x2="19.7825" y2="13.0352" gradientUnits="userSpaceOnUse">
<stop stop-color="#CBA344"/>
<stop offset="1" stop-color="#92722A"/>
<stop offset="1" stop-color="#92722A"/>
</linearGradient>
<linearGradient id="paint3_linear_2011_1273" x1="44.7719" y1="32.5434" x2="44.7719" y2="56.9997" gradientUnits="userSpaceOnUse">
<stop stop-color="#CBA344"/>
<stop offset="1" stop-color="#92722A"/>
<stop offset="1" stop-color="#92722A"/>
</linearGradient>
<linearGradient id="paint4_linear_2011_1273" x1="44.7722" y1="41.6472" x2="44.7722" y2="48.4376" gradientUnits="userSpaceOnUse">
<stop stop-color="#CBA344"/>
<stop offset="1" stop-color="#92722A"/>
<stop offset="1" stop-color="#92722A"/>
</linearGradient>
</defs>
</svg>
