<svg id="Dashboard" xmlns="http://www.w3.org/2000/svg" xmlns:xlink="http://www.w3.org/1999/xlink" width="19.395" height="19.393" viewBox="0 0 19.395 19.393">
  <defs>
    <clipPath id="clip-path">
      <rect id="Rectangle_2579" data-name="Rectangle 2579" width="19.395" height="19.393" fill="#97722e"/>
    </clipPath>
  </defs>
  <g id="Group_96281" data-name="Group 96281" clip-path="url(#clip-path)">
    <path id="Path_82330" data-name="Path 82330" d="M4.3,29.254H7.471a1.824,1.824,0,0,1,.448.053.948.948,0,0,1,.684.951c.009.579,0,1.158,0,1.736v4.7a1.192,1.192,0,0,1-.175.713,1.026,1.026,0,0,1-.884.444q-3.247.007-6.494,0A1.04,1.04,0,0,1,0,36.709q0-.661,0-1.323v-5a1.178,1.178,0,0,1,.2-.717.943.943,0,0,1,.783-.411c.99-.006,1.979,0,2.969,0H4.3" transform="translate(0 -18.469)" fill="#97722e"/>
    <path id="Path_82331" data-name="Path 82331" d="M29.257,4.3V1.049A1.007,1.007,0,0,1,30.288.007h6.536a.959.959,0,0,1,.946.629,1.271,1.271,0,0,1,.092.471q.009,3.145,0,6.29a2.143,2.143,0,0,1-.048.47.963.963,0,0,1-.983.742c-.723.007-1.447,0-2.171,0H30.278A.981.981,0,0,1,29.259,7.6c-.013-.585,0-1.171-.006-1.756V4.3h0" transform="translate(-18.468 -0.002)" fill="#97722e"/>
    <path id="Path_82332" data-name="Path 82332" d="M8.606,4.316V7.577a1,1,0,0,1-.3.745.967.967,0,0,1-.7.278h-6.5a1.42,1.42,0,0,1-.5-.093.915.915,0,0,1-.585-.794A3.279,3.279,0,0,1,0,7.3V1.144A1.089,1.089,0,0,1,.461.175,1.112,1.112,0,0,1,1.1,0H7.538A1,1,0,0,1,8.6,1.046c.006,1.09,0,2.181,0,3.271" transform="translate(-0.001)" fill="#97722e"/>
    <path id="Path_82333" data-name="Path 82333" d="M34.63,32.486h2.179a1,1,0,0,1,.973.639,1.122,1.122,0,0,1-.387,1.329,1.157,1.157,0,0,1-.634.173H34.63v.115c0,.646.006,1.292,0,1.938a1.719,1.719,0,0,1-.09.543.925.925,0,0,1-.747.607,1.035,1.035,0,0,1-1.264-.738,1.394,1.394,0,0,1-.035-.34q0-1,0-2.009v-.11c-.047,0-.086-.006-.125-.006H30.35a1.073,1.073,0,0,1-.811-.32,1.118,1.118,0,0,1,.342-1.746,1.134,1.134,0,0,1,.4-.072c.667-.007,1.333,0,2,0,.192,0,.211-.024.211-.216,0-.683-.005-1.366.007-2.049a.984.984,0,0,1,.992-.966,1.134,1.134,0,0,1,.782.239,1.05,1.05,0,0,1,.363.852c.006.666,0,1.333,0,2v.138" transform="translate(-18.468 -18.472)" fill="#97722e"/>
  </g>
</svg>
