<svg xmlns="http://www.w3.org/2000/svg" width="21.523" height="21.659" viewBox="0 0 21.523 21.659">
  <g id="dashboard_icon_yellow_1_" data-name="dashboard_icon_yellow (1)" transform="translate(252.022 -181.53)">
    <path id="Path_82941" data-name="Path 82941" d="M-243.7,202.234h-6.537a1.781,1.781,0,0,0-1.78,1.78v6.537a1.781,1.781,0,0,0,1.78,1.78h6.537a1.78,1.78,0,0,0,1.78-1.78v-6.537A1.781,1.781,0,0,0-243.7,202.234Zm-.212,6.962a1.143,1.143,0,0,1-1.143,1.143h-3.827a1.143,1.143,0,0,1-1.143-1.143V205.37a1.143,1.143,0,0,1,1.143-1.143h3.827a1.143,1.143,0,0,1,1.143,1.143Z" transform="translate(0 -9.142)" fill="#fec135"/>
    <path id="Path_82942" data-name="Path 82942" d="M-223.245,181.53h-6.537a1.78,1.78,0,0,0-1.78,1.78v6.536a1.78,1.78,0,0,0,1.78,1.78h6.537a1.781,1.781,0,0,0,1.78-1.78V183.31a1.781,1.781,0,0,0-1.78-1.78Zm-.213,6.962a1.143,1.143,0,0,1-1.143,1.143h-3.826a1.143,1.143,0,0,1-1.143-1.143v-3.827a1.143,1.143,0,0,1,1.143-1.143h3.826a1.143,1.143,0,0,1,1.143,1.143Z" transform="translate(-9.034)" fill="#fec135"/>
    <rect id="Rectangle_6946" data-name="Rectangle 6946" width="10.097" height="10.097" rx="1" transform="translate(-240.596 193.092)" fill="#fec135"/>
    <rect id="Rectangle_6947" data-name="Rectangle 6947" width="10.097" height="10.097" rx="1" transform="translate(-252.022 181.53)" fill="#fec135"/>
  </g>
</svg>
