<svg xmlns="http://www.w3.org/2000/svg" xmlns:xlink="http://www.w3.org/1999/xlink" width="19.395" height="19.393" viewBox="0 0 19.395 19.393">
  <defs>
    <clipPath id="clip-path">
      <rect id="Rectangle_2579" data-name="Rectangle 2579" width="19.395" height="19.393" fill="#e6eaf8"/>
    </clipPath>
  </defs>
  <g id="Dashboard" transform="translate(0 0)">
    <g id="Group_96281" data-name="Group 96281" transform="translate(0 0)" clip-path="url(#clip-path)">
      <path id="Path_82330" data-name="Path 82330" d="M4.3,29.254c1.057,0,2.114,0,3.171,0a1.824,1.824,0,0,1,.448.053.948.948,0,0,1,.684.951c.009.579,0,1.158,0,1.736q0,2.352,0,4.7a1.192,1.192,0,0,1-.175.713,1.026,1.026,0,0,1-.884.444q-3.247.007-6.494,0A1.04,1.04,0,0,1,0,36.709c0-.441,0-.882,0-1.323q0-2.5,0-5a1.178,1.178,0,0,1,.2-.717.943.943,0,0,1,.783-.411c.99-.006,1.979,0,2.969,0H4.3v0" transform="translate(0 -18.469)" fill="#e6eaf8"/>
      <path id="Path_82331" data-name="Path 82331" d="M29.257,4.3q0-1.625,0-3.251A1.007,1.007,0,0,1,30.288.007c.966,0,1.932,0,2.9,0,1.212,0,2.423,0,3.636,0a.959.959,0,0,1,.946.629,1.271,1.271,0,0,1,.092.471q.009,3.145,0,6.29a2.143,2.143,0,0,1-.048.47.963.963,0,0,1-.983.742c-.723.007-1.447,0-2.171,0q-1.675,0-3.352,0c-.343,0-.686,0-1.03,0A.981.981,0,0,1,29.259,7.6c-.013-.585,0-1.171-.006-1.756q0-.772,0-1.545h0" transform="translate(-18.468 -0.002)" fill="#e6eaf8"/>
      <path id="Path_82332" data-name="Path 82332" d="M8.606,4.316q0,1.63,0,3.261a1,1,0,0,1-.3.745A.967.967,0,0,1,7.61,8.6c-.865,0-1.73,0-2.595,0-1.3,0-2.6,0-3.907,0a1.42,1.42,0,0,1-.5-.093.915.915,0,0,1-.585-.794A3.279,3.279,0,0,1,0,7.3Q0,4.223,0,1.144A1.089,1.089,0,0,1,.461.175,1.112,1.112,0,0,1,1.1,0C1.927,0,2.758,0,3.59,0L7.538,0A1,1,0,0,1,8.6,1.046c.006,1.09,0,2.181,0,3.271" transform="translate(-0.001 0)" fill="#e6eaf8"/>
      <path id="Path_82333" data-name="Path 82333" d="M34.63,32.486h.352c.609,0,1.218,0,1.827,0a1,1,0,0,1,.973.639,1.122,1.122,0,0,1-.387,1.329,1.157,1.157,0,0,1-.634.173c-.667,0-1.333,0-2,0H34.63v.115c0,.646.006,1.292,0,1.938a1.719,1.719,0,0,1-.09.543.925.925,0,0,1-.747.607,1.035,1.035,0,0,1-1.264-.738,1.394,1.394,0,0,1-.035-.34c0-.669,0-1.339,0-2.009v-.11c-.047,0-.086-.006-.125-.006-.673,0-1.346,0-2.019,0a1.073,1.073,0,0,1-.811-.32,1.118,1.118,0,0,1,.342-1.746,1.134,1.134,0,0,1,.4-.072c.667-.007,1.333,0,2,0,.192,0,.211-.024.211-.216,0-.683-.005-1.366.007-2.049a.984.984,0,0,1,.992-.966,1.134,1.134,0,0,1,.782.239,1.05,1.05,0,0,1,.363.852c.006.666,0,1.333,0,2v.138" transform="translate(-18.468 -18.472)" fill="#e6eaf8"/>
    </g>
  </g>
</svg>
