<svg xmlns="http://www.w3.org/2000/svg" width="50.266" height="50.272" viewBox="0 0 50.266 50.272">
  <g id="discounts_icon-02" data-name="discounts  icon-02" transform="translate(0)" opacity="0.48">
    <g id="Group_98216" data-name="Group 98216">
      <path id="Path_85121" data-name="Path 85121" d="M25.229,50.272a3.832,3.832,0,0,1-3.073-1.84,5.176,5.176,0,0,0-1.971-1.859,4.307,4.307,0,0,0-3.84.1,4.161,4.161,0,0,1-2.646.52,3.416,3.416,0,0,1-2.808-3.535,4.36,4.36,0,0,0-4.238-4.275A3.447,3.447,0,0,1,3.084,36.61a3.735,3.735,0,0,1,.449-2.526,4.318,4.318,0,0,0-1.555-5.875,5.077,5.077,0,0,1-1.121-.992,2.951,2.951,0,0,1,.03-4.188,10.115,10.115,0,0,1,1.441-1.223,4.191,4.191,0,0,0,1.446-5.054,13.075,13.075,0,0,1-.643-1.84,3.073,3.073,0,0,1,1.982-3.664,6.7,6.7,0,0,1,1.711-.375A4.233,4.233,0,0,0,10.87,6.835a6.652,6.652,0,0,1,.373-1.711,3.155,3.155,0,0,1,3.98-1.939,12.848,12.848,0,0,1,1.46.557,4.165,4.165,0,0,0,5.153-1.458A9.475,9.475,0,0,1,23.069.853,2.921,2.921,0,0,1,27.155.814a8.04,8.04,0,0,1,1.168,1.315,4.205,4.205,0,0,0,5.626,1.454,4.225,4.225,0,0,1,2.65-.5A3.384,3.384,0,0,1,39.37,6.581a4.409,4.409,0,0,0,4.342,4.32,3.24,3.24,0,0,1,3.437,2.8,4.541,4.541,0,0,1-.421,2.45,4.38,4.38,0,0,0,1.589,5.932,4.946,4.946,0,0,1,1.028.9,2.966,2.966,0,0,1,.013,4.284,9.6,9.6,0,0,1-1.391,1.181,4.177,4.177,0,0,0-1.461,5.1,12.429,12.429,0,0,1,.623,1.779,3.073,3.073,0,0,1-2.008,3.705,6.822,6.822,0,0,1-1.712.368,4.277,4.277,0,0,0-4.022,4A6.788,6.788,0,0,1,38.7,45.75a2.93,2.93,0,0,1-3.239,1.417,8.091,8.091,0,0,1-1.546-.5,4.188,4.188,0,0,0-5.569,1.463,4.457,4.457,0,0,1-2.6,2.05c-.19.042-.383.07-.511.093M2.869,25.136c.446.361.766.651,1.117.9a7.1,7.1,0,0,1,2.4,8.871c-.611,1.324-.545,1.5.877,1.587a7.13,7.13,0,0,1,6.515,6.543c.083,1.383.281,1.458,1.553.862a7.089,7.089,0,0,1,8.881,2.358c.258.366.562.7.919,1.14.367-.457.682-.809.952-1.192a7.081,7.081,0,0,1,8.3-2.525c.425.165.839.36,1.267.517.413.152.674.013.731-.447.058-.475.1-.955.19-1.424A7.039,7.039,0,0,1,43,36.5c1.42-.145,1.493-.278.882-1.594a7.089,7.089,0,0,1,2.4-8.871c.363-.257.689-.564,1.109-.911-.433-.35-.752-.641-1.1-.888a7.087,7.087,0,0,1-2.377-8.927c.587-1.239.494-1.423-.9-1.536a6.756,6.756,0,0,1-3.409-1.19A6.917,6.917,0,0,1,36.5,7.3c-.122-1.41-.324-1.531-1.509-.963a7.085,7.085,0,0,1-8.94-2.324c-.258-.366-.561-.7-.918-1.14-.355.436-.659.769-.917,1.135a7.094,7.094,0,0,1-8.882,2.363c-1.275-.6-1.472-.523-1.555.858A7.143,7.143,0,0,1,7.2,13.788c-1.343.074-1.425.3-.844,1.519a7.086,7.086,0,0,1-2.372,8.929c-.35.249-.671.539-1.117.9" fill="#1a1818"/>
      <path id="Path_85122" data-name="Path 85122" d="M17.48,37.8,15.122,36.03,32.783,12.48l2.365,1.758L17.48,37.8" fill="#1a1818"/>
      <path id="Path_85123" data-name="Path 85123" d="M19.251,11.911a4.392,4.392,0,1,1-4.445,4.369,4.415,4.415,0,0,1,4.445-4.369m1.439,4.376a1.447,1.447,0,1,0-1.414,1.5,1.485,1.485,0,0,0,1.414-1.5" fill="#1a1818"/>
      <path id="Path_85124" data-name="Path 85124" d="M31.024,29.578a4.392,4.392,0,1,1-4.44,4.375,4.416,4.416,0,0,1,4.44-4.375m-1.447,4.394A1.447,1.447,0,1,0,31,32.48a1.486,1.486,0,0,0-1.427,1.492" fill="#1a1818"/>
    </g>
  </g>
</svg>
