<svg xmlns="http://www.w3.org/2000/svg" xmlns:xlink="http://www.w3.org/1999/xlink" width="23.1" height="17.44" viewBox="0 0 23.1 17.44">
  <defs>
    <clipPath id="clip-path">
      <rect id="Rectangle_6929" data-name="Rectangle 6929" width="23.1" height="17.44" transform="translate(0 0)" fill="#ffb400"/>
    </clipPath>
  </defs>
  <g id="Districts" transform="translate(0 0)">
    <g id="Group_96792" data-name="Group 96792" clip-path="url(#clip-path)">
      <path id="Path_82525" data-name="Path 82525" d="M10.3,11.736c-.2-.3-.342-.514-.48-.732A36.046,36.046,0,0,1,6.936,5.786a5,5,0,0,1-.523-1.978A3.874,3.874,0,0,1,9.617.055a3.839,3.839,0,0,1,4.524,3.906,4.8,4.8,0,0,1-.407,1.568,35.821,35.821,0,0,1-3.343,6.031c-.025.038-.041.08-.089.176m2.114-7.879a2.13,2.13,0,0,0-4.259.031,2.13,2.13,0,0,0,4.259-.031" fill="#ffb400"/>
      <path id="Path_82526" data-name="Path 82526" d="M18.98,16.278c-.076-.117-.133-.2-.186-.284a14.064,14.064,0,0,1-1.122-2.028,1.956,1.956,0,0,1-.2-.769,1.5,1.5,0,1,1,3,.06,1.886,1.886,0,0,1-.159.609,13.894,13.894,0,0,1-1.3,2.344.729.729,0,0,0-.035.068m.822-3.062a.828.828,0,1,0-.827.834.837.837,0,0,0,.827-.834" fill="#ffb400"/>
      <path id="Path_82527" data-name="Path 82527" d="M23.014,15.518l-3-8.309a.722.722,0,0,0-.678-.476H3.5a.721.721,0,0,0-.685.5L.074,15.557A1.434,1.434,0,0,0,1.436,17.44h20.23a1.433,1.433,0,0,0,1.348-1.922M18.049,10.7c-.911,1.183-2.468,1.854-4.627,1.995A4.669,4.669,0,0,0,8.39,16.7H5.717a3.691,3.691,0,0,1-.9-2.487,1.943,1.943,0,0,1,.807-1.567,3.271,3.271,0,0,0,1.444-2.182c.01-.051.02-.1.03-.139.312-1.283-.751-2.25-1.744-2.854h13.6a4.919,4.919,0,0,1-.906,3.229M.873,16.413a.69.69,0,0,1-.1-.625L3.517,7.472h.144c.412.157,3.072,1.232,2.72,2.679-.012.049-.024.1-.036.161a2.535,2.535,0,0,1-1.152,1.735,2.681,2.681,0,0,0-1.114,2.132A4.451,4.451,0,0,0,4.787,16.7H1.436a.689.689,0,0,1-.563-.288m21.362-.008a.688.688,0,0,1-.569.3H9.148a3.88,3.88,0,0,1,4.219-3.267l.035.005.037,0c2.4-.151,4.151-.922,5.2-2.291a5.3,5.3,0,0,0,1.034-2.7l2.645,7.321a.685.685,0,0,1-.084.635" fill="#ffb400"/>
    </g>
  </g>
</svg>
