<svg id="Document_Issuer" data-name="Document Issuer" xmlns="http://www.w3.org/2000/svg" xmlns:xlink="http://www.w3.org/1999/xlink" width="31.413" height="32.928" viewBox="0 0 31.413 32.928">
  <defs>
    <clipPath id="clip-path">
      <rect id="Rectangle_204" data-name="Rectangle 204" width="31.413" height="32.928" fill="#fff"/>
    </clipPath>
  </defs>
  <g id="Group_186" data-name="Group 186" clip-path="url(#clip-path)">
    <path id="Path_115" data-name="Path 115" d="M21.96,14.294q0,6.257,0,12.515c0,1.418-.5,1.923-1.912,1.923l-18.182,0c-1.5,0-1.852-.358-1.852-1.864C.013,20.1.02,13.326,0,6.557c0-.591.108-.823.758-.787,1.072.06,2.15.019,3.226.015a1.627,1.627,0,0,0,1.8-1.822C5.793,2.836,5.8,1.707,5.774.579,5.763.129,5.908,0,6.354,0c4.434.014,8.868,0,13.3.011A8.206,8.206,0,0,1,20.9.122c.665.1,1.059.7,1.06,1.579q0,6.3,0,12.594m-11-.469H8.524c-1.362,0-2.724.005-4.086,0-.408,0-.782.114-.777.552s.382.564.788.541c.1-.006.21,0,.314,0q6.169,0,12.337,0a1.359,1.359,0,0,0,.761-.1c.181-.106.271-.185.265-.4a.452.452,0,0,0-.273-.482,1.571,1.571,0,0,0-.763-.094c-2.043-.007-4.086,0-6.129-.005m-.077,4.409v-.012c-2.1,0-4.192,0-6.288,0-.442,0-.933.022-.93.56s.509.536.941.536q6.21-.007,12.419,0a4.567,4.567,0,0,0,.833-.138c.267-.048.251-.2.265-.386a.385.385,0,0,0-.266-.468,1.653,1.653,0,0,0-.687-.09q-3.144-.007-6.288,0m0,5.474v.027c2.151,0,4.3,0,6.452,0,.461,0,.777-.166.788-.649.011-.518-.4-.448-.735-.449q-6.413-.013-12.827-.024c-.419,0-.883.055-.88.527s.43.582.906.576c2.1-.027,4.2-.011,6.3-.011m.466-13.193c2.016,0,4.031,0,6.046-.006.206,0,.506.125.579-.216.062-.291-.08-.446-.358-.595a1.721,1.721,0,0,0-.856-.279q-6.125.018-12.25,0c-.431,0-.877.073-.838.55a.747.747,0,0,0,.955.675,11.643,11.643,0,0,1,2.716-.125c1.334-.027,2.67-.007,4-.007m1.9-4.4V6.1c1.52,0,3.04-.021,4.559.015.375.009.559-.164.6-.431a.554.554,0,0,0-.416-.572,1.418,1.418,0,0,0-.534-.073q-4.364,0-8.727,0c-.424,0-.814.049-.827.592-.013.578.441.486.786.488,1.52.011,3.04,0,4.56,0" transform="translate(0 -0.001)" fill="#fff"/>
    <path id="Path_116" data-name="Path 116" d="M65.1,46.3c3.331-.012,6.662-.062,9.992-.019a2.123,2.123,0,0,0,2.377-2.349c.007-1.1,0-2.2,0-3.306,0-.3-.041-.559.364-.739.464-.207.452-.615.006-.9-.2-.13-.382-.2-.376-.5.018-.993.007-1.987.007-3.005.512.083.935.345,1.434.124.206-.091.36-.086.37-.371s-.11-.511-.347-.51c-1.665.006-1.517-1.132-1.46-2.238.025-.5,0-.993,0-1.578.622.169,1.2.3,1.757.491a1.756,1.756,0,0,0,.53.087c.3.009.567-.012.633-.409a.52.52,0,0,0-.462-.661c-.637-.091-1.224-.369-1.843-.465-.537-.083-.63-.339-.621-.787.015-.734.037-1.471-.006-2.2-.034-.579.227-.586.655-.461.8.234,1.607.458,2.415.668a3.628,3.628,0,0,0,.693.068c.352.021.441-.285.487-.508.042-.2-.078-.373-.378-.444-1.156-.276-2.3-.62-3.446-.925-.376-.1-.576-.283-.516-.7.217-1.5.025-3.019.128-4.611a16.747,16.747,0,0,0,2.213.665c1.188.211,2.311.621,3.481.865.673.141,1.338.324,2,.513.918.262,1.26,1.011.965,2.1-.558,2.057-1.134,4.109-1.687,6.168-.764,2.844-1.534,5.685-2.241,8.545-.728,2.941-1.576,5.853-2.4,8.768a6.977,6.977,0,0,1-.223.97,1.6,1.6,0,0,1-2.19,1.067q-3.746-1.021-7.5-2.024c-1.6-.427-3.194-.841-4.791-1.261A.157.157,0,0,0,65.1,46.3" transform="translate(-54.854 -16.889)" fill="#fff"/>
    <path id="Path_117" data-name="Path 117" d="M7.984,4.485c0,1.117.007,2.31,0,3.5a.7.7,0,0,1-.788.767c-1.194,0-2.388,0-3.6,0L7.984,4.485" transform="translate(-3.029 -3.779)" fill="#fff"/>
    <path id="Path_118" data-name="Path 118" d="M63.916,186.268a.157.157,0,0,1,.025.123c-.1.014-.2.005-.245-.108-.01-.028.034-.076.054-.114l.167.1" transform="translate(-53.665 -156.857)" fill="#fff"/>
  </g>
</svg>
