<svg id="Document_verification" data-name="Document verification" xmlns="http://www.w3.org/2000/svg" xmlns:xlink="http://www.w3.org/1999/xlink" width="28.655" height="33.641" viewBox="0 0 28.655 33.641">
  <defs>
    <clipPath id="clip-path">
      <rect id="Rectangle_205" data-name="Rectangle 205" width="28.655" height="33.641" fill="#fff"/>
    </clipPath>
  </defs>
  <g id="Group_188" data-name="Group 188" clip-path="url(#clip-path)">
    <path id="Path_119" data-name="Path 119" d="M12.508,24.7a9.243,9.243,0,0,0,.3,3.849c-.044,0-.086.006-.129.006H1.927a1.934,1.934,0,0,1-1.9-1.729C0,26.593,0,26.357,0,26.122Q0,16.208,0,6.293,0,4.135,0,1.977A1.917,1.917,0,0,1,1.389.086,2.376,2.376,0,0,1,2.05,0Q5.847,0,9.643,0h6.047a.552.552,0,0,1,.015.084q0,1.853,0,3.707a1.22,1.22,0,0,0,.242.788,1.081,1.081,0,0,0,.874.411C17.628,5,18.437,5,19.245,5c.508,0,1.016.005,1.523,0,.112,0,.147.036.148.146.006,1.492.019,2.983.023,4.475,0,1.671,0,3.341,0,5.012,0,.984,0,1.967,0,2.951,0,.114-.059.108-.136.115-.537.047-1.081.06-1.61.154a7.935,7.935,0,0,0-3.909,1.912.641.641,0,0,1-.46.17c-.845,0-1.69,0-2.535,0q-3.1,0-6.191,0c-.821,0-1.641,0-2.462-.007H3.475v.966H14.213c-.036.059-.053.094-.076.124a7.8,7.8,0,0,0-1.343,2.63.151.151,0,0,1-.1.084.973.973,0,0,1-.218.015h-9V24.7Zm5.02-15.226c0-.306,0-.6,0-.9,0-.025-.053-.067-.083-.069-.129-.009-.26-.005-.39-.005H3.6c-.043,0-.085.005-.126.008v.961ZM3.469,17.1H15.892l1.523,0c.056,0,.114.01.112-.083,0-.268,0-.536,0-.8,0-.064-.023-.087-.085-.085-.114,0-.227,0-.341,0H9.351l-5.714,0c-.055,0-.11,0-.167.008Zm0-3.816c.055,0,.1.006.143.006l4.692,0q4.558,0,9.115,0c.081,0,.106-.024.1-.1,0-.248,0-.5,0-.744,0-.105-.026-.137-.136-.137q-5.313.005-10.626,0H3.61c-.046,0-.093.006-.139.009Zm7.972-7.615c0-.289,0-.568,0-.847,0-.09-.016-.117-.111-.117-.8,0-1.608,0-2.412,0L3.6,4.7c-.042,0-.085.005-.123.008v.954Z" transform="translate(0 0)" fill="#fff"/>
    <path id="Path_120" data-name="Path 120" d="M97.193,136.827a7.367,7.367,0,1,1,7.387-7.8,7.413,7.413,0,0,1-7.387,7.8m-1.262-4.616c-.27-.2-.524-.385-.781-.569q-1.144-.819-2.289-1.636c-.083-.06-.137-.063-.194.032s-.118.165-.178.247l-.369.5c.059.046.1.085.154.119q1.9,1.343,3.8,2.687c.086.061.129.049.185-.028.349-.484.706-.963,1.05-1.45q1.382-1.954,2.757-3.913c.528-.749,1.058-1.5,1.6-2.263l-.875-.637-4.86,6.909" transform="translate(-75.939 -103.187)" fill="#fff"/>
    <path id="Path_121" data-name="Path 121" d="M108.033,6.7l3.061,2.98c-.1.006-.177.015-.256.015-.657,0-1.315-.008-1.972,0a.771.771,0,0,1-.847-.824c-.011-.7,0-1.405,0-2.108a.341.341,0,0,1,.02-.068" transform="translate(-91.287 -5.662)" fill="#fff"/>
  </g>
</svg>
