<svg id="Document_Signing-W" data-name="Document Signing-W" xmlns="http://www.w3.org/2000/svg" xmlns:xlink="http://www.w3.org/1999/xlink" width="24.671" height="24.653" viewBox="0 0 24.671 24.653">
  <defs>
    <clipPath id="clip-path">
      <rect id="Rectangle_49800" data-name="Rectangle 49800" width="24.671" height="24.653" fill="#fffefe"/>
    </clipPath>
  </defs>
  <g id="Group_114475" data-name="Group 114475" clip-path="url(#clip-path)">
    <path id="Path_110470" data-name="Path 110470" d="M18.85,24.653H0V5.839H5.813V0H18.884V.359c0,1.363-.006,2.726,0,4.089a.672.672,0,0,1-.255.557,46.752,46.752,0,0,0-6.492,6.944,6.885,6.885,0,0,0-1.391,2.841.888.888,0,0,0-.018.455c.182.417-.028.661-.313.909-.3.261-.579.546-.865.818l1.08,1.062c.347-.363.712-.758,1.095-1.135a.489.489,0,0,1,.354-.153,3.1,3.1,0,0,0,1.9-.323,14.534,14.534,0,0,0,3.472-2.4c.459-.392.9-.8,1.392-1.243Zm-8.718-3.944a3.6,3.6,0,0,0-1.3-1.625A1.3,1.3,0,0,0,7.415,19a4.85,4.85,0,0,0-.672.579c-.048-.254-.09-.49-.139-.725-.218-1.033-.786-1.514-1.72-1.436a1.588,1.588,0,0,0-1.236.878,6.109,6.109,0,0,0-.725,2.657c.247.019.475.037.7.052s.48.029.715.043c.233-1.475.383-1.925.755-2.209.045.174.094.33.124.49.083.44.143.885.238,1.323a1.233,1.233,0,0,0,1,1.084,1.263,1.263,0,0,0,1.3-.717c.127-.215.235-.44.387-.73l.718,1,1.269-.576m.045-13.432H2.935v1.4h7.242ZM2.922,11.589h4.3v-1.4h-4.3Zm0,2.874H7.218v-1.4H2.923Z" fill="#fffefe"/>
    <path id="Path_110471" data-name="Path 110471" d="M16.922,8.688l1.994,2.032c-.559.51-1.131,1.079-1.752,1.586-1.052.86-2.121,1.7-3.214,2.507a3.928,3.928,0,0,1-1.176.537c-.413.126-.649-.1-.535-.507a4.365,4.365,0,0,1,.5-1.154,33.624,33.624,0,0,1,4.12-4.971.189.189,0,0,1,.066-.03" fill="#fffefe"/>
    <path id="Path_110472" data-name="Path 110472" d="M20,9.631l-2.04-2.046c.143-.129.3-.269.459-.416A29.245,29.245,0,0,1,22.8,3.594a7.164,7.164,0,0,1,1.306-.635c.422-.158.663.085.523.522a4.887,4.887,0,0,1-.467,1.047A31.192,31.192,0,0,1,20,9.631" fill="#fffefe"/>
    <path id="Path_110473" data-name="Path 110473" d="M4.355,4.358H.513L4.355.539Z" fill="#fffefe"/>
  </g>
</svg>
