<svg width="30" height="16" viewBox="0 0 30 16" fill="none" xmlns="http://www.w3.org/2000/svg">
	<path d="M29.0536 2.88434L15.9286 15.3843C15.8067 15.5006 15.6619 15.5928 15.5026 15.6557C15.3433 15.7186 15.1725 15.7509 15 15.7509C14.8275 15.7509 14.6567 15.7186 14.4974 15.6557C14.3381 15.5928 14.1933 15.5006 14.0714 15.3843L0.946404 2.88434C0.700125 2.64979 0.561768 2.33167 0.561768 1.99996C0.561768 1.66826 0.700125 1.35014 0.946404 1.11559C1.19268 0.881036 1.52671 0.749268 1.875 0.749268C2.22329 0.749268 2.55731 0.881036 2.80359 1.11559L15 12.7328L27.1964 1.11559C27.3184 0.999449 27.4631 0.907324 27.6224 0.844471C27.7818 0.781617 27.9525 0.749268 28.125 0.749268C28.2975 0.749268 28.4682 0.781617 28.6276 0.844471C28.7869 0.907324 28.9317 0.999449 29.0536 1.11559C29.1755 1.23172 29.2723 1.3696 29.3383 1.52134C29.4043 1.67308 29.4382 1.83572 29.4382 1.99996C29.4382 2.16421 29.4043 2.32684 29.3383 2.47858C29.2723 2.63032 29.1755 2.7682 29.0536 2.88434Z" fill="#92722A"/>
</svg>
