<svg xmlns="http://www.w3.org/2000/svg" xmlns:xlink="http://www.w3.org/1999/xlink" width="41.625" height="34.131" viewBox="0 0 41.625 34.131">
  <defs>
    <clipPath id="clip-path">
      <rect id="Rectangle_2624" data-name="Rectangle 2624" width="41.625" height="34.131" fill="#feffff"/>
    </clipPath>
  </defs>
  <g id="E-SEal_Icon" data-name="E-SEal Icon" transform="translate(-23.188 -625.868)">
    <g id="Group_96348" data-name="Group 96348" transform="translate(23.188 625.868)">
      <g id="Group_96347" data-name="Group 96347" transform="translate(0 0)" clip-path="url(#clip-path)">
        <path id="Path_82372" data-name="Path 82372" d="M36.5,14.95a1.14,1.14,0,0,1-.124-.35c-.135-.859.936-2,.673-2.809s-1.807-1.117-2.2-1.877.272-2.187-.232-2.879-2.061-.5-2.668-1.107-.411-2.162-1.107-2.668-2.111.16-2.88-.232S26.911,1.1,26.087.831s-1.95.808-2.809.673C22.442,1.373,21.686,0,20.812,0s-1.629,1.373-2.466,1.5c-.859.135-2-.936-2.809-.673s-1.117,1.807-1.877,2.2-2.186-.272-2.879.232-.5,2.061-1.107,2.668-2.162.411-2.668,1.107.16,2.111-.232,2.879-1.928,1.054-2.2,1.878.808,1.95.673,2.809a1.14,1.14,0,0,1-.124.35H0v7.842H4.887c.547.513,1.577.823,1.886,1.426.392.768-.272,2.187.232,2.879s2.061.5,2.668,1.107.411,2.162,1.107,2.668,2.111-.16,2.879.232,1.054,1.928,1.878,2.2,1.95-.808,2.809-.673c.837.131,1.592,1.5,2.466,1.5s1.629-1.373,2.466-1.5c.859-.135,2,.936,2.809.673s1.117-1.807,1.877-2.2,2.187.272,2.879-.232.5-2.061,1.107-2.668,2.162-.411,2.668-1.107-.16-2.111.232-2.879c.308-.6,1.338-.914,1.886-1.427h4.887V14.95ZM20.812,29.256a12.2,12.2,0,0,1-10.757-6.464h1.917a10.526,10.526,0,0,0,17.68,0H31.57a12.2,12.2,0,0,1-10.757,6.464m0-24.38a12.207,12.207,0,0,1,12,10.074H31.137a10.539,10.539,0,0,0-20.649,0H8.81a12.207,12.207,0,0,1,12-10.074M10.9,14.95a10.136,10.136,0,0,1,19.826,0Zm18.272,7.842a10.126,10.126,0,0,1-16.717,0Z" transform="translate(0 0)" fill="#feffff"/>
        <path id="Path_82373" data-name="Path 82373" d="M48.853,22.033l.469,1.443H50.84l-1.228.892.469,1.444-1.228-.892-1.228.892.469-1.444-1.228-.892h1.518Z" transform="translate(-28.041 -13.183)" fill="#feffff"/>
        <path id="Path_82374" data-name="Path 82374" d="M60.908,26.737l.469,1.443h1.518l-1.228.892.469,1.444-1.228-.892-1.228.892.469-1.444-1.228-.892h1.518Z" transform="translate(-35.253 -15.997)" fill="#feffff"/>
        <path id="Path_82375" data-name="Path 82375" d="M37.929,26.737,38.4,28.18h1.518l-1.228.892.469,1.444-1.228-.892-1.228.892.469-1.444-1.228-.892H37.46Z" transform="translate(-21.505 -15.997)" fill="#feffff"/>
      </g>
    </g>
    <text id="E-seal" transform="translate(34 647)" fill="#15294b" font-size="6.2" font-family="Montserrat-ExtraBold, Montserrat" font-weight="800"><tspan x="0" y="0">E-seal</tspan></text>
  </g>
</svg>
