<svg xmlns="http://www.w3.org/2000/svg" xmlns:xlink="http://www.w3.org/1999/xlink" width="213.627" height="57.937" viewBox="0 0 213.627 57.937">
  <defs>
    <clipPath id="clip-path">
      <rect id="Rectangle_7465" data-name="Rectangle 7465" width="49.646" height="57.937" fill="none"/>
    </clipPath>
    <clipPath id="clip-path-2">
      <rect id="Rectangle_7455" data-name="Rectangle 7455" width="49.646" height="57.936" fill="none"/>
    </clipPath>
    <clipPath id="clip-path-3">
      <path id="Path_87505" data-name="Path 87505" d="M16.379,2.805a1.567,1.567,0,0,0,0,2.924V8.837H10.925a.566.566,0,1,0,0,1.133v0h6.587V5.729a1.568,1.568,0,0,0-.565-3.03,1.547,1.547,0,0,0-.568.106" transform="translate(-10.357 -2.699)" fill="none"/>
    </clipPath>
    <linearGradient id="linear-gradient" x1="-2.929" y1="7.088" x2="-2.646" y2="7.088" gradientUnits="objectBoundingBox">
      <stop offset="0" stop-color="#d56318"/>
      <stop offset="0.054" stop-color="#d56318"/>
      <stop offset="1" stop-color="#cc4f1a"/>
    </linearGradient>
    <clipPath id="clip-path-4">
      <path id="Path_87506" data-name="Path 87506" d="M29.575,4.7a1.56,1.56,0,0,0-.894.9h-8.21V9.586h-2.38v3.808H10.925a.566.566,0,1,0,0,1.133v0h8.3V10.723h5.289A1.574,1.574,0,1,0,24.44,9.59H21.606V6.724h7.075A1.567,1.567,0,1,0,30.143,4.59a1.547,1.547,0,0,0-.568.106" transform="translate(-10.357 -4.59)" fill="none"/>
    </clipPath>
    <linearGradient id="linear-gradient-2" x1="-1.136" y1="4.737" x2="-1.027" y2="4.737" xlink:href="#linear-gradient"/>
    <clipPath id="clip-path-5">
      <path id="Path_87507" data-name="Path 87507" d="M24.466,11.617a1.557,1.557,0,0,0-.9.9H10.925a.565.565,0,1,0,0,1.131H23.57a1.567,1.567,0,1,0,1.462-2.134,1.526,1.526,0,0,0-.565.106" transform="translate(-10.357 -11.511)" fill="none"/>
    </clipPath>
    <linearGradient id="linear-gradient-3" x1="-1.489" y1="9.184" x2="-1.346" y2="9.184" xlink:href="#linear-gradient"/>
    <clipPath id="clip-path-6">
      <path id="Path_87508" data-name="Path 87508" d="M29.8,8.714a1.571,1.571,0,0,0-1.4.861H21.425v2.663H10.918a.568.568,0,0,0,0,1.135H22.553V10.706h5.722a1.568,1.568,0,1,0,1.509-1.994Z" transform="translate(-10.353 -8.712)" fill="none"/>
    </clipPath>
    <linearGradient id="linear-gradient-4" x1="-1.156" y1="8.007" x2="-1.045" y2="8.007" xlink:href="#linear-gradient"/>
    <clipPath id="clip-path-7">
      <path id="Path_87509" data-name="Path 87509" d="M18.846,13.906H10.925a.568.568,0,1,0,0,1.135h2.443v3.522H26.134a1.569,1.569,0,1,0-.151-1.135H14.5V15.041h4.345a.568.568,0,1,0,0-1.135Z" transform="translate(-10.357 -13.906)" fill="none"/>
    </clipPath>
    <linearGradient id="linear-gradient-5" x1="-1.293" y1="4.4" x2="-1.168" y2="4.4" xlink:href="#linear-gradient"/>
    <clipPath id="clip-path-8">
      <path id="Path_87510" data-name="Path 87510" d="M21.476,17.866H10.925a.566.566,0,1,0,0,1.133H21.476a1.569,1.569,0,1,0,0-1.133" transform="translate(-10.357 -16.863)" fill="none"/>
    </clipPath>
    <linearGradient id="linear-gradient-6" x1="-1.706" y1="5.392" x2="-1.542" y2="5.392" xlink:href="#linear-gradient"/>
    <clipPath id="clip-path-9">
      <path id="Path_87511" data-name="Path 87511" d="M18.515,18.514a1.568,1.568,0,0,0-1.466,1.01.774.774,0,0,0-.1-.009H10.925a.566.566,0,1,0,0,1.133h6.022a.774.774,0,0,0,.1-.009,1.568,1.568,0,1,0,1.466-2.126Z" transform="translate(-10.357 -18.512)" fill="none"/>
    </clipPath>
    <linearGradient id="linear-gradient-7" x1="-2.467" y1="4.226" x2="-2.228" y2="4.226" xlink:href="#linear-gradient"/>
    <clipPath id="clip-path-11">
      <rect id="Rectangle_7463" data-name="Rectangle 7463" width="23.671" height="57.869" fill="none"/>
    </clipPath>
  </defs>
  <g id="Group_99587" data-name="Group 99587" transform="translate(-6953.672 -2046.102)">
    <g id="Group_99550" data-name="Group 99550" transform="translate(6953.672 2046.102)">
      <g id="Group_99549" data-name="Group 99549" clip-path="url(#clip-path)">
        <g id="Group_99529" data-name="Group 99529" transform="translate(0 0.001)">
          <g id="Group_99528" data-name="Group 99528" clip-path="url(#clip-path-2)">
            <path id="Path_87504" data-name="Path 87504" d="M10.547,0a3.994,3.994,0,0,1,.672.047,5.316,5.316,0,0,1,.66.149c.433.13.854.27,1.28.407l2.55.823L20.8,3.08,30.986,6.4l1.273.419.317.1.173.059.18.066a4.734,4.734,0,0,1,.733.35,3.223,3.223,0,0,1,.7.572,2.716,2.716,0,0,1,.506.814,3.446,3.446,0,0,1,.225.854.844.844,0,0,0,.014.1l.009.1.014.2v.378l.052,5.35.043,5.355.017,5.36q0,2.679-.031,5.362l-.04,2.682v.336l-.017.36c0,.121-.012.244-.019.362l-.035.362c-.014.121-.021.241-.043.362L35,36.67c-.033.239-.092.473-.147.71-.024.118-.054.237-.088.352l-.095.348c-.066.232-.149.457-.22.686s-.166.445-.255.669l-.147.329c-.05.109-.095.22-.149.326a16.921,16.921,0,0,1-1.417,2.439c-.263.386-.542.757-.828,1.121-.149.184-.3.36-.438.539s-.3.345-.442.518c-.3.343-.591.691-.92,1.015l-.471.494-.237.248c-.08.08-.163.158-.246.237a39.088,39.088,0,0,1-4.127,3.553c-.18.14-.367.267-.549.4l-.551.4c-.09.066-.182.132-.277.2l-.279.192-.563.378c-.371.255-.757.492-1.135.74-.192.118-.378.244-.572.36l-.58.345c-1.547.92-3.129,1.776-4.733,2.569-.4.2-.8.4-1.209.591l-1.213.572-1.223.551a5.361,5.361,0,0,1-.629.251,1.88,1.88,0,0,1-.669.08,1.864,1.864,0,0,0,.641-.158,5.417,5.417,0,0,0,.591-.312l1.154-.681,1.15-.684,1.145-.7c1.519-.932,3.018-1.89,4.473-2.9a48.907,48.907,0,0,0,8.042-6.822l.227-.239.218-.246.433-.49c.3-.324.565-.667.842-1.005.135-.17.277-.338.412-.506s.265-.341.39-.516c.255-.345.5-.7.731-1.055a16.145,16.145,0,0,0,1.211-2.221c.045-.095.085-.189.123-.289l.116-.3c.076-.194.14-.39.211-.591s.123-.4.175-.591l.073-.3c.026-.1.052-.2.069-.3.038-.2.085-.4.106-.606l.043-.3c.019-.1.019-.2.031-.305l.028-.305c0-.1,0-.2.009-.307l.009-.307V31.851q.011-2.675,0-5.35l.012-5.355c.012-1.786.014-3.572.035-5.357s.043-3.574.085-5.362v-.5a.14.14,0,0,0-.009-.061,1.8,1.8,0,0,0-.095-.445,1.039,1.039,0,0,0-.184-.326,1.644,1.644,0,0,0-.322-.279,3.224,3.224,0,0,0-.466-.244l-.135-.054-.147-.054-.315-.118L30.48,7.87c-3.347-1.254-6.684-2.538-10-3.877q-2.484-1-4.955-2.048Q14.289,1.423,13.059.882c-.407-.177-.818-.364-1.225-.539A4.664,4.664,0,0,0,10.547,0" transform="translate(14.4 -0.001)" fill="#cd4e1a"/>
          </g>
        </g>
        <g id="Group_99531" data-name="Group 99531" transform="translate(24.498 6.384)">
          <g id="Group_99530" data-name="Group 99530" clip-path="url(#clip-path-3)">
            <rect id="Rectangle_7456" data-name="Rectangle 7456" width="8.364" height="7.273" transform="translate(0 0.001)" fill="url(#linear-gradient)"/>
          </g>
        </g>
        <g id="Group_99533" data-name="Group 99533" transform="translate(24.498 10.857)">
          <g id="Group_99532" data-name="Group 99532" clip-path="url(#clip-path-4)">
            <rect id="Rectangle_7457" data-name="Rectangle 7457" width="21.56" height="9.939" transform="translate(0 0.001)" fill="url(#linear-gradient-2)"/>
          </g>
        </g>
        <g id="Group_99535" data-name="Group 99535" transform="translate(24.498 27.227)">
          <g id="Group_99534" data-name="Group 99534" clip-path="url(#clip-path-5)">
            <rect id="Rectangle_7458" data-name="Rectangle 7458" width="16.448" height="3.342" transform="translate(0 0.001)" fill="url(#linear-gradient-3)"/>
          </g>
        </g>
        <g id="Group_99537" data-name="Group 99537" transform="translate(24.488 20.607)">
          <g id="Group_99536" data-name="Group 99536" clip-path="url(#clip-path-6)">
            <rect id="Rectangle_7459" data-name="Rectangle 7459" width="21.177" height="4.662" transform="translate(0 0.001)" fill="url(#linear-gradient-4)"/>
          </g>
        </g>
        <g id="Group_99539" data-name="Group 99539" transform="translate(24.498 32.892)">
          <g id="Group_99538" data-name="Group 99538" clip-path="url(#clip-path-7)">
            <rect id="Rectangle_7460" data-name="Rectangle 7460" width="18.941" height="5.689" transform="translate(0 0.001)" fill="url(#linear-gradient-5)"/>
          </g>
        </g>
        <g id="Group_99541" data-name="Group 99541" transform="translate(24.498 39.886)">
          <g id="Group_99540" data-name="Group 99540" clip-path="url(#clip-path-8)">
            <rect id="Rectangle_7461" data-name="Rectangle 7461" width="14.357" height="3.345" transform="translate(0 0.001)" fill="url(#linear-gradient-6)"/>
          </g>
        </g>
        <g id="Group_99543" data-name="Group 99543" transform="translate(24.498 43.787)">
          <g id="Group_99542" data-name="Group 99542" clip-path="url(#clip-path-9)">
            <rect id="Rectangle_7462" data-name="Rectangle 7462" width="9.932" height="3.342" transform="translate(0 0.001)" fill="url(#linear-gradient-7)"/>
          </g>
        </g>
        <g id="Group_99548" data-name="Group 99548" transform="translate(0 0.001)">
          <g id="Group_99547" data-name="Group 99547" clip-path="url(#clip-path-2)">
            <g id="Group_99546" data-name="Group 99546" transform="translate(0.54 0.067)" opacity="0.29" style="isolation: isolate">
              <g id="Group_99545" data-name="Group 99545">
                <g id="Group_99544" data-name="Group 99544" clip-path="url(#clip-path-11)">
                  <path id="Path_87512" data-name="Path 87512" d="M23.9,57.9a2.023,2.023,0,0,1-.854-.22A59.116,59.116,0,0,1,5.494,45.567C2.188,42.109-.076,38.128.262,33.01.489,29.566.3,26.094.3,22.633.3,18.416.35,14.2.276,9.988.255,8.782.674,8.316,1.8,7.916,8.69,5.433,15.535,2.835,22.4.281A3.591,3.591,0,0,1,23.842.03" transform="translate(-0.228 -0.029)" fill="#1a1718"/>
                </g>
              </g>
            </g>
            <path id="Path_87513" data-name="Path 87513" d="M14.512,1.281l-1.221.457Q7.246,4,1.176,6.2a3.482,3.482,0,0,0-.856.414L14.507,1.283l0,0" transform="translate(0.437 1.748)" fill="#f4b100"/>
            <path id="Path_87514" data-name="Path 87514" d="M.061,6.692c0,2.28-.012,4.56-.012,6.84,0,1.862.052,3.728.066,5.592v0s-.028-7.2-.054-12.43" transform="translate(0.067 9.136)" fill="#f4b100"/>
            <path id="Path_87515" data-name="Path 87515" d="M.414,3.65A1.976,1.976,0,0,0,.037,5.041L.052,6.046c0-.092,0-.173,0-.241A4.164,4.164,0,0,1,.414,3.65" transform="translate(0.05 4.983)" fill="#f4b100"/>
            <path id="Path_87516" data-name="Path 87516" d="M10.394,24.741a2.023,2.023,0,0,0,.854.22s-.8-.251-2.124-.811q.632.305,1.27.591" transform="translate(12.457 32.972)" fill="#f4b100"/>
            <path id="Path_87517" data-name="Path 87517" d="M.81,17.425A22.013,22.013,0,0,0,4.2,21.905c.229.229.461.454.7.681A38.156,38.156,0,0,1,.831,17.359Z" transform="translate(1.106 23.7)" fill="#f4b100"/>
            <path id="Path_87518" data-name="Path 87518" d="M14.052,19.074,1.151,39.193l-.118.345,13.18-20.715,8.082,39.068L22.231.031Z" transform="translate(1.41 0.041)" fill="#d63b1a"/>
            <path id="Path_87519" data-name="Path 87519" d="M.56,18.425A22.833,22.833,0,0,1,.018,14.3,14.088,14.088,0,0,0,.56,18.425" transform="translate(0.022 19.521)" fill="#f4b100"/>
            <path id="Path_87520" data-name="Path 87520" d="M.069,9.462q0-2.4-.026-4.8c.007.859.017,2.666.026,4.8" transform="translate(0.059 6.366)" fill="#f4b100"/>
            <path id="Path_87521" data-name="Path 87521" d="M1.58,19.222h0A15.148,15.148,0,0,1,.246,16.043,9.06,9.06,0,0,0,1.58,19.222" transform="translate(0.336 21.903)" fill="#f4b100"/>
            <path id="Path_87522" data-name="Path 87522" d="M.183,11.947a39.287,39.287,0,0,0-.142,5.561c0-.255.014-.513.031-.773.106-1.592.123-3.188.111-4.787" transform="translate(0 16.311)" fill="#f4b100"/>
            <path id="Path_87523" data-name="Path 87523" d="M.489,3.537h0S.347,3.558.2,3.8a1.588,1.588,0,0,1,.293-.265" transform="translate(0.268 4.828)" fill="#f4b100"/>
            <path id="Path_87524" data-name="Path 87524" d="M1.7,38.969l.724-1.138.118-.345-.028.043L14.921,1.282.734,6.618a1.588,1.588,0,0,0-.293.265A4.132,4.132,0,0,0,.076,9.038c0,.069,0,.149,0,.241.021,1.6.026,3.2.026,4.8.026,5.232.054,12.43.054,12.43v0c.012,1.6,0,3.2-.109,4.787-.019.26-.028.516-.033.771A23.017,23.017,0,0,0,.559,36.2a15.148,15.148,0,0,0,1.334,3.179l.021-.066c-.073-.114-.147-.227-.218-.341" transform="translate(0.023 1.75)" fill="#f3960a"/>
            <path id="Path_87525" data-name="Path 87525" d="M18.115,30.406A59,59,0,0,1,2.537,19.568,46.251,46.251,0,0,0,18.115,30.406" transform="translate(3.464 26.716)" fill="#f4b100"/>
            <path id="Path_87526" data-name="Path 87526" d="M1.325,28.691.819,30.17A38.289,38.289,0,0,0,4.88,35.4a59.1,59.1,0,0,0,15.58,10.836c1.325.561,2.124.811,2.124.811L14.5,7.976Z" transform="translate(1.118 10.889)" fill="#e56c16"/>
            <path id="Path_87527" data-name="Path 87527" d="M.945,18.212l.506-1.478L.727,17.872c.071.114.144.227.218.341" transform="translate(0.993 22.846)" fill="#f4b100"/>
            <path id="Path_87528" data-name="Path 87528" d="M1.083,39.192l12.9-20.119L22.163.032a3.618,3.618,0,0,0-1.433.244Q17.1,1.631,13.47,2.989l0,0Z" transform="translate(1.479 0.04)" fill="#f4b100"/>
            <path id="Path_87529" data-name="Path 87529" d="M1.072,37.528l.028-.045,12.382-36.2Z" transform="translate(1.463 1.749)" fill="#f4b100"/>
          </g>
        </g>
      </g>
    </g>
    <g id="ENTERPRISE" transform="translate(6953 2045.001)">
      <g id="Group_99585" data-name="Group 99585">
        <path id="Path_87564" data-name="Path 87564" d="M65.03,17.56H58.44v5.08h7.84v2.73H54.88V7.6H66.26v2.75H58.45v4.47h6.59v2.75Z" fill="#d72f48"/>
        <path id="Path_87565" data-name="Path 87565" d="M85.15,25.38H81.59L74.42,13.39h-.07V25.38H70.79V7.6h3.56l7.17,11.97h.07V7.6h3.56V25.37Z" fill="#d72f48"/>
        <path id="Path_87566" data-name="Path 87566" d="M102.46,10.35H97.38V25.38H93.82V10.35h-5V7.6h13.65v2.75Z" fill="#d72f48"/>
        <path id="Path_87567" data-name="Path 87567" d="M116.56,17.56h-6.59v5.08h7.84v2.73h-11.4V7.6h11.38v2.75h-7.81v4.47h6.59v2.75Z" fill="#d72f48"/>
        <path id="Path_87568" data-name="Path 87568" d="M125.88,18.27v7.1h-3.56V7.6h6.15a7.306,7.306,0,0,1,4.75,1.39,4.7,4.7,0,0,1,1.71,3.86,3.852,3.852,0,0,1-.73,2.36,5.084,5.084,0,0,1-2.12,1.61,3.835,3.835,0,0,1,2.26,1.55,4.91,4.91,0,0,1,.69,2.69v1.31a6.676,6.676,0,0,0,.2,1.56,2.088,2.088,0,0,0,.69,1.2v.26h-3.67a1.932,1.932,0,0,1-.63-1.29,11.777,11.777,0,0,1-.14-1.75V21.09a2.8,2.8,0,0,0-.73-2.07,2.761,2.761,0,0,0-2.06-.74h-2.83Zm0-2.75h2.53a3.335,3.335,0,0,0,2.23-.63,2.342,2.342,0,0,0,.73-1.88,2.569,2.569,0,0,0-.74-1.94,2.975,2.975,0,0,0-2.17-.72h-2.59v5.18Z" fill="#d72f48"/>
        <path id="Path_87569" data-name="Path 87569" d="M143.81,18.93v6.45h-3.56V7.6h6.8a7,7,0,0,1,4.82,1.56,5.238,5.238,0,0,1,1.76,4.11,5.2,5.2,0,0,1-1.76,4.1,7.05,7.05,0,0,1-4.82,1.55h-3.23Zm0-2.75h3.23a2.973,2.973,0,0,0,2.26-.81,2.9,2.9,0,0,0,.77-2.07,3.048,3.048,0,0,0-.76-2.12,2.9,2.9,0,0,0-2.26-.84h-3.23v5.84Z" fill="#d72f48"/>
        <path id="Path_87570" data-name="Path 87570" d="M161.74,18.27v7.1h-3.56V7.6h6.15a7.306,7.306,0,0,1,4.75,1.39,4.7,4.7,0,0,1,1.71,3.86,3.852,3.852,0,0,1-.73,2.36,5.084,5.084,0,0,1-2.12,1.61,3.835,3.835,0,0,1,2.26,1.55,4.91,4.91,0,0,1,.69,2.69v1.31a6.676,6.676,0,0,0,.2,1.56,2.088,2.088,0,0,0,.69,1.2v.26h-3.67a1.932,1.932,0,0,1-.63-1.29,11.777,11.777,0,0,1-.14-1.75V21.09a2.8,2.8,0,0,0-.73-2.07,2.761,2.761,0,0,0-2.06-.74h-2.83Zm0-2.75h2.53a3.335,3.335,0,0,0,2.23-.63,2.342,2.342,0,0,0,.73-1.88,2.569,2.569,0,0,0-.74-1.94,2.975,2.975,0,0,0-2.17-.72h-2.59v5.18Z" fill="#d72f48"/>
        <path id="Path_87571" data-name="Path 87571" d="M179.91,25.38h-3.56V7.6h3.56V25.37Z" fill="#d72f48"/>
        <path id="Path_87572" data-name="Path 87572" d="M194.7,20.74a2.112,2.112,0,0,0-.71-1.65,7.354,7.354,0,0,0-2.51-1.17,14.453,14.453,0,0,1-4.67-2.18,4.138,4.138,0,0,1-1.59-3.43,4.329,4.329,0,0,1,1.79-3.57,7.3,7.3,0,0,1,4.58-1.38,7.222,7.222,0,0,1,4.75,1.49,4.655,4.655,0,0,1,1.74,3.91l-.02.07h-3.45a2.559,2.559,0,0,0-.81-2.04,3.277,3.277,0,0,0-2.26-.71,3,3,0,0,0-2.04.63,2.054,2.054,0,0,0-.72,1.62,1.763,1.763,0,0,0,.78,1.48,10.948,10.948,0,0,0,2.7,1.23,11.643,11.643,0,0,1,4.47,2.17,4.416,4.416,0,0,1,1.54,3.52,4.309,4.309,0,0,1-1.78,3.6,7.734,7.734,0,0,1-4.71,1.32,8.387,8.387,0,0,1-4.93-1.43,4.692,4.692,0,0,1-2-4.26l.02-.07h3.46a2.8,2.8,0,0,0,.93,2.32,3.888,3.888,0,0,0,2.51.74,3.431,3.431,0,0,0,2.18-.6,1.941,1.941,0,0,0,.75-1.6Z" fill="#d72f48"/>
        <path id="Path_87573" data-name="Path 87573" d="M213.05,17.56h-6.59v5.08h7.84v2.73H202.9V7.6h11.38v2.75h-7.81v4.47h6.59v2.75Z" fill="#d72f48"/>
      </g>
    </g>
    <g id="GETEWAY" transform="translate(6953 2045.001)">
      <g id="Group_99586" data-name="Group 99586">
        <path id="Path_87574" data-name="Path 87574" d="M65.45,45.86a5.394,5.394,0,0,1-1.98,1.51,7.753,7.753,0,0,1-3.4.64,5.761,5.761,0,0,1-4.22-1.62,5.627,5.627,0,0,1-1.64-4.21V39.21a5.741,5.741,0,0,1,1.59-4.2,5.484,5.484,0,0,1,4.09-1.63,5.884,5.884,0,0,1,3.99,1.24,4.077,4.077,0,0,1,1.34,3.3l-.02.06H62.51a2.355,2.355,0,0,0-.65-1.76,2.9,2.9,0,0,0-4.01.38,4.074,4.074,0,0,0-.8,2.6v2.99a4.054,4.054,0,0,0,.82,2.63,2.682,2.682,0,0,0,2.2,1.02,4.982,4.982,0,0,0,1.61-.21,2.45,2.45,0,0,0,.91-.52V42.36H59.86V40.39h5.6v5.49Z" fill="#003c9d"/>
        <path id="Path_87575" data-name="Path 87575" d="M77.66,44.74H73.05l-.96,3.07H69.11L73.9,33.59h2.92L81.6,47.81H78.62l-.97-3.07ZM73.75,42.5h3.21l-1.57-5.01h-.06Z" fill="#003c9d"/>
        <path id="Path_87576" data-name="Path 87576" d="M94.4,35.78H90.34V47.8H87.49V35.78h-4v-2.2H94.41v2.2Z" fill="#003c9d"/>
        <path id="Path_87577" data-name="Path 87577" d="M106.46,41.55h-5.27v4.06h6.27V47.8H98.34V33.58h9.1v2.2h-6.25v3.57h5.27v2.2Z" fill="#003c9d"/>
        <path id="Path_87578" data-name="Path 87578" d="M123.06,43.23h.06L125,33.58h2.94L124.62,47.8h-2.65l-2.62-9.37h-.06l-2.61,9.37h-2.65l-3.32-14.22h2.94l1.89,9.64h.06l2.56-9.64h2.3l2.58,9.65Z" fill="#003c9d"/>
        <path id="Path_87579" data-name="Path 87579" d="M138.83,44.74h-4.61l-.96,3.07h-2.98l4.79-14.22h2.92l4.78,14.22h-2.98l-.97-3.07Zm-3.91-2.24h3.21l-1.57-5.01h-.06Z" fill="#003c9d"/>
        <path id="Path_87580" data-name="Path 87580" d="M149.65,40.14h.06l3.11-6.55h3.12l-4.87,9.22v5h-2.85V42.66l-4.79-9.07h3.12l3.11,6.55Z" fill="#003c9d"/>
      </g>
    </g>
  </g>
</svg>
