<svg width="56" height="56" viewBox="0 0 56 56" fill="none" xmlns="http://www.w3.org/2000/svg">
<rect width="56" height="56" rx="28" fill="#FCE9D8"/>
<path d="M28 15C25.4288 15 22.9154 15.7624 20.7776 17.1909C18.6398 18.6194 16.9735 20.6497 15.9896 23.0251C15.0056 25.4006 14.7482 28.0144 15.2498 30.5362C15.7514 33.0579 16.9895 35.3743 18.8076 37.1924C20.6257 39.0105 22.9421 40.2486 25.4638 40.7502C27.9856 41.2518 30.5995 40.9944 32.9749 40.0104C35.3503 39.0265 37.3807 37.3603 38.8091 35.2224C40.2376 33.0846 41 30.5712 41 28C40.9964 24.5533 39.6256 21.2488 37.1884 18.8116C34.7512 16.3744 31.4467 15.0036 28 15ZM28 39C25.8244 39 23.6977 38.3549 21.8887 37.1462C20.0798 35.9375 18.6699 34.2195 17.8373 32.2095C17.0048 30.1995 16.7869 27.9878 17.2114 25.854C17.6358 23.7202 18.6835 21.7602 20.2218 20.2218C21.7602 18.6834 23.7202 17.6358 25.854 17.2114C27.9878 16.7869 30.1995 17.0048 32.2095 17.8373C34.2195 18.6699 35.9375 20.0798 37.1462 21.8887C38.3549 23.6977 39 25.8244 39 28C38.9967 30.9164 37.8367 33.7123 35.7745 35.7745C33.7123 37.8367 30.9164 38.9967 28 39ZM27 29V22C27 21.7348 27.1054 21.4804 27.2929 21.2929C27.4804 21.1054 27.7348 21 28 21C28.2652 21 28.5196 21.1054 28.7071 21.2929C28.8946 21.4804 29 21.7348 29 22V29C29 29.2652 28.8946 29.5196 28.7071 29.7071C28.5196 29.8946 28.2652 30 28 30C27.7348 30 27.4804 29.8946 27.2929 29.7071C27.1054 29.5196 27 29.2652 27 29ZM29.5 33.5C29.5 33.7967 29.412 34.0867 29.2472 34.3334C29.0824 34.58 28.8481 34.7723 28.574 34.8858C28.2999 34.9993 27.9983 35.0291 27.7074 34.9712C27.4164 34.9133 27.1491 34.7704 26.9393 34.5607C26.7296 34.3509 26.5867 34.0836 26.5288 33.7926C26.471 33.5017 26.5007 33.2001 26.6142 32.926C26.7277 32.6519 26.92 32.4176 27.1667 32.2528C27.4133 32.088 27.7033 32 28 32C28.3978 32 28.7794 32.158 29.0607 32.4393C29.342 32.7206 29.5 33.1022 29.5 33.5Z" fill="#EA4F49"/>
</svg>
