<svg width="40" height="40" viewBox="0 0 40 40" fill="none" xmlns="http://www.w3.org/2000/svg">
<rect width="40" height="40" rx="6" fill="#F9F7ED"/>
<path d="M28.0306 15.7194L22.7806 10.4694C22.7109 10.3997 22.6282 10.3445 22.5371 10.3069C22.4461 10.2693 22.3485 10.2499 22.25 10.25H13.25C12.8522 10.25 12.4706 10.408 12.1893 10.6893C11.908 10.9706 11.75 11.3522 11.75 11.75V28.25C11.75 28.6478 11.908 29.0294 12.1893 29.3107C12.4706 29.592 12.8522 29.75 13.25 29.75H26.75C27.1478 29.75 27.5294 29.592 27.8107 29.3107C28.092 29.0294 28.25 28.6478 28.25 28.25V16.25C28.2501 16.1515 28.2307 16.0539 28.1931 15.9629C28.1555 15.8718 28.1003 15.7891 28.0306 15.7194ZM23 12.8103L25.6897 15.5H23V12.8103ZM26.75 28.25H13.25V11.75H21.5V16.25C21.5 16.4489 21.579 16.6397 21.7197 16.7803C21.8603 16.921 22.0511 17 22.25 17H26.75V28.25Z" fill="#B68A35"/>
</svg>
