<svg xmlns="http://www.w3.org/2000/svg" width="217.9" height="51.625" viewBox="0 0 217.9 51.625">
  <g id="Group_2042" data-name="Group 2042" transform="translate(-4442.728 -2150)">
    <g id="Group_2040" data-name="Group 2040" transform="translate(0 98)">
      <g id="Group_99587" data-name="Group 99587" transform="translate(-2506.672 5.647)">
        <g id="ENTERPRISE" transform="translate(6953 2045.001)">
          <g id="Group_99585" data-name="Group 99585">
            <path id="Path_87564" data-name="Path 87564" d="M65.03,17.56H58.44v5.08h7.84v2.73H54.88V7.6H66.26v2.75H58.45v4.47h6.59v2.75Z" fill="#d72f48"/>
            <path id="Path_87565" data-name="Path 87565" d="M85.15,25.38H81.59L74.42,13.39h-.07V25.38H70.79V7.6h3.56l7.17,11.97h.07V7.6h3.56V25.37Z" fill="#d72f48"/>
            <path id="Path_87566" data-name="Path 87566" d="M102.46,10.35H97.38V25.38H93.82V10.35h-5V7.6h13.65v2.75Z" fill="#d72f48"/>
            <path id="Path_87567" data-name="Path 87567" d="M116.56,17.56h-6.59v5.08h7.84v2.73h-11.4V7.6h11.38v2.75h-7.81v4.47h6.59v2.75Z" fill="#d72f48"/>
            <path id="Path_87568" data-name="Path 87568" d="M125.88,18.27v7.1h-3.56V7.6h6.15a7.306,7.306,0,0,1,4.75,1.39,4.7,4.7,0,0,1,1.71,3.86,3.852,3.852,0,0,1-.73,2.36,5.084,5.084,0,0,1-2.12,1.61,3.835,3.835,0,0,1,2.26,1.55,4.91,4.91,0,0,1,.69,2.69v1.31a6.676,6.676,0,0,0,.2,1.56,2.088,2.088,0,0,0,.69,1.2v.26h-3.67a1.932,1.932,0,0,1-.63-1.29,11.779,11.779,0,0,1-.14-1.75V21.09a2.8,2.8,0,0,0-.73-2.07,2.761,2.761,0,0,0-2.06-.74h-2.83Zm0-2.75h2.53a3.335,3.335,0,0,0,2.23-.63,2.342,2.342,0,0,0,.73-1.88,2.569,2.569,0,0,0-.74-1.94,2.975,2.975,0,0,0-2.17-.72h-2.59v5.18Z" fill="#d72f48"/>
            <path id="Path_87569" data-name="Path 87569" d="M143.81,18.93v6.45h-3.56V7.6h6.8a7,7,0,0,1,4.82,1.56,5.238,5.238,0,0,1,1.76,4.11,5.2,5.2,0,0,1-1.76,4.1,7.05,7.05,0,0,1-4.82,1.55h-3.23Zm0-2.75h3.23a2.973,2.973,0,0,0,2.26-.81,2.9,2.9,0,0,0,.77-2.07,3.048,3.048,0,0,0-.76-2.12,2.9,2.9,0,0,0-2.26-.84h-3.23v5.84Z" fill="#d72f48"/>
            <path id="Path_87570" data-name="Path 87570" d="M161.74,18.27v7.1h-3.56V7.6h6.15a7.306,7.306,0,0,1,4.75,1.39,4.7,4.7,0,0,1,1.71,3.86,3.852,3.852,0,0,1-.73,2.36,5.084,5.084,0,0,1-2.12,1.61,3.835,3.835,0,0,1,2.26,1.55,4.91,4.91,0,0,1,.69,2.69v1.31a6.676,6.676,0,0,0,.2,1.56,2.088,2.088,0,0,0,.69,1.2v.26h-3.67a1.932,1.932,0,0,1-.63-1.29,11.779,11.779,0,0,1-.14-1.75V21.09a2.8,2.8,0,0,0-.73-2.07,2.761,2.761,0,0,0-2.06-.74h-2.83Zm0-2.75h2.53a3.335,3.335,0,0,0,2.23-.63,2.342,2.342,0,0,0,.73-1.88,2.569,2.569,0,0,0-.74-1.94,2.975,2.975,0,0,0-2.17-.72h-2.59v5.18Z" fill="#d72f48"/>
            <path id="Path_87571" data-name="Path 87571" d="M179.91,25.38h-3.56V7.6h3.56V25.37Z" fill="#d72f48"/>
            <path id="Path_87572" data-name="Path 87572" d="M194.7,20.74a2.112,2.112,0,0,0-.71-1.65,7.354,7.354,0,0,0-2.51-1.17,14.453,14.453,0,0,1-4.67-2.18,4.138,4.138,0,0,1-1.59-3.43,4.329,4.329,0,0,1,1.79-3.57,7.3,7.3,0,0,1,4.58-1.38,7.222,7.222,0,0,1,4.75,1.49,4.655,4.655,0,0,1,1.74,3.91l-.02.07h-3.45a2.559,2.559,0,0,0-.81-2.04,3.277,3.277,0,0,0-2.26-.71,3,3,0,0,0-2.04.63,2.054,2.054,0,0,0-.72,1.62,1.763,1.763,0,0,0,.78,1.48,10.948,10.948,0,0,0,2.7,1.23,11.643,11.643,0,0,1,4.47,2.17,4.416,4.416,0,0,1,1.54,3.52,4.309,4.309,0,0,1-1.78,3.6,7.734,7.734,0,0,1-4.71,1.32,8.387,8.387,0,0,1-4.93-1.43,4.692,4.692,0,0,1-2-4.26l.02-.07h3.46a2.8,2.8,0,0,0,.93,2.32,3.888,3.888,0,0,0,2.51.74,3.431,3.431,0,0,0,2.18-.6,1.941,1.941,0,0,0,.75-1.6Z" fill="#d72f48"/>
            <path id="Path_87573" data-name="Path 87573" d="M213.05,17.56h-6.59v5.08h7.84v2.73H202.9V7.6h11.38v2.75h-7.81v4.47h6.59v2.75Z" fill="#d72f48"/>
          </g>
        </g>
        <g id="GETEWAY" transform="translate(6953 2045.001)">
          <g id="Group_99586" data-name="Group 99586">
            <path id="Path_87574" data-name="Path 87574" d="M65.45,45.86a5.394,5.394,0,0,1-1.98,1.51,7.753,7.753,0,0,1-3.4.64,5.761,5.761,0,0,1-4.22-1.62,5.627,5.627,0,0,1-1.64-4.21V39.21a5.741,5.741,0,0,1,1.59-4.2,5.484,5.484,0,0,1,4.09-1.63,5.884,5.884,0,0,1,3.99,1.24,4.077,4.077,0,0,1,1.34,3.3l-.02.06H62.51a2.355,2.355,0,0,0-.65-1.76,2.9,2.9,0,0,0-4.01.38,4.074,4.074,0,0,0-.8,2.6v2.99a4.054,4.054,0,0,0,.82,2.63,2.682,2.682,0,0,0,2.2,1.02,4.982,4.982,0,0,0,1.61-.21,2.45,2.45,0,0,0,.91-.52V42.36H59.86V40.39h5.6v5.49Z" fill="#003c9d"/>
            <path id="Path_87575" data-name="Path 87575" d="M77.66,44.74H73.05l-.96,3.07H69.11L73.9,33.59h2.92L81.6,47.81H78.62l-.97-3.07ZM73.75,42.5h3.21l-1.57-5.01h-.06Z" fill="#003c9d"/>
            <path id="Path_87576" data-name="Path 87576" d="M94.4,35.78H90.34V47.8H87.49V35.78h-4v-2.2H94.41v2.2Z" fill="#003c9d"/>
            <path id="Path_87577" data-name="Path 87577" d="M106.46,41.55h-5.27v4.06h6.27V47.8H98.34V33.58h9.1v2.2h-6.25v3.57h5.27v2.2Z" fill="#003c9d"/>
            <path id="Path_87578" data-name="Path 87578" d="M123.06,43.23h.06L125,33.58h2.94L124.62,47.8h-2.65l-2.62-9.37h-.06l-2.61,9.37h-2.65l-3.32-14.22h2.94l1.89,9.64h.06l2.56-9.64h2.3l2.58,9.65Z" fill="#003c9d"/>
            <path id="Path_87579" data-name="Path 87579" d="M138.83,44.74h-4.61l-.96,3.07h-2.98l4.79-14.22h2.92l4.78,14.22h-2.98l-.97-3.07Zm-3.91-2.24h3.21l-1.57-5.01h-.06Z" fill="#003c9d"/>
            <path id="Path_87580" data-name="Path 87580" d="M149.65,40.14h.06l3.11-6.55h3.12l-4.87,9.22v5h-2.85V42.66l-4.79-9.07h3.12l3.11,6.55Z" fill="#003c9d"/>
          </g>
        </g>
      </g>
    </g>
    <g id="Group_2041" data-name="Group 2041" transform="translate(4442.728 2150)">
      <path id="Path_158058" data-name="Path 158058" d="M55.1,74.961a1.4,1.4,0,0,1-1.4-.792,1.6,1.6,0,0,1,.078-1.9,1.215,1.215,0,0,0,.138-1.247,13.748,13.748,0,0,0-2.3-4.755,16.131,16.131,0,0,0-8.355-6.059,15.14,15.14,0,0,0-6.237-.724A16.154,16.154,0,0,0,28.29,63.12a16.5,16.5,0,0,0-5.152,7.754,25.821,25.821,0,0,0-.749,3.865,21.14,21.14,0,0,1-2.211,6.774,32.374,32.374,0,0,1-3.65,5.18.77.77,0,0,1-1.14.062c-.352-.3-.366-.652.035-1.07a21.007,21.007,0,0,0,4.857-8.105,27.091,27.091,0,0,0,.958-4.908A16.952,16.952,0,0,1,24.1,65.463a16.526,16.526,0,0,1,6.114-5.475,16.961,16.961,0,0,1,5.675-1.814,17.476,17.476,0,0,1,13.388,3.461,16.7,16.7,0,0,1,6.2,9.39,1,1,0,0,0,.594.792,1.686,1.686,0,0,1-.961,3.144" transform="translate(-12.68 -49.587)" fill="#0e0e0e"/>
      <path id="Path_158059" data-name="Path 158059" d="M142.126,55.518a42.231,42.231,0,0,1-.645,4.779,69.71,69.71,0,0,1-2.267,8.66c-.454,1.321-.976,2.619-1.476,3.924-.169.441-.435.783-.952.467a.8.8,0,0,1-.363-1.095,55.119,55.119,0,0,0,2.073-5.672c.658-2.486,1.3-4.983,1.725-7.535a33.784,33.784,0,0,0,.437-7.064,17.385,17.385,0,0,0-1.15-5.147,20.073,20.073,0,0,0-4.55-7.151,19.8,19.8,0,0,0-12.56-6.016,21.854,21.854,0,0,0-5.772.222,23.067,23.067,0,0,0-2.573.662c-.422.112-.924.407-1.124-.249a.844.844,0,0,1,.653-1.189,23.471,23.471,0,0,1,9.1-.882,21.78,21.78,0,0,1,10.045,3.609,20.986,20.986,0,0,1,8.91,13.083,13.882,13.882,0,0,1,.488,3.194c-.018.223-.1.456.086.652a8.718,8.718,0,0,1,.024,1.937c-.23.243-.125.533-.112.81" transform="translate(-94.638 -27.883)" fill="#0a0b0b"/>
      <path id="Path_158060" data-name="Path 158060" d="M43.346,5.977a25.8,25.8,0,0,1,16.7,5.92,3.151,3.151,0,0,0,2.281,1.085c.773-.04,1.254.94,1.162,1.962a1.661,1.661,0,0,1-1.521,1.387c-.893.064-1.921-.541-1.823-1.316.17-1.344-.838-1.769-1.568-2.35a24.958,24.958,0,0,0-8.51-4.312,23.416,23.416,0,0,0-4.342-.77,21.1,21.1,0,0,0-2.869-.128,23.96,23.96,0,0,0-13.746,4.728A24.738,24.738,0,0,0,22.5,19.5c-.286.481-.659.723-1.1.479a.844.844,0,0,1-.188-1.271,28.3,28.3,0,0,1,5.441-6.495A25.746,25.746,0,0,1,36,7.077a25.279,25.279,0,0,1,4.639-.947c.9-.1,1.8-.117,2.71-.152" transform="translate(-17.619 -5.977)" fill="#0e0e0e"/>
      <path id="Path_158061" data-name="Path 158061" d="M64.213,109.927a9.869,9.869,0,0,1,4.477,1.151,2.523,2.523,0,0,0,1.326.134,1.534,1.534,0,0,1,1.655,1.436,1.971,1.971,0,0,1-1.385,1.947c-.538.164-1.756-.251-1.9-1.047-.325-1.749-1.759-1.747-3.077-2.016a6.809,6.809,0,0,0-5.54,1.3,7.407,7.407,0,0,0-3.106,5.325,32.179,32.179,0,0,1-2.452,9.006,28.75,28.75,0,0,1-2.568,4.721,30.557,30.557,0,0,1-4.489,5.254c-.375.348-.761.408-1.113.025a.709.709,0,0,1,.091-1.111,26.819,26.819,0,0,0,4.7-5.671,31.034,31.034,0,0,0,3.774-9.1c.375-1.63.457-3.3.9-4.919a9.222,9.222,0,0,1,1.761-3.232,8.257,8.257,0,0,1,4.9-2.947,5.768,5.768,0,0,1,2.047-.251" transform="translate(-38.41 -93.119)" fill="#cb071e"/>
      <path id="Path_158062" data-name="Path 158062" d="M182.878,100.224a11.182,11.182,0,0,0-1.45-6.995,11.7,11.7,0,0,0-6.8-5.551,5.107,5.107,0,0,0-.825-.247c-.588-.085-.69-.49-.591-.94a.7.7,0,0,1,.955-.5,13.493,13.493,0,0,1,1.819.588A12.93,12.93,0,0,1,184.3,97.39a21.511,21.511,0,0,1-.731,7.527,56.927,56.927,0,0,1-1.722,6.472,55.185,55.185,0,0,1-3.085,7.181c-.936,1.863-2.081,3.593-3.18,5.354-.321.515-.764.74-1.224.414-.414-.293-.311-.8-.007-1.218a47.589,47.589,0,0,0,4.192-7.413,40.389,40.389,0,0,0,2.028-5.021,54.579,54.579,0,0,0,2.295-10.373l.042-.042Z" transform="translate(-145.207 -73.038)" fill="#ffbd00"/>
      <path id="Path_158063" data-name="Path 158063" d="M103.7,136.019a4.88,4.88,0,0,1,4.958,4.308,15.446,15.446,0,0,1-.243,3.2,47.505,47.505,0,0,1-1.743,6.981,2.665,2.665,0,0,1-.217.5c-.179.342-.456.664-.843.452-.347-.19-.705-.486-.5-1.035a39.877,39.877,0,0,0,1.85-7.063,9.656,9.656,0,0,0,.185-3.17,3.04,3.04,0,0,0-2.05-2.389c-2.354-.89-4.3.273-4.731,2.8a41.112,41.112,0,0,1-1.137,5.629,38.985,38.985,0,0,1-4.905,10.294.687.687,0,0,1-1.038.226.754.754,0,0,1-.181-1.11,33.508,33.508,0,0,0,4.373-8.829,30.321,30.321,0,0,0,1.3-6.05c.324-2.655,1.945-4.738,4.924-4.741" transform="translate(-77.92 -115.008)" fill="#0a0b0b"/>
      <path id="Path_158064" data-name="Path 158064" d="M18.9,49.3c-1.941-.325-2.665,1.133-3.586,2.023a17.994,17.994,0,0,0-3.905,5.765,21.212,21.212,0,0,0-1.663,6.209,16.908,16.908,0,0,1-3.352,8.5c-.311.411-.717.689-1.221.319-.549-.4-.243-.84.044-1.232a16.755,16.755,0,0,0,3.093-8.024,21.336,21.336,0,0,1,3.9-10.086,23.221,23.221,0,0,1,2.921-3.427A16.455,16.455,0,0,1,16.6,48.189a1.032,1.032,0,0,0,.424-.8c.137-1.135.9-1.631,2.172-1.475a1.789,1.789,0,0,1,1.352,1.718A1.74,1.74,0,0,1,18.9,49.3" transform="translate(-4.084 -39.444)" fill="#0e0e0e"/>
      <path id="Path_158065" data-name="Path 158065" d="M156.317,149.249a28.306,28.306,0,0,1-.886,6.256,46.382,46.382,0,0,1-2.357,7.515,44.935,44.935,0,0,1-5.174,9.373c-.543.738-1.072,1.487-1.614,2.225a.9.9,0,0,1-1.162.228.67.67,0,0,1-.056-1.1,4.366,4.366,0,0,0,.364-.507,43.366,43.366,0,0,0,7.181-13.213,49.835,49.835,0,0,0,1.96-7.7,23.612,23.612,0,0,0,.281-4.114c0-.428-.253-.85-.3-1.285-.033-.331-.225-.827.32-.938.483-.1.925-.063,1.13.578a7.841,7.841,0,0,1,.309,2.682" transform="translate(-121.423 -123.341)" fill="#cb071e"/>
      <path id="Path_158066" data-name="Path 158066" d="M89.111,189.024c-.042-.445.254-.721.544-1.01a36.389,36.389,0,0,0,9.6-18.073c.064-.339-.13-.532-.318-.771a1.719,1.719,0,0,1,.518-2.585,1.911,1.911,0,0,1,2.157.432,1.556,1.556,0,0,1-.161,2.2,2.669,2.669,0,0,0-1.026,2.012,25.884,25.884,0,0,1-2.029,6.355,39.972,39.972,0,0,1-6.269,10.095c-.512.627-1.1,1.208-1.636,1.825a.928.928,0,0,1-.959.235.633.633,0,0,1-.419-.714" transform="translate(-74.711 -140.508)" fill="#ffbd00"/>
      <path id="Path_158067" data-name="Path 158067" d="M291.192,90.194a17.76,17.76,0,0,1-.761,6.551c-.135.374.089.653.239.957a1.717,1.717,0,0,1-.663,2.337,1.655,1.655,0,0,1-2.125-.45,1.733,1.733,0,0,1-.006-2.246.264.264,0,0,1,.116-.109c1.69-.623,1.237-2.242,1.617-3.473a10.9,10.9,0,0,0,.225-3.3,23.24,23.24,0,0,0-.79-6.208,23.768,23.768,0,0,0-3.088-7.034c-.278-.41-.505-.955-.036-1.268.5-.33,1-.082,1.335.461a26.089,26.089,0,0,1,3.308,7.822,20.611,20.611,0,0,1,.631,5.962" transform="translate(-239.513 -64.523)" fill="#0a0b0b"/>
      <path id="Path_158068" data-name="Path 158068" d="M222.471,177.119a51.237,51.237,0,0,1-1.193,6.814,55.978,55.978,0,0,1-3.943,10.841.961.961,0,0,0-.042.888,1.672,1.672,0,0,1-1.086,2.282,1.765,1.765,0,0,1-2.28-1.351,1.8,1.8,0,0,1,1.432-1.963.721.721,0,0,0,.6-.434,57.472,57.472,0,0,0,3.283-8.345,69.054,69.054,0,0,0,1.765-8.059,10.841,10.841,0,0,1,.074-1.112.731.731,0,0,1,.9-.626c.481.067.539.42.488.823a1.948,1.948,0,0,0,0,.242" transform="translate(-179.342 -148.574)" fill="#0e0e0e"/>
      <path id="Path_158069" data-name="Path 158069" d="M89.128,80.379a1.652,1.652,0,0,1-2.387,1.573,2.792,2.792,0,0,0-2.683.306,11.409,11.409,0,0,0-3.266,2.35,17.715,17.715,0,0,0-1.94,2.855c-1.2,1.965-1.23,4.151-1.663,6.266-.117.573-.311,1.063-.943.926-.544-.118-.665-.542-.537-1.17a47.531,47.531,0,0,1,.85-4.735,13.446,13.446,0,0,1,1.934-3.788,15.214,15.214,0,0,1,4.622-4.067,10.118,10.118,0,0,1,1.991-.7,1.189,1.189,0,0,0,.829-.636,1.669,1.669,0,0,1,2.024-.8,1.586,1.586,0,0,1,1.168,1.619" transform="translate(-63.442 -66.943)" fill="#ffbd00"/>
      <path id="Path_158070" data-name="Path 158070" d="M116.708,251.983a1.85,1.85,0,0,1-1.7-1.731,1.5,1.5,0,0,1,1.592-1.646,1.09,1.09,0,0,0,.926-.519,41.977,41.977,0,0,0,4.964-8.381c.129-.295.1-.793.6-.8.3,0,.7-.174.884.185a1.134,1.134,0,0,1-.045.992,41.172,41.172,0,0,1-5.144,8.824,1.284,1.284,0,0,0-.328,1.154,1.7,1.7,0,0,1-1.752,1.918" transform="translate(-96.434 -201.252)" fill="#0e0e0e"/>
      <path id="Path_158071" data-name="Path 158071" d="M36.047,188.9c1.208,0,1.541.221,1.764,1.181a1.8,1.8,0,0,1-1.116,2.036,1.836,1.836,0,0,0-1.072,1.042,23.833,23.833,0,0,1-5.2,6.96c-.252.24-.46.655-.916.242a.85.85,0,0,1-.142-1.275,5.346,5.346,0,0,1,.621-.631,22.183,22.183,0,0,0,4.516-6.278.809.809,0,0,0,.04-.9c-.522-1,.145-2.647,1.506-2.373" transform="translate(-24.434 -159.333)" fill="#ffbd00"/>
      <path id="Path_158072" data-name="Path 158072" d="M2.358,102.912a1.494,1.494,0,0,1,1.634,1.2c.19.634-.079,1.62-.694,1.792-1,.28-1.037,1.075-1.18,1.8a30.54,30.54,0,0,0-.657,5.02.651.651,0,0,1-.541.681.655.655,0,0,1-.819-.438,1.284,1.284,0,0,1-.09-.694A35.784,35.784,0,0,1,.844,106.6a1.933,1.933,0,0,0-.1-1.355,1.574,1.574,0,0,1,1.619-2.334" transform="translate(0.001 -87.232)" fill="#0a0b0b"/>
      <path id="Path_158073" data-name="Path 158073" d="M69.1,269.971c.759-.006,1.1.52.678,1.094a22.047,22.047,0,0,1-2.813,3.082.753.753,0,0,1-1.025.068A.961.961,0,0,1,66,272.9c.566-.611,1.168-1.187,1.759-1.775a2.221,2.221,0,0,0,.654-.777.578.578,0,0,1,.685-.373" transform="translate(-55.094 -227.319)" fill="#101111"/>
      <path id="Path_158074" data-name="Path 158074" d="M293.848,172.874c-.012-.277-.118-.567.112-.81-.014.273.079.561-.112.81" transform="translate(-246.36 -145.239)" fill="#313131"/>
      <path id="Path_158075" data-name="Path 158075" d="M293.95,156.684c-.189-.2-.1-.429-.086-.652.2.2.091.43.086.652" transform="translate(-246.372 -131.797)" fill="#313131"/>
      <path id="Path_158077" data-name="Path 158077" d="M233.1,174.3l.032.046-.042.043a.06.06,0,0,1,.01-.089" transform="translate(-195.431 -147.115)" fill="#f8ae94"/>
    </g>
  </g>
</svg>
