<svg width="56" height="56" viewBox="0 0 56 56" fill="none" xmlns="http://www.w3.org/2000/svg">
<rect width="56" height="56" rx="28" fill="#D3EDFF"/>
<path d="M28 15C25.4288 15 22.9154 15.7624 20.7776 17.1909C18.6398 18.6194 16.9735 20.6497 15.9896 23.0251C15.0056 25.4006 14.7482 28.0144 15.2498 30.5362C15.7514 33.0579 16.9895 35.3743 18.8076 37.1924C20.6257 39.0105 22.9421 40.2486 25.4638 40.7502C27.9856 41.2518 30.5995 40.9944 32.9749 40.0104C35.3503 39.0265 37.3807 37.3603 38.8091 35.2224C40.2376 33.0846 41 30.5712 41 28C40.9964 24.5533 39.6256 21.2488 37.1884 18.8116C34.7512 16.3744 31.4467 15.0036 28 15ZM28 39C25.8244 39 23.6977 38.3549 21.8887 37.1462C20.0798 35.9375 18.6699 34.2195 17.8373 32.2095C17.0048 30.1995 16.7869 27.9878 17.2114 25.854C17.6358 23.7202 18.6835 21.7602 20.2218 20.2218C21.7602 18.6834 23.7202 17.6358 25.854 17.2114C27.9878 16.7869 30.1995 17.0048 32.2095 17.8373C34.2195 18.6699 35.9375 20.0798 37.1462 21.8887C38.3549 23.6977 39 25.8244 39 28C38.9967 30.9164 37.8367 33.7123 35.7745 35.7745C33.7123 37.8367 30.9164 38.9967 28 39ZM30 34C30 34.2652 29.8946 34.5196 29.7071 34.7071C29.5196 34.8946 29.2652 35 29 35C28.4696 35 27.9609 34.7893 27.5858 34.4142C27.2107 34.0391 27 33.5304 27 33V28C26.7348 28 26.4804 27.8946 26.2929 27.7071C26.1054 27.5196 26 27.2652 26 27C26 26.7348 26.1054 26.4804 26.2929 26.2929C26.4804 26.1054 26.7348 26 27 26C27.5304 26 28.0391 26.2107 28.4142 26.5858C28.7893 26.9609 29 27.4696 29 28V33C29.2652 33 29.5196 33.1054 29.7071 33.2929C29.8946 33.4804 30 33.7348 30 34ZM26 22.5C26 22.2033 26.088 21.9133 26.2528 21.6666C26.4176 21.42 26.6519 21.2277 26.926 21.1142C27.2001 21.0006 27.5017 20.9709 27.7926 21.0288C28.0836 21.0867 28.3509 21.2296 28.5607 21.4393C28.7704 21.6491 28.9133 21.9164 28.9712 22.2074C29.0291 22.4983 28.9994 22.7999 28.8858 23.074C28.7723 23.3481 28.58 23.5824 28.3334 23.7472C28.0867 23.912 27.7967 24 27.5 24C27.1022 24 26.7206 23.842 26.4393 23.5607C26.158 23.2794 26 22.8978 26 22.5Z" fill="#286CFF"/>
</svg>
