<svg width="40" height="40" viewBox="0 0 40 40" fill="none" xmlns="http://www.w3.org/2000/svg">
<g clip-path="url(#clip0_2480_7955)">
<path d="M7.5 17.5V6.25C7.5 5.91848 7.6317 5.60054 7.86612 5.36612C8.10054 5.1317 8.41848 5 8.75 5H23.75L32.5 13.75V17.5" stroke="#4B4F58" stroke-width="3" stroke-linecap="round" stroke-linejoin="round"/>
<path d="M23.75 5V13.75H32.5" stroke="#4B4F58" stroke-width="3" stroke-linecap="round" stroke-linejoin="round"/>
<path d="M7.712 23.624V29.504C7.712 30.32 7.476 30.956 7.004 31.412C6.532 31.86 5.9 32.084 5.108 32.084C4.308 32.084 3.66 31.852 3.164 31.388C2.676 30.924 2.432 30.276 2.432 29.444H4.112C4.12 29.804 4.204 30.084 4.364 30.284C4.532 30.484 4.772 30.584 5.084 30.584C5.388 30.584 5.62 30.488 5.78 30.296C5.94 30.104 6.02 29.84 6.02 29.504V23.624H7.712ZM13.5238 32.084C12.9398 32.084 12.4118 31.984 11.9398 31.784C11.4758 31.584 11.1078 31.296 10.8358 30.92C10.5638 30.544 10.4238 30.1 10.4158 29.588H12.2158C12.2398 29.932 12.3598 30.204 12.5758 30.404C12.7998 30.604 13.1038 30.704 13.4878 30.704C13.8798 30.704 14.1878 30.612 14.4118 30.428C14.6358 30.236 14.7478 29.988 14.7478 29.684C14.7478 29.436 14.6718 29.232 14.5198 29.072C14.3678 28.912 14.1758 28.788 13.9438 28.7C13.7198 28.604 13.4078 28.5 13.0078 28.388C12.4638 28.228 12.0198 28.072 11.6758 27.92C11.3398 27.76 11.0478 27.524 10.7998 27.212C10.5598 26.892 10.4398 26.468 10.4398 25.94C10.4398 25.444 10.5638 25.012 10.8118 24.644C11.0598 24.276 11.4078 23.996 11.8558 23.804C12.3038 23.604 12.8158 23.504 13.3918 23.504C14.2558 23.504 14.9558 23.716 15.4918 24.14C16.0358 24.556 16.3358 25.14 16.3918 25.892H14.5438C14.5278 25.604 14.4038 25.368 14.1718 25.184C13.9478 24.992 13.6478 24.896 13.2718 24.896C12.9438 24.896 12.6798 24.98 12.4798 25.148C12.2878 25.316 12.1918 25.56 12.1918 25.88C12.1918 26.104 12.2638 26.292 12.4078 26.444C12.5598 26.588 12.7438 26.708 12.9598 26.804C13.1838 26.892 13.4958 26.996 13.8958 27.116C14.4398 27.276 14.8838 27.436 15.2278 27.596C15.5718 27.756 15.8678 27.996 16.1158 28.316C16.3638 28.636 16.4878 29.056 16.4878 29.576C16.4878 30.024 16.3718 30.44 16.1398 30.824C15.9078 31.208 15.5678 31.516 15.1198 31.748C14.6718 31.972 14.1398 32.084 13.5238 32.084ZM22.7923 32.084C22.0083 32.084 21.2883 31.9 20.6323 31.532C19.9763 31.164 19.4563 30.656 19.0723 30.008C18.6883 29.352 18.4963 28.612 18.4963 27.788C18.4963 26.972 18.6883 26.24 19.0723 25.592C19.4563 24.936 19.9763 24.424 20.6323 24.056C21.2883 23.688 22.0083 23.504 22.7923 23.504C23.5843 23.504 24.3043 23.688 24.9523 24.056C25.6083 24.424 26.1243 24.936 26.5003 25.592C26.8843 26.24 27.0763 26.972 27.0763 27.788C27.0763 28.612 26.8843 29.352 26.5003 30.008C26.1243 30.656 25.6083 31.164 24.9523 31.532C24.2963 31.9 23.5763 32.084 22.7923 32.084ZM22.7923 30.584C23.2963 30.584 23.7403 30.472 24.1243 30.248C24.5083 30.016 24.8083 29.688 25.0243 29.264C25.2403 28.84 25.3483 28.348 25.3483 27.788C25.3483 27.228 25.2403 26.74 25.0243 26.324C24.8083 25.9 24.5083 25.576 24.1243 25.352C23.7403 25.128 23.2963 25.016 22.7923 25.016C22.2883 25.016 21.8403 25.128 21.4483 25.352C21.0643 25.576 20.7643 25.9 20.5483 26.324C20.3323 26.74 20.2243 27.228 20.2243 27.788C20.2243 28.348 20.3323 28.84 20.5483 29.264C20.7643 29.688 21.0643 30.016 21.4483 30.248C21.8403 30.472 22.2883 30.584 22.7923 30.584ZM36.4501 32H34.7701L30.9661 26.252V32H29.2861V23.612H30.9661L34.7701 29.372V23.612H36.4501V32Z" fill="#4B4F58"/>
</g>
<defs>
<clipPath id="clip0_2480_7955">
<rect width="40" height="40" fill="white"/>
</clipPath>
</defs>
</svg>
