<svg xmlns="http://www.w3.org/2000/svg" xmlns:xlink="http://www.w3.org/1999/xlink" width="23.4" height="15.111" viewBox="0 0 23.4 15.111">
  <defs>
    <clipPath id="clip-path">
      <rect id="Rectangle_6932" data-name="Rectangle 6932" width="23.4" height="15.111" transform="translate(0 0)" fill="#ffb400"/>
    </clipPath>
  </defs>
  <g id="mandals" transform="translate(0 0)">
    <g id="Group_96793" data-name="Group 96793" clip-path="url(#clip-path)">
      <path id="Path_82528" data-name="Path 82528" d="M16.828,14.708c-.247-.376-.428-.644-.6-.916A45.3,45.3,0,0,1,12.61,7.251a6.271,6.271,0,0,1-.656-2.478A4.857,4.857,0,0,1,15.97.069a4.812,4.812,0,0,1,5.67,4.9,6.017,6.017,0,0,1-.51,1.964,44.935,44.935,0,0,1-4.19,7.559c-.031.047-.051.1-.112.22m2.65-9.874a2.669,2.669,0,0,0-5.338.039,2.669,2.669,0,1,0,5.338-.039" fill="#ffb400"/>
      <path id="Path_82529" data-name="Path 82529" d="M6.646,4.113,1.952,7.722v6.987H4.589v-3.1a.894.894,0,0,1,.894-.894H7.69a.894.894,0,0,1,.893.894v3.1h2.638V7.722Z" fill="#ffb400"/>
      <rect id="Rectangle_6930" data-name="Rectangle 6930" width="1.382" height="3.738" transform="translate(3.435 3.536)" fill="#ffb400"/>
      <rect id="Rectangle_6931" data-name="Rectangle 6931" width="23.4" height="0.806" transform="translate(0 14.305)" fill="#ffb400"/>
    </g>
  </g>
</svg>
