<svg width="1030" height="474" viewBox="0 0 1030 474" fill="none" xmlns="http://www.w3.org/2000/svg">
<g clip-path="url(#clip0_7721_5362)">
<mask id="mask0_7721_5362" style="mask-type:luminance" maskUnits="userSpaceOnUse" x="0" y="0" width="1030" height="474">
<path d="M1030 0H0V474H1030V0Z" fill="white"/>
</mask>
<g mask="url(#mask0_7721_5362)">
<path d="M1030 0H0V474H1030V0Z" fill="#F2ECCF"/>
<path d="M643.596 181.958C651.941 169.398 657.195 155.121 659.805 140.268C666.234 103.696 695.266 73.624 733.998 67.6837C772.9 61.717 809.762 81.9075 826.752 115.133C833.525 128.378 842.584 140.375 854.127 149.756C887.249 176.672 908.171 218.022 907.308 264.232C905.89 340.097 844.942 402.347 769.138 405.25C687.12 408.391 619.643 342.816 619.643 261.476C619.643 232.075 628.462 204.738 643.596 181.958Z" fill="#E6D7A2"/>
<path d="M583.059 134.372C583.059 128.996 588.559 124.638 595.346 124.638H914.455C921.24 124.638 926.742 128.996 926.742 134.372V144.676H583.059V134.372Z" fill="#B68A35"/>
<path d="M926.742 144.676V343.725C926.742 349.101 921.24 353.46 914.455 353.46H595.346C588.56 353.46 583.059 349.101 583.059 343.725V144.676H926.742Z" fill="#E6D7A2"/>
<path d="M909.158 134.658C909.158 137.21 911.227 139.278 913.778 139.278C916.329 139.278 918.397 137.21 918.397 134.658C918.397 132.106 916.329 130.038 913.778 130.038C911.227 130.038 909.158 132.106 909.158 134.658Z" fill="#E6D7A2"/>
<path d="M892.797 134.658C892.797 137.21 894.864 139.278 897.416 139.278C899.967 139.278 902.034 137.21 902.034 134.658C902.034 132.106 899.967 130.038 897.416 130.038C894.864 130.037 892.797 132.106 892.797 134.658Z" fill="#E6D7A2"/>
<path d="M876.434 134.658C876.434 137.21 878.501 139.278 881.052 139.278C883.603 139.278 885.672 137.21 885.672 134.658C885.672 132.106 883.605 130.038 881.052 130.038C878.502 130.037 876.434 132.106 876.434 134.658Z" fill="#F2ECCF"/>
<path d="M767.987 164.469L801.101 195.786L830.398 169.014L851.884 206.13L867.196 188.485L879.003 203.088L913.777 166.567V188.094V235.174V323.508H750.691L767.987 164.469Z" fill="#B68A35"/>
<path d="M599.787 185.831H731.899V172.343H599.787V185.831Z" fill="#B68A35"/>
<path d="M599.787 207.16H731.899V193.673H599.787V207.16Z" fill="#B68A35"/>
<path d="M599.787 228.487H731.899V215H599.787V228.487Z" fill="#B68A35"/>
<path d="M599.787 249.816H731.899V236.329H599.787V249.816Z" fill="#B68A35"/>
<path d="M599.787 271.145H731.899V257.657H599.787V271.145Z" fill="#B68A35"/>
<path d="M679.002 185.831H731.9V172.343H679.002V185.831Z" fill="#E6D7A2"/>
<path d="M624.285 207.16H731.899V193.673H624.285V207.16Z" fill="#E6D7A2"/>
<path d="M654.115 228.487H731.901V215H654.115V228.487Z" fill="#E6D7A2"/>
<path d="M612.195 249.816H731.901V236.329H612.195V249.816Z" fill="#E6D7A2"/>
<path d="M642.361 271.145H731.899V257.657H642.361V271.145Z" fill="#E6D7A2"/>
<path d="M669.721 288.599H731.9V282.516H669.721V288.599Z" fill="#B68A35"/>
<path d="M599.787 300.234H731.899V294.152H599.787V300.234Z" fill="#B68A35"/>
<path d="M599.787 311.872H731.899V305.79H599.787V311.872Z" fill="#B68A35"/>
<path d="M622.174 323.508H731.901V317.426H622.174V323.508Z" fill="#B68A35"/>
<mask id="mask1_7721_5362" style="mask-type:luminance" maskUnits="userSpaceOnUse" x="602" y="66" width="306" height="340">
<path d="M604.748 159.898C608.37 153.246 616.397 149.699 623.953 150.215C631.508 150.73 638.497 154.804 643.794 160.219C646.453 162.939 648.733 165.981 650.768 169.197C655.074 160.05 658.044 150.293 659.805 140.271C666.234 103.699 695.266 73.627 733.998 67.6867C772.901 61.72 809.762 81.9105 826.752 115.136C833.525 128.381 842.584 140.378 854.128 149.759C887.25 176.674 908.171 218.025 907.308 264.234C905.89 340.1 844.943 402.35 769.139 405.253C687.121 408.394 619.643 342.819 619.643 261.479C619.643 250.801 620.821 240.399 623.028 230.384C616.667 215.856 610.937 201.052 605.881 186.02C603.019 177.506 600.456 167.785 604.748 159.898Z" fill="white"/>
</mask>
<g mask="url(#mask1_7721_5362)">
<path d="M836.519 294.744L827.92 194.615L816.75 184.403H778.825C778.825 184.403 763.64 203.061 749.601 184.403H710.523L717.862 297.688C718.127 301.785 717.442 305.887 715.859 309.675C712.514 317.682 713.281 326.816 717.912 334.155L720.376 338.06H837.012L840.437 330.786C844.215 322.762 843.964 313.42 839.757 305.61C837.95 302.248 836.847 298.549 836.519 294.744Z" fill="white"/>
<path d="M745.809 184.404L753.751 213.367L762.887 199.658L771.742 214.21L781.934 184.404H745.809Z" fill="#F2ECCF"/>
<path d="M839.759 305.612C837.947 302.248 836.844 298.549 836.518 294.744L828.671 203.375L804.193 233.539L820.799 287.602L806.158 338.06H837.014L840.438 330.786C844.216 322.763 843.965 313.42 839.759 305.612Z" fill="#F2ECCF"/>
<path d="M747.494 180.677L779.613 178.498L763.21 192.682L747.494 180.677Z" fill="#96E4FF"/>
<path d="M720.377 338.062C686.166 490.978 709.281 629.176 709.281 629.176H753.106C744.606 535.472 774.044 395.227 774.044 395.227C774.044 395.227 779.154 505.81 797.286 629.176H844.504C825.361 430.778 854.41 404.129 837.013 338.062H720.377Z" fill="#92722A"/>
<path d="M765.541 401.551C750.703 435.079 754.736 464.612 759.749 481.886C766.175 432.72 774.044 395.227 774.044 395.227L743.299 386.721C750.712 400.679 765.541 401.551 765.541 401.551Z" fill="#2E1C43"/>
<path d="M836.296 627.792C835.882 627.792 835.521 627.489 835.462 627.067C825.835 559.28 823.908 490.317 829.732 422.093C829.966 419.351 830.212 416.605 830.459 413.853C832.546 390.562 834.705 366.476 829.428 343.588C829.324 343.134 829.607 342.683 830.062 342.577C830.521 342.47 830.967 342.757 831.073 343.21C836.407 366.36 834.237 390.581 832.139 414.005C831.892 416.753 831.647 419.498 831.413 422.238C825.6 490.335 827.524 559.17 837.132 626.831C837.199 627.292 836.877 627.719 836.416 627.785C836.376 627.788 836.335 627.792 836.296 627.792Z" fill="#B68A35"/>
<path d="M833.541 380.54C833.357 380.54 833.172 380.481 833.016 380.358C821.802 371.443 814.058 357.123 813.291 343.874C813.263 343.408 813.618 343.008 814.083 342.982C814.603 342.947 814.947 343.311 814.975 343.775C815.716 356.567 823.211 370.409 834.068 379.036C834.432 379.326 834.492 379.856 834.203 380.222C834.035 380.432 833.789 380.54 833.541 380.54Z" fill="#B68A35"/>
<path d="M768.787 387.209C768.527 387.209 768.277 387.088 768.115 386.875C763.064 380.198 762.038 371.991 762.067 366.285C762.101 359.059 763.709 351.955 765.264 345.084C765.364 344.629 765.815 344.335 766.272 344.448C766.727 344.55 767.012 345.002 766.908 345.457C765.374 352.239 763.788 359.252 763.754 366.292C763.729 371.276 764.538 378.243 768.324 384.217C769.437 378.159 770.646 372.012 771.817 366.052C773.112 359.465 774.451 352.654 775.657 345.992C775.74 345.531 776.182 345.235 776.637 345.311C777.095 345.395 777.399 345.834 777.317 346.291C776.108 352.967 774.769 359.784 773.472 366.377C772.172 372.99 770.828 379.827 769.617 386.516C769.558 386.846 769.31 387.109 768.983 387.187C768.917 387.2 768.851 387.209 768.787 387.209Z" fill="#B68A35"/>
<path d="M626.181 206.529L645.303 287.815C647.461 296.991 657.223 302.148 666.017 298.757C674.273 295.574 678.209 286.147 674.667 278.035L641.233 201.461L643.556 194.257C644.95 189.935 645.368 185.358 644.782 180.856L643.335 169.738C639.991 170.33 637.646 173.369 637.922 176.755L638.001 177.725L634.65 169.448C633.225 165.93 631.24 162.667 628.769 159.785C625.328 155.773 619.621 154.579 614.863 156.877C608.862 159.776 606.511 167.111 609.709 172.958L612.531 178.121L615.501 189.097C617.318 195.812 621.025 201.863 626.181 206.529Z" fill="#E47477"/>
<path d="M638 177.725C631.756 182.14 628.425 189.615 629.317 197.212L629.665 200.183L628.598 197.969C624.65 189.766 629.186 179.999 638 177.725Z" fill="#B43C57"/>
<path d="M710.524 184.405C698.693 184.405 688.402 192.513 685.631 204.019L670.676 266.122L655.85 227.131L629.158 235.676L642.998 287.433C646.306 299.807 657.515 308.413 670.319 308.413C682.323 308.413 693.019 300.833 697 289.507L714.168 240.66L710.524 184.405Z" fill="white"/>
<path d="M647.622 205.494L623.297 213.758L629.158 235.674L655.85 227.13L647.622 205.494Z" fill="#F2ECCF"/>
<path d="M714.168 240.658L712.565 215.916L703.729 249.827C701.77 257.341 701.474 265.191 702.859 272.831L714.168 240.658Z" fill="#F2ECCF"/>
<path d="M778.826 184.405L772.715 152.972L749.602 171.798V184.405C763.64 203.062 778.826 184.405 778.826 184.405Z" fill="#E47477"/>
<path d="M772.715 152.972C771.581 167.512 761.12 181.001 749.602 178.983V171.796L772.715 152.972Z" fill="#B43C57"/>
<path d="M720.58 129.482L722.454 145.467C723.419 153.693 726.941 161.408 732.524 167.525C737.128 172.568 743.796 175.212 750.604 174.694C756.414 174.251 761.815 171.543 765.645 167.151L767.986 164.468C773.514 158.13 776.878 150.196 777.59 141.816L778.717 128.551C780.167 111.494 766.715 96.8477 749.601 96.8477C732.114 96.8502 718.542 112.109 720.58 129.482Z" fill="#E47477"/>
<path d="M774.692 149.984C773.216 145.9 772.461 141.589 772.461 137.247V132.717C766.098 128.103 762.212 120.814 761.925 112.957L761.874 111.538C752.124 121.542 736.898 127.53 722.96 126.623C715.965 126.168 708.161 123.552 706.799 115.541C706.426 113.344 706.672 111.074 707.353 108.951C709.173 103.27 713.522 99.1624 717.935 95.4057C724.761 89.5986 732.276 84.1646 740.991 82.0803C749.706 79.9959 759.884 81.9333 765.572 88.8598C770.7 84.8557 779.091 85.7804 784.369 89.5848C789.647 93.3892 792.605 99.7919 793.491 106.237C794.377 112.684 793.407 119.235 792.139 125.617C791.099 130.855 789.832 136.122 787.291 140.819C784.75 145.514 780.029 149.984 774.692 149.984Z" fill="#2E1C43"/>
<path d="M780.036 137.214C782.007 135.303 785.198 134.357 787.552 135.768C789.507 136.939 790.357 139.364 790.495 141.639C790.803 146.707 788.085 151.846 783.721 154.44C781.602 155.701 778.763 156.326 776.752 154.899C775.241 153.826 774.606 151.835 774.694 149.983C774.799 147.755 775.71 145.321 776.478 143.236C777.279 141.066 778.356 138.842 780.036 137.214Z" fill="#E47477"/>
<path d="M787.171 143.459C786.867 142.695 786.555 141.92 786.049 141.273C785.543 140.626 784.806 140.112 783.984 140.067C783.203 140.024 782.444 140.416 781.894 140.971C781.344 141.528 780.975 142.236 780.661 142.953C779.837 144.83 779.332 146.848 779.173 148.892C779.098 149.873 779.215 151.064 780.089 151.515C781.009 151.99 782.096 151.304 782.817 150.561C783.823 149.524 784.67 148.199 784.642 146.755C784.616 145.31 783.412 143.838 781.972 143.96C781.97 142.89 783.144 141.61 784.205 141.476C785.265 141.346 786.908 142.421 787.171 143.459Z" fill="#B43C57"/>
<path d="M761.237 133.694H744.844C745.254 131.793 747.107 130.242 748.951 129.627C750.795 129.011 752.829 129.178 754.694 129.727C756.999 130.404 759.518 132.016 761.237 133.694Z" fill="#2E1C43"/>
<path d="M750.791 144.538C749.747 144.538 748.9 143.691 748.9 142.647V140.573C748.9 139.528 749.747 138.682 750.791 138.682C751.835 138.682 752.681 139.528 752.681 140.573V142.647C752.681 143.691 751.835 144.538 750.791 144.538Z" fill="#2E1C43"/>
<path d="M722.604 133.693H732.736C732.483 131.792 731.337 130.242 730.198 129.626C729.057 129.011 727.801 129.179 726.648 129.727C725.224 130.404 723.666 132.016 722.604 133.693Z" fill="#2E1C43"/>
<path d="M728.627 144.538C729.349 144.538 729.933 143.952 729.933 143.23V139.988C729.933 139.266 729.348 138.682 728.627 138.682C727.904 138.682 727.32 139.267 727.32 139.988V143.23C727.319 143.952 727.904 144.538 728.627 144.538Z" fill="#2E1C43"/>
<path d="M742.193 151.738H730.225C731.012 153.014 732.587 154.076 734.444 154.192C735.759 154.274 737.078 153.981 738.25 153.525C739.423 153.068 741.153 152.351 742.193 151.738Z" fill="#B43C57"/>
<path d="M733.322 161.136C740.365 161.016 747.408 160.896 754.451 160.776C752.032 164.077 748.007 166.458 743.916 166.534C739.825 166.61 735.861 164.345 733.322 161.136Z" fill="white"/>
<path d="M747.496 180.677L763.212 192.682L755.354 204.51L745.809 184.405L747.496 180.677Z" fill="white"/>
<path d="M779.613 178.498L763.211 192.682L771.069 204.51L781.933 184.404L779.613 178.498Z" fill="white"/>
<path d="M763.211 192.682L758.291 200.086L760.75 207.32H765.838L768.686 200.922L763.211 192.682Z" fill="#2E1C43"/>
<path d="M760.75 207.32L753.328 305.038L765.698 319.098L777.33 304.476L765.838 207.32H760.75Z" fill="#92722A"/>
<path d="M760.751 207.32H765.839L777.329 304.475L765.698 319.097L763.211 316.271L765.63 312.03C769.064 306.006 770.618 299.095 770.093 292.181L764.124 213.61C763.981 211.732 762.408 210.283 760.525 210.297L760.751 207.32Z" fill="#2E1C43"/>
<path d="M801.38 373.724L789.149 383.443L781.932 396.191C786.567 396.868 791.128 394.554 793.319 390.413L801.38 373.724Z" fill="#E47477"/>
<path d="M823.55 372.839L821.909 398.225C821.727 401.032 820.82 403.743 819.277 406.095L813.709 414.572C811.003 418.695 805.854 420.466 801.185 418.883L796.733 417.374C792.228 415.846 789.247 411.556 789.388 406.8L789.697 396.283C789.782 393.344 790.665 390.483 792.248 388.007L805.843 366.747L823.55 372.839Z" fill="#E47477"/>
<path d="M811.07 380.845C807.341 379.277 804.009 376.8 801.381 373.724L805.843 366.747L823.548 372.839L822.905 382.789C818.88 383.058 814.791 382.409 811.07 380.845Z" fill="#2E1C43"/>
<path d="M801.557 368.441C807.886 373.898 815.965 376.901 824.323 376.901H827.27L834.809 360.996C825.166 359.785 815.852 355.918 808.247 349.863L801.557 368.441Z" fill="#F2ECCF"/>
<path d="M816.721 184.623C807.863 195.182 804.531 202.312 802.314 215.916C801.213 222.678 803.499 232.933 806.179 239.238L828.837 287.984L808.247 349.865C815.853 355.92 825.167 359.787 834.81 360.998L860.977 303.993C865.149 294.903 865.744 284.574 862.64 275.064L838.734 201.813C835.576 192.136 826.872 185.339 816.721 184.623Z" fill="white"/>
</g>
<mask id="mask2_7721_5362" style="mask-type:luminance" maskUnits="userSpaceOnUse" x="0" y="0" width="1030" height="474">
<path d="M1030 0H0V474H1030V0Z" fill="white"/>
</mask>
<g mask="url(#mask2_7721_5362)">
<path d="M110.347 361.267C107.621 361.267 105.404 359.049 105.404 356.323C105.404 353.596 107.621 351.379 110.347 351.379C113.073 351.379 115.29 353.596 115.29 356.323C115.29 359.049 113.073 361.267 110.347 361.267ZM110.347 352.982C108.506 352.982 107.007 354.481 107.007 356.323C107.007 358.165 108.506 359.664 110.347 359.664C112.188 359.664 113.687 358.165 113.687 356.323C113.687 354.481 112.19 352.982 110.347 352.982Z" fill="#E6D7A2"/>
<path d="M548.088 200.945C545.363 200.945 543.146 198.727 543.146 196.001C543.146 193.274 545.363 191.057 548.088 191.057C550.814 191.057 553.031 193.274 553.031 196.001C553.031 198.727 550.814 200.945 548.088 200.945ZM548.088 192.66C546.247 192.66 544.748 194.159 544.748 196.001C544.748 197.843 546.247 199.341 548.088 199.341C549.93 199.341 551.428 197.843 551.428 196.001C551.428 194.159 549.93 192.66 548.088 192.66Z" fill="#E6D7A2"/>
<path d="M975.989 186.688C973.263 186.688 971.046 184.47 971.046 181.744C971.046 179.017 973.263 176.8 975.989 176.8C978.714 176.8 980.931 179.017 980.931 181.744C980.931 184.47 978.714 186.688 975.989 186.688ZM975.989 178.403C974.147 178.403 972.649 179.902 972.649 181.744C972.649 183.586 974.147 185.085 975.989 185.085C977.83 185.085 979.329 183.586 979.329 181.744C979.329 179.902 977.83 178.403 975.989 178.403Z" fill="#E6D7A2"/>
<path d="M606.019 461.581C603.293 461.581 601.076 459.364 601.076 456.637C601.076 453.911 603.293 451.693 606.019 451.693C608.745 451.693 610.962 453.911 610.962 456.637C610.962 459.364 608.745 461.581 606.019 461.581ZM606.019 453.297C604.177 453.297 602.679 454.795 602.679 456.637C602.679 458.479 604.177 459.978 606.019 459.978C607.86 459.978 609.359 458.479 609.359 456.637C609.359 454.795 607.86 453.297 606.019 453.297Z" fill="#E6D7A2"/>
<path d="M137.019 449.581C134.293 449.581 132.076 447.364 132.076 444.637C132.076 441.911 134.293 439.693 137.019 439.693C139.745 439.693 141.962 441.911 141.962 444.637C141.962 447.364 139.745 449.581 137.019 449.581ZM137.019 441.297C135.177 441.297 133.679 442.795 133.679 444.637C133.679 446.479 135.177 447.978 137.019 447.978C138.86 447.978 140.359 446.479 140.359 444.637C140.359 442.795 138.86 441.297 137.019 441.297Z" fill="#E6D7A2"/>
<path d="M857.916 50.9996C854.637 50.9996 851.971 48.3323 851.971 45.053C851.971 41.7738 854.637 39.1064 857.916 39.1064C861.193 39.1064 863.86 41.7738 863.86 45.053C863.86 48.3323 861.193 50.9996 857.916 50.9996ZM857.916 40.7109C855.522 40.7109 853.574 42.6583 853.574 45.053C853.574 47.4478 855.522 49.3952 857.916 49.3952C860.31 49.3952 862.257 47.4478 862.257 45.053C862.257 42.6596 860.31 40.7109 857.916 40.7109Z" fill="#E6D7A2"/>
<path d="M487.945 325.893C484.667 325.893 482 323.226 482 319.947C482 316.667 484.667 314 487.945 314C491.222 314 493.889 316.667 493.889 319.947C493.889 323.226 491.222 325.893 487.945 325.893ZM487.945 315.604C485.551 315.604 483.603 317.552 483.603 319.947C483.603 322.341 485.551 324.289 487.945 324.289C490.339 324.289 492.286 322.341 492.286 319.947C492.286 317.553 490.339 315.604 487.945 315.604Z" fill="#E6D7A2"/>
<path d="M18.9451 313.893C15.6667 313.893 13 311.226 13 307.947C13 304.667 15.6667 302 18.9451 302C22.2222 302 24.8889 304.667 24.8889 307.947C24.8889 311.226 22.2222 313.893 18.9451 313.893ZM18.9451 303.604C16.551 303.604 14.6028 305.552 14.6028 307.947C14.6028 310.341 16.551 312.289 18.9451 312.289C21.3392 312.289 23.2861 310.341 23.2861 307.947C23.2861 305.553 21.3392 303.604 18.9451 303.604Z" fill="#E6D7A2"/>
<path d="M44.5076 194.434C41.2292 194.434 38.5625 191.767 38.5625 188.487C38.5625 185.209 41.2292 182.542 44.5076 182.542C47.786 182.542 50.4515 185.209 50.4515 188.487C50.4515 191.767 47.7848 194.434 44.5076 194.434ZM44.5076 184.145C42.1135 184.145 40.1665 186.094 40.1665 188.487C40.1665 190.882 42.1147 192.829 44.5076 192.829C46.9017 192.829 48.8487 190.881 48.8487 188.487C48.8487 186.094 46.9005 184.145 44.5076 184.145Z" fill="white"/>
<path d="M902.037 359.835C898.76 359.835 896.092 357.168 896.092 353.889C896.092 350.611 898.759 347.943 902.037 347.943C905.315 347.943 907.982 350.611 907.982 353.889C907.982 357.168 905.314 359.835 902.037 359.835ZM902.037 349.548C899.643 349.548 897.696 351.495 897.696 353.89C897.696 356.285 899.644 358.233 902.037 358.233C904.431 358.233 906.378 356.285 906.378 353.89C906.378 351.495 904.431 349.548 902.037 349.548Z" fill="#E6D7A2"/>
<path d="M221.068 46.657C215.852 46.657 211.607 42.4116 211.607 37.1938C211.607 31.9759 215.852 27.7305 221.068 27.7305C226.285 27.7305 230.529 31.9759 230.529 37.1938C230.529 42.4116 226.285 46.657 221.068 46.657ZM221.068 29.3336C216.736 29.3336 213.21 32.8591 213.21 37.1938C213.21 41.5284 216.735 45.0539 221.068 45.0539C225.402 45.0539 228.926 41.5284 228.926 37.1938C228.926 32.8591 225.402 29.3336 221.068 29.3336Z" fill="#E6D7A2"/>
<path d="M965.903 264.234C965.646 264.234 965.39 264.136 965.194 263.94C964.802 263.548 964.802 262.915 965.194 262.523L1000.54 227.173C1000.93 226.781 1001.56 226.781 1001.95 227.173C1002.34 227.564 1002.34 228.198 1001.95 228.59L966.611 263.94C966.415 264.136 966.159 264.234 965.903 264.234Z" fill="#E6D7A2"/>
<path d="M635.717 39.8581C635.461 39.8581 635.205 39.7601 635.009 39.5641C634.617 39.1721 634.617 38.5388 635.009 38.1468L650.238 22.9141C650.628 22.5221 651.264 22.5221 651.655 22.9141C652.047 23.3061 652.047 23.9393 651.655 24.3313L636.426 39.5641C636.23 39.7601 635.973 39.8581 635.717 39.8581Z" fill="#E6D7A2"/>
<path d="M514.752 277.933C514.496 277.933 514.24 277.835 514.044 277.639C513.652 277.247 513.652 276.613 514.044 276.221L541.574 248.685C541.964 248.293 542.6 248.293 542.991 248.685C543.383 249.075 543.383 249.71 542.991 250.102L515.461 277.639C515.266 277.835 515.009 277.933 514.752 277.933Z" fill="#E6D7A2"/>
<path d="M1006.27 124.469C1006.01 124.469 1005.75 124.371 1005.56 124.175C1005.17 123.784 1005.17 123.149 1005.56 122.757L1034.7 93.6124C1035.09 93.2204 1035.72 93.2204 1036.11 93.6124C1036.5 94.0044 1036.5 94.6388 1036.11 95.0296L1006.97 124.175C1006.78 124.371 1006.52 124.469 1006.27 124.469Z" fill="#E6D7A2"/>
<path d="M636.297 399.362C636.041 399.362 635.785 399.264 635.589 399.068C635.197 398.677 635.197 398.043 635.589 397.651L664.727 368.506C665.117 368.114 665.753 368.114 666.143 368.506C666.535 368.898 666.535 369.532 666.143 369.923L637.006 399.068C636.81 399.264 636.554 399.362 636.297 399.362Z" fill="#E6D7A2"/>
<path d="M167.297 387.362C167.041 387.362 166.785 387.264 166.589 387.068C166.197 386.677 166.197 386.043 166.589 385.651L195.727 356.506C196.117 356.114 196.753 356.114 197.143 356.506C197.535 356.898 197.535 357.532 197.143 357.923L168.006 387.068C167.81 387.264 167.554 387.362 167.297 387.362Z" fill="#E6D7A2"/>
<path d="M355.121 42.2463C354.864 42.2463 354.608 42.1483 354.412 41.9523C354.022 41.5615 354.022 40.927 354.412 40.535L374.417 20.5254C374.807 20.1334 375.443 20.1334 375.834 20.5254C376.224 20.9162 376.224 21.5507 375.834 21.9427L355.828 41.9523C355.633 42.1483 355.377 42.2463 355.121 42.2463Z" fill="#E6D7A2"/>
<path d="M72.307 102.66C72.0508 102.66 71.7945 102.562 71.5986 102.366C71.2067 101.975 71.2067 101.341 71.5986 100.949L88.6652 83.878C89.0558 83.486 89.6914 83.486 90.082 83.878C90.4739 84.2687 90.4739 84.9045 90.082 85.2952L73.0154 102.367C72.8195 102.563 72.5632 102.66 72.307 102.66Z" fill="#E6D7A2"/>
<path d="M269.702 399.299C269.445 399.299 269.189 399.201 268.993 399.005C268.601 398.615 268.601 397.979 268.993 397.588L309.956 356.615C310.346 356.223 310.982 356.223 311.373 356.615C311.765 357.006 311.765 357.641 311.373 358.033L270.41 399.005C270.214 399.201 269.958 399.299 269.702 399.299Z" fill="#E6D7A2"/>
<path d="M-15.0523 284.651C-15.3086 284.651 -15.5648 284.553 -15.7608 284.357C-16.1527 283.966 -16.1527 283.332 -15.7608 282.94L25.2018 241.967C25.5925 241.575 26.2281 241.575 26.6187 241.967C27.0094 242.358 27.0094 242.992 26.6187 243.384L-14.3439 284.357C-14.5386 284.553 -14.7961 284.651 -15.0523 284.651Z" fill="#E6D7A2"/>
<path d="M381.661 35.3049C381.404 35.3049 381.148 35.2069 380.952 35.0109C380.56 34.6201 380.56 33.9857 380.952 33.5937L417.044 -2.50678C417.434 -2.89878 418.07 -2.89878 418.46 -2.50678C418.852 -2.11604 418.852 -1.48029 418.46 -1.08955L382.369 35.0109C382.173 35.2069 381.917 35.3049 381.661 35.3049Z" fill="#E6D7A2"/>
<path d="M486.299 292.171C486.043 292.171 485.787 292.073 485.591 291.877C485.199 291.485 485.199 290.851 485.591 290.459L515.259 260.784C515.649 260.394 516.285 260.394 516.676 260.784C517.067 261.176 517.067 261.809 516.676 262.201L487.008 291.877C486.812 292.074 486.556 292.171 486.299 292.171Z" fill="#E6D7A2"/>
<path d="M241.85 407.84C241.594 407.84 241.338 407.742 241.142 407.546C240.75 407.155 240.75 406.52 241.142 406.128L270.809 376.453C271.2 376.062 271.836 376.062 272.226 376.453C272.618 376.845 272.618 377.478 272.226 377.87L242.559 407.546C242.363 407.742 242.106 407.84 241.85 407.84Z" fill="#E6D7A2"/>
<path d="M574.457 -3.68504L586.684 -7.09243L584.041 -22.0852L571.398 -21.1052C569.973 -24.5779 568.091 -27.8106 565.826 -30.7368L573.002 -41.2077L561.343 -50.9926L552.286 -42.1111C549.031 -43.8236 545.523 -45.1164 541.83 -45.918L540.6 -58.5449H525.38L524.149 -45.918C520.456 -45.1164 516.948 -43.8236 513.693 -42.1111L504.635 -50.9926L492.976 -41.2077L500.152 -30.7368C497.889 -27.8106 496.006 -24.5779 494.58 -21.1052L481.938 -22.0852L479.295 -7.09243L491.522 -3.68504C491.673 0.123135 492.332 3.79939 493.441 7.27713L483.129 14.6523L490.738 27.8358L502.285 22.5878C504.786 25.3368 507.658 27.7391 510.81 29.7367L507.648 42.0282L521.95 47.2348L527.426 35.7839C529.246 36.0276 531.1 36.1658 532.987 36.1658C534.873 36.1658 536.727 36.0276 538.548 35.7839L544.024 47.2348L558.326 42.0282L555.163 29.7367C558.316 27.7391 561.187 25.3368 563.688 22.5878L575.236 27.8358L582.845 14.6523L572.533 7.27713C573.647 3.79939 574.306 0.123135 574.457 -3.68504ZM532.991 19.6804C519.17 19.6804 507.965 8.47324 507.965 -5.35104C507.965 -19.1753 519.17 -30.3825 532.991 -30.3825C546.811 -30.3825 558.016 -19.1753 558.016 -5.35104C558.016 8.47324 546.811 19.6804 532.991 19.6804Z" fill="#B68A35"/>
<path d="M553.191 -0.899694C555.807 -12.0697 548.875 -23.2462 537.708 -25.8632C526.541 -28.4801 515.367 -21.5465 512.751 -10.3765C510.135 0.793436 517.067 11.97 528.234 14.587C539.401 17.2039 550.575 10.2703 553.191 -0.899694Z" fill="#B68A35"/>
<path d="M567.563 483.797L578.725 480.687L576.312 467.001L564.771 467.896C563.47 464.726 561.751 461.775 559.685 459.104L566.237 449.545L555.594 440.612L547.326 448.719C544.356 447.155 541.153 445.975 537.781 445.244L536.658 433.718H522.763L521.64 445.244C518.269 445.975 515.067 447.156 512.095 448.719L503.826 440.612L493.183 449.545L499.735 459.104C497.669 461.775 495.949 464.726 494.649 467.896L483.108 467.001L480.695 480.687L491.857 483.797C491.994 487.273 492.597 490.629 493.609 493.804L484.195 500.537L491.142 512.573L501.683 507.782C503.967 510.291 506.589 512.483 509.466 514.308L506.578 525.529L519.634 530.282L524.634 519.828C526.295 520.051 527.987 520.176 529.709 520.176C531.432 520.176 533.124 520.051 534.785 519.828L539.785 530.282L552.841 525.529L549.953 514.308C552.83 512.483 555.452 510.291 557.736 507.782L568.277 512.573L575.224 500.537L565.81 493.804C566.825 490.629 567.426 487.273 567.563 483.797ZM529.711 505.127C517.093 505.127 506.865 494.896 506.865 482.275C506.865 469.655 517.093 459.424 529.711 459.424C542.328 459.424 552.557 469.655 552.557 482.275C552.557 494.896 542.328 505.127 529.711 505.127Z" fill="#D7BC6D"/>
<path d="M529.712 500.963C540.183 500.963 548.67 492.473 548.67 482C548.67 471.527 540.183 463.037 529.712 463.037C519.242 463.037 510.754 471.527 510.754 482C510.754 492.473 519.242 500.963 529.712 500.963Z" fill="#D7BC6D"/>
<path d="M121.668 -2.94039L133.652 -6.27993L131.062 -20.9749L118.67 -20.0137C117.273 -23.4173 115.428 -26.5872 113.208 -29.4544L120.242 -39.718L108.814 -49.3094L99.9361 -40.6025C96.7469 -42.2811 93.3077 -43.5488 89.6876 -44.334L88.4818 -56.7109H73.5631L72.3573 -44.334C68.7372 -43.5488 65.2993 -42.2811 62.1088 -40.6025L53.2307 -49.3094L41.8027 -39.718L48.8368 -29.4544C46.6173 -26.5872 44.7721 -23.4173 43.3753 -20.0137L30.9827 -20.9749L28.3926 -6.27993L40.377 -2.94039C40.524 0.792408 41.1709 4.39579 42.2587 7.80443L32.1496 15.0339L39.6096 27.9573L50.9282 22.8136C53.3801 25.5073 56.1951 27.8618 59.2851 29.8205L56.185 41.8695L70.2043 46.9731L75.5729 35.7483C77.3565 35.987 79.1741 36.1227 81.0231 36.1227C82.8721 36.1227 84.6896 35.987 86.4733 35.7483L91.8419 46.9731L105.861 41.8695L102.761 29.8205C105.851 27.8618 108.666 25.5073 111.118 22.8136L122.437 27.9573L129.895 15.0339L119.786 7.80443C120.874 4.39705 121.521 0.793667 121.668 -2.94039ZM81.0231 19.9628C67.4748 19.9628 56.4928 8.97792 56.4928 -4.57372C56.4928 -18.1253 67.4748 -29.1101 81.0231 -29.1101C94.5714 -29.1101 105.553 -18.1241 105.553 -4.57372C105.553 8.97792 94.5701 19.9628 81.0231 19.9628Z" fill="#D7BC6D"/>
<path d="M35.252 475.247L44.5069 472.667L42.5059 461.318L32.9357 462.061C31.8567 459.432 30.4323 456.985 28.7177 454.77L34.1504 446.843L25.325 439.435L18.468 446.16C16.0048 444.863 13.3494 443.884 10.5533 443.278L9.62133 433.719H-1.8996L-2.83162 443.278C-5.6277 443.884 -8.28308 444.863 -10.7463 446.16L-17.6034 439.435L-26.4287 446.843L-20.9961 454.77C-22.7094 456.985 -24.1351 459.432 -25.2141 462.061L-34.7843 461.318L-36.7852 472.667L-27.5303 475.247C-27.416 478.13 -26.9173 480.913 -26.077 483.545L-33.8836 489.129L-28.1232 499.11L-19.382 495.137C-17.4891 497.218 -15.3148 499.036 -12.9282 500.548L-15.3223 509.853L-4.49595 513.795L-0.349567 505.127C1.02837 505.312 2.43142 505.416 3.85961 505.416C5.28779 505.416 6.69085 505.312 8.0688 505.127L12.2151 513.795L23.0414 509.853L20.6473 500.548C23.0339 499.036 25.207 497.218 27.1011 495.137L35.8423 499.11L41.6028 489.129L33.7961 483.545C34.639 480.912 35.1377 478.129 35.252 475.247ZM3.86212 492.935C-6.60117 492.935 -15.0824 484.45 -15.0824 473.985C-15.0824 463.52 -6.60117 455.036 3.86212 455.036C14.3254 455.036 22.8065 463.52 22.8065 473.985C22.8065 484.45 14.3254 492.935 3.86212 492.935Z" fill="#B68A35"/>
<path d="M1077.14 465.88L1094.8 460.957L1090.98 439.297L1072.72 440.713C1070.66 435.696 1067.94 431.025 1064.67 426.798L1075.04 411.671L1058.19 397.534L1045.11 410.367C1040.4 407.892 1035.34 406.025 1030 404.866L1028.22 386.623H1006.23L1004.46 404.866C999.121 406.025 994.054 407.892 989.351 410.367L976.265 397.534L959.421 411.671L969.79 426.798C966.519 431.025 963.798 435.696 961.74 440.713L943.475 439.297L939.656 460.957L957.321 465.88C957.538 471.382 958.491 476.693 960.093 481.717L945.194 492.374L956.189 511.421L972.872 503.84C976.486 507.81 980.635 511.282 985.19 514.168L980.62 531.926L1001.28 539.448L1009.19 522.905C1011.82 523.258 1014.5 523.456 1017.23 523.456C1019.96 523.456 1022.63 523.258 1025.26 522.905L1033.17 539.448L1053.84 531.926L1049.27 514.168C1053.82 511.282 1057.97 507.81 1061.58 503.84L1078.27 511.421L1089.26 492.374L1074.36 481.717C1075.97 476.694 1076.92 471.382 1077.14 465.88ZM1017.23 499.637C997.263 499.637 981.076 483.446 981.076 463.473C981.076 443.499 997.263 427.308 1017.23 427.308C1037.2 427.308 1053.39 443.499 1053.39 463.473C1053.39 483.446 1037.2 499.637 1017.23 499.637Z" fill="#D7BC6D"/>
</g>
</g>
</g>
<defs>
<clipPath id="clip0_7721_5362">
<rect width="1030" height="474" fill="white"/>
</clipPath>
</defs>
</svg>
