<svg width="132" height="82" viewBox="0 0 132 82" fill="none" xmlns="http://www.w3.org/2000/svg">
	<path fill-rule="evenodd" clip-rule="evenodd" d="M126.467 15.0063C129.523 15.0063 132 17.4835 132 20.5393C132 23.595 129.523 26.0722 126.467 26.0722H94.8503C97.9061 26.0722 100.383 28.5494 100.383 31.6052C100.383 34.6609 97.9061 37.1381 94.8503 37.1381H112.24C115.295 37.1381 117.772 39.6153 117.772 42.671C117.772 45.7268 115.295 48.204 112.24 48.204H104.198C100.345 48.204 97.2216 50.6811 97.2216 53.7369C97.2216 55.7742 98.8024 57.6182 101.964 59.2698C105.02 59.2698 107.497 61.747 107.497 64.8028C107.497 67.8585 105.02 70.3357 101.964 70.3357H36.3593C33.3035 70.3357 30.8263 67.8585 30.8263 64.8028C30.8263 61.747 33.3035 59.2698 36.3593 59.2698H5.53293C2.47717 59.2698 0 56.7926 0 53.7369C0 50.6811 2.47717 48.204 5.53293 48.204H37.1497C40.2055 48.204 42.6826 45.7268 42.6826 42.671C42.6826 39.6153 40.2055 37.1381 37.1497 37.1381H17.3892C14.3335 37.1381 11.8563 34.6609 11.8563 31.6052C11.8563 28.5494 14.3335 26.0722 17.3892 26.0722H49.006C45.9502 26.0722 43.4731 23.595 43.4731 20.5393C43.4731 17.4835 45.9502 15.0063 49.006 15.0063H126.467ZM126.467 37.1381C129.523 37.1381 132 39.6153 132 42.671C132 45.7268 129.523 48.204 126.467 48.204C123.411 48.204 120.934 45.7268 120.934 42.671C120.934 39.6153 123.411 37.1381 126.467 37.1381Z" fill="#F1F5F9"/>
	<path fill-rule="evenodd" clip-rule="evenodd" d="M84.3157 11.8442L91.6678 65.4683L92.3286 70.8482C92.5412 72.5812 91.3089 74.1589 89.5756 74.3715L43.2886 80.055C41.5556 80.2677 39.9779 79.0354 39.7653 77.3024L32.6389 19.2639C32.5326 18.3972 33.1487 17.6084 34.0154 17.5021C34.0209 17.5013 34.0265 17.5009 34.0316 17.5001L37.8719 17.0693" fill="white"/>
	<path d="M84.3157 11.8442L91.6678 65.4682L92.3286 70.8482C92.5412 72.5812 91.3089 74.1589 89.5756 74.3715L43.2886 80.055C41.5556 80.2677 39.9779 79.0354 39.7653 77.3024L32.6389 19.2639C32.5326 18.3972 33.1487 17.6084 34.0154 17.5021C34.0209 17.5013 34.0265 17.5009 34.0316 17.5001L37.8719 17.0693M40.977 16.7211L44.6027 16.3145" stroke="#9EA2A9" stroke-width="3" stroke-linecap="round" stroke-linejoin="round"/>
	<path fill-rule="evenodd" clip-rule="evenodd" d="M82.3145 15.2188L88.9694 63.8169L89.5682 68.6922C89.761 70.2632 88.6592 71.6907 87.1072 71.8811L45.656 76.971C44.1036 77.1615 42.6892 76.0427 42.4963 74.4721L36.0544 22.0069C35.9481 21.1402 36.5642 20.3513 37.4309 20.245L42.5588 19.6155" fill="#CBD5E1"/>
	<path d="M48.1543 3.94025C48.1543 2.73961 49.1273 1.7666 50.3279 1.7666H86.3367C86.9129 1.7666 87.4658 1.99543 87.8733 2.40289L98.4993 13.0222C98.9071 13.4296 99.1363 13.9829 99.1363 14.5595V64.0121C99.1363 65.2128 98.1629 66.1858 96.9627 66.1858H50.3279C49.1273 66.1858 48.1543 65.2128 48.1543 64.0121V3.94025Z" fill="white" stroke="#9EA2A9" stroke-width="3"/>
	<path d="M86.687 2.67773V11.8442C86.687 13.154 87.7485 14.2155 89.0583 14.2155H95.3291" stroke="#9EA2A9" stroke-width="3" stroke-linecap="round" stroke-linejoin="round"/>
	<path d="M56.1201 54.5272H76.671M56.1201 14.2158H76.671M56.1201 23.7009H90.1081M56.1201 33.9763H90.1081M56.1201 44.2517H90.1081" stroke="#C3C6CB" stroke-width="5" stroke-linecap="round" stroke-linejoin="round"/>
</svg>
