<svg width="24" height="18" viewBox="0 0 24 18" fill="none" xmlns="http://www.w3.org/2000/svg">
	<path d="M22.95 10.0999C22.8712 10.159 22.7816 10.202 22.6861 10.2265C22.5907 10.2509 22.4914 10.2563 22.3939 10.2424C22.2964 10.2285 22.2026 10.1955 22.1179 10.1453C22.0331 10.0951 21.9591 10.0287 21.9 9.94992C21.448 9.34229 20.8596 8.84929 20.1822 8.5106C19.5048 8.1719 18.7573 7.99699 18 7.99992C17.8525 7.99991 17.7083 7.95641 17.5854 7.87487C17.4625 7.79333 17.3664 7.67737 17.3091 7.54149C17.2701 7.44921 17.2501 7.35008 17.2501 7.24992C17.2501 7.14977 17.2701 7.05064 17.3091 6.95836C17.3664 6.82248 17.4625 6.70651 17.5854 6.62497C17.7083 6.54343 17.8525 6.49994 18 6.49992C18.4208 6.49989 18.8332 6.38184 19.1903 6.15918C19.5474 5.93653 19.8349 5.61819 20.0201 5.24034C20.2053 4.86248 20.2809 4.44025 20.2382 4.02161C20.1955 3.60296 20.0362 3.20468 19.7785 2.87201C19.5208 2.53933 19.175 2.2856 18.7803 2.13963C18.3856 1.99365 17.9579 1.96129 17.5457 2.04622C17.1336 2.13115 16.7535 2.32996 16.4487 2.62007C16.1438 2.91018 15.9265 3.27997 15.8213 3.68742C15.7966 3.78284 15.7535 3.87247 15.6942 3.95119C15.6349 4.02992 15.5608 4.09621 15.4759 4.14626C15.391 4.19632 15.2971 4.22917 15.1995 4.24293C15.1019 4.2567 15.0026 4.25111 14.9072 4.22649C14.8118 4.20186 14.7222 4.15869 14.6434 4.09943C14.5647 4.04016 14.4984 3.96598 14.4484 3.8811C14.3983 3.79622 14.3655 3.70231 14.3517 3.60474C14.3379 3.50717 14.3435 3.40784 14.3681 3.31242C14.5142 2.74741 14.79 2.22426 15.1738 1.78463C15.5576 1.34499 16.0387 1.00099 16.5788 0.780002C17.1189 0.559012 17.7032 0.467131 18.285 0.511671C18.8669 0.55621 19.4304 0.73594 19.9306 1.03656C20.4308 1.33718 20.8539 1.75039 21.1663 2.24332C21.4787 2.73624 21.6717 3.29527 21.7301 3.87593C21.7884 4.45659 21.7104 5.04285 21.5023 5.58806C21.2942 6.13327 20.9617 6.62239 20.5313 7.01649C21.5511 7.45805 22.4376 8.15875 23.1028 9.04899C23.1619 9.12798 23.2048 9.21786 23.2291 9.31346C23.2534 9.40907 23.2587 9.50854 23.2445 9.60616C23.2303 9.70378 23.1969 9.79765 23.1464 9.88237C23.0959 9.9671 23.0292 10.041 22.95 10.0999ZM17.8988 15.8749C17.953 15.9603 17.9895 16.0557 18.0059 16.1556C18.0223 16.2554 18.0184 16.3575 17.9943 16.4557C17.9702 16.554 17.9265 16.6463 17.8658 16.7272C17.8052 16.8082 17.7287 16.876 17.6412 16.9266C17.5536 16.9772 17.4567 17.0096 17.3563 17.0218C17.2558 17.034 17.154 17.0258 17.0569 16.9976C16.9597 16.9694 16.8693 16.9219 16.791 16.8578C16.7127 16.7938 16.6481 16.7146 16.6013 16.6249C16.1288 15.8249 15.4559 15.1619 14.649 14.7014C13.8421 14.2408 12.9291 13.9986 12 13.9986C11.0709 13.9986 10.1579 14.2408 9.35099 14.7014C8.54409 15.1619 7.87122 15.8249 7.39876 16.6249C7.35187 16.7146 7.28734 16.7938 7.20905 16.8578C7.13075 16.9219 7.04031 16.9694 6.94316 16.9976C6.84602 17.0258 6.74417 17.034 6.64376 17.0218C6.54334 17.0096 6.44644 16.9772 6.35886 16.9266C6.27129 16.876 6.19486 16.8082 6.13417 16.7272C6.07349 16.6463 6.0298 16.554 6.00573 16.4557C5.98167 16.3575 5.97772 16.2554 5.99414 16.1556C6.01056 16.0557 6.04699 15.9603 6.10126 15.8749C6.82838 14.6256 7.93707 13.6424 9.26438 13.0699C8.5175 12.4981 7.9686 11.7066 7.69482 10.8066C7.42105 9.90671 7.43616 8.9436 7.73805 8.05271C8.03994 7.16182 8.61342 6.38792 9.37789 5.83981C10.1423 5.29169 11.0594 4.99692 12 4.99692C12.9407 4.99692 13.8577 5.29169 14.6221 5.83981C15.3866 6.38792 15.9601 7.16182 16.262 8.05271C16.5639 8.9436 16.579 9.90671 16.3052 10.8066C16.0314 11.7066 15.4825 12.4981 14.7356 13.0699C16.063 13.6424 17.1716 14.6256 17.8988 15.8749ZM12 12.4999C12.5934 12.4999 13.1734 12.324 13.6667 11.9943C14.1601 11.6647 14.5446 11.1962 14.7716 10.648C14.9987 10.0998 15.0581 9.4966 14.9424 8.91465C14.8266 8.33271 14.5409 7.79816 14.1213 7.3786C13.7018 6.95905 13.1672 6.67332 12.5853 6.55757C12.0033 6.44181 11.4001 6.50122 10.852 6.72829C10.3038 6.95535 9.83525 7.33987 9.5056 7.83321C9.17596 8.32656 9.00001 8.90658 9.00001 9.49992C9.00001 10.2956 9.31608 11.0586 9.87869 11.6212C10.4413 12.1839 11.2044 12.4999 12 12.4999ZM6.75001 7.24992C6.75001 7.05101 6.67099 6.86025 6.53034 6.71959C6.38969 6.57894 6.19892 6.49992 6.00001 6.49992C5.57919 6.49989 5.16682 6.38184 4.80973 6.15918C4.45264 5.93653 4.16515 5.61819 3.97991 5.24034C3.79468 4.86248 3.71912 4.44025 3.76182 4.02161C3.80452 3.60296 3.96377 3.20468 4.22149 2.87201C4.4792 2.53933 4.82504 2.2856 5.21973 2.13963C5.61442 1.99365 6.04213 1.96129 6.45429 2.04622C6.86645 2.13115 7.24653 2.32996 7.55136 2.62007C7.85619 2.91018 8.07355 3.27997 8.17876 3.68742C8.22849 3.88012 8.35273 4.04517 8.52415 4.14626C8.69557 4.24736 8.90013 4.27621 9.09282 4.22649C9.28552 4.17676 9.45057 4.05252 9.55166 3.8811C9.65276 3.70968 9.68161 3.50512 9.63188 3.31242C9.48586 2.74741 9.20999 2.22426 8.82621 1.78463C8.44243 1.34499 7.96134 1.00099 7.42122 0.780002C6.88109 0.559012 6.29685 0.467131 5.71497 0.511671C5.13309 0.55621 4.56964 0.73594 4.06944 1.03656C3.56924 1.33718 3.14611 1.75039 2.83372 2.24332C2.52132 2.73624 2.32828 3.29527 2.26995 3.87593C2.21162 4.45659 2.28962 5.04285 2.49774 5.58806C2.70586 6.13327 3.03835 6.62239 3.46876 7.01649C2.44996 7.45846 1.56443 8.15913 0.90001 9.04899C0.780538 9.20812 0.729174 9.40819 0.757216 9.60519C0.785259 9.80219 0.890411 9.97998 1.04954 10.0995C1.20867 10.2189 1.40874 10.2703 1.60574 10.2422C1.80275 10.2142 1.98054 10.1091 2.10001 9.94992C2.55206 9.34229 3.14046 8.84929 3.81785 8.5106C4.49523 8.1719 5.24268 7.99699 6.00001 7.99992C6.19892 7.99992 6.38969 7.92091 6.53034 7.78025C6.67099 7.6396 6.75001 7.44884 6.75001 7.24992Z" fill="#92722A"/>
</svg>
