<svg width="32" height="32" viewBox="0 0 32 32" fill="none" xmlns="http://www.w3.org/2000/svg">
<path d="M3 12.7501H6.25V21.2501H4C3.80109 21.2501 3.61032 21.3292 3.46967 21.4698C3.32902 21.6105 3.25 21.8012 3.25 22.0001C3.25 22.1991 3.32902 22.3898 3.46967 22.5305C3.61032 22.6711 3.80109 22.7501 4 22.7501H28C28.1989 22.7501 28.3897 22.6711 28.5303 22.5305C28.671 22.3898 28.75 22.1991 28.75 22.0001C28.75 21.8012 28.671 21.6105 28.5303 21.4698C28.3897 21.3292 28.1989 21.2501 28 21.2501H25.75V12.7501H29C29.1633 12.75 29.322 12.6966 29.4522 12.5981C29.5823 12.4995 29.6768 12.3612 29.7212 12.2041C29.7656 12.047 29.7575 11.8797 29.6982 11.7276C29.6389 11.5755 29.5315 11.4469 29.3925 11.3614L16.3925 3.36139C16.2744 3.28888 16.1386 3.25049 16 3.25049C15.8614 3.25049 15.7256 3.28888 15.6075 3.36139L2.6075 11.3614C2.46846 11.4469 2.36114 11.5755 2.30182 11.7276C2.2425 11.8797 2.23443 12.047 2.27883 12.2041C2.32323 12.3612 2.41768 12.4995 2.54784 12.5981C2.67799 12.6966 2.83675 12.75 3 12.7501ZM7.75 12.7501H12.25V21.2501H7.75V12.7501ZM18.25 12.7501V21.2501H13.75V12.7501H18.25ZM24.25 21.2501H19.75V12.7501H24.25V21.2501ZM16 4.87514L26.35 11.2501H5.65L16 4.87514ZM30.75 26.0001C30.75 26.1991 30.671 26.3898 30.5303 26.5305C30.3897 26.6711 30.1989 26.7501 30 26.7501H2C1.80109 26.7501 1.61032 26.6711 1.46967 26.5305C1.32902 26.3898 1.25 26.1991 1.25 26.0001C1.25 25.8012 1.32902 25.6105 1.46967 25.4698C1.61032 25.3292 1.80109 25.2501 2 25.2501H30C30.1989 25.2501 30.3897 25.3292 30.5303 25.4698C30.671 25.6105 30.75 25.8012 30.75 26.0001Z" fill="#343330"/>
</svg>
