<svg width="20" height="20" viewBox="0 0 20 20" fill="none" xmlns="http://www.w3.org/2000/svg">
<path d="M17.7595 2.24059C17.6023 2.0835 17.4061 1.97116 17.1911 1.91514C16.976 1.85911 16.7499 1.86142 16.5361 1.92184H16.5243L1.52903 6.47184C1.28494 6.54204 1.06802 6.68493 0.907157 6.88149C0.746298 7.07805 0.649134 7.31895 0.628603 7.57211C0.608072 7.82526 0.665148 8.07867 0.792232 8.29858C0.919316 8.51849 1.11038 8.69447 1.33997 8.80309L8.02903 11.9711L11.197 18.6601C11.297 18.8743 11.4562 19.0555 11.6559 19.1821C11.8555 19.3088 12.0872 19.3757 12.3236 19.375C12.3595 19.375 12.3954 19.3734 12.4314 19.3703C12.6836 19.3498 12.9236 19.2528 13.1191 19.092C13.3146 18.9313 13.4563 18.7146 13.5251 18.4711L18.072 3.47574C18.072 3.47184 18.072 3.46793 18.072 3.46403C18.1332 3.25072 18.1365 3.02496 18.0816 2.80995C18.0267 2.59493 17.9155 2.39842 17.7595 2.24059ZM12.3306 18.1132L12.3267 18.1242L9.25169 11.6328L12.9423 7.94137C13.0546 7.82321 13.1162 7.66586 13.1142 7.50289C13.1121 7.33991 13.0464 7.1842 12.9311 7.06895C12.8159 6.95369 12.6602 6.88802 12.4972 6.88594C12.3342 6.88385 12.1769 6.94551 12.0587 7.05778L8.36731 10.7484L1.87513 7.6734H1.88607L16.8751 3.12496L12.3306 18.1132Z" fill="#4B4F58"/>
</svg>
