<svg xmlns="http://www.w3.org/2000/svg" xmlns:xlink="http://www.w3.org/1999/xlink" width="16.401" height="23.452" viewBox="0 0 16.401 23.452">
  <defs>
    <clipPath id="clip-path">
      <rect id="Rectangle_6943" data-name="Rectangle 6943" width="16.401" height="23.452" transform="translate(0 0)" fill="#ffb400"/>
    </clipPath>
  </defs>
  <g id="political-party" transform="translate(0 0)">
    <g id="Group_96799" data-name="Group 96799" clip-path="url(#clip-path)">
      <path id="Path_82561" data-name="Path 82561" d="M15.411,22.83l-1.176-6.5h.182a.369.369,0,1,0,0-.738H.885a.369.369,0,0,0,0,.738h.384L.009,22.85a.506.506,0,0,0,.5.6H3.172c-.008-.112-.014-.225-.014-.34a4.551,4.551,0,1,1,9.1,0c0,.115-.005.228-.014.34h2.644a.528.528,0,0,0,.52-.622" fill="#ffb400"/>
      <path id="Path_82562" data-name="Path 82562" d="M7.2,11.577l-.824-2.6s-.549.24-1.236.549-1.716.652-1.785,3.089l-.319,2.7H6.182a.246.246,0,0,0,.2-.109l.26-.391,1.065.035v-.859a.919.919,0,0,1-.653-.961c.036-.625.138-1.445.138-1.445" fill="#ffb400"/>
      <path id="Path_82563" data-name="Path 82563" d="M7.7,9.938,7.39,11.383a1.354,1.354,0,0,1,.992,0L8.1,10.061A.212.212,0,0,1,8.13,9.9a1.35,1.35,0,0,1,.194-.253c.04-.023-.125-.271-.245-.442a.178.178,0,0,0-.266-.028l-.338.313a1.309,1.309,0,0,0,.218.407.045.045,0,0,1,.012.041" fill="#ffb400"/>
      <path id="Path_82564" data-name="Path 82564" d="M8.106,13.956v.91H9.162a.745.745,0,0,1,.388.441l2.306-.052-.1-4.139,1.2-2.087,1.711-2.355s.582-1.395.692-1.857c.077-.327.667-2.455,1-3.665a.908.908,0,0,0-1.743-.51c-.484,1.578-1.515,4.77-2.114,5.377-.8.813-1.99,2.039-1.99,2.039l-1.068.914L8.9,10.558,8.6,11.589l.1.146v1.553a.673.673,0,0,1-.6.668" fill="#ffb400"/>
      <path id="Path_82565" data-name="Path 82565" d="M7.958,8.082h0a2.294,2.294,0,0,1-2.019-1.5,3.413,3.413,0,0,1-.368-1.559V3.9a2.387,2.387,0,0,1,4.774,0l-.077.961a5.015,5.015,0,0,1-.431,1.69c-.394.861-.891,1.528-1.879,1.528" fill="#ffb400"/>
    </g>
  </g>
</svg>
