<svg xmlns="http://www.w3.org/2000/svg" width="108.544" height="104" viewBox="0 0 108.544 104">
  <g id="Group_96279" data-name="Group 96279" transform="translate(223.825 108.024)">
    <path id="Path_82007" data-name="Path 82007" d="M-117.781-56.023c0,5.3-6.046,9.574-7.6,14.354-1.609,4.954.713,11.957-2.288,16.08-3.03,4.165-10.428,4.106-14.593,7.137-4.123,3-6.337,10.071-11.291,11.68-4.779,1.552-10.705-2.816-16-2.816s-11.223,4.368-16,2.816c-4.954-1.608-7.168-8.679-11.291-11.68-4.165-3.03-11.563-2.972-14.593-7.137-3-4.123-.679-11.126-2.288-16.08-1.552-4.779-7.6-9.057-7.6-14.354s6.046-9.574,7.6-14.354c1.608-4.954-.713-11.957,2.288-16.08,3.031-4.165,10.429-4.106,14.594-7.137,4.123-3,6.337-10.071,11.291-11.68,4.779-1.552,10.7,2.817,16,2.817s11.223-4.369,16-2.817c4.954,1.609,7.168,8.679,11.291,11.68,4.164,3.031,11.562,2.973,14.593,7.137,3,4.123.679,11.126,2.288,16.08C-123.827-65.6-117.781-61.32-117.781-56.023Z" transform="translate(0)" fill="none" stroke="#000" stroke-miterlimit="10" stroke-width="5"/>
    <path id="Path_82008" data-name="Path 82008" d="M-147.113-18.556l7.811,8.485,18.3-22.337" transform="translate(-34.915 -34.439)" fill="none" stroke="#aec737" stroke-linecap="round" stroke-miterlimit="10" stroke-width="5"/>
    <circle id="Ellipse_683" data-name="Ellipse 683" cx="27.838" cy="27.838" r="27.838" transform="translate(-197.39 -83.861)" fill="none" stroke="#aec737" stroke-linecap="round" stroke-miterlimit="10" stroke-width="5"/>
  </g>
</svg>
