<svg xmlns="http://www.w3.org/2000/svg" width="108.545" height="104" viewBox="0 0 108.545 104">
  <g id="Group_96329" data-name="Group 96329" transform="translate(-10316.768 -7323)">
    <g id="Group_96326" data-name="Group 96326" transform="translate(10540.593 7431.023)">
      <path id="Path_82007" data-name="Path 82007" d="M-117.781-56.023c0,5.3-6.046,9.574-7.6,14.354-1.609,4.954.713,11.957-2.288,16.08-3.03,4.165-10.428,4.106-14.593,7.137-4.123,3-6.337,10.071-11.291,11.68-4.779,1.552-10.705-2.816-16-2.816s-11.223,4.368-16,2.816c-4.954-1.608-7.168-8.679-11.291-11.68-4.165-3.03-11.563-2.972-14.593-7.137-3-4.123-.679-11.126-2.288-16.08-1.552-4.779-7.6-9.057-7.6-14.354s6.046-9.574,7.6-14.354c1.608-4.954-.713-11.957,2.288-16.08,3.031-4.165,10.429-4.106,14.594-7.137,4.123-3,6.337-10.071,11.291-11.68,4.779-1.552,10.7,2.817,16,2.817s11.223-4.369,16-2.817c4.954,1.609,7.168,8.679,11.291,11.68,4.164,3.031,11.562,2.973,14.593,7.137,3,4.123.679,11.126,2.288,16.08C-123.827-65.6-117.781-61.32-117.781-56.023Z" fill="none" stroke="#000006" stroke-miterlimit="10" stroke-width="5"/>
      <circle id="Ellipse_683" data-name="Ellipse 683" cx="27.838" cy="27.838" r="27.838" transform="translate(-197.391 -83.86)" fill="none" stroke="#188ae2" stroke-linecap="round" stroke-miterlimit="10" stroke-width="5"/>
      <g id="Polygon_6" data-name="Polygon 6" transform="translate(-190.553 -79.607)" fill="none">
        <path d="M17.545,5.923a4,4,0,0,1,6.91,0L38.491,29.985A4,4,0,0,1,35.036,36H6.964a4,4,0,0,1-3.455-6.015Z" stroke="none"/>
        <path d="M 20.99999809265137 6.93853759765625 C 20.78548812866211 6.93853759765625 20.38803863525391 7.002986907958984 20.13622856140137 7.434667587280273 L 6.100368499755859 31.49612808227539 C 5.846599578857422 31.93116760253906 5.989326477050781 32.31059646606445 6.096996307373047 32.4980583190918 C 6.204669952392578 32.68551635742188 6.460498809814453 32.99999618530273 6.964149475097656 32.99999618530273 L 35.03585815429688 32.99999618530273 C 35.53949737548828 32.99999618530273 35.79532623291016 32.68551635742188 35.90299987792969 32.4980583190918 C 36.01066970825195 32.31059646606445 36.15339660644531 31.93116760253906 35.89962768554688 31.49612808227539 L 21.86378860473633 7.434677124023438 C 21.61196899414062 7.002998352050781 21.21450805664062 6.93853759765625 20.99999809265137 6.93853759765625 M 21.00000381469727 3.938541412353516 C 22.34168243408203 3.938541412353516 23.68336296081543 4.600048065185547 24.45511817932129 5.923057556152344 L 38.490966796875 29.98451614379883 C 40.0464973449707 32.65113830566406 38.12301635742188 35.99999618530273 35.03585815429688 35.99999618530273 L 6.964149475097656 35.99999618530273 C 3.876979827880859 35.99999618530273 1.953498840332031 32.65113830566406 3.509029388427734 29.98451614379883 L 17.54488754272461 5.923057556152344 C 18.31664276123047 4.600048065185547 19.65832328796387 3.938541412353516 21.00000381469727 3.938541412353516 Z" stroke="none" fill="#000006"/>
      </g>
    </g>
    <rect id="Rectangle_4634" data-name="Rectangle 4634" width="4" height="11" transform="translate(10369 7372.082)"/>
    <circle id="Ellipse_711" data-name="Ellipse 711" cx="3" cy="3" r="3" transform="translate(10368 7365.082)" fill="#000026"/>
  </g>
</svg>
