<svg xmlns="http://www.w3.org/2000/svg" xmlns:xlink="http://www.w3.org/1999/xlink" width="105.133" height="85.638" viewBox="0 0 105.133 85.638">
  <defs>
    <clipPath id="clip-path">
      <rect id="Rectangle_49776" data-name="Rectangle 49776" width="105.133" height="85.638" fill="#97722e"/>
    </clipPath>
  </defs>
  <g id="PaymentsSVG" clip-path="url(#clip-path)">
    <path id="Path_110406" data-name="Path 110406" d="M0,10.424a3.621,3.621,0,0,1,2.615-.6c2.762.01,5.525,0,8.287.034,1.56.018,1.6.085,1.6,1.613V35.793c0,1.206-.226,1.471-1.4,1.473-3.238.006-6.475.01-9.711-.049A4.247,4.247,0,0,1,0,36.644V10.424" transform="translate(0 -4.462)" fill="#97722e"/>
    <path id="Path_110407" data-name="Path 110407" d="M27.879,18.972V10.549A5.982,5.982,0,0,1,27.9,9.87c.136-1.181.567-1.633,1.756-1.758a12.512,12.512,0,0,1,1.693-.032,15.244,15.244,0,0,0,5.4-.826q7.03-2.387,14.035-4.831c1.682-.59,3.341-1.257,4.98-1.96A5.362,5.362,0,0,1,59.85.35,98.424,98.424,0,0,1,75.784,7.837a6.96,6.96,0,0,1,2.334,2.2q4.4,6.967,8.6,14.059A16.2,16.2,0,0,1,88.064,27.4a2.258,2.258,0,0,1-.92,2.391,2.121,2.121,0,0,1-2.313.509,15.539,15.539,0,0,1-4.561-3.128c-2.17-1.81-4.244-3.756-6.536-5.394a48.659,48.659,0,0,0-10.169-5.658,15.789,15.789,0,0,0-2.77-.867,3.366,3.366,0,0,0-3.579,1.219,3.783,3.783,0,0,0,.337,4.4,6.179,6.179,0,0,0,3.968,1.661A29.724,29.724,0,0,1,76.732,29a7.677,7.677,0,0,1,2.523,3.389,3.423,3.423,0,0,1-2.378,4.835,6.089,6.089,0,0,1-3.064.194c-3.167-.64-6.339-1.308-9.542-1.694a19.7,19.7,0,0,0-4.98.334c-3.109.435-6.188,1.116-9.307,1.444a12.21,12.21,0,0,1-9.109-2.31c-1.214-.943-2.438-1.882-3.724-2.721A11.793,11.793,0,0,0,30.8,30.382c-2.112-.033-2.918-.951-2.919-3.056V18.972" transform="translate(-12.661)" fill="#97722e"/>
    <path id="Path_110408" data-name="Path 110408" d="M92.739,100.068c2.54-1.589,4.863-1.086,7.2,1.55l11.874-7.589c-.175-.372-.361-.7-.491-1.056a5.017,5.017,0,0,1,1.7-5.825c.328-.284.37-.456.124-.824q-3.84-5.759-7.644-11.541c-1.656-2.511-3.29-5.036-4.955-7.541a1.006,1.006,0,0,1-.061-1.1,25.426,25.426,0,0,0,.791-2.5,4.853,4.853,0,0,0,.1-.5c.95.146,1.835.259,2.709.432a1,1,0,0,1,.538.438q4.845,7.413,9.669,14.839,4.661,7.168,9.317,14.339c.059.092.108.191.194.344l-29.61,18.795c-9.082-14.017-18.172-28.043-27.37-42.237.942,0,1.638.035,2.329-.009a16.048,16.048,0,0,0,2.69-.3,1.148,1.148,0,0,1,1.432.616q4.128,6.341,8.3,12.653,5.2,7.909,10.409,15.816c.259.393.5.8.754,1.194" transform="translate(-30.347 -28.671)" fill="#97722e"/>
    <path id="Path_110409" data-name="Path 110409" d="M140.566,50.07c1.537,2.362,2.974,4.568,4.407,6.775l20.76,31.981c.6.922.568.907-.4,1.514q-5.636,3.526-11.242,7.1-8.475,5.383-16.934,10.79c-.356.228-.539.2-.761-.141-.626-.968-1.269-1.926-1.917-2.88-.23-.34-.244-.543.165-.8q10.337-6.5,20.654-13.031a4.734,4.734,0,0,0,2.388-3.369,4.294,4.294,0,0,0-.6-2.994q-1.608-2.594-3.268-5.156-6.932-10.665-13.881-21.319c-.457-.7-.9-1.412-1.388-2.091a.684.684,0,0,1,.079-1,6.953,6.953,0,0,0,1.937-4.164c.026-.345,0-.694,0-1.211" transform="translate(-60.998 -22.739)" fill="#97722e"/>
    <path id="Path_110410" data-name="Path 110410" d="M100.56,85.164a7.941,7.941,0,1,1,8.018,7.874,7.941,7.941,0,0,1-8.018-7.874" transform="translate(-45.668 -35.042)" fill="#97722e"/>
  </g>
</svg>
