<svg width="12" height="12" viewBox="0 0 12 12" fill="none" xmlns="http://www.w3.org/2000/svg">
	<path d="M10.1479 4.89796L6.39795 8.64796C6.34569 8.7004 6.28359 8.74201 6.21522 8.7704C6.14685 8.79879 6.07354 8.8134 5.99951 8.8134C5.92548 8.8134 5.85217 8.79879 5.7838 8.7704C5.71543 8.74201 5.65333 8.7004 5.60107 8.64796L1.85107 4.89796C1.7454 4.79229 1.68604 4.64896 1.68604 4.49952C1.68604 4.35008 1.7454 4.20676 1.85107 4.10108C1.95675 3.99541 2.10007 3.93605 2.24951 3.93605C2.39895 3.93605 2.54228 3.99541 2.64795 4.10108L5.99998 7.45312L9.35201 4.10062C9.45768 3.99494 9.601 3.93558 9.75045 3.93558C9.89989 3.93558 10.0432 3.99494 10.1489 4.10062C10.2546 4.20629 10.3139 4.34961 10.3139 4.49905C10.3139 4.6485 10.2546 4.79182 10.1489 4.89749L10.1479 4.89796Z" fill="#232528"/>
</svg>