<svg width="138" height="138" viewBox="0 0 138 138" fill="none" xmlns="http://www.w3.org/2000/svg">
<path d="M61.8952 28.6565L22.0132 97.7291C21.2928 98.9765 20.9135 100.391 20.9133 101.832C20.9132 103.272 21.2923 104.687 22.0125 105.935C22.7326 107.182 23.7685 108.218 25.016 108.939C26.2635 109.659 27.6786 110.038 29.119 110.038H108.877C110.317 110.038 111.732 109.659 112.98 108.939C114.227 108.218 115.263 107.182 115.983 105.935C116.703 104.687 117.082 103.272 117.082 101.832C117.082 100.391 116.703 98.9765 115.982 97.7291L76.1047 28.6565C75.3846 27.4094 74.349 26.3738 73.1018 25.6538C71.8547 24.9337 70.44 24.5547 68.9999 24.5547C67.5599 24.5547 66.1452 24.9337 64.898 25.6538C63.6509 26.3738 62.6153 27.4094 61.8952 28.6565Z" fill="#EDEDED"/>
<path d="M69.52 49.96H68.4797C65.9184 49.96 63.842 52.0363 63.842 54.5976V76.7649C63.842 79.3262 65.9184 81.4025 68.4797 81.4025H69.52C72.0814 81.4025 74.1577 79.3262 74.1577 76.7649V54.5976C74.1577 52.0363 72.0814 49.96 69.52 49.96Z" fill="#C7C6C5"/>
<path d="M68.9999 98.9836C71.8485 98.9836 74.1577 96.6744 74.1577 93.8258C74.1577 90.9772 71.8485 88.668 68.9999 88.668C66.1513 88.668 63.842 90.9772 63.842 93.8258C63.842 96.6744 66.1513 98.9836 68.9999 98.9836Z" fill="#C7C6C5"/>
</svg>
