<svg id="roles_W" xmlns="http://www.w3.org/2000/svg" xmlns:xlink="http://www.w3.org/1999/xlink" width="32.965" height="32.961" viewBox="0 0 32.965 32.961">
  <defs>
    <clipPath id="clip-path">
      <rect id="Rectangle_49801" data-name="Rectangle 49801" width="32.965" height="32.961" transform="translate(0 0)" fill="#fffefe"/>
    </clipPath>
  </defs>
  <g id="Group_114476" data-name="Group 114476" clip-path="url(#clip-path)">
    <path id="Path_110474" data-name="Path 110474" d="M6.122,3.788a5.076,5.076,0,0,1,.65.292c.649.417,1.3.838,1.924,1.285a.553.553,0,0,0,.726.023,12.874,12.874,0,0,1,4.263-1.7A.741.741,0,0,0,14.1,3.2c.2-.776.352-1.567.536-2.349A.988.988,0,0,1,15.687,0c.549,0,1.1-.008,1.648,0a.974.974,0,0,1,1.017.819c.176.73.335,1.465.492,2.2a.56.56,0,0,0,.5.522,10.726,10.726,0,0,1,4.094,1.694.51.51,0,0,0,.643.009c.706-.419,1.432-.806,2.143-1.219a.874.874,0,0,1,1.2.157c.438.459.9.9,1.343,1.35a.822.822,0,0,1,.123,1.235c-.448.729-.919,1.445-1.349,2.184a.6.6,0,0,0,.01.525,12.192,12.192,0,0,1,1.725,4.2.741.741,0,0,0,.477.414c.775.206,1.567.351,2.348.537a.961.961,0,0,1,.854,1.079c0,.618-.023,1.237.007,1.853.024.478-.2.678-.633.765-.805.16-1.6.35-2.405.518a.56.56,0,0,0-.516.508,11.28,11.28,0,0,1-1.663,4,.635.635,0,0,0-.006.784c.412.691.791,1.4,1.195,2.1a.874.874,0,0,1-.174,1.2c-.447.426-.878.869-1.312,1.308a.812.812,0,0,1-1.22.172c-.731-.444-1.445-.919-2.185-1.348a.651.651,0,0,0-.566-.013,12.285,12.285,0,0,1-4.2,1.722.738.738,0,0,0-.414.477c-.2.758-.348,1.532-.528,2.3a1,1,0,0,1-1.113.9c-.532,0-1.065.007-1.6,0a.974.974,0,0,1-1.019-.816c-.174-.713-.34-1.429-.483-2.149a.618.618,0,0,0-.556-.589,11.33,11.33,0,0,1-4-1.673.566.566,0,0,0-.692-.014c-.707.419-1.433.805-2.144,1.217a.874.874,0,0,1-1.2-.159c-.438-.46-.9-.9-1.343-1.351a.811.811,0,0,1-.115-1.231c.43-.66.862-1.32,1.316-1.964a.464.464,0,0,0,.007-.632,11.407,11.407,0,0,1-1.714-4.143.759.759,0,0,0-.46-.436c-.779-.252-1.577-.447-2.363-.679A1.015,1.015,0,0,1,0,17.179c0-.481,0-.961,0-1.442a1,1,0,0,1,.852-1.106c.73-.181,1.462-.351,2.2-.516a.547.547,0,0,0,.494-.472,12.631,12.631,0,0,1,1.705-4.1.531.531,0,0,0,0-.648c-.417-.708-.816-1.427-1.211-2.147-.316-.574-.27-.8.2-1.262s.889-.907,1.349-1.345a3.46,3.46,0,0,1,.535-.352m5.555,19.385a5.1,5.1,0,0,1,4.97-3.373c2.361.056,3.815,1.429,4.625,3.563,2.773-1.505,4.081-5.092,3.2-8.725a8.123,8.123,0,0,0-7.655-6.393,8.307,8.307,0,0,0-8.27,5.98c-.962,3.344.419,7.307,3.126,8.948" fill="#fffefe"/>
    <path id="Path_110475" data-name="Path 110475" d="M16.491,18.126a3.292,3.292,0,1,1,3.285-3.3,3.3,3.3,0,0,1-3.285,3.3" fill="#fffefe"/>
  </g>
</svg>
