<svg xmlns="http://www.w3.org/2000/svg" xmlns:xlink="http://www.w3.org/1999/xlink" width="23.196" height="11.868" viewBox="0 0 23.196 11.868">
  <defs>
    <clipPath id="clip-path">
      <rect id="Rectangle_6938" data-name="Rectangle 6938" width="23.196" height="11.868" transform="translate(0 0)" fill="#ffb400"/>
    </clipPath>
  </defs>
  <g id="Roles-icon" transform="translate(0 0)">
    <g id="Group_96798" data-name="Group 96798" clip-path="url(#clip-path)">
      <path id="Path_82537" data-name="Path 82537" d="M7.026,9.376a7.549,7.549,0,0,1-1.288-.563c-.132-.149-.281-.364-.281-.364L5.407,7.44s.414-.248.53-1.157c0,0,.347.082.38-.678a.573.573,0,0,0-.182-.447s.992-2.3-.744-2.745c0,0-.761-.959-2.447,0,0,0-1.141.811-.414,2.778,0,0-.529.447.182,1.174,0,0,.116.794.562,1.059L3.225,8.432s-.166.414-1.141.794S.083,9.888,0,11.21H5.681A2.018,2.018,0,0,1,7.026,9.376" fill="#ffb400"/>
      <path id="Path_82538" data-name="Path 82538" d="M21.823,9.486a11.191,11.191,0,0,1-1.554-.661,4.434,4.434,0,0,1-.281-.364l-.05-1.009s.413-.248.529-1.157c0,0,.347.082.38-.678a.569.569,0,0,0-.182-.447s.993-2.3-.744-2.745c0,0-.76-.959-2.447,0,0,0-1.141.81-.413,2.778,0,0-.529.447.182,1.174,0,0,.115.794.562,1.059l-.05,1.008s-.165.414-1.141.794c-.173.068-.348.132-.519.2a2.137,2.137,0,0,1,1.217,1.784h5.883a1.994,1.994,0,0,0-1.372-1.736" fill="#ffb400"/>
      <path id="Path_82539" data-name="Path 82539" d="M15.805,9.834c-.117-.069-.242-.136-.379-.2a14.231,14.231,0,0,1-2-.851c-.17-.191-.362-.468-.362-.468L13,7.017s.532-.319.681-1.489c0,0,.447.106.49-.873a.733.733,0,0,0-.234-.574s1.276-2.958-.958-3.532c0,0-.979-1.234-3.149,0,0,0-1.468,1.043-.532,3.575,0,0-.681.574.234,1.51,0,0,.149,1.021.724,1.362l-.064,1.3s-.213.532-1.468,1.021c-.389.152-.784.291-1.148.462a2.3,2.3,0,0,0-1.533,2.091H17.192a2.439,2.439,0,0,0-1.387-2.034" fill="#ffb400"/>
    </g>
  </g>
</svg>
