<svg xmlns="http://www.w3.org/2000/svg" width="392.322" height="351.945" viewBox="0 0 392.322 351.945">
  <g id="Group_186164" data-name="Group 186164" transform="translate(5156 9440.345)">
    <rect id="Rectangle" width="135.579" height="40.393" rx="20.197" transform="translate(-4942.524 -9379.771)" fill="#bcbaba"/>
    <rect id="Rectangle-Copy-8" width="112.51" height="40.393" rx="20.197" transform="translate(-5109.844 -9192.256)" fill="#bcbaba"/>
    <rect id="Rectangle-Copy-9" width="112.51" height="43.266" rx="21.633" transform="translate(-5156 -9252.828)" fill="#bcbaba"/>
    <rect id="Rectangle-Copy-10" width="112.51" height="40.393" rx="20.197" transform="translate(-4919.454 -9192.256)" fill="#bcbaba"/>
    <rect id="Rectangle-Copy-12" width="135.579" height="40.393" rx="20.197" transform="translate(-5109.844 -9379.771)" fill="#bcbaba"/>
    <rect id="Rectangle-Copy-19" width="40.393" height="40.393" rx="20.197" transform="translate(-4980.027 -9192.256)" fill="#bcbaba"/>
    <rect id="Rectangle-Copy-23" width="57.7" height="54.81" rx="27.405" transform="translate(-4988.68 -9319.182)" fill="#5e5e5e"/>
    <rect id="Rectangle-Copy-15" width="54.81" height="40.393" rx="20.197" transform="translate(-4913.674 -9440.345)" fill="#bcbaba"/>
    <rect id="Rectangle-Copy-16" width="54.81" height="40.393" rx="20.197" transform="translate(-5060.797 -9128.793)" fill="#bcbaba"/>
    <rect id="Rectangle-Copy-16-2" data-name="Rectangle-Copy-16" width="40.393" height="43.266" rx="20.197" transform="translate(-5055.034 -9319.182)" fill="#bcbaba"/>
    <rect id="Rectangle-Copy-16-3" data-name="Rectangle-Copy-16" width="77.897" height="43.266" rx="21.633" transform="translate(-4844.448 -9319.182)" fill="#bcbaba"/>
    <rect id="Rectangle-Copy-5" width="109.62" height="43.266" rx="21.633" transform="translate(-4873.298 -9252.828)" fill="#bcbaba"/>
    <rect id="Rectangle-Copy-14" width="121.163" height="40.393" rx="20.197" transform="translate(-5060.797 -9440.345)" fill="#bcbaba"/>
    <rect id="Rectangle-Copy-17" width="121.163" height="40.393" rx="20.197" transform="translate(-4980.027 -9128.793)" fill="#bcbaba"/>
    <rect id="Rectangle-Copy-7" width="72.116" height="43.266" rx="21.633" transform="translate(-5144.457 -9319.182)" fill="#bcbaba"/>
    <rect id="Rectangle-Copy-6" width="40.393" height="43.266" rx="20.197" transform="translate(-4905.021 -9319.182)" fill="#bcbaba"/>
    <rect id="Rectangle-Copy-24" width="109.62" height="43.266" rx="21.633" transform="translate(-5014.64 -9252.828)" fill="#5e5e5e"/>
  </g>
</svg>
