<svg id="Signature_Templates" data-name="Signature Templates" xmlns="http://www.w3.org/2000/svg" xmlns:xlink="http://www.w3.org/1999/xlink" width="18.976" height="19.334" viewBox="0 0 18.976 19.334">
  <defs>
    <clipPath id="clip-path">
      <rect id="Rectangle_2583" data-name="Rectangle 2583" width="18.976" height="19.334" fill="#fffdf9"/>
    </clipPath>
  </defs>
  <g id="Group_96291" data-name="Group 96291" clip-path="url(#clip-path)">
    <path id="Path_82337" data-name="Path 82337" d="M0,22.46V34.7a1.892,1.892,0,0,0,1.892,1.892H17.083A1.893,1.893,0,0,0,18.976,34.7V22.46Zm5.526,2.754a.461.461,0,0,1,.461-.461H8.313a.461.461,0,0,1,.461.461v2.465a.461.461,0,0,1-.461.461H5.986a.461.461,0,0,1-.461-.461Zm-4.177.115a.575.575,0,0,1,.575-.575h2.1a.575.575,0,0,1,.575.575v2.235a.575.575,0,0,1-.575.575h-2.1a.575.575,0,0,1-.575-.575Zm0,6.756V29.348a.26.26,0,0,1,.26-.26H8.514a.26.26,0,0,1,.26.26v2.736a.26.26,0,0,1-.26.26H1.608a.26.26,0,0,1-.26-.26M17.492,34.3H1.515v-.434H17.492Zm.136-2.414a.461.461,0,0,1-.461.461H10.245a.461.461,0,0,1-.461-.461V25.214a.461.461,0,0,1,.461-.461h6.922a.461.461,0,0,1,.461.461Z" transform="translate(0 -17.256)" fill="#fffdf9"/>
    <path id="Path_82338" data-name="Path 82338" d="M17.927,0H1.049A1.049,1.049,0,0,0,0,1.049V3.734H18.976V1.049A1.049,1.049,0,0,0,17.927,0M1.539,2.681a.814.814,0,1,1,.814-.814.814.814,0,0,1-.814.814m2.089,0a.814.814,0,1,1,.814-.814.814.814,0,0,1-.814.814m2.143,0a.814.814,0,1,1,.814-.814.814.814,0,0,1-.814.814" fill="#fffdf9"/>
  </g>
</svg>
