<svg width="56" height="56" viewBox="0 0 56 56" fill="none" xmlns="http://www.w3.org/2000/svg">
<rect width="56" height="56" rx="28" fill="#E4F4E7"/>
<path d="M40.7076 21.7071L24.7076 37.7071C24.6147 37.8001 24.5044 37.8738 24.383 37.9241C24.2616 37.9745 24.1315 38.0004 24.0001 38.0004C23.8687 38.0004 23.7385 37.9745 23.6171 37.9241C23.4957 37.8738 23.3854 37.8001 23.2926 37.7071L16.2926 30.7071C16.1049 30.5194 15.9995 30.2649 15.9995 29.9996C15.9995 29.7342 16.1049 29.4797 16.2926 29.2921C16.4802 29.1044 16.7347 28.999 17.0001 28.999C17.2654 28.999 17.5199 29.1044 17.7076 29.2921L24.0001 35.5858L39.2926 20.2921C39.4802 20.1044 39.7347 19.999 40.0001 19.999C40.2654 19.999 40.5199 20.1044 40.7076 20.2921C40.8952 20.4797 41.0006 20.7342 41.0006 20.9996C41.0006 21.2649 40.8952 21.5194 40.7076 21.7071Z" fill="#3F8E50"/>
</svg>
