<svg xmlns="http://www.w3.org/2000/svg" xmlns:xlink="http://www.w3.org/1999/xlink" width="35.49" height="18.158" viewBox="0 0 35.49 18.158">
  <defs>
    <clipPath id="clip-path">
      <rect id="Rectangle_6938" data-name="Rectangle 6938" width="35.49" height="18.158" fill="#ffb400"/>
    </clipPath>
  </defs>
  <g id="Usses" transform="translate(0 0)">
    <g id="Group_96798" data-name="Group 96798" transform="translate(0 0)" clip-path="url(#clip-path)">
      <path id="Path_82537" data-name="Path 82537" d="M10.75,13.292a11.55,11.55,0,0,1-1.971-.861c-.2-.228-.43-.557-.43-.557L8.273,10.33s.633-.379.811-1.77c0,0,.531.125.581-1.037a.877.877,0,0,0-.278-.684s1.518-3.516-1.138-4.2c0,0-1.164-1.467-3.744,0,0,0-1.746,1.241-.633,4.25,0,0-.809.684.278,1.8,0,0,.177,1.215.86,1.62l-.075,1.542s-.254.633-1.746,1.215S.127,14.076,0,16.1H8.692a3.088,3.088,0,0,1,2.058-2.806" transform="translate(0 1.053)" fill="#ffb400"/>
      <path id="Path_82538" data-name="Path 82538" d="M24.859,13.454a17.123,17.123,0,0,1-2.378-1.011,6.784,6.784,0,0,1-.43-.557l-.077-1.544s.632-.379.809-1.77c0,0,.531.125.581-1.037a.871.871,0,0,0-.278-.684s1.519-3.516-1.138-4.2c0,0-1.163-1.467-3.744,0,0,0-1.746,1.239-.632,4.25,0,0-.809.684.278,1.8,0,0,.176,1.215.86,1.62l-.077,1.542s-.252.633-1.746,1.215c-.265.1-.532.2-.794.306a3.27,3.27,0,0,1,1.862,2.73h9s.077-1.645-2.1-2.656" transform="translate(8.53 1.059)" fill="#ffb400"/>
      <path id="Path_82539" data-name="Path 82539" d="M20.979,15.046c-.179-.106-.37-.208-.58-.306a21.773,21.773,0,0,1-3.06-1.3c-.26-.292-.554-.716-.554-.716l-.1-1.986s.814-.488,1.042-2.278c0,0,.684.162.75-1.336a1.122,1.122,0,0,0-.358-.878s1.952-4.526-1.466-5.4c0,0-1.5-1.888-4.818,0,0,0-2.246,1.6-.814,5.47,0,0-1.042.878.358,2.31,0,0,.228,1.562,1.108,2.084l-.1,1.986s-.326.814-2.246,1.562c-.6.233-1.2.445-1.756.707a3.522,3.522,0,0,0-2.345,3.2H23.1a3.732,3.732,0,0,0-2.122-3.112" transform="translate(3.203 0)" fill="#ffb400"/>
    </g>
  </g>
</svg>
