<svg id="_Users" data-name=" Users" xmlns="http://www.w3.org/2000/svg" xmlns:xlink="http://www.w3.org/1999/xlink" width="35.401" height="31.239" viewBox="0 0 35.401 31.239">
  <defs>
    <clipPath id="clip-path">
      <rect id="Rectangle_2585" data-name="Rectangle 2585" width="35.401" height="31.239"/>
    </clipPath>
  </defs>
  <g id="Group_96295" data-name="Group 96295" clip-path="url(#clip-path)">
    <path id="Path_82346" data-name="Path 82346" d="M19.4,44.192v3.244c-.122-.034-.219-.056-.313-.087a12.009,12.009,0,0,1-2.436-1.133.386.386,0,0,1-.214-.376c.014-.946-.008-1.892.013-2.837a6.62,6.62,0,0,1,.468-2.393,4.461,4.461,0,0,1,1.845-2.144,6.469,6.469,0,0,1,1.756-.756c.44-.115.881-.229,1.326-.32.313-.063.633-.089.952-.123a.353.353,0,0,1,.186.045,3.8,3.8,0,0,0,1.143.38,5.066,5.066,0,0,0,2.281-.1c.282-.087.552-.219.833-.311a.708.708,0,0,1,.32-.006c.536.088,1.077.156,1.6.284a5.886,5.886,0,0,1,3.122,1.653A4.523,4.523,0,0,1,33.3,41.2a8.619,8.619,0,0,1,.2,2.123q0,1.38,0,2.759a.206.206,0,0,1-.113.2,10.966,10.966,0,0,1-2.532,1.141,1.1,1.1,0,0,1-.11.021V44.077c-.033.035-.042.04-.043.046-.118.751-.233,1.5-.354,2.252-.06.375-.134.748-.195,1.123a.192.192,0,0,1-.18.183c-.68.128-1.355.275-2.037.392-.336.058-.682.056-1.022.093a16.869,16.869,0,0,1-3.116.043,15.29,15.29,0,0,1-2.27-.261c-.443-.1-.892-.176-1.34-.256a.232.232,0,0,1-.216-.219c-.142-.894-.291-1.785-.436-2.678-.033-.2-.056-.4-.083-.6H19.39" transform="translate(-7.507 -17.022)"/>
    <path id="Path_82347" data-name="Path 82347" d="M50.31,37.321V34.044h-.023c-.021.127-.041.254-.062.38-.112.663-.226,1.326-.336,1.99-.052.314-.1.63-.147.946-.012.08-.036.138-.128.156-.562.113-1.12.25-1.686.339-.6.1-1.218.148-1.828.211-.235.024-.471.026-.716.037-.021-.221-.039-.423-.059-.626a8.547,8.547,0,0,0-.381-1.83A5.459,5.459,0,0,0,42.019,32.4a8.8,8.8,0,0,0-2.159-.727c-.03-.007-.059-.017-.1-.03.027-.034.045-.061.067-.084a5.484,5.484,0,0,0,1.486-2.615,4.946,4.946,0,0,0,.167-1.56c-.011-.135.039-.177.161-.188.249-.022.5-.055.746-.077a.411.411,0,0,1,.15.04,9.512,9.512,0,0,0,1.055.355,5.053,5.053,0,0,0,2.8-.185,1.93,1.93,0,0,1,1.537-.072,12.489,12.489,0,0,1,1.279.3A6.065,6.065,0,0,1,51.9,29.039a4.689,4.689,0,0,1,1.178,2.18,7.622,7.622,0,0,1,.2,1.886c.006.884,0,1.769.01,2.653a.285.285,0,0,1-.147.267,9.451,9.451,0,0,1-1.683.887c-.367.151-.745.274-1.133.414" transform="translate(-18.162 -12.388)"/>
    <path id="Path_82348" data-name="Path 82348" d="M2.961,34.01v3.318c-.366-.134-.714-.25-1.052-.389a9.994,9.994,0,0,1-1.722-.9A.359.359,0,0,1,0,35.71c0-.946-.01-1.892.009-2.838A9.306,9.306,0,0,1,.14,31.74a4.721,4.721,0,0,1,1.166-2.565,5.19,5.19,0,0,1,1.717-1.212,9.386,9.386,0,0,1,2.271-.677c.34-.061.684-.1,1.028-.134a.537.537,0,0,1,.266.049,4.88,4.88,0,0,0,2.435.419,4.234,4.234,0,0,0,1.659-.413.694.694,0,0,1,.421-.055c.2.026.408.055.614.071.1.008.108.048.111.132a9.527,9.527,0,0,0,.073,1.164,5.51,5.51,0,0,0,1.559,3.032,1.033,1.033,0,0,1,.083.1c-.044.018-.076.034-.11.045-.54.164-1.093.293-1.617.5a5.942,5.942,0,0,0-3.94,4.77c-.052.349-.091.7-.136,1.052,0,.026-.007.051-.012.1-.2-.011-.406-.016-.6-.036-.414-.042-.827-.1-1.242-.137a20.986,20.986,0,0,1-2.157-.39.187.187,0,0,1-.175-.187q-.132-.929-.28-1.854c-.074-.461-.159-.921-.24-1.381A.888.888,0,0,0,2.994,34l-.033.005" transform="translate(0 -12.399)"/>
    <path id="Path_82349" data-name="Path 82349" d="M33.056,24.091a4.486,4.486,0,1,1-1.31-3.215,4.516,4.516,0,0,1,1.31,3.215" transform="translate(-10.975 -8.935)"/>
    <path id="Path_82350" data-name="Path 82350" d="M16.639,13.931a4.5,4.5,0,1,1-1.321-3.209,4.518,4.518,0,0,1,1.321,3.209" transform="translate(-3.473 -4.298)"/>
    <path id="Path_82351" data-name="Path 82351" d="M49.479,14.038a4.5,4.5,0,1,1-1.277-3.27,4.514,4.514,0,0,1,1.277,3.27" transform="translate(-18.48 -4.299)"/>
    <path id="Path_82352" data-name="Path 82352" d="M29.649,0a3.156,3.156,0,1,1-3.166,3.149A3.156,3.156,0,0,1,29.649,0" transform="translate(-12.098 -0.001)"/>
    <path id="Path_82353" data-name="Path 82353" d="M48.417,3.162A3.158,3.158,0,0,1,49.536.79a2.992,2.992,0,0,1,2.37-.77,3.107,3.107,0,0,1,2.315,1.387,3.116,3.116,0,0,1-1.129,4.532c-.322.172-.319.169-.569-.092a5.226,5.226,0,0,0-2.276-1.412A4.409,4.409,0,0,0,48.773,4.2c-.124,0-.2-.038-.215-.166-.045-.292-.1-.583-.142-.875" transform="translate(-22.118)"/>
    <path id="Path_82354" data-name="Path 82354" d="M56.232,12.377c.492.1.987.187,1.474.308a4.1,4.1,0,0,1,1.436.66,3.079,3.079,0,0,1,1.216,2,8.452,8.452,0,0,1,.128,1.723c-.006.481,0,.963,0,1.445a.22.22,0,0,1-.12.212,9.1,9.1,0,0,1-1.67.762,1.058,1.058,0,0,1-.154.031v-2.2h-.026c-.036.2-.074.4-.108.6q-.134.768-.265,1.537c-.036.21-.035.208-.239.246-.43.079-.859.172-1.292.235a1.3,1.3,0,0,1-.435-.056c-.389-.083-.777-.173-1.165-.26-.029-.007-.056-.017-.1-.032A5.419,5.419,0,0,0,56.2,12.417l.032-.04" transform="translate(-25.084 -5.654)"/>
    <path id="Path_82355" data-name="Path 82355" d="M25.338,16.813a2.778,2.778,0,0,1,.06-.273,4.557,4.557,0,0,0,.142-1.665,4.892,4.892,0,0,0-.44-1.745c-.039-.091-.027-.14.064-.169.345-.112.684-.246,1.036-.33.378-.091.766-.139,1.152-.2a.41.41,0,0,1,.212.047,3.377,3.377,0,0,0,1.353.293,3.211,3.211,0,0,0,1.483-.292.648.648,0,0,1,.368-.05,8.028,8.028,0,0,1,1.839.428c.09.032.178.074.267.11s.111.09.072.185c-.083.2-.161.406-.226.614a5.215,5.215,0,0,0-.177,2.063c.03.316.089.628.136.947a5.506,5.506,0,0,0-7.344.033" transform="translate(-11.459 -5.676)"/>
  </g>
</svg>
