<svg id="party" xmlns="http://www.w3.org/2000/svg" xmlns:xlink="http://www.w3.org/1999/xlink" width="19.506" height="24" viewBox="0 0 19.506 24">
  <defs>
    <clipPath id="clip-path">
      <rect id="Rectangle_6934" data-name="Rectangle 6934" width="19.506" height="24" fill="#ffb400"/>
    </clipPath>
  </defs>
  <g id="Group_96794" data-name="Group 96794" clip-path="url(#clip-path)">
    <path id="Path_82530" data-name="Path 82530" d="M17.332,11.94h-1.9a2.585,2.585,0,0,0-1.777-2.248,14.331,14.331,0,0,1-2.012-.856c-.171-.193-.364-.471-.364-.471l-.064-1.306s.535-.321.685-1.5c0,0,.45.107.492-.878a.737.737,0,0,0-.235-.578s1.284-2.976-.963-3.554c0,0-.985-1.241-3.169,0,0,0-1.477,1.049-.535,3.6,0,0-.685.578.236,1.52,0,0,.149,1.027.727,1.37L8.389,8.344s-.214.535-1.477,1.027-2.59.856-2.7,2.569H2.175v2.372H17.332Z" fill="#ffb400"/>
    <path id="Path_82531" data-name="Path 82531" d="M16.7,16.422V14.313H14.91v2.109H0V24H19.506V16.422ZM3.694,22.7,1.448,20.674l.3-.333L3.588,22l2.233-3.784.385.228Zm6.778-1.363a2.032,2.032,0,0,1-.433.682,1.985,1.985,0,0,1-.672.45,2.437,2.437,0,0,1-1.742,0,1.978,1.978,0,0,1-.675-.45,2.021,2.021,0,0,1-.435-.682,2.462,2.462,0,0,1,0-1.714,2.021,2.021,0,0,1,.435-.682,1.978,1.978,0,0,1,.675-.45,2.291,2.291,0,0,1,.872-.161,2.244,2.244,0,0,1,.87.163,2,2,0,0,1,.672.449,2.018,2.018,0,0,1,.433.681,2.462,2.462,0,0,1,0,1.714m3.509-2.318H12.715v3.564h-.782V19.022H10.661V18.38h3.32ZM17.132,19H15.267v1.167h1.469v.6H15.267v1.19h1.865v.625H14.478V18.38h2.654Z" fill="#ffb400"/>
    <path id="Path_82532" data-name="Path 82532" d="M9.468,19.4a1.146,1.146,0,0,0-.417-.294,1.561,1.561,0,0,0-1.11,0,1.144,1.144,0,0,0-.421.294,1.327,1.327,0,0,0-.266.467,2.12,2.12,0,0,0,0,1.242,1.3,1.3,0,0,0,.266.466,1.151,1.151,0,0,0,.421.292,1.561,1.561,0,0,0,1.11,0,1.153,1.153,0,0,0,.417-.292,1.3,1.3,0,0,0,.263-.466,2.142,2.142,0,0,0,0-1.242,1.321,1.321,0,0,0-.263-.467" fill="#ffb400"/>
    <rect id="Rectangle_6933" data-name="Rectangle 6933" width="1.791" height="2.109" transform="translate(2.91 14.313)" fill="#ffb400"/>
  </g>
</svg>
