<svg xmlns="http://www.w3.org/2000/svg" xmlns:xlink="http://www.w3.org/1999/xlink" width="86.859" height="84.691" viewBox="0 0 86.859 84.691">
  <defs>
    <clipPath id="clip-path">
      <rect id="Rectangle_72150" data-name="Rectangle 72150" width="23.945" height="22.383" fill="none"/>
    </clipPath>
  </defs>
  <g id="wallet_credential_verification_icon" data-name="wallet credential verification icon" transform="translate(-12094 7498.691)">
    <g id="Group_175583" data-name="Group 175583" transform="translate(24 -132)">
      <g id="Group_97130" data-name="Group 97130" transform="translate(11612.316 -7089.446)">
        <path id="Path_83090" data-name="Path 83090" d="M479.394-245.479l-4.06-14.473,58.775-16.062,8.119,30.888" transform="translate(-3.71)" fill="#dbdbdb" stroke="#97722e" stroke-linecap="round" stroke-miterlimit="10" stroke-width="2"/>
        <path id="Path_83091" data-name="Path 83091" d="M494.7-235.455l-1.236-4.942s6-.353,4.412-6.707l35.477-9.355s1.236,4.589,7.943,4.413l2.824,10.414s-6.354,1.942-4.766,6.354" transform="translate(-12.841 -9.848)" fill="none" stroke="#97722e" stroke-linecap="round" stroke-miterlimit="10" stroke-width="2"/>
        <path id="Path_83088" data-name="Path 83088" d="M470.411-239.336c-2.133.457-2.443,2.279-2.443,5.022h0a6.972,6.972,0,0,0,6.972,6.972h64.72a3.883,3.883,0,0,1,3.883,3.883v37.947a3.883,3.883,0,0,1-3.883,3.883H481.592A13.59,13.59,0,0,1,468-195.221v-38.023" transform="translate(0 -17.525)" fill="#dbdbdb" stroke="#97722e" stroke-linecap="round" stroke-miterlimit="10" stroke-width="2"/>
        <path id="Path_83089" data-name="Path 83089" d="M598.206-168.586h-11.3a7.942,7.942,0,0,1-7.942-7.943h0a7.943,7.943,0,0,1,7.942-7.943h11.3" transform="translate(-55.898 -46.1)" fill="none" stroke="#97722e" stroke-miterlimit="10" stroke-width="2"/>
        <circle id="Ellipse_916" data-name="Ellipse 916" cx="3.354" cy="3.354" r="3.354" transform="translate(527.129 -225.982)" fill="none" stroke="#97722e" stroke-miterlimit="10" stroke-width="2"/>
      </g>
      <g id="Ellipse_6763" data-name="Ellipse 6763" transform="translate(12070 -7318)" fill="#dbdbdb" stroke="#97722e" stroke-width="1">
        <circle cx="18" cy="18" r="18" stroke="none"/>
        <circle cx="18" cy="18" r="17.5" fill="none"/>
      </g>
    </g>
    <g id="Group_175585" data-name="Group 175585" transform="translate(12099.958 -7443)">
      <g id="Group_175584" data-name="Group 175584" clip-path="url(#clip-path)">
        <path id="Path_172739" data-name="Path 172739" d="M17.095,13.117l-.783.625c-.135.108-.275.211-.4.328a.247.247,0,0,1-.356.019,8.057,8.057,0,0,0-2.648-1.161,8.771,8.771,0,0,0-6.936,1.055,8.618,8.618,0,0,0-4.1,6,8.212,8.212,0,0,0,.435,4.766A9.068,9.068,0,0,0,8.65,30.293a8.265,8.265,0,0,0,5.539-.41,9.117,9.117,0,0,0,5.262-5.8,8.56,8.56,0,0,0,.19-4.27,9.076,9.076,0,0,0-.669-2.061.242.242,0,0,1,.038-.288c.3-.374.6-.753.891-1.131.1-.129.124-.13.211.011a9.369,9.369,0,0,1,1.15,2.917,10.677,10.677,0,0,1,.261,2.759,9.894,9.894,0,0,1-1.067,4.089A11.075,11.075,0,0,1,16.9,30.338a10.924,10.924,0,0,1-4.119,1.705,10.059,10.059,0,0,1-6.336-.75,11.528,11.528,0,0,1-3.421-2.38A10.452,10.452,0,0,1,.461,24.532,10.136,10.136,0,0,1,1.323,16.5a10.356,10.356,0,0,1,3.951-4.074,11.042,11.042,0,0,1,3.9-1.341,10.105,10.105,0,0,1,4.336.234,10.376,10.376,0,0,1,3.435,1.672c.049.037.1.077.155.125" transform="translate(0 -9.871)" fill="#97722e"/>
        <path id="Path_172740" data-name="Path 172740" d="M50.982.033C50.7.356,50.43.682,50.149,1c-1.543,1.769-3.1,3.53-4.5,5.415q-1.58,2.126-3.088,4.3c-1.276,1.848-2.521,3.717-3.765,5.586-.539.811-1.041,1.647-1.56,2.471-.015.024-.031.048-.046.073-.065.108-.131.1-.214.014-.265-.285-.529-.57-.8-.848a49.389,49.389,0,0,0-5.583-5c-.146-.11-.294-.216-.439-.327-.189-.145-.193-.174-.042-.352.355-.417.712-.831,1.066-1.249q.652-.769,1.3-1.541c.148-.176.173-.18.339-.025,1.157,1.083,2.317,2.162,3.388,3.332.121.132.165.121.291-.037.758-.961,1.506-1.931,2.278-2.88A39.506,39.506,0,0,1,44.343,4.32,38.8,38.8,0,0,1,50.532.206c.138-.074.281-.138.422-.206l.028.033" transform="translate(-27.038)" fill="#97722e"/>
      </g>
    </g>
  </g>
</svg>
