<svg xmlns="http://www.w3.org/2000/svg" width="77.576" height="79.091" viewBox="0 0 77.576 79.091">
  <g id="Group_97130" data-name="Group 97130" transform="translate(-466.968 277.245)">
    <path id="Path_83090" data-name="Path 83090" d="M479.394-245.479l-4.06-14.473,58.775-16.062,8.119,30.888" transform="translate(-3.71 0)" fill="#dbdbdb" stroke="#cdcccc" stroke-linecap="round" stroke-miterlimit="10" stroke-width="2"/>
    <path id="Path_83091" data-name="Path 83091" d="M494.7-235.455l-1.236-4.942s6-.353,4.412-6.707l35.477-9.355s1.236,4.589,7.943,4.413l2.824,10.414s-6.354,1.942-4.766,6.354" transform="translate(-12.841 -9.848)" fill="none" stroke="#cfcece" stroke-linecap="round" stroke-miterlimit="10" stroke-width="2"/>
    <path id="Path_83088" data-name="Path 83088" d="M470.411-239.336c-2.133.457-2.443,2.279-2.443,5.022h0a6.972,6.972,0,0,0,6.972,6.972h64.72a3.883,3.883,0,0,1,3.883,3.883v37.947a3.883,3.883,0,0,1-3.883,3.883H481.592A13.59,13.59,0,0,1,468-195.219v-38.025" transform="translate(0 -17.525)" fill="#dbdbdb" stroke="#d2d2d2" stroke-linecap="round" stroke-miterlimit="10" stroke-width="2"/>
    <path id="Path_83089" data-name="Path 83089" d="M598.206-168.586h-11.3a7.942,7.942,0,0,1-7.942-7.943h0a7.943,7.943,0,0,1,7.942-7.943h11.3" transform="translate(-55.898 -46.1)" fill="none" stroke="#cacaca" stroke-miterlimit="10" stroke-width="2"/>
    <circle id="Ellipse_916" data-name="Ellipse 916" cx="3.354" cy="3.354" r="3.354" transform="translate(527.129 -225.982)" fill="none" stroke="#c2c2c2" stroke-miterlimit="10" stroke-width="2"/>
  </g>
</svg>
