<svg width="138" height="138" viewBox="0 0 138 138" fill="none" xmlns="http://www.w3.org/2000/svg">
<path d="M69 20C59.3087 20 49.8351 22.8738 41.7771 28.258C33.7191 33.6422 27.4386 41.2949 23.7299 50.2485C20.0212 59.2021 19.0509 69.0543 20.9415 78.5594C22.8322 88.0645 27.499 96.7954 34.3518 103.648C41.2046 110.501 49.9355 115.168 59.4406 117.058C68.9457 118.949 78.7979 117.979 87.7515 114.27C96.7051 110.561 104.358 104.281 109.742 96.2229C115.126 88.1649 118 78.6913 118 69C117.986 56.0086 112.819 43.5532 103.633 34.3669C94.4468 25.1806 81.9914 20.0137 69 20ZM69 110.462C60.7997 110.462 52.7835 108.03 45.9652 103.474C39.1469 98.9181 33.8327 92.4427 30.6946 84.8666C27.5564 77.2905 26.7354 68.954 28.3352 60.9112C29.935 52.8685 33.8838 45.4808 39.6823 39.6823C45.4808 33.8838 52.8685 29.9349 60.9113 28.3351C68.954 26.7353 77.2905 27.5564 84.8667 30.6945C92.4428 33.8327 98.9182 39.1469 103.474 45.9652C108.03 52.7835 110.462 60.7997 110.462 69C110.449 79.9924 106.077 90.5311 98.304 98.3039C90.5311 106.077 79.9925 110.449 69 110.462ZM65.2308 72.7692V46.3846C65.2308 45.3849 65.6279 44.4262 66.3348 43.7194C67.0416 43.0125 68.0003 42.6154 69 42.6154C69.9997 42.6154 70.9584 43.0125 71.6653 43.7194C72.3721 44.4262 72.7692 45.3849 72.7692 46.3846V72.7692C72.7692 73.7689 72.3721 74.7276 71.6653 75.4345C70.9584 76.1413 69.9997 76.5384 69 76.5384C68.0003 76.5384 67.0416 76.1413 66.3348 75.4345C65.6279 74.7276 65.2308 73.7689 65.2308 72.7692ZM74.6539 89.7308C74.6539 90.849 74.3223 91.9421 73.701 92.8719C73.0798 93.8016 72.1967 94.5263 71.1636 94.9542C70.1305 95.3821 68.9937 95.4941 67.897 95.276C66.8003 95.0578 65.7928 94.5193 65.0021 93.7286C64.2114 92.9379 63.673 91.9305 63.4548 90.8338C63.2366 89.737 63.3486 88.6002 63.7765 87.5671C64.2045 86.534 64.9291 85.651 65.8589 85.0298C66.7887 84.4085 67.8818 84.0769 69 84.0769C70.4995 84.0769 71.9376 84.6726 72.9979 85.7329C74.0582 86.7932 74.6539 88.2313 74.6539 89.7308Z" fill="#D83731"/>
</svg>
