<svg width="56" height="56" viewBox="0 0 56 56" fill="none" xmlns="http://www.w3.org/2000/svg">
<rect width="56" height="56" rx="28" fill="#FDF4C8"/>
<path d="M41.5999 35.5113L30.6686 16.5276C30.3955 16.0625 30.0055 15.6769 29.5374 15.4089C29.0693 15.141 28.5393 15 27.9999 15C27.4605 15 26.9305 15.141 26.4624 15.4089C25.9943 15.6769 25.6043 16.0625 25.3311 16.5276L14.3999 35.5113C14.137 35.9612 13.9985 36.4728 13.9985 36.9938C13.9985 37.5148 14.137 38.0265 14.3999 38.4763C14.6695 38.9442 15.0588 39.332 15.5278 39.5997C15.9968 39.8675 16.5286 40.0057 17.0686 40.0001H38.9311C39.4707 40.0052 40.002 39.8669 40.4705 39.5991C40.939 39.3314 41.3279 38.9439 41.5974 38.4763C41.8606 38.0267 41.9995 37.5152 42 36.9942C42.0004 36.4732 41.8623 35.9614 41.5999 35.5113ZM39.8661 37.4751C39.7708 37.6376 39.634 37.7719 39.4697 37.8642C39.3054 37.9564 39.1195 38.0033 38.9311 38.0001H17.0686C16.8802 38.0033 16.6943 37.9564 16.53 37.8642C16.3657 37.7719 16.2289 37.6376 16.1336 37.4751C16.0473 37.3289 16.0018 37.1623 16.0018 36.9926C16.0018 36.8228 16.0473 36.6562 16.1336 36.5101L27.0649 17.5263C27.1621 17.3645 27.2995 17.2307 27.4638 17.1377C27.6281 17.0448 27.8136 16.9959 28.0024 16.9959C28.1911 16.9959 28.3767 17.0448 28.5409 17.1377C28.7052 17.2307 28.8427 17.3645 28.9399 17.5263L39.8711 36.5101C39.9567 36.6567 40.0014 36.8235 40.0005 36.9933C39.9996 37.163 39.9532 37.3294 39.8661 37.4751ZM26.9999 30.0001V25.0001C26.9999 24.7349 27.1052 24.4805 27.2928 24.293C27.4803 24.1054 27.7347 24.0001 27.9999 24.0001C28.2651 24.0001 28.5194 24.1054 28.707 24.293C28.8945 24.4805 28.9999 24.7349 28.9999 25.0001V30.0001C28.9999 30.2653 28.8945 30.5197 28.707 30.7072C28.5194 30.8947 28.2651 31.0001 27.9999 31.0001C27.7347 31.0001 27.4803 30.8947 27.2928 30.7072C27.1052 30.5197 26.9999 30.2653 26.9999 30.0001ZM29.4999 34.5001C29.4999 34.7968 29.4119 35.0868 29.2471 35.3334C29.0823 35.5801 28.848 35.7724 28.5739 35.8859C28.2998 35.9994 27.9982 36.0291 27.7072 35.9713C27.4163 35.9134 27.149 35.7705 26.9392 35.5607C26.7294 35.351 26.5866 35.0837 26.5287 34.7927C26.4708 34.5017 26.5005 34.2001 26.6141 33.9261C26.7276 33.652 26.9198 33.4177 27.1665 33.2529C27.4132 33.0881 27.7032 33.0001 27.9999 33.0001C28.3977 33.0001 28.7792 33.1581 29.0605 33.4394C29.3418 33.7207 29.4999 34.1023 29.4999 34.5001Z" fill="#F29F0E"/>
</svg>
