<svg width="32" height="32" viewBox="0 0 32 32" fill="none" xmlns="http://www.w3.org/2000/svg">
<path d="M6.74 4.32743C6.58962 4.16251 6.38839 4.05265 6.16835 4.01531C5.94831 3.97798 5.72211 4.01533 5.52575 4.12141C5.32939 4.2275 5.17416 4.39622 5.08478 4.60073C4.9954 4.80523 4.97699 5.03376 5.0325 5.24993C4.71976 5.42279 4.45904 5.67628 4.27746 5.98405C4.09588 6.29181 4.00007 6.6426 4 6.99993V14.3462C4 25.5487 13.4775 29.2637 15.375 29.8937C15.7801 30.0323 16.2199 30.0323 16.625 29.8937C19.1823 29.0061 21.5123 27.5652 23.4487 25.6737L25.2625 27.6737C25.3509 27.7709 25.4576 27.8497 25.5764 27.9056C25.6953 27.9616 25.824 27.9936 25.9552 27.9998C26.0864 28.006 26.2176 27.9863 26.3412 27.9418C26.4648 27.8973 26.5784 27.829 26.6756 27.7406C26.7728 27.6522 26.8516 27.5455 26.9076 27.4266C26.9635 27.3078 26.9955 27.1791 27.0017 27.0478C27.0079 26.9166 26.9882 26.7855 26.9438 26.6619C26.8993 26.5382 26.8309 26.4246 26.7425 26.3274L6.74 4.32743ZM16 27.9999C14.3088 27.4374 6 24.1649 6 14.3524V6.99993H6.46625L22.1 24.1962C20.3758 25.9032 18.2916 27.2028 16 27.9999ZM28 6.99993V14.3462C28 16.8049 27.5337 19.0874 26.6125 21.1324C26.5036 21.3743 26.3031 21.563 26.0551 21.657C25.807 21.751 25.5318 21.7426 25.29 21.6337C25.0482 21.5248 24.8595 21.3243 24.7655 21.0762C24.6715 20.8282 24.6798 20.553 24.7887 20.3112C25.5925 18.5262 26 16.5199 26 14.3462V6.99993H12.315C12.0498 6.99993 11.7954 6.89457 11.6079 6.70704C11.4204 6.5195 11.315 6.26515 11.315 5.99993C11.315 5.73471 11.4204 5.48036 11.6079 5.29282C11.7954 5.10529 12.0498 4.99993 12.315 4.99993H26C26.5304 4.99993 27.0391 5.21064 27.4142 5.58572C27.7893 5.96079 28 6.4695 28 6.99993Z" fill="#7C5E24"/>
</svg>
