<?xml version="1.0" encoding="utf-8"?><!-- Uploaded to: SVG Repo, www.svgrepo.com, Generator: SVG Repo Mixer Tools -->
<svg fill="#000000" width="800px" height="800px" viewBox="0 0 24 24" id="add-user-4" data-name="Flat Color" xmlns="http://www.w3.org/2000/svg" class="icon flat-color"><path id="secondary" d="M19,12a1,1,0,0,1-1-1V10H17a1,1,0,0,1,0-2h1V7a1,1,0,0,1,2,0V8h1a1,1,0,0,1,0,2H20v1A1,1,0,0,1,19,12Z" style="fill: rgb(44, 169, 188);"></path><path id="primary" d="M16.46,13.37A5.59,5.59,0,0,1,13.93,9a5.06,5.06,0,0,1,2.53-4.36A7,7,0,1,0,5.54,13.37,8,8,0,0,0,2,20a2,2,0,0,0,2,2H18a2,2,0,0,0,2-2A8,8,0,0,0,16.46,13.37Z" style="fill: rgb(0, 0, 0);"></path></svg>