<svg id="Checkbox" xmlns="http://www.w3.org/2000/svg" xmlns:xlink="http://www.w3.org/1999/xlink" width="19.123" height="19.123" viewBox="0 0 19.123 19.123">
  <defs>
    <clipPath id="clip-path">
      <rect id="Rectangle_49753" data-name="Rectangle 49753" width="19.123" height="19.123" transform="translate(0 0)" fill="#080808"/>
    </clipPath>
  </defs>
  <g id="Group_114422" data-name="Group 114422" clip-path="url(#clip-path)">
    <path id="Path_110359" data-name="Path 110359" d="M16.72,19.123H2.4A2.406,2.406,0,0,1,0,16.72V2.4A2.406,2.406,0,0,1,2.4,0H16.72a2.406,2.406,0,0,1,2.4,2.4V16.72a2.406,2.406,0,0,1-2.4,2.4M2.4,2a.4.4,0,0,0-.4.4V16.72a.4.4,0,0,0,.4.4H16.72a.4.4,0,0,0,.4-.4V2.4a.4.4,0,0,0-.4-.4Z" fill="#080808"/>
    <path id="Path_110360" data-name="Path 110360" d="M7.507,14.043,3.344,9.3l1.5-1.321,2.8,3.192,6.5-6.069,1.364,1.463Z" fill="#080808"/>
  </g>
</svg>
