<svg id="Image" xmlns="http://www.w3.org/2000/svg" xmlns:xlink="http://www.w3.org/1999/xlink" width="21.06" height="19.616" viewBox="0 0 21.06 19.616">
  <defs>
    <clipPath id="clip-path">
      <rect id="Rectangle_49764" data-name="Rectangle 49764" width="21.06" height="19.616" transform="translate(0 0)" fill="#080808"/>
    </clipPath>
  </defs>
  <g id="Group_114433" data-name="Group 114433" clip-path="url(#clip-path)">
    <path id="Path_110368" data-name="Path 110368" d="M14.3,19.616H6.759A6.767,6.767,0,0,1,0,12.857v-6.1A6.766,6.766,0,0,1,6.759,0H14.3A6.766,6.766,0,0,1,21.06,6.758v6.1A6.767,6.767,0,0,1,14.3,19.616M6.759,1.4A5.364,5.364,0,0,0,1.4,6.758v6.1a5.364,5.364,0,0,0,5.359,5.358H14.3a5.363,5.363,0,0,0,5.358-5.358v-6.1A5.363,5.363,0,0,0,14.3,1.4Z" fill="#080808"/>
    <path id="Path_110369" data-name="Path 110369" d="M1.454,15.447a.506.506,0,0,1-.415-.8c.047-.069.143-.213,5.879-6.077a1.8,1.8,0,0,1,1.314-.553,1.833,1.833,0,0,1,1.312.549l5.949,6.008a.5.5,0,1,1-.711.7L8.833,9.273a.729.729,0,0,0-.6-.252.833.833,0,0,0-.6.252c-3.455,3.533-5.617,5.761-5.782,5.961a.472.472,0,0,1-.4.213" fill="#080808"/>
    <path id="Path_110370" data-name="Path 110370" d="M1.454,15.447a.506.506,0,0,1-.415-.8c.047-.069.143-.213,5.879-6.077a1.8,1.8,0,0,1,1.314-.553,1.833,1.833,0,0,1,1.312.549l5.949,6.008a.5.5,0,1,1-.711.7L8.833,9.273a.729.729,0,0,0-.6-.252.833.833,0,0,0-.6.252c-3.455,3.533-5.617,5.761-5.782,5.961A.472.472,0,0,1,1.454,15.447Z" fill="#080808"/>
    <path id="Path_110371" data-name="Path 110371" d="M19.768,12.6l-3.48-2.549a.715.715,0,0,0-.878.025l-2.486,2.04-.635-.774L14.775,9.3a1.715,1.715,0,0,1,2.1-.057l3.48,2.548Z" fill="#080808"/>
    <path id="Path_110372" data-name="Path 110372" d="M19.768,12.6l-3.48-2.549a.715.715,0,0,0-.878.025l-2.486,2.04-.635-.774L14.775,9.3a1.715,1.715,0,0,1,2.1-.057l3.48,2.548Z" fill="#080808"/>
    <path id="Path_110373" data-name="Path 110373" d="M14.625,6.378a1.471,1.471,0,1,1-1.471-1.471,1.472,1.472,0,0,1,1.471,1.471" fill="#080808"/>
    <circle id="Ellipse_2436" data-name="Ellipse 2436" cx="1.471" cy="1.471" r="1.471" transform="translate(11.683 4.907)" fill="#080808"/>
  </g>
</svg>
