<svg xmlns="http://www.w3.org/2000/svg" width="26.315" height="32.934" viewBox="0 0 26.315 32.934">
  <g id="Group_115056" data-name="Group 115056" transform="translate(384.43 633.901)">
    <path id="Path_2" data-name="Path 2" d="M-362.666-617.029v-4.833a7.85,7.85,0,0,0-7.85-7.85h-1.293a7.85,7.85,0,0,0-7.85,7.85v6.154a5.546,5.546,0,0,1-2.182,4.055c-1.895.806-1.192,4.11-1.192,4.11h23.65a7.234,7.234,0,0,0,0-2.342c-.1-1.281-1.931-2.809-2.869-4.068C-362.8-614.684-362.666-616.116-362.666-617.029Z" transform="translate(0 -0.94)" fill="none" stroke="#010000" stroke-miterlimit="10" stroke-width="2.4"/>
    <path id="Path_3" data-name="Path 3" d="M-363.553-595.381a4.482,4.482,0,0,1-4.482,4.482h0a4.482,4.482,0,0,1-4.482-4.482" transform="translate(-3.202 -11.269)" fill="none" stroke="#010000" stroke-miterlimit="10" stroke-width="2.4"/>
    <line id="Line_322" data-name="Line 322" y1="1.697" transform="translate(-371.238 -632.701)" fill="none" stroke="#010000" stroke-linecap="round" stroke-miterlimit="10" stroke-width="2.4"/>
  </g>
</svg>
