<svg xmlns="http://www.w3.org/2000/svg" xmlns:xlink="http://www.w3.org/1999/xlink" width="98" height="97" viewBox="0 0 98 97">
  <defs>
    <clipPath id="clip-path">
      <rect id="Rectangle_49697" data-name="Rectangle 49697" width="94.164" height="94.73" fill="none"/>
    </clipPath>
  </defs>
  <g id="Group_114510" data-name="Group 114510" transform="translate(-2854 -1221)">
    <rect id="Rectangle_49705" data-name="Rectangle 49705" width="98" height="97" transform="translate(2854 1221)" fill="none"/>
    <g id="Group_114319" data-name="Group 114319" transform="translate(2856 1222)">
      <g id="Group_114318" data-name="Group 114318" transform="translate(0 0)" clip-path="url(#clip-path)">
        <path id="Path_110130" data-name="Path 110130" d="M26.861,44.9c2.2,1.037,4.459,2.112,6.728,3.176,1.084.509,2.173,1,3.262,1.495a7.024,7.024,0,0,1,2.984,2.584,17.33,17.33,0,0,1,2.736,8.11c.1,1.047-.179,1.588-1.182,1.89A37.88,37.88,0,0,1,37,63.208a88.646,88.646,0,0,1-16.229,1.281A89.722,89.722,0,0,1,4.8,62.925a18.332,18.332,0,0,1-2.77-.76,1.532,1.532,0,0,1-1.185-1.9,17.38,17.38,0,0,1,2.773-8.156,6.992,6.992,0,0,1,2.9-2.512c2.758-1.278,5.516-2.552,8.265-3.845.619-.293,1.2-.656,1.846-1.01-.1-.152-.172-.283-.265-.4a10.127,10.127,0,0,1-1.794-3.478,2.515,2.515,0,0,0-.44-.8A8.241,8.241,0,0,1,11.954,34.2c.037-.6-.012-1.293.767-1.576.088-.032.123-.3.128-.467.049-1.487-.025-2.992.145-4.467a7.469,7.469,0,0,1,6.78-6.807,11.366,11.366,0,0,1,6.133.619c3.1,1.34,4.449,3.869,4.617,7.124.059,1.175.012,2.355.052,3.532.007.192.216.376.332.565a2.7,2.7,0,0,1,.455.779A7.431,7.431,0,0,1,29.72,39.5a8.692,8.692,0,0,0-1.114,2.026c-.452,1.114-1.1,2.148-1.745,3.378" transform="translate(1.205 30.235)" fill="#1492e6"/>
        <line id="Line_869" data-name="Line 869" x1="7.053" transform="translate(34.328 72.85)" fill="none" stroke="#1492e6" stroke-linecap="round" stroke-miterlimit="10" stroke-width="2.5"/>
        <path id="Path_110131" data-name="Path 110131" d="M55.244,23.373v7.439a7.958,7.958,0,0,1-7.957,7.957H18.029" transform="translate(26.29 34.082)" fill="none" stroke="#1492e6" stroke-linecap="round" stroke-miterlimit="10" stroke-width="2.3"/>
        <path id="Path_110132" data-name="Path 110132" d="M11.481,72.122H8.457A7.956,7.956,0,0,1,.5,64.165V8.457A7.956,7.956,0,0,1,8.457.5H72.845A7.956,7.956,0,0,1,80.8,8.457V29.615" transform="translate(0.729 0.728)" fill="none" stroke="#1492e6" stroke-linecap="round" stroke-miterlimit="10" stroke-width="2.3"/>
        <line id="Line_870" data-name="Line 870" x2="80.305" transform="translate(1.229 16.429)" fill="none" stroke="#1492e6" stroke-linecap="round" stroke-miterlimit="10" stroke-width="2.3"/>
        <line id="Line_871" data-name="Line 871" x2="29.253" transform="translate(44.318 9.65)" fill="none" stroke="#1492e6" stroke-linecap="round" stroke-miterlimit="10" stroke-width="2.3"/>
        <line id="Line_872" data-name="Line 872" x2="31.394" transform="translate(5.432 24.277)" fill="none" stroke="#1492e6" stroke-linecap="round" stroke-miterlimit="10" stroke-width="2.3"/>
        <path id="Path_110133" data-name="Path 110133" d="M20.646,24.081a10.493,10.493,0,0,1,.89-2.141c-.054-.057-.1-.113-.152-.162q-.752-.756-1.509-1.512c-.047-.047-.1-.093-.14-.143a.675.675,0,0,1,0-.895,1.151,1.151,0,0,1,.093-.1L22.662,16.3a1.54,1.54,0,0,1,.111-.108.669.669,0,0,1,.878,0c.052.044.1.091.145.14q.745.745,1.495,1.492c.057.059.116.113.179.177a10.321,10.321,0,0,1,2.109-.878.344.344,0,0,0,.042-.246c0-.706,0-1.409,0-2.114,0-.081,0-.165.007-.243a.658.658,0,0,1,.6-.59c.066,0,.133,0,.2,0h3.938c.059,0,.118,0,.177,0a.661.661,0,0,1,.622.592c.007.081.007.162.007.243v2.092c0,.081,0,.162.007.241.374.135.74.256,1.094.4s.7.32,1.057.487c.052-.047.106-.1.157-.147L37,16.33c.047-.047.093-.1.143-.14a.666.666,0,0,1,.878,0,1.555,1.555,0,0,1,.113.108q1.409,1.4,2.815,2.815a1.54,1.54,0,0,1,.123.13.675.675,0,0,1,0,.86,1.885,1.885,0,0,1-.138.143L39.42,21.763c-.052.052-.1.106-.162.167.088.177.177.347.258.519s.165.349.238.526.14.359.206.541.12.364.179.541a.557.557,0,0,0,.251.025c.7,0,1.394,0,2.092,0,.059,0,.118,0,.177,0a.676.676,0,0,1,.671.642c0,.059,0,.12,0,.179v3.913a1.365,1.365,0,0,1-.017.265.671.671,0,0,1-.637.553c-.066,0-.135,0-.2,0H40.16a1.08,1.08,0,0,0-.057.128,9.979,9.979,0,0,1-.8,1.925l-.032.079c.02.084.086.123.138.175q.752.756,1.509,1.512a1.886,1.886,0,0,1,.138.143.675.675,0,0,1,0,.895c-.037.044-.081.086-.123.128Q39.543,36,38.161,37.387c-.049.047-.093.1-.145.14a.666.666,0,0,1-.878,0c-.049-.042-.1-.091-.143-.138q-.756-.756-1.512-1.509c-.052-.052-.106-.1-.167-.157a10.342,10.342,0,0,1-2.1.873.371.371,0,0,0-.039.251c0,.7,0,1.409,0,2.112a1.937,1.937,0,0,1-.012.268.659.659,0,0,1-.6.565c-.066,0-.133,0-.2,0H28.424c-.059,0-.118,0-.179,0a.656.656,0,0,1-.619-.615c0-.074,0-.147,0-.224,0-.7,0-1.394,0-2.089a.537.537,0,0,0-.027-.253c-.236-.081-.484-.16-.725-.251s-.467-.184-.7-.288-.465-.226-.7-.344c-.064.059-.123.113-.179.17q-.749.749-1.495,1.495c-.049.047-.093.1-.145.138a.666.666,0,0,1-.878,0c-.039-.034-.074-.071-.111-.108L19.843,34.6c-.042-.042-.084-.081-.123-.128a.675.675,0,0,1,0-.86c.044-.052.093-.1.14-.145q.745-.749,1.495-1.495c.057-.057.113-.116.175-.179-.116-.238-.236-.467-.342-.7s-.2-.462-.29-.7-.17-.487-.253-.73a.531.531,0,0,0-.246-.022c-.7,0-1.394,0-2.092,0-.059,0-.118,0-.177,0a.679.679,0,0,1-.671-.622c0-.057,0-.118,0-.177q0-1.98,0-3.96a1.342,1.342,0,0,1,.022-.263.664.664,0,0,1,.61-.531c.066,0,.133,0,.2,0h2.357M30.381,31.7a4.839,4.839,0,1,0-4.825-4.85,4.824,4.824,0,0,0,4.825,4.85" transform="translate(25.455 20.306)" fill="#1492e6"/>
        <path id="Path_110134" data-name="Path 110134" d="M28.388,27.279a3.786,3.786,0,0,1,.339-.816l-.059-.064-.575-.575-.052-.054a.256.256,0,0,1,0-.342.245.245,0,0,1,.034-.037l1.079-1.079.044-.042a.254.254,0,0,1,.334,0l.054.052c.189.192.381.381.57.57l.069.066a4.213,4.213,0,0,1,.8-.334.131.131,0,0,0,.017-.093v-.806c0-.029,0-.061,0-.093a.249.249,0,0,1,.229-.224c.025,0,.052,0,.076,0h1.5l.066,0a.251.251,0,0,1,.238.226c0,.03,0,.061,0,.091v.8l0,.091c.143.052.283.1.418.155s.265.12.4.184l.059-.057c.192-.192.383-.383.578-.575a.537.537,0,0,1,.054-.052.254.254,0,0,1,.334,0l.042.042c.359.356.715.715,1.074,1.074a.441.441,0,0,1,.047.049.256.256,0,0,1,0,.327l-.054.057-.575.575-.061.064c.034.066.066.13.1.2s.061.133.091.2.054.138.079.206.047.138.069.206a.217.217,0,0,0,.1.01h.8a.642.642,0,0,1,.069,0,.258.258,0,0,1,.256.246.6.6,0,0,1,0,.066v1.495a.709.709,0,0,1,0,.1.255.255,0,0,1-.243.209c-.027,0-.052,0-.076,0h-.885l-.022.047a3.768,3.768,0,0,1-.3.735l-.012.03c.007.032.032.047.052.066.192.192.383.383.575.578a.561.561,0,0,1,.054.054.258.258,0,0,1,0,.342.441.441,0,0,1-.049.047q-.527.531-1.055,1.057c-.02.017-.037.037-.057.052a.251.251,0,0,1-.334,0l-.054-.052-.575-.575-.064-.061a3.862,3.862,0,0,1-.8.334.143.143,0,0,0-.015.093v.806a.727.727,0,0,1,0,.1.251.251,0,0,1-.229.214c-.025,0-.049,0-.076,0h-1.5l-.066,0a.246.246,0,0,1-.236-.234c0-.027,0-.057,0-.084v-.8a.221.221,0,0,0-.01-.1c-.091-.032-.184-.061-.278-.1s-.179-.071-.265-.111-.177-.086-.268-.13l-.069.064-.57.57-.057.054a.254.254,0,0,1-.334,0l-.042-.042c-.359-.356-.715-.715-1.074-1.072l-.047-.049a.256.256,0,0,1,0-.329.536.536,0,0,1,.052-.054c.189-.192.381-.381.57-.57l.066-.069c-.044-.091-.088-.179-.13-.268s-.076-.177-.111-.265-.064-.187-.1-.28a.2.2,0,0,0-.093-.007c-.268,0-.533,0-.8,0l-.066,0a.255.255,0,0,1-.256-.236l0-.066V27.582a.483.483,0,0,1,.01-.1.254.254,0,0,1,.231-.2c.027,0,.052,0,.076,0h.9Zm3.712,2.9a1.845,1.845,0,1,0-1.839-1.851A1.84,1.84,0,0,0,32.1,30.182" transform="translate(39.621 34.128)" fill="#1492e6"/>
        <path id="Path_110135" data-name="Path 110135" d="M32.546,21.06a8.337,8.337,0,0,1,.7-1.681c-.042-.044-.079-.088-.118-.128q-.594-.594-1.185-1.187c-.039-.037-.076-.071-.111-.111a.532.532,0,0,1,0-.7c.025-.027.049-.052.074-.076l2.222-2.222c.029-.03.059-.059.089-.086a.523.523,0,0,1,.688,0c.042.034.076.074.113.111l1.175,1.173c.044.044.091.088.143.138a8.121,8.121,0,0,1,1.654-.688.266.266,0,0,0,.032-.194q0-.83,0-1.659a1.665,1.665,0,0,1,0-.192.514.514,0,0,1,.47-.462c.052,0,.106,0,.157,0h3.092a1.3,1.3,0,0,1,.138,0,.512.512,0,0,1,.487.462,1.666,1.666,0,0,1,.007.192v1.642c0,.064,0,.128,0,.189.295.108.583.2.86.317s.548.251.828.383c.042-.039.084-.076.125-.118q.594-.59,1.185-1.185c.037-.037.074-.074.113-.108a.521.521,0,0,1,.688,0c.032.027.059.057.088.084l2.212,2.212a1.249,1.249,0,0,1,.1.1.533.533,0,0,1,0,.676,1.557,1.557,0,0,1-.108.113c-.4.4-.792.789-1.185,1.185-.042.042-.081.084-.128.133.069.138.138.27.2.406s.128.275.184.415.113.28.162.423.1.285.143.425a.421.421,0,0,0,.2.02h1.642c.047,0,.093,0,.14,0a.535.535,0,0,1,.526.506c0,.044,0,.093,0,.138V24.78a1,1,0,0,1-.015.209.525.525,0,0,1-.5.433c-.054,0-.106,0-.157,0H47.866a1.062,1.062,0,0,0-.044.1,7.671,7.671,0,0,1-.629,1.512.642.642,0,0,0-.025.061c.015.064.066.1.108.138.393.4.789.789,1.185,1.185.037.037.074.074.108.113a.532.532,0,0,1,0,.7c-.032.034-.066.066-.1.1Q47.382,30.42,46.3,31.508c-.039.037-.074.074-.113.108a.523.523,0,0,1-.688,0c-.042-.034-.076-.074-.113-.111q-.594-.59-1.187-1.185c-.039-.039-.084-.079-.133-.123a8.072,8.072,0,0,1-1.649.686.288.288,0,0,0-.032.2q0,.83,0,1.659a1.487,1.487,0,0,1-.01.209.511.511,0,0,1-.47.442c-.052,0-.1,0-.155,0H38.652c-.047,0-.093,0-.14,0a.519.519,0,0,1-.487-.484c0-.057,0-.116,0-.175q0-.819,0-1.642a.424.424,0,0,0-.02-.2c-.187-.064-.381-.125-.57-.2s-.366-.145-.548-.229-.364-.177-.553-.27c-.049.049-.1.091-.14.135l-1.173,1.173c-.037.037-.074.076-.113.111a.523.523,0,0,1-.688,0,.712.712,0,0,1-.089-.084q-1.106-1.106-2.212-2.21c-.032-.034-.066-.066-.1-.1a.53.53,0,0,1,0-.676c.034-.039.071-.076.108-.113q.586-.586,1.175-1.173c.044-.044.088-.091.138-.143-.093-.187-.187-.366-.27-.551s-.157-.361-.226-.548-.133-.383-.2-.573a.407.407,0,0,0-.194-.017q-.819,0-1.642,0c-.047,0-.093,0-.138,0a.532.532,0,0,1-.526-.487,1.335,1.335,0,0,1,0-.14q0-1.556,0-3.11a.963.963,0,0,1,.017-.206.518.518,0,0,1,.477-.415c.054,0,.106,0,.157,0h1.851Zm7.643,5.978A3.8,3.8,0,1,0,36.4,23.231a3.787,3.787,0,0,0,3.788,3.808" transform="translate(43.806 19.083)" fill="#1492e6"/>
        <circle id="Ellipse_2426" data-name="Ellipse 2426" cx="3" cy="3" r="3" transform="translate(6 7)" fill="#1492e6"/>
        <circle id="Ellipse_2427" data-name="Ellipse 2427" cx="3" cy="3" r="3" transform="translate(15 7)" fill="#1492e6"/>
        <circle id="Ellipse_2428" data-name="Ellipse 2428" cx="3" cy="3" r="3" transform="translate(27 7)" fill="#1492e6"/>
        <circle id="Ellipse_2429" data-name="Ellipse 2429" cx="3" cy="3" r="3" transform="translate(40 21)" fill="#1492e6"/>
      </g>
    </g>
  </g>
</svg>
