<svg width="14" height="12" viewBox="0 0 14 12" fill="none" xmlns="http://www.w3.org/2000/svg">
<path d="M13.5 11.1311C13.5 11.2631 13.4473 11.3911 13.3536 11.4841C13.2598 11.5781 13.1326 11.6311 13 11.6311H1C0.86739 11.6311 0.74021 11.5781 0.64645 11.4841C0.55268 11.3911 0.5 11.2631 0.5 11.1311V1.1311C0.5 0.998103 0.55268 0.8711 0.64645 0.7771C0.74021 0.6841 0.86739 0.631104 1 0.631104C1.13261 0.631104 1.25979 0.6841 1.35355 0.7771C1.44732 0.8711 1.5 0.998103 1.5 1.1311V7.9241L4.64625 4.7771C4.69269 4.7311 4.74783 4.6941 4.80853 4.6691C4.86923 4.6431 4.93429 4.6301 5 4.6301C5.06571 4.6301 5.13077 4.6431 5.19147 4.6691C5.25217 4.6941 5.30731 4.7311 5.35375 4.7771L7 6.4241L10.2931 3.1311H9C8.86739 3.1311 8.74021 3.0781 8.64645 2.9841C8.55268 2.8911 8.5 2.7631 8.5 2.6311C8.5 2.4981 8.55268 2.3711 8.64645 2.2771C8.74021 2.1841 8.86739 2.1311 9 2.1311H11.5C11.6326 2.1311 11.7598 2.1841 11.8536 2.2771C11.9473 2.3711 12 2.4981 12 2.6311V5.1311C12 5.2631 11.9473 5.3911 11.8536 5.4841C11.7598 5.5781 11.6326 5.6311 11.5 5.6311C11.3674 5.6311 11.2402 5.5781 11.1464 5.4841C11.0527 5.3911 11 5.2631 11 5.1311V3.8381L7.35375 7.48508C7.30731 7.53108 7.25217 7.56808 7.19147 7.59308C7.13077 7.61808 7.06571 7.6311 7 7.6311C6.93429 7.6311 6.86923 7.61808 6.80853 7.59308C6.74783 7.56808 6.69269 7.53108 6.64625 7.48508L5 5.8381L1.5 9.3381V10.6311H13C13.1326 10.6311 13.2598 10.6841 13.3536 10.7771C13.4473 10.8711 13.5 10.9981 13.5 11.1311Z" fill="#4B4F58"/>
</svg>
