<svg width="14" height="12" viewBox="0 0 14 12" fill="none" xmlns="http://www.w3.org/2000/svg">
<path d="M12.5 0.320801H1.5C1.23478 0.320801 0.98043 0.424271 0.79289 0.609533C0.60536 0.79381 0.5 1.0451 0.5 1.30624V10.1752C0.5 10.4363 0.60536 10.6866 0.79289 10.8719C0.98043 11.0571 1.23478 11.1606 1.5 11.1606H12.5C12.7652 11.1606 13.0196 11.0571 13.2071 10.8719C13.3946 10.6866 13.5 10.4363 13.5 10.1752V1.30624C13.5 1.0451 13.3946 0.79381 13.2071 0.609533C13.0196 0.424271 12.7652 0.320801 12.5 0.320801ZM11.5 9.68245H2.5C2.36739 9.68245 2.24021 9.63022 2.14645 9.53759C2.05268 9.44594 2 9.31981 2 9.18973V2.29167C2 2.16061 2.05268 2.03546 2.14645 1.94283C2.24021 1.85118 2.36739 1.79896 2.5 1.79896C2.63261 1.79896 2.75979 1.85118 2.85355 1.94283C2.94732 2.03546 3 2.16061 3 2.29167V7.01487L5.14625 4.89914C5.19269 4.85381 5.24783 4.81734 5.30853 4.79271C5.36923 4.76709 5.43429 4.75427 5.5 4.75427C5.56571 4.75427 5.63077 4.76709 5.69147 4.79271C5.75217 4.81734 5.80731 4.85381 5.85375 4.89914L7 6.02944L9.7931 3.27711H8.5C8.36739 3.27711 8.24021 3.22488 8.14645 3.13225C8.05268 3.0406 8 2.91447 8 2.78439C8 2.65333 8.05268 2.52818 8.14645 2.43554C8.24021 2.3439 8.36739 2.29167 8.5 2.29167H11C11.1326 2.29167 11.2598 2.3439 11.3536 2.43554C11.4473 2.52818 11.5 2.65333 11.5 2.78439V5.24799C11.5 5.37806 11.4473 5.5042 11.3536 5.59584C11.2598 5.68847 11.1326 5.7407 11 5.7407C10.8674 5.7407 10.7402 5.68847 10.6464 5.59584C10.5527 5.5042 10.5 5.37806 10.5 5.24799V3.97382L7.35375 7.07496C7.30731 7.12029 7.25217 7.15675 7.19147 7.18139C7.13077 7.20602 7.06571 7.21886 7 7.21886C6.93429 7.21886 6.86923 7.20602 6.80853 7.18139C6.74783 7.15675 6.69269 7.12029 6.64625 7.07496L5.5 5.94469L3 8.40828V8.69701H11.5C11.6326 8.69701 11.7598 8.74924 11.8536 8.84088C11.9473 8.93352 12 9.05867 12 9.18973C12 9.31981 11.9473 9.44594 11.8536 9.53759C11.7598 9.63022 11.6326 9.68245 11.5 9.68245Z" fill="#997722"/>
</svg>
