<svg width="13" height="13" viewBox="0 0 13 13" fill="none" xmlns="http://www.w3.org/2000/svg">
<path d="M12 6.50039V12.0004C12 12.2656 11.8946 12.52 11.7071 12.7075C11.5196 12.895 11.2652 13.0004 11 13.0004H1C0.73478 13.0004 0.48043 12.895 0.29289 12.7075C0.10536 12.52 0 12.2656 0 12.0004V2.00039C0 1.73518 0.10536 1.48082 0.29289 1.29329C0.48043 1.10575 0.73478 1.00039 1 1.00039H6.5C6.63261 1.00039 6.75979 1.05307 6.85355 1.14684C6.94732 1.24061 7 1.36779 7 1.50039C7 1.633 6.94732 1.76018 6.85355 1.85395C6.75979 1.94771 6.63261 2.00039 6.5 2.00039H1V12.0004H11V6.50039C11 6.36778 11.0527 6.24061 11.1464 6.14684C11.2402 6.05307 11.3674 6.00039 11.5 6.00039C11.6326 6.00039 11.7598 6.05307 11.8536 6.14684C11.9473 6.24061 12 6.36778 12 6.50039ZM12.3538 3.35414L6.35375 9.3541C6.30728 9.4006 6.25212 9.4374 6.19143 9.4625C6.13073 9.4876 6.06568 9.5004 6 9.5004H4C3.86739 9.5004 3.74021 9.4477 3.64645 9.3539C3.55268 9.2602 3.5 9.133 3.5 9.0004V7.00039C3.49995 6.93471 3.51284 6.86967 3.53793 6.80897C3.56303 6.74827 3.59983 6.69311 3.64625 6.64664L9.6462 0.64664C9.6927 0.60016 9.7478 0.56328 9.8085 0.53811C9.8692 0.51295 9.9343 0.5 10 0.5C10.0657 0.5 10.1308 0.51295 10.1915 0.53811C10.2522 0.56328 10.3073 0.60016 10.3538 0.64664L12.3538 2.64664C12.4002 2.69308 12.4371 2.74822 12.4623 2.80892C12.4874 2.86962 12.5004 2.93469 12.5004 3.00039C12.5004 3.0661 12.4874 3.13116 12.4623 3.19186C12.4371 3.25256 12.4002 3.30771 12.3538 3.35414ZM11.2913 3.00039L10 1.70727L9.2069 2.50039L10.5 3.79352L11.2913 3.00039Z" fill="#4B4F58"/>
</svg>
