<svg width="16" height="12" viewBox="0 0 16 12" fill="none" xmlns="http://www.w3.org/2000/svg">
<path d="M15.3002 6.73301C15.2477 6.77301 15.1879 6.802 15.1243 6.818C15.0607 6.834 14.9945 6.83801 14.9295 6.82801C14.8645 6.81901 14.8019 6.79701 14.7454 6.76401C14.6889 6.73001 14.6396 6.686 14.6002 6.633C14.2988 6.228 13.9066 5.90002 13.455 5.67402C13.0034 5.44802 12.5051 5.33102 12.0002 5.33301C11.9019 5.33301 11.8057 5.30401 11.7238 5.25001C11.6419 5.19601 11.5778 5.11802 11.5396 5.02802C11.5136 4.96602 11.5002 4.90001 11.5002 4.83301C11.5002 4.76701 11.5136 4.70101 11.5396 4.63901C11.5778 4.54801 11.6419 4.471 11.7238 4.417C11.8057 4.362 11.9019 4.33301 12.0002 4.33301C12.2807 4.33301 12.5556 4.25499 12.7937 4.10599C13.0318 3.95799 13.2234 3.746 13.3469 3.494C13.4704 3.242 13.5208 2.96001 13.4923 2.68101C13.4638 2.40201 13.3577 2.13702 13.1859 1.91502C13.0141 1.69302 12.7835 1.52401 12.5204 1.42701C12.2573 1.32901 11.9721 1.30802 11.6973 1.36402C11.4226 1.42102 11.1692 1.55302 10.966 1.74702C10.7627 1.94002 10.6178 2.18701 10.5477 2.45801C10.5313 2.52201 10.5025 2.58201 10.463 2.63401C10.4235 2.68701 10.374 2.73101 10.3174 2.76401C10.2608 2.79801 10.1982 2.82002 10.1332 2.82902C10.0681 2.83802 10.0019 2.834 9.93831 2.818C9.87471 2.801 9.81495 2.77301 9.76247 2.73301C9.70998 2.69401 9.66579 2.64402 9.63242 2.58802C9.59905 2.53102 9.57715 2.46802 9.56798 2.40302C9.5588 2.33802 9.56252 2.27201 9.57894 2.20801C9.67629 1.83202 9.8602 1.48301 10.1161 1.19001C10.3719 0.897009 10.6926 0.666996 11.0527 0.519996C11.4128 0.372996 11.8023 0.312011 12.1902 0.341011C12.5781 0.371011 12.9538 0.491017 13.2872 0.691017C13.6207 0.892017 13.9028 1.16701 14.1111 1.49601C14.3193 1.82401 14.448 2.19702 14.4869 2.58402C14.5258 2.97102 14.4738 3.36202 14.335 3.72602C14.1963 4.08902 13.9746 4.41502 13.6877 4.67802C14.3676 4.97202 14.9586 5.439 15.4021 6.033C15.4415 6.085 15.4701 6.14502 15.4863 6.20902C15.5025 6.27302 15.506 6.339 15.4965 6.404C15.487 6.469 15.4648 6.53202 15.4311 6.58802C15.3974 6.64502 15.353 6.69401 15.3002 6.73301ZM11.9327 10.583C11.9689 10.64 11.9932 10.704 12.0041 10.771C12.015 10.837 12.0124 10.905 11.9964 10.971C11.9803 11.036 11.9512 11.098 11.9107 11.152C11.8703 11.206 11.8193 11.251 11.761 11.285C11.7026 11.318 11.638 11.34 11.571 11.348C11.5041 11.356 11.4362 11.351 11.3714 11.332C11.3067 11.313 11.2464 11.281 11.1942 11.239C11.142 11.196 11.0989 11.143 11.0677 11.083C10.7527 10.55 10.3041 10.108 9.76621 9.801C9.22827 9.494 8.61958 9.33301 8.00019 9.33301C7.3808 9.33301 6.7721 9.494 6.23417 9.801C5.69624 10.108 5.24766 10.55 4.93269 11.083C4.90143 11.143 4.85841 11.196 4.80621 11.239C4.75402 11.281 4.69372 11.313 4.62896 11.332C4.56419 11.351 4.4963 11.356 4.42936 11.348C4.36241 11.34 4.29781 11.318 4.23943 11.285C4.18104 11.251 4.13009 11.206 4.08963 11.152C4.04917 11.098 4.02005 11.036 4.004 10.971C3.98796 10.905 3.98533 10.837 3.99628 10.771C4.00722 10.704 4.03151 10.64 4.06769 10.583C4.55244 9.75101 5.29156 9.09502 6.17644 8.71302C5.67852 8.33202 5.31258 7.80499 5.13006 7.20499C4.94755 6.60499 4.95763 5.963 5.15889 5.369C5.36015 4.775 5.74247 4.25901 6.25211 3.89301C6.76175 3.52801 7.37309 3.331 8.00019 3.331C8.62729 3.331 9.23863 3.52801 9.74827 3.89301C10.2579 4.25901 10.6402 4.775 10.8415 5.369C11.0428 5.963 11.0528 6.60499 10.8703 7.20499C10.6878 7.80499 10.3219 8.33202 9.82394 8.71302C10.7088 9.09502 11.4479 9.75101 11.9327 10.583ZM8.00019 8.33301C8.39575 8.33301 8.78243 8.21601 9.11133 7.99601C9.44023 7.77701 9.69657 7.46401 9.84795 7.09901C9.99932 6.73301 10.0389 6.331 9.96176 5.943C9.88459 5.555 9.69411 5.19901 9.4144 4.91901C9.1347 4.64001 8.77833 4.44902 8.39037 4.37202C8.00241 4.29502 7.60028 4.334 7.23482 4.486C6.86937 4.637 6.55701 4.89299 6.33725 5.22199C6.11749 5.55099 6.00019 5.93801 6.00019 6.33301C6.00019 6.86402 6.2109 7.37299 6.58598 7.74799C6.96105 8.12299 7.46976 8.33301 8.00019 8.33301ZM4.50019 4.83301C4.50019 4.70101 4.44751 4.57402 4.35374 4.48002C4.25997 4.38602 4.1328 4.33301 4.00019 4.33301C3.71964 4.33301 3.44473 4.25499 3.20667 4.10599C2.96861 3.95799 2.77695 3.746 2.65346 3.494C2.52997 3.242 2.4796 2.96001 2.50806 2.68101C2.53653 2.40201 2.6427 2.13702 2.81451 1.91502C2.98631 1.69302 3.21688 1.52401 3.48 1.42701C3.74313 1.32901 4.02827 1.30802 4.30304 1.36402C4.57782 1.42102 4.8312 1.55302 5.03442 1.74702C5.23765 1.94002 5.38255 2.18701 5.45269 2.45801C5.48584 2.58701 5.56867 2.69701 5.68295 2.76401C5.79723 2.83201 5.9336 2.851 6.06206 2.818C6.19053 2.785 6.30056 2.70202 6.36796 2.58802C6.43535 2.47302 6.45459 2.33701 6.42144 2.20801C6.32409 1.83202 6.14017 1.48301 5.88432 1.19001C5.62847 0.897009 5.30774 0.666996 4.94766 0.519996C4.58758 0.372996 4.19808 0.312011 3.81016 0.341011C3.42224 0.371011 3.04661 0.491017 2.71314 0.691017C2.37968 0.892017 2.09759 1.16701 1.88933 1.49601C1.68106 1.82401 1.55237 2.19702 1.51348 2.58402C1.4746 2.97102 1.5266 3.36202 1.66534 3.72602C1.80409 4.08902 2.02575 4.41502 2.31269 4.67802C1.63349 4.97202 1.04314 5.44 0.60019 6.033C0.520542 6.139 0.486299 6.272 0.504994 6.404C0.523689 6.535 0.593791 6.65301 0.699877 6.73301C0.805964 6.81301 0.939345 6.84701 1.07068 6.82801C1.20201 6.81001 1.32054 6.74 1.40019 6.633C1.70156 6.228 2.09382 5.90002 2.54541 5.67402C2.997 5.44802 3.4953 5.33102 4.00019 5.33301C4.1328 5.33301 4.25997 5.28102 4.35374 5.18702C4.44751 5.09302 4.50019 4.96601 4.50019 4.83301Z" fill="#4B4F58"/>
</svg>
