<svg width="16" height="12" viewBox="0 0 16 12" fill="none" xmlns="http://www.w3.org/2000/svg">
<path d="M4.00653 7.12088C4.00822 7.1534 4.00301 7.1869 3.99121 7.21844C3.97941 7.24997 3.96126 7.27855 3.93787 7.30318C3.91449 7.32683 3.88635 7.34652 3.85518 7.35933C3.824 7.37214 3.79044 7.37906 3.75653 7.37906H0.999033C0.886177 7.37906 0.776585 7.34161 0.688076 7.27263C0.599566 7.20365 0.537345 7.10706 0.51153 6.99866C0.495455 6.92475 0.496197 6.8479 0.5137 6.77498C0.531203 6.70107 0.565037 6.63209 0.61278 6.57198C1.05391 5.9955 1.63921 5.5422 2.31153 5.25445C2.01636 4.98937 1.78997 4.65826 1.65132 4.2897C1.51268 3.92016 1.46582 3.52401 1.51466 3.13279C1.5635 2.74256 1.70663 2.36909 1.93205 2.0439C2.15747 1.71871 2.45863 1.45263 2.8103 1.2654C3.16196 1.07915 3.5539 0.977637 3.95328 0.970739C4.35267 0.964827 4.74787 1.05254 5.10578 1.22696C5.4637 1.40138 5.77392 1.65859 6.01045 1.9759C6.24699 2.29321 6.40295 2.66078 6.46528 3.05003C6.47333 3.10225 6.46382 3.15546 6.43821 3.20178C6.4126 3.24908 6.37229 3.28553 6.3234 3.30721C5.6299 3.62354 5.04257 4.1281 4.63072 4.76272C4.21887 5.39636 3.99968 6.13346 3.99903 6.88634C3.99903 6.96517 3.99903 7.04303 4.00653 7.12088ZM15.3815 6.57198C14.9414 5.9955 14.3574 5.5422 13.6865 5.25445C13.9817 4.98937 14.2081 4.65826 14.3467 4.2897C14.4854 3.92016 14.5322 3.52401 14.4834 3.13279C14.4345 2.74256 14.2914 2.36909 14.066 2.0439C13.8406 1.71871 13.5394 1.45263 13.1877 1.2654C12.8361 1.07915 12.4441 0.977637 12.0448 0.970739C11.6454 0.964827 11.2502 1.05254 10.8922 1.22696C10.5343 1.40138 10.2241 1.65859 9.9876 1.9759C9.75107 2.29321 9.5951 2.66078 9.53278 3.05003C9.52473 3.10225 9.53423 3.15546 9.55984 3.20178C9.58545 3.24908 9.62577 3.28553 9.67465 3.30721C10.3681 3.62354 10.9555 4.1281 11.3673 4.76272C11.7792 5.39636 11.9983 6.13346 11.999 6.88634C11.999 6.96517 11.999 7.04303 11.9915 7.12088C11.9898 7.1534 11.995 7.1869 12.0068 7.21844C12.0186 7.24997 12.0368 7.27855 12.0602 7.30318C12.0835 7.32683 12.1117 7.34652 12.1429 7.35933C12.174 7.37214 12.2076 7.37906 12.2415 7.37906H14.999C15.1119 7.37906 15.2215 7.34161 15.31 7.27263C15.3985 7.20365 15.4607 7.10706 15.4865 6.99866C15.5027 6.92475 15.5019 6.84789 15.4843 6.77398C15.4667 6.70008 15.4327 6.63111 15.3846 6.57198H15.3815ZM9.81903 9.23069C10.3169 8.85524 10.6827 8.33592 10.8652 7.74466C11.0476 7.15339 11.0375 6.52074 10.8362 5.93539C10.6349 5.35005 10.2526 4.84155 9.74297 4.48187C9.23334 4.1212 8.62203 3.92804 7.99496 3.92804C7.36789 3.92804 6.75659 4.1212 6.24696 4.48187C5.73734 4.84155 5.35501 5.35005 5.15372 5.93539C4.95244 6.52074 4.9423 7.15339 5.12475 7.74466C5.3072 8.33592 5.67306 8.85524 6.1709 9.23069C5.28749 9.60811 4.54982 10.2546 4.0659 11.0744C4.02201 11.1493 3.99891 11.2341 3.99891 11.3208C3.99892 11.4075 4.02203 11.4923 4.06593 11.5672C4.10983 11.6421 4.17296 11.7041 4.24899 11.7475C4.32501 11.7908 4.41125 11.8135 4.49903 11.8135H11.499C11.5868 11.8135 11.673 11.7908 11.749 11.7475C11.8251 11.7041 11.8882 11.6421 11.9321 11.5672C11.976 11.4923 11.9991 11.4075 11.9991 11.3208C11.9991 11.2341 11.976 11.1493 11.9321 11.0744C11.4472 10.2536 10.7081 9.60811 9.8234 9.23069H9.81903Z" fill="#997722"/>
</svg>
