<svg width="15" height="11" viewBox="0 0 15 11" fill="none" xmlns="http://www.w3.org/2000/svg">
<path d="M14.9998 6.50007C14.9998 6.63207 14.9472 6.75907 14.8534 6.85307C14.7596 6.94707 14.6324 7.00007 14.4998 7.00007H13.4998V8.00007C13.4998 8.13207 13.4472 8.25907 13.3534 8.35307C13.2596 8.44707 13.1324 8.50007 12.9998 8.50007C12.8672 8.50007 12.7401 8.44707 12.6463 8.35307C12.5525 8.25907 12.4998 8.13207 12.4998 8.00007V7.00007H11.4998C11.3672 7.00007 11.2401 6.94707 11.1463 6.85307C11.0525 6.75907 10.9998 6.63207 10.9998 6.50007C10.9998 6.36707 11.0525 6.24006 11.1463 6.14606C11.2401 6.05206 11.3672 6.00007 11.4998 6.00007H12.4998V5.00007C12.4998 4.86707 12.5525 4.74007 12.6463 4.64607C12.7401 4.55207 12.8672 4.50007 12.9998 4.50007C13.1324 4.50007 13.2596 4.55207 13.3534 4.64607C13.4472 4.74007 13.4998 4.86707 13.4998 5.00007V6.00007H14.4998C14.6324 6.00007 14.7596 6.05206 14.8534 6.14606C14.9472 6.24006 14.9998 6.36707 14.9998 6.50007ZM11.383 10.1781C11.4683 10.2791 11.5098 10.4111 11.4983 10.5431C11.4869 10.6751 11.4233 10.7971 11.3217 10.8831C11.2201 10.9681 11.0887 11.0101 10.9565 10.9981C10.8243 10.9871 10.7021 10.9231 10.6167 10.8211C9.3592 9.32407 7.63046 8.50007 5.74984 8.50007C3.86921 8.50007 2.14046 9.32407 0.882961 10.8211C0.797601 10.9231 0.675391 10.9861 0.543241 10.9981C0.411091 11.0091 0.279801 10.9681 0.178281 10.8821C0.0767506 10.7971 0.0132907 10.6751 0.00186066 10.5431C-0.00956634 10.4111 0.0319706 10.2791 0.117341 10.1781C1.05109 9.06606 2.21234 8.27706 3.50296 7.85506C2.71915 7.36606 2.11566 6.63607 1.7838 5.77407C1.45193 4.91307 1.40974 3.96607 1.66362 3.07907C1.91749 2.19107 2.45362 1.41006 3.19088 0.854065C3.92814 0.298065 4.82643 -0.00292969 5.74984 -0.00292969C6.67325 -0.00292969 7.57153 0.298065 8.30879 0.854065C9.0461 1.41006 9.5822 2.19107 9.8361 3.07907C10.0899 3.96607 10.0477 4.91307 9.7159 5.77407C9.384 6.63607 8.78052 7.36606 7.99671 7.85506C9.2873 8.27706 10.4486 9.06606 11.383 10.1781ZM5.74984 7.50007C6.39263 7.50007 7.02098 7.30906 7.55544 6.95206C8.0899 6.59506 8.50646 6.08706 8.75245 5.49306C8.99843 4.89906 9.0628 4.24607 8.93739 3.61607C8.81199 2.98507 8.50245 2.40607 8.04793 1.95107C7.59341 1.49707 7.01432 1.18707 6.38388 1.06207C5.75344 0.937065 5.09998 1.00107 4.50612 1.24707C3.91226 1.49307 3.40468 1.91007 3.04756 2.44407C2.69045 2.97807 2.49984 3.60707 2.49984 4.25007C2.50083 5.11107 2.84356 5.93707 3.45284 6.54707C4.06211 7.15607 4.88819 7.49907 5.74984 7.50007Z" fill="#4B4F58"/>
</svg>
