<svg width="12" height="14" viewBox="0 0 12 14" fill="none" xmlns="http://www.w3.org/2000/svg">
<path d="M11.3538 3.146L8.8538 0.645996C8.8073 0.599996 8.7521 0.562994 8.6914 0.537994C8.6307 0.512994 8.5657 0.5 8.5 0.5H3.5C3.23478 0.5 2.98043 0.604999 2.79289 0.792999C2.60536 0.979999 2.5 1.235 2.5 1.5V2.5H1.5C1.23478 2.5 0.98043 2.605 0.79289 2.793C0.60536 2.98 0.5 3.235 0.5 3.5V12.5C0.5 12.765 0.60536 13.02 0.79289 13.207C0.98043 13.395 1.23478 13.5 1.5 13.5H8.5C8.7652 13.5 9.0196 13.395 9.2071 13.207C9.3946 13.02 9.5 12.765 9.5 12.5V11.5H10.5C10.7652 11.5 11.0196 11.395 11.2071 11.207C11.3946 11.02 11.5 10.765 11.5 10.5V3.5C11.5001 3.434 11.4872 3.36901 11.4621 3.30901C11.437 3.24801 11.4002 3.193 11.3538 3.146ZM6.5 11H3.5C3.36739 11 3.24021 10.947 3.14645 10.854C3.05268 10.76 3 10.633 3 10.5C3 10.367 3.05268 10.24 3.14645 10.146C3.24021 10.053 3.36739 10 3.5 10H6.5C6.63261 10 6.75979 10.053 6.85355 10.146C6.94732 10.24 7 10.367 7 10.5C7 10.633 6.94732 10.76 6.85355 10.854C6.75979 10.947 6.63261 11 6.5 11ZM6.5 9H3.5C3.36739 9 3.24021 8.947 3.14645 8.854C3.05268 8.76 3 8.633 3 8.5C3 8.367 3.05268 8.24 3.14645 8.146C3.24021 8.053 3.36739 8 3.5 8H6.5C6.63261 8 6.75979 8.053 6.85355 8.146C6.94732 8.24 7 8.367 7 8.5C7 8.633 6.94732 8.76 6.85355 8.854C6.75979 8.947 6.63261 9 6.5 9ZM10.5 10.5H9.5V5.5C9.5001 5.434 9.4872 5.36901 9.4621 5.30901C9.437 5.24801 9.4002 5.193 9.3538 5.146L6.85375 2.646C6.80728 2.6 6.75212 2.56299 6.69143 2.53799C6.63073 2.51299 6.56568 2.5 6.5 2.5H3.5V1.5H8.2931L10.5 3.707V10.5Z" fill="#92722A"/>
</svg>
