<svg width="15" height="11" viewBox="0 0 15 11" fill="none" xmlns="http://www.w3.org/2000/svg">
<path d="M15.0007 6.50007C15.0007 6.63207 14.948 6.75907 14.8542 6.85307C14.7605 6.94707 14.6333 7.00007 14.5007 7.00007H13.5007V8.00007C13.5007 8.13207 13.448 8.25907 13.3542 8.35307C13.2605 8.44707 13.1333 8.50007 13.0007 8.50007C12.8681 8.50007 12.7409 8.44707 12.6471 8.35307C12.5534 8.25907 12.5007 8.13207 12.5007 8.00007V7.00007H11.5007C11.3681 7.00007 11.2409 6.94707 11.1471 6.85307C11.0534 6.75907 11.0007 6.63207 11.0007 6.50007C11.0007 6.36707 11.0534 6.24006 11.1471 6.14606C11.2409 6.05206 11.3681 6.00007 11.5007 6.00007H12.5007V5.00007C12.5007 4.86707 12.5534 4.74007 12.6471 4.64607C12.7409 4.55207 12.8681 4.50007 13.0007 4.50007C13.1333 4.50007 13.2605 4.55207 13.3542 4.64607C13.448 4.74007 13.5007 4.86707 13.5007 5.00007V6.00007H14.5007C14.6333 6.00007 14.7605 6.05206 14.8542 6.14606C14.948 6.24006 15.0007 6.36707 15.0007 6.50007ZM8.00067 7.85506C8.78448 7.36606 9.38799 6.63607 9.71979 5.77407C10.0517 4.91307 10.0939 3.96607 9.83999 3.07907C9.58619 2.19107 9.04999 1.41006 8.31276 0.854065C7.57549 0.298065 6.67721 -0.00292969 5.7538 -0.00292969C4.83039 -0.00292969 3.93211 0.298065 3.19484 0.854065C2.45758 1.41006 1.92146 2.19107 1.66758 3.07907C1.4137 3.96607 1.45589 4.91307 1.78776 5.77407C2.11962 6.63607 2.72311 7.36606 3.50692 7.85506C2.2163 8.27706 1.05505 9.06606 0.121297 10.1781C0.0601666 10.2501 0.0209865 10.3391 0.00835649 10.4331C-0.00428451 10.5271 0.0101366 10.6231 0.0499366 10.7091C0.0897366 10.7951 0.153256 10.8681 0.233076 10.9201C0.312896 10.9711 0.405717 10.9991 0.500667 11.0001H11.0007C11.096 11.0001 11.1893 10.9731 11.2697 10.9211C11.35 10.8701 11.4141 10.7971 11.4544 10.7111C11.4946 10.6241 11.5094 10.5281 11.4969 10.4341C11.4844 10.3401 11.4451 10.2511 11.3838 10.1781C10.4494 9.06606 9.28819 8.27706 8.00067 7.85506Z" fill="#92722A"/>
</svg>
