<svg width="16" height="10" viewBox="0 0 16 10" fill="none" xmlns="http://www.w3.org/2000/svg">
<path d="M7.32742 6.86964C7.99755 6.42344 8.50632 5.77355 8.77849 5.01595C9.05066 4.25825 9.07178 3.43314 8.83874 2.66254C8.6057 1.89194 8.13086 1.21685 7.48444 0.737045C6.83802 0.257145 6.05434 -0.00195312 5.2493 -0.00195312C4.44425 -0.00195312 3.66057 0.257145 3.01415 0.737045C2.36774 1.21685 1.8929 1.89194 1.65985 2.66254C1.42681 3.43314 1.44794 4.25825 1.72011 5.01595C1.99228 5.77355 2.50105 6.42344 3.17117 6.86964C1.95898 7.31604 0.92374 8.14304 0.219924 9.22604C0.182934 9.28104 0.15724 9.34304 0.144337 9.40804C0.131434 9.47304 0.131578 9.54005 0.144762 9.60505C0.157946 9.67005 0.183906 9.73205 0.221133 9.78605C0.25836 9.84105 0.306112 9.88805 0.361613 9.92405C0.417114 9.96105 0.479257 9.98505 0.544429 9.99705C0.609601 10.009 0.676503 10.008 0.741246 9.99405C0.805989 9.98005 0.867281 9.95305 0.92156 9.91505C0.975839 9.87705 1.02202 9.82905 1.05742 9.77305C1.51142 9.07405 2.13264 8.50104 2.8647 8.10304C3.59675 7.70604 4.41642 7.49805 5.2493 7.49805C6.08217 7.49805 6.90185 7.70604 7.6339 8.10304C8.36595 8.50104 8.98718 9.07405 9.44117 9.77305C9.51451 9.88205 9.62779 9.95705 9.75653 9.98405C9.88528 10.01 10.0191 9.98405 10.1292 9.91205C10.2392 9.84105 10.3166 9.72804 10.3445 9.60004C10.3725 9.47204 10.3488 9.33704 10.2787 9.22604C9.57486 8.14304 8.53961 7.31604 7.32742 6.86964ZM2.4993 3.74965C2.4993 3.20575 2.66058 2.67405 2.96276 2.22185C3.26493 1.76955 3.69442 1.41705 4.19692 1.20895C4.69941 1.00085 5.25235 0.946344 5.7858 1.05244C6.31924 1.15854 6.80925 1.42045 7.19384 1.80505C7.57844 2.18965 7.84035 2.67964 7.94646 3.21314C8.05257 3.74654 7.99811 4.29955 7.78997 4.80195C7.58182 5.30445 7.22935 5.73395 6.77712 6.03615C6.32488 6.33835 5.7932 6.49965 5.2493 6.49965C4.52021 6.49875 3.82121 6.20874 3.30567 5.69324C2.79012 5.17774 2.50012 4.47875 2.4993 3.74965ZM15.633 9.91805C15.522 9.99105 15.3867 10.016 15.2569 9.98904C15.1272 9.96104 15.0136 9.88405 14.9412 9.77305C14.4877 9.07405 13.8666 8.50004 13.1344 8.10304C12.4022 7.70604 11.5822 7.49805 10.7493 7.50005C10.6167 7.50005 10.4895 7.44704 10.3957 7.35304C10.302 7.25904 10.2493 7.13205 10.2493 6.99965C10.2493 6.86705 10.302 6.73985 10.3957 6.64605C10.4895 6.55225 10.6167 6.49965 10.7493 6.49965C11.1543 6.49925 11.5542 6.40945 11.9204 6.23655C12.2867 6.06375 12.6102 5.81215 12.8679 5.49975C13.1257 5.18735 13.3112 4.82184 13.4113 4.42944C13.5115 4.03704 13.5237 3.62734 13.4471 3.22974C13.3705 2.83204 13.2071 2.45614 12.9684 2.12894C12.7298 1.80184 12.4218 1.53134 12.0665 1.33704C11.7112 1.14264 11.3173 1.02915 10.9131 1.00465C10.5089 0.980146 10.1042 1.04524 9.72805 1.19524C9.66671 1.22174 9.60069 1.23574 9.53387 1.23624C9.46705 1.23684 9.4008 1.22405 9.33903 1.19855C9.27726 1.17305 9.22122 1.13544 9.17422 1.08794C9.12722 1.04044 9.09022 0.984044 9.06541 0.921944C9.04059 0.859944 9.02846 0.793546 9.02974 0.726746C9.03101 0.659946 9.04566 0.594043 9.07283 0.533043C9.09999 0.471943 9.13912 0.416946 9.18789 0.371346C9.23666 0.325646 9.2941 0.290243 9.3568 0.267143C10.2177 -0.0762568 11.1753 -0.0885552 12.0447 0.232445C12.9142 0.553445 13.634 1.18505 14.0653 2.00555C14.4965 2.82595 14.6087 3.77695 14.3801 4.67515C14.1515 5.57345 13.5984 6.35514 12.8274 6.86964C14.0396 7.31604 15.0748 8.14304 15.7787 9.22604C15.8511 9.33804 15.8764 9.47304 15.8491 9.60304C15.8218 9.73204 15.7441 9.84605 15.633 9.91805Z" fill="#4B4F58"/>
</svg>
