<svg width="16" height="10" viewBox="0 0 16 10" fill="none" xmlns="http://www.w3.org/2000/svg">
<path d="M10.2786 9.22604C10.3278 9.30204 10.3557 9.38904 10.3594 9.47904C10.363 9.56904 10.3423 9.65904 10.2994 9.73804C10.2565 9.81704 10.193 9.88305 10.1157 9.92905C10.0383 9.97505 9.94992 10 9.85986 10H0.638611C0.548546 10 0.460156 9.97505 0.38278 9.92905C0.305404 9.88305 0.241915 9.81704 0.19902 9.73804C0.156126 9.65904 0.135419 9.56904 0.139087 9.47904C0.142756 9.38904 0.170663 9.30204 0.219861 9.22604C0.923677 8.14304 1.95891 7.31604 3.17111 6.86964C2.50098 6.42344 1.99221 5.77355 1.72004 5.01595C1.44787 4.25825 1.42675 3.43314 1.65979 2.66254C1.89283 1.89194 2.36767 1.21685 3.01409 0.737045C3.66051 0.257145 4.44418 -0.00195312 5.24923 -0.00195312C6.05428 -0.00195312 6.83796 0.257145 7.48437 0.737045C8.13079 1.21685 8.60563 1.89194 8.83868 2.66254C9.07172 3.43314 9.05059 4.25825 8.77842 5.01595C8.50625 5.77355 7.99748 6.42344 7.32736 6.86964C8.53955 7.31604 9.57479 8.14304 10.2786 9.22604ZM15.773 9.21705C15.069 8.13805 14.036 7.31504 12.8273 6.86964C13.6185 6.33674 14.1768 5.52235 14.3886 4.59235C14.6005 3.66225 14.45 2.68645 13.9677 1.86355C13.4855 1.04055 12.7077 0.432244 11.7928 0.162544C10.8779 -0.107256 9.89457 -0.0182544 9.04298 0.411446C9.01042 0.428346 8.98195 0.452048 8.95959 0.481148C8.93723 0.510148 8.92153 0.543744 8.9136 0.579544C8.90567 0.615344 8.9057 0.652348 8.9137 0.688148C8.92169 0.723948 8.93745 0.757446 8.95986 0.786446C9.59309 1.57635 9.95675 2.54824 9.99758 3.55984C10.0384 4.57134 9.75425 5.56945 9.18673 6.40775C9.15005 6.46255 9.1365 6.52955 9.14902 6.59435C9.16155 6.65905 9.19914 6.71625 9.25361 6.75335C9.99354 7.27005 10.627 7.92405 11.1192 8.68005C11.3177 8.98405 11.3988 9.35004 11.3473 9.71004C11.3415 9.74504 11.3436 9.78205 11.3533 9.81705C11.3631 9.85205 11.3803 9.88405 11.4038 9.91205C11.4272 9.93905 11.4564 9.96104 11.4893 9.97704C11.5222 9.99204 11.558 10 11.5942 10H15.363C15.4731 10 15.5801 9.96305 15.6674 9.89605C15.7548 9.82905 15.8176 9.73504 15.8461 9.62904C15.8635 9.55904 15.8659 9.48605 15.8533 9.41505C15.8407 9.34405 15.8134 9.27705 15.773 9.21705Z" fill="#92722A"/>
</svg>
