<svg width="13" height="14" viewBox="0 0 13 14" fill="none" xmlns="http://www.w3.org/2000/svg">
<path d="M12.2069 3.61505L9.4144 0.822052C9.3215 0.729052 9.2113 0.656072 9.0899 0.605072C8.9686 0.555072 8.8385 0.529053 8.7072 0.529053C8.5759 0.529053 8.4458 0.555072 8.3245 0.605072C8.2031 0.656072 8.0929 0.729052 8 0.822052L0.293125 8.53006C0.199865 8.62206 0.125925 8.73207 0.075595 8.85406C0.025275 8.97507 -0.000414932 9.10506 5.06781e-06 9.23706V12.0301C5.06781e-06 12.2951 0.105355 12.5491 0.292895 12.7371C0.480425 12.9241 0.734785 13.0301 1.00001 13.0301H3.79312C3.92449 13.0301 4.05464 13.0041 4.17599 12.9541C4.29735 12.9041 4.40748 12.8301 4.50001 12.7371L12.2069 5.03006C12.2998 4.93706 12.3734 4.82705 12.4237 4.70505C12.474 4.58405 12.4999 4.45406 12.4999 4.32306C12.4999 4.19106 12.474 4.06106 12.4237 3.94006C12.3734 3.81906 12.2998 3.70805 12.2069 3.61505ZM3.79312 12.0301H1.00001V9.23706L6.5 3.73706L9.2931 6.53006L3.79312 12.0301ZM10 5.82205L7.20687 3.03006L8.70689 1.53006L11.5 4.32205L10 5.82205Z" fill="#4B4F58"/>
</svg>
