<svg width="13" height="14" viewBox="0 0 13 14" fill="none" xmlns="http://www.w3.org/2000/svg">
<path d="M12.2069 3.79545L9.4144 1.04313C9.3215 0.951481 9.2113 0.879564 9.0899 0.829307C8.9686 0.780035 8.8385 0.754395 8.7072 0.754395C8.5759 0.754395 8.4458 0.780035 8.3245 0.829307C8.2031 0.879564 8.0929 0.951481 8 1.04313L0.293125 8.63888C0.199865 8.72954 0.125925 8.83795 0.075595 8.95817C0.025275 9.07741 -0.000414932 9.20551 5.06781e-06 9.33559V12.0879C5.06781e-06 12.3491 0.105355 12.5994 0.292895 12.7846C0.480425 12.9689 0.734785 13.0733 1.00001 13.0733H3.79312C3.92449 13.0733 4.05464 13.0477 4.17599 12.9985C4.29735 12.9492 4.40748 12.8763 4.50001 12.7846L12.2069 5.18985C12.2998 5.09821 12.3734 4.9898 12.4237 4.86957C12.474 4.75034 12.4999 4.62224 12.4999 4.49315C12.4999 4.36307 12.474 4.23497 12.4237 4.11573C12.3734 3.99649 12.2998 3.8871 12.2069 3.79545ZM10 5.97031L7.20687 3.21898L8.70689 1.74082L11.5 4.49216L10 5.97031Z" fill="#997722"/>
</svg>
