<svg width="12" height="14" viewBox="0 0 12 14" fill="none" xmlns="http://www.w3.org/2000/svg">
<path d="M12 13C12 13.1326 11.9473 13.2598 11.8536 13.3536C11.7598 13.4473 11.6326 13.5 11.5 13.5H0.5C0.36739 13.5 0.24021 13.4473 0.14645 13.3536C0.05268 13.2598 0 13.1326 0 13C0 12.8674 0.05268 12.7402 0.14645 12.6464C0.24021 12.5527 0.36739 12.5 0.5 12.5H11.5C11.6326 12.5 11.7598 12.5527 11.8536 12.6464C11.9473 12.7402 12 12.8674 12 13ZM11 7H7.47313L8.455 2.4194C8.5175 2.1278 8.5141 1.8259 8.4449 1.5359C8.3757 1.2458 8.2425 0.9749 8.0551 0.743C7.86765 0.511 7.63073 0.3239 7.36167 0.1954C7.0926 0.0668002 6.7982 0.0001 6.5 0H5.5C5.2018 0.0001 4.9074 0.0668002 4.63833 0.1954C4.36927 0.3239 4.13235 0.511 3.94493 0.743C3.75751 0.9749 3.62433 1.2458 3.55513 1.5359C3.48593 1.8259 3.48247 2.1278 3.545 2.4194L4.52688 7H1C0.73478 7 0.48043 7.1054 0.29289 7.2929C0.10536 7.4804 0 7.7348 0 8V10.5C0 10.7652 0.10536 11.0196 0.29289 11.2071C0.48043 11.3946 0.73478 11.5 1 11.5H11C11.2652 11.5 11.5196 11.3946 11.7071 11.2071C11.8946 11.0196 12 10.7652 12 10.5V8C12 7.7348 11.8946 7.4804 11.7071 7.2929C11.5196 7.1054 11.2652 7 11 7Z" fill="#92722A"/>
</svg>
