<svg width="12" height="14" viewBox="0 0 12 14" fill="none" xmlns="http://www.w3.org/2000/svg">
<path d="M12 13C12 13.1326 11.9473 13.2598 11.8536 13.3536C11.7598 13.4473 11.6326 13.5 11.5 13.5H0.5C0.36739 13.5 0.24021 13.4473 0.14645 13.3536C0.05268 13.2598 0 13.1326 0 13C0 12.8674 0.05268 12.7402 0.14645 12.6464C0.24021 12.5527 0.36739 12.5 0.5 12.5H11.5C11.6326 12.5 11.7598 12.5527 11.8536 12.6464C11.9473 12.7402 12 12.8674 12 13ZM12 8V10.5C12 10.7652 11.8946 11.0196 11.7071 11.2071C11.5196 11.3946 11.2652 11.5 11 11.5H1C0.73478 11.5 0.48043 11.3946 0.29289 11.2071C0.10536 11.0196 0 10.7652 0 10.5V8C0 7.7348 0.10536 7.4804 0.29289 7.2929C0.48043 7.1054 0.73478 7 1 7H4.52688L3.545 2.4194C3.48247 2.1278 3.48593 1.8259 3.55513 1.5359C3.62433 1.2458 3.75751 0.9749 3.94493 0.743C4.13235 0.511 4.36927 0.3239 4.63833 0.1954C4.9074 0.0668002 5.2018 0.0001 5.5 0H6.5C6.79825 0 7.09273 0.0667019 7.36187 0.195202C7.63101 0.323702 7.868 0.510799 8.0555 0.742699C8.243 0.974699 8.3762 1.2456 8.4455 1.5357C8.5147 1.8258 8.5182 2.1278 8.4556 2.4194L7.47313 7H11C11.2652 7 11.5196 7.1054 11.7071 7.2929C11.8946 7.4804 12 7.7348 12 8ZM5.54938 7H6.45063L7.4775 2.2094C7.50871 2.0636 7.50694 1.9127 7.47232 1.7677C7.43769 1.6227 7.37109 1.4873 7.27739 1.3714C7.18368 1.2555 7.06525 1.1619 6.93074 1.0977C6.79624 1.0334 6.64907 1 6.5 1H5.5C5.35088 1 5.20364 1.0333 5.06906 1.0975C4.93448 1.1617 4.81596 1.2552 4.72218 1.3711C4.62841 1.4871 4.56175 1.6225 4.5271 1.7676C4.49244 1.9126 4.49065 2.0636 4.52187 2.2094L5.54938 7ZM11 10.5V8H1V10.5H11Z" fill="#4B4F58"/>
</svg>
