<svg width="16" height="13" viewBox="0 0 16 13" fill="none" xmlns="http://www.w3.org/2000/svg">
<path d="M14.9842 12.0002H14.0011V5.00019C14.0011 4.73498 13.8958 4.48062 13.7082 4.29309C13.5207 4.10555 13.2663 4.00019 13.0011 4.00019H10.2511C10.1848 4.00019 10.1212 4.02653 10.0743 4.07342C10.0275 4.1203 10.0011 4.18389 10.0011 4.25019V12.0002H9.0011V1.02582C9.00276 0.870062 8.96895 0.715962 8.90225 0.575192C8.83555 0.434432 8.7377 0.310682 8.6161 0.213322C8.45035 0.0840916 8.2481 0.0103716 8.03807 0.0026316C7.82804 -0.0051074 7.62091 0.0535216 7.4461 0.170192L2.4461 3.50019C2.30894 3.59171 2.19653 3.71572 2.11889 3.86118C2.04125 4.00665 2.00079 4.16906 2.0011 4.33394V12.0002H1.01798C0.888765 11.9983 0.763627 12.0454 0.667732 12.132C0.571838 12.2186 0.512301 12.3383 0.501099 12.4671C0.496558 12.5355 0.506127 12.6041 0.529213 12.6686C0.552299 12.7331 0.588409 12.7922 0.635299 12.8422C0.682188 12.8922 0.738857 12.9321 0.801785 12.9592C0.864713 12.9864 0.932555 13.0003 1.0011 13.0002H15.0011C15.0697 13.0003 15.1375 12.9864 15.2004 12.9592C15.2634 12.9321 15.32 12.8922 15.3669 12.8422C15.4138 12.7922 15.4499 12.7331 15.473 12.6686C15.4961 12.6041 15.5057 12.5355 15.5011 12.4671C15.4899 12.3383 15.4304 12.2186 15.3345 12.132C15.2386 12.0454 15.1135 11.9983 14.9842 12.0002ZM4.7511 10.5002C4.75125 10.5687 4.73731 10.6366 4.71014 10.6995C4.68296 10.7624 4.64314 10.8191 4.59314 10.866C4.54315 10.9129 4.48405 10.949 4.41951 10.9721C4.35497 10.9952 4.28637 11.0047 4.21798 11.0002C4.08913 10.989 3.96932 10.9294 3.88269 10.8333C3.79605 10.7373 3.74903 10.612 3.7511 10.4827V9.5171C3.74934 9.3879 3.79648 9.2628 3.88307 9.167C3.96966 9.0711 4.0893 9.0115 4.21798 9.0002C4.28637 8.99565 4.35497 9.0052 4.41951 9.0283C4.48405 9.0514 4.54315 9.0875 4.59314 9.1344C4.64314 9.1813 4.68296 9.238 4.71014 9.3009C4.73731 9.3638 4.75125 9.4317 4.7511 9.5002V10.5002ZM4.7511 7.00019C4.75125 7.06874 4.73731 7.13658 4.71014 7.19951C4.68296 7.26244 4.64314 7.31911 4.59314 7.366C4.54315 7.41289 4.48405 7.44899 4.41951 7.47208C4.35497 7.49517 4.28637 7.50474 4.21798 7.50019C4.08919 7.48884 3.96946 7.42917 3.88286 7.33318C3.79625 7.23718 3.74918 7.11197 3.7511 6.98269V6.01707C3.74934 5.8879 3.79648 5.76284 3.88307 5.66698C3.96966 5.57112 4.0893 5.51154 4.21798 5.50019C4.28637 5.49565 4.35497 5.50522 4.41951 5.52831C4.48405 5.55139 4.54315 5.5875 4.59314 5.63439C4.64314 5.68128 4.68296 5.73795 4.71014 5.80088C4.73731 5.86381 4.75125 5.93165 4.7511 6.00019V7.00019ZM7.2511 10.5002C7.25125 10.5687 7.23731 10.6366 7.21014 10.6995C7.18296 10.7624 7.14314 10.8191 7.09314 10.866C7.04315 10.9129 6.98405 10.949 6.91951 10.9721C6.85497 10.9952 6.78637 11.0047 6.71798 11.0002C6.58935 10.989 6.46972 10.9296 6.38312 10.8338C6.29652 10.738 6.24935 10.613 6.2511 10.4839V9.5171C6.2495 9.388 6.29671 9.2631 6.38329 9.1674C6.46986 9.0716 6.58941 9.0122 6.71798 9.0008C6.78637 8.99628 6.85497 9.0058 6.91951 9.0289C6.98405 9.052 7.04315 9.0881 7.09314 9.135C7.14314 9.1819 7.18296 9.2386 7.21014 9.3015C7.23731 9.3644 7.25125 9.4323 7.2511 9.5008V10.5002ZM7.2511 7.00019C7.25125 7.06874 7.23731 7.13658 7.21014 7.19951C7.18296 7.26244 7.14314 7.31911 7.09314 7.366C7.04315 7.41289 6.98405 7.44899 6.91951 7.47208C6.85497 7.49517 6.78637 7.50474 6.71798 7.50019C6.58941 7.48886 6.46986 7.42937 6.38329 7.33364C6.29671 7.23791 6.2495 7.11301 6.2511 6.98394V6.01707C6.2495 5.88801 6.29671 5.76311 6.38329 5.66738C6.46986 5.57165 6.58941 5.51216 6.71798 5.50082C6.78637 5.49628 6.85497 5.50585 6.91951 5.52893C6.98405 5.55202 7.04315 5.58813 7.09314 5.63502C7.14314 5.68191 7.18296 5.73858 7.21014 5.80151C7.23731 5.86443 7.25125 5.93228 7.2511 6.00082V7.00019Z" fill="#92722A"/>
</svg>
