<svg width="16" height="13" viewBox="0 0 16 13" fill="none" xmlns="http://www.w3.org/2000/svg">
<path d="M15 11.9997H14V4.99967C14 4.73446 13.8946 4.4801 13.7071 4.29257C13.5196 4.10503 13.2652 3.99967 13 3.99967H9V0.999666C9.00012 0.818586 8.95106 0.640866 8.85807 0.485486C8.76507 0.330096 8.63163 0.202886 8.47199 0.117416C8.31234 0.0319463 8.13248 -0.00857162 7.95161 0.000196381C7.77073 0.00895638 7.59564 0.0666664 7.445 0.167166L2.445 3.49967C2.30784 3.59119 2.19543 3.7152 2.11779 3.86066C2.04015 4.00613 1.99969 4.16853 2 4.33342V11.9997H1C0.867392 11.9997 0.740215 12.0524 0.646447 12.1461C0.552678 12.2399 0.5 12.3671 0.5 12.4997C0.5 12.6323 0.552678 12.7595 0.646447 12.8532C0.740215 12.947 0.867392 12.9997 1 12.9997H15C15.1326 12.9997 15.2598 12.947 15.3536 12.8532C15.4473 12.7595 15.5 12.6323 15.5 12.4997C15.5 12.3671 15.4473 12.2399 15.3536 12.1461C15.2598 12.0524 15.1326 11.9997 15 11.9997ZM13 4.99967V11.9997H9V4.99967H13ZM3 4.33342L8 0.999666V11.9997H3V4.33342ZM7 5.99967V6.99967C7 7.13228 6.94732 7.25946 6.85355 7.35323C6.75979 7.447 6.63261 7.49967 6.5 7.49967C6.36739 7.49967 6.24021 7.447 6.14645 7.35323C6.05268 7.25946 6 7.13228 6 6.99967V5.99967C6 5.86706 6.05268 5.73989 6.14645 5.64612C6.24021 5.55235 6.36739 5.49967 6.5 5.49967C6.63261 5.49967 6.75979 5.55235 6.85355 5.64612C6.94732 5.73989 7 5.86706 7 5.99967ZM5 5.99967V6.99967C5 7.13228 4.94732 7.25946 4.85355 7.35323C4.75979 7.447 4.63261 7.49967 4.5 7.49967C4.36739 7.49967 4.24021 7.447 4.14645 7.35323C4.05268 7.25946 4 7.13228 4 6.99967V5.99967C4 5.86706 4.05268 5.73989 4.14645 5.64612C4.24021 5.55235 4.36739 5.49967 4.5 5.49967C4.63261 5.49967 4.75979 5.55235 4.85355 5.64612C4.94732 5.73989 5 5.86706 5 5.99967ZM5 9.4997V10.4997C5 10.6323 4.94732 10.7595 4.85355 10.8532C4.75979 10.947 4.63261 10.9997 4.5 10.9997C4.36739 10.9997 4.24021 10.947 4.14645 10.8532C4.05268 10.7595 4 10.6323 4 10.4997V9.4997C4 9.3671 4.05268 9.2399 4.14645 9.1461C4.24021 9.0524 4.36739 8.99967 4.5 8.99967C4.63261 8.99967 4.75979 9.0524 4.85355 9.1461C4.94732 9.2399 5 9.3671 5 9.4997ZM7 9.4997V10.4997C7 10.6323 6.94732 10.7595 6.85355 10.8532C6.75979 10.947 6.63261 10.9997 6.5 10.9997C6.36739 10.9997 6.24021 10.947 6.14645 10.8532C6.05268 10.7595 6 10.6323 6 10.4997V9.4997C6 9.3671 6.05268 9.2399 6.14645 9.1461C6.24021 9.0524 6.36739 8.99967 6.5 8.99967C6.63261 8.99967 6.75979 9.0524 6.85355 9.1461C6.94732 9.2399 7 9.3671 7 9.4997Z" fill="#4B4F58"/>
</svg>
