<svg width="10" height="15" viewBox="0 0 10 15" fill="none" xmlns="http://www.w3.org/2000/svg">
<path d="M6.5 7.13794H5.5V3.13794H6C6.53043 3.13794 7.0391 3.34795 7.4142 3.72295C7.7893 4.09895 8 4.60694 8 5.13794C8 5.26994 8.0527 5.39694 8.1464 5.49094C8.2402 5.58494 8.3674 5.63794 8.5 5.63794C8.6326 5.63794 8.7598 5.58494 8.8536 5.49094C8.9473 5.39694 9 5.26994 9 5.13794C8.9992 4.34194 8.6828 3.57994 8.1204 3.01694C7.558 2.45494 6.7954 2.13894 6 2.13794H5.5V1.13794C5.5 1.00494 5.44732 0.877936 5.35355 0.783936C5.25979 0.689936 5.13261 0.637939 5 0.637939C4.86739 0.637939 4.74021 0.689936 4.64645 0.783936C4.55268 0.877936 4.5 1.00494 4.5 1.13794V2.13794H4C3.20435 2.13794 2.44129 2.45395 1.87868 3.01595C1.31607 3.57895 1 4.34194 1 5.13794C1 5.93294 1.31607 6.69594 1.87868 7.25894C2.44129 7.82194 3.20435 8.13794 4 8.13794H4.5V12.1379H3.5C2.96957 12.1379 2.46086 11.9269 2.08579 11.5519C1.71071 11.1769 1.5 10.6679 1.5 10.1379C1.5 10.0049 1.44732 9.87794 1.35355 9.78394C1.25979 9.68994 1.13261 9.63794 1 9.63794C0.86739 9.63794 0.74021 9.68994 0.64645 9.78394C0.55268 9.87794 0.5 10.0049 0.5 10.1379C0.50083 10.9329 0.81716 11.6959 1.37959 12.2579C1.94202 12.8209 2.7046 13.1369 3.5 13.1379H4.5V14.1379C4.5 14.2699 4.55268 14.3969 4.64645 14.4909C4.74021 14.5849 4.86739 14.6379 5 14.6379C5.13261 14.6379 5.25979 14.5849 5.35355 14.4909C5.44732 14.3969 5.5 14.2699 5.5 14.1379V13.1379H6.5C7.2956 13.1379 8.0587 12.8219 8.6213 12.2589C9.1839 11.6959 9.5 10.9329 9.5 10.1379C9.5 9.34194 9.1839 8.57895 8.6213 8.01595C8.0587 7.45395 7.2956 7.13794 6.5 7.13794ZM4 7.13794C3.46957 7.13794 2.96086 6.92694 2.58579 6.55194C2.21071 6.17694 2 5.66794 2 5.13794C2 4.60694 2.21071 4.09895 2.58579 3.72295C2.96086 3.34795 3.46957 3.13794 4 3.13794H4.5V7.13794H4ZM6.5 12.1379H5.5V8.13794H6.5C7.0304 8.13794 7.5391 8.34795 7.9142 8.72295C8.2893 9.09895 8.5 9.60694 8.5 10.1379C8.5 10.6679 8.2893 11.1769 7.9142 11.5519C7.5391 11.9269 7.0304 12.1379 6.5 12.1379Z" fill="#4B4F58"/>
</svg>
