<svg width="14" height="11" viewBox="0 0 14 11" fill="none" xmlns="http://www.w3.org/2000/svg">
<path d="M13 0.877197H1C0.73478 0.877197 0.48043 0.980667 0.29289 1.16593C0.10536 1.35021 0 1.60149 0 1.86263V9.74613C0 10.0073 0.10536 10.2576 0.29289 10.4428C0.48043 10.6271 0.73478 10.7316 1 10.7316H13C13.2652 10.7316 13.5196 10.6271 13.7071 10.4428C13.8946 10.2576 14 10.0073 14 9.74613V1.86263C14 1.60149 13.8946 1.35021 13.7071 1.16593C13.5196 0.980667 13.2652 0.877197 13 0.877197ZM7.5 8.76069H6.5C6.36739 8.76069 6.24021 8.70846 6.14645 8.61583C6.05268 8.52418 6 8.39805 6 8.26797C6 8.13691 6.05268 8.01176 6.14645 7.91913C6.24021 7.82649 6.36739 7.77526 6.5 7.77526H7.5C7.63261 7.77526 7.75979 7.82649 7.85355 7.91913C7.94732 8.01176 8 8.13691 8 8.26797C8 8.39805 7.94732 8.52418 7.85355 8.61583C7.75979 8.70846 7.63261 8.76069 7.5 8.76069ZM11.5 8.76069H9.5C9.3674 8.76069 9.2402 8.70846 9.1464 8.61583C9.0527 8.52418 9 8.39805 9 8.26797C9 8.13691 9.0527 8.01176 9.1464 7.91913C9.2402 7.82649 9.3674 7.77526 9.5 7.77526H11.5C11.6326 7.77526 11.7598 7.82649 11.8536 7.91913C11.9473 8.01176 12 8.13691 12 8.26797C12 8.39805 11.9473 8.52418 11.8536 8.61583C11.7598 8.70846 11.6326 8.76069 11.5 8.76069ZM1 3.34079V1.86263H13V3.34079H1Z" fill="#997722"/>
</svg>
