<svg width="14" height="11" viewBox="0 0 14 11" fill="none" xmlns="http://www.w3.org/2000/svg">
<path d="M13 0.841064H1C0.73478 0.841064 0.48043 0.946064 0.29289 1.13406C0.10536 1.32106 0 1.57606 0 1.84106V9.84106C0 10.1061 0.10536 10.3601 0.29289 10.5481C0.48043 10.7351 0.73478 10.8411 1 10.8411H13C13.2652 10.8411 13.5196 10.7351 13.7071 10.5481C13.8946 10.3601 14 10.1061 14 9.84106V1.84106C14 1.57606 13.8946 1.32106 13.7071 1.13406C13.5196 0.946064 13.2652 0.841064 13 0.841064ZM13 1.84106V3.34106H1V1.84106H13ZM13 9.84106H1V4.34106H13V9.84106ZM12 8.34106C12 8.47306 11.9473 8.60106 11.8536 8.69406C11.7598 8.78806 11.6326 8.84106 11.5 8.84106H9.5C9.3674 8.84106 9.2402 8.78806 9.1464 8.69406C9.0527 8.60106 9 8.47306 9 8.34106C9 8.20806 9.0527 8.08106 9.1464 7.98706C9.2402 7.89306 9.3674 7.84106 9.5 7.84106H11.5C11.6326 7.84106 11.7598 7.89306 11.8536 7.98706C11.9473 8.08106 12 8.20806 12 8.34106ZM8 8.34106C8 8.47306 7.94732 8.60106 7.85355 8.69406C7.75979 8.78806 7.63261 8.84106 7.5 8.84106H6.5C6.36739 8.84106 6.24021 8.78806 6.14645 8.69406C6.05268 8.60106 6 8.47306 6 8.34106C6 8.20806 6.05268 8.08106 6.14645 7.98706C6.24021 7.89306 6.36739 7.84106 6.5 7.84106H7.5C7.63261 7.84106 7.75979 7.89306 7.85355 7.98706C7.94732 8.08106 8 8.20806 8 8.34106Z" fill="#4B4F58"/>
</svg>
