<svg width="12" height="14" viewBox="0 0 12 14" fill="none" xmlns="http://www.w3.org/2000/svg">
<path d="M11.5 1.14946V11.0038C11.5 11.1349 11.4473 11.26 11.3536 11.3527C11.2598 11.4443 11.1326 11.4965 11 11.4965H2.5C2.23478 11.4965 1.98043 11.6 1.79289 11.7853C1.60536 11.9705 1.5 12.2208 1.5 12.482H10C10.1326 12.482 10.2598 12.5342 10.3536 12.6268C10.4473 12.7185 10.5 12.8446 10.5 12.9747C10.5 13.1058 10.4473 13.2309 10.3536 13.3235C10.2598 13.4152 10.1326 13.4674 10 13.4674H1C0.86739 13.4674 0.74021 13.4152 0.64645 13.3235C0.55268 13.2309 0.5 13.1058 0.5 12.9747V2.62761C0.5 2.10533 0.71071 1.60374 1.08579 1.2342C1.46086 0.864664 1.96957 0.656738 2.5 0.656738H11C11.1326 0.656738 11.2598 0.70897 11.3536 0.801601C11.4473 0.893246 11.5 1.01938 11.5 1.14946Z" fill="#997722"/>
</svg>
