<svg width="14" height="12" viewBox="0 0 14 12" fill="none" xmlns="http://www.w3.org/2000/svg">
<path d="M13.5 11.1506C13.5 11.2817 13.4473 11.4068 13.3536 11.4994C13.2598 11.5921 13.1326 11.6433 13 11.6433H1C0.86739 11.6433 0.74021 11.5921 0.64645 11.4994C0.55268 11.4068 0.5 11.2817 0.5 11.1506C0.5 11.0205 0.55268 10.8944 0.64645 10.8027C0.74021 10.7101 0.86739 10.6579 1 10.6579H1.5V6.71613C1.5 6.58605 1.55268 6.45992 1.64645 6.36827C1.74021 6.27564 1.86739 6.22341 2 6.22341H3.5C3.63261 6.22341 3.75979 6.27564 3.85355 6.36827C3.94732 6.45992 4 6.58605 4 6.71613V10.6579H5V3.75982C5 3.62974 5.05268 3.50361 5.14645 3.41196C5.24021 3.31933 5.36739 3.2671 5.5 3.2671H7.5C7.63261 3.2671 7.75979 3.31933 7.85355 3.41196C7.94732 3.50361 8 3.62974 8 3.75982V10.6579H9V0.803509C9 0.673432 9.0527 0.547299 9.1464 0.455653C9.2402 0.363022 9.3674 0.310791 9.5 0.310791H12C12.1326 0.310791 12.2598 0.363022 12.3536 0.455653C12.4473 0.547299 12.5 0.673432 12.5 0.803509V10.6579H13C13.1326 10.6579 13.2598 10.7101 13.3536 10.8027C13.4473 10.8944 13.5 11.0205 13.5 11.1506Z" fill="#997722"/>
</svg>
