<svg width="14" height="13" viewBox="0 0 14 13" fill="none" xmlns="http://www.w3.org/2000/svg">
<path d="M13 11.239H12.5V1.23901C12.5 1.10701 12.4473 0.979017 12.3536 0.886017C12.2598 0.792017 12.1326 0.739014 12 0.739014H8.5C8.36739 0.739014 8.24021 0.792017 8.14645 0.886017C8.05268 0.979017 8 1.10701 8 1.23901V3.73901H5C4.86739 3.73901 4.74021 3.79202 4.64645 3.88602C4.55268 3.97902 4.5 4.10701 4.5 4.23901V6.73901H2C1.86739 6.73901 1.74021 6.79202 1.64645 6.88602C1.55268 6.97902 1.5 7.10701 1.5 7.23901V11.239H1C0.86739 11.239 0.74021 11.292 0.64645 11.386C0.55268 11.479 0.5 11.607 0.5 11.739C0.5 11.872 0.55268 11.999 0.64645 12.093C0.74021 12.187 0.86739 12.239 1 12.239H13C13.1326 12.239 13.2598 12.187 13.3536 12.093C13.4473 11.999 13.5 11.872 13.5 11.739C13.5 11.607 13.4473 11.479 13.3536 11.386C13.2598 11.292 13.1326 11.239 13 11.239ZM9 1.73901H11.5V11.239H9V1.73901ZM5.5 4.73901H8V11.239H5.5V4.73901ZM2.5 7.73901H4.5V11.239H2.5V7.73901Z" fill="#4B4F58"/>
</svg>
