<svg width="14" height="14" viewBox="0 0 14 14" fill="none" xmlns="http://www.w3.org/2000/svg">
<path d="M6.25 3.68707H6.5V6.15066H6.25C5.91848 6.15066 5.60054 6.02058 5.36612 5.78999C5.1317 5.55841 5 5.24504 5 4.91886C5 4.5917 5.1317 4.27833 5.36612 4.04773C5.60054 3.81616 5.91848 3.68707 6.25 3.68707ZM8.25 7.1361H7.5V9.59969H8.25C8.58152 9.59969 8.89947 9.46961 9.1339 9.23902C9.3683 9.00744 9.5 8.69407 9.5 8.36789C9.5 8.04073 9.3683 7.72736 9.1339 7.49676C8.89947 7.26519 8.58152 7.1361 8.25 7.1361ZM13.5 6.64338C13.5 7.90966 13.1188 9.14835 12.4046 10.2018C11.6903 11.2552 10.6752 12.0761 9.4874 12.5609C8.29973 13.0458 6.99279 13.1729 5.73192 12.9255C4.47104 12.6782 3.31285 12.0682 2.40381 11.1724C1.49477 10.2767 0.875701 9.13555 0.624901 7.89292C0.374091 6.65028 0.502821 5.3623 0.994791 4.1916C1.48676 3.02189 2.31988 2.02069 3.3888 1.31709C4.45772 0.61349 5.71442 0.238037 7 0.238037C8.72335 0.240008 10.3756 0.915038 11.5942 2.11629C12.8128 3.31655 13.4982 4.94448 13.5 6.64338ZM10.5 8.36789C10.5 7.77959 10.2629 7.21591 9.841 6.80006C9.419 6.3842 8.84674 6.15066 8.25 6.15066H7.5V3.68707H7.75C8.08152 3.68707 8.39947 3.81616 8.63389 4.04773C8.86831 4.27833 9 4.5917 9 4.91886C9 5.04894 9.0527 5.17409 9.1464 5.26672C9.2402 5.35935 9.3674 5.41158 9.5 5.41158C9.6326 5.41158 9.7598 5.35935 9.8536 5.26672C9.9473 5.17409 10 5.04894 10 4.91886C10 4.33056 9.7629 3.76688 9.341 3.35103C8.91904 2.93517 8.34674 2.70163 7.75 2.70163H7.5V2.20891C7.5 2.07785 7.44732 1.95269 7.35356 1.86006C7.25979 1.76743 7.13261 1.71619 7 1.71619C6.86739 1.71619 6.74022 1.76743 6.64645 1.86006C6.55268 1.95269 6.5 2.07785 6.5 2.20891V2.70163H6.25C5.65327 2.70163 5.08097 2.93517 4.65901 3.35103C4.23706 3.76688 4 4.33056 4 4.91886C4 5.50618 4.23706 6.07084 4.65901 6.4867C5.08097 6.90255 5.65327 7.1361 6.25 7.1361H6.5V9.59969H6C5.66848 9.59969 5.35054 9.46961 5.11612 9.23902C4.8817 9.00744 4.75 8.69407 4.75 8.36789C4.75 8.23683 4.69732 8.11167 4.60356 8.01904C4.50979 7.92641 4.38261 7.87517 4.25 7.87517C4.11739 7.87517 3.99022 7.92641 3.89645 8.01904C3.80268 8.11167 3.75 8.23683 3.75 8.36789C3.75 8.95521 3.98706 9.51987 4.40901 9.93573C4.83097 10.3516 5.40327 10.5851 6 10.5851H6.5V11.0778C6.5 11.2079 6.55268 11.3331 6.64645 11.4257C6.74022 11.5183 6.86739 11.5706 7 11.5706C7.13261 11.5706 7.25979 11.5183 7.35356 11.4257C7.44732 11.3331 7.5 11.2079 7.5 11.0778V10.5851H8.25C8.84674 10.5851 9.419 10.3516 9.841 9.93573C10.2629 9.51987 10.5 8.95521 10.5 8.36789Z" fill="#997722"/>
</svg>
