<svg width="12" height="14" viewBox="0 0 12 14" fill="none" xmlns="http://www.w3.org/2000/svg">
<path d="M11 0.0358887H2.5C1.96957 0.0358887 1.46086 0.246887 1.08579 0.621887C0.71071 0.996887 0.5 1.50589 0.5 2.03589V12.5359C0.5 12.6689 0.55268 12.7959 0.64645 12.8899C0.74021 12.9829 0.86739 13.0359 1 13.0359H10C10.1326 13.0359 10.2598 12.9829 10.3536 12.8899C10.4473 12.7959 10.5 12.6689 10.5 12.5359C10.5 12.4039 10.4473 12.2759 10.3536 12.1829C10.2598 12.0889 10.1326 12.0359 10 12.0359H1.5C1.5 11.7709 1.60536 11.5169 1.79289 11.3289C1.98043 11.1409 2.23478 11.0359 2.5 11.0359H11C11.1326 11.0359 11.2598 10.9829 11.3536 10.8899C11.4473 10.7959 11.5 10.6689 11.5 10.5359V0.535889C11.5 0.403889 11.4473 0.275892 11.3536 0.182892C11.2598 0.0888918 11.1326 0.0358887 11 0.0358887ZM10.5 10.0359H2.5C2.14884 10.0359 1.80382 10.1279 1.5 10.3039V2.03589C1.5 1.77089 1.60536 1.51689 1.79289 1.32889C1.98043 1.14089 2.23478 1.03589 2.5 1.03589H10.5V10.0359Z" fill="#4B4F58"/>
</svg>
