<svg width="15" height="13" viewBox="0 0 15 13" fill="none" xmlns="http://www.w3.org/2000/svg">
	<path d="M13.5 4.00298V1.94897C13.5 1.68397 13.3946 1.42997 13.2071 1.24197C13.0196 1.05497 12.7652 0.948975 12.5 0.948975H1.5C1.23478 0.948975 0.98043 1.05497 0.79289 1.24197C0.60536 1.42997 0.5 1.68397 0.5 1.94897V9.94897C0.5 10.214 0.60536 10.469 0.79289 10.656C0.98043 10.844 1.23478 10.949 1.5 10.949H8.5V12.449C8.49994 12.534 8.52169 12.618 8.56318 12.693C8.60467 12.767 8.66452 12.83 8.73705 12.875C8.80958 12.92 8.89237 12.945 8.97756 12.949C9.0627 12.953 9.1475 12.935 9.2238 12.897L11 12.008L12.7762 12.897C12.8525 12.935 12.9373 12.953 13.0224 12.949C13.1076 12.945 13.1904 12.92 13.2629 12.875C13.3355 12.83 13.3953 12.767 13.4368 12.693C13.4783 12.618 13.5001 12.534 13.5 12.449V8.89497C14.141 8.24297 14.5001 7.36397 14.5001 6.44897C14.5001 5.53397 14.141 4.65598 13.5 4.00298ZM7 7.44897H3.5C3.36739 7.44897 3.24021 7.39696 3.14645 7.30296C3.05268 7.20896 3 7.08197 3 6.94897C3 6.81697 3.05268 6.68896 3.14645 6.59596C3.24021 6.50196 3.36739 6.44897 3.5 6.44897H7C7.13261 6.44897 7.25979 6.50196 7.35355 6.59596C7.44732 6.68896 7.5 6.81697 7.5 6.94897C7.5 7.08197 7.44732 7.20896 7.35355 7.30296C7.25979 7.39696 7.13261 7.44897 7 7.44897ZM7 5.44897H3.5C3.36739 5.44897 3.24021 5.39696 3.14645 5.30296C3.05268 5.20896 3 5.08197 3 4.94897C3 4.81697 3.05268 4.68896 3.14645 4.59596C3.24021 4.50196 3.36739 4.44897 3.5 4.44897H7C7.13261 4.44897 7.25979 4.50196 7.35355 4.59596C7.44732 4.68896 7.5 4.81697 7.5 4.94897C7.5 5.08197 7.44732 5.20896 7.35355 5.30296C7.25979 5.39696 7.13261 5.44897 7 5.44897ZM12.5 11.64L11.2238 11.002C11.1543 10.967 11.0777 10.949 11 10.949C10.9223 10.949 10.8457 10.967 10.7762 11.002L9.5 11.64V9.61096C9.9687 9.83396 10.4811 9.94897 11 9.94897C11.5189 9.94897 12.0313 9.83396 12.5 9.61096V11.64ZM11 8.94897C10.5055 8.94897 10.0222 8.80297 9.6111 8.52797C9.2 8.25297 8.87952 7.86298 8.6903 7.40598C8.50108 6.94898 8.45157 6.44597 8.54804 5.96097C8.6445 5.47697 8.8826 5.03097 9.2322 4.68097C9.5819 4.33197 10.0273 4.09396 10.5123 3.99696C10.9972 3.90096 11.4999 3.94997 11.9567 4.13997C12.4135 4.32897 12.804 4.64897 13.0787 5.05997C13.3534 5.47097 13.5 5.95497 13.5 6.44897C13.5 7.11197 13.2366 7.74796 12.7678 8.21696C12.2989 8.68596 11.663 8.94897 11 8.94897Z" fill="#92722A"/>
</svg>