<svg width="15" height="13" viewBox="0 0 15 13" fill="none" xmlns="http://www.w3.org/2000/svg">
	<path d="M14.5 6.44897C14.5005 5.87497 14.3598 5.30896 14.0902 4.80296C13.8205 4.29596 13.4303 3.86298 12.9539 3.54198C12.4775 3.22198 11.9296 3.02297 11.3584 2.96397C10.7872 2.90597 10.2103 2.98797 9.6786 3.20497C9.1469 3.42197 8.67671 3.76597 8.30946 4.20697C7.94221 4.64897 7.6892 5.17396 7.57274 5.73596C7.45629 6.29796 7.47995 6.88098 7.64166 7.43198C7.80336 7.98298 8.09814 8.48497 8.5 8.89497V12.449C8.49994 12.534 8.52169 12.618 8.56318 12.693C8.60467 12.767 8.66452 12.83 8.73705 12.875C8.80958 12.92 8.89237 12.945 8.97756 12.949C9.0627 12.953 9.1475 12.935 9.2238 12.897L11 12.008L12.7762 12.897C12.8525 12.935 12.9373 12.953 13.0224 12.949C13.1076 12.945 13.1904 12.92 13.2629 12.875C13.3355 12.83 13.3953 12.767 13.4368 12.693C13.4783 12.618 13.5001 12.534 13.5 12.449V8.89497C14.1413 8.24297 14.5004 7.36397 14.5 6.44897ZM11 3.94897C11.4945 3.94897 11.9778 4.09597 12.3889 4.37097C12.8 4.64497 13.1205 5.03597 13.3097 5.49297C13.4989 5.94897 13.5484 6.45197 13.452 6.93697C13.3555 7.42197 13.1174 7.86696 12.7678 8.21696C12.4181 8.56696 11.9727 8.80497 11.4877 8.90097C11.0028 8.99797 10.5001 8.94797 10.0433 8.75897C9.5865 8.56997 9.196 8.24897 8.92133 7.83797C8.64662 7.42697 8.5 6.94397 8.5 6.44897C8.5 5.78597 8.76339 5.14997 9.2322 4.68097C9.7011 4.21297 10.337 3.94897 11 3.94897ZM11.2238 11.002C11.1543 10.967 11.0777 10.949 11 10.949C10.9223 10.949 10.8457 10.967 10.7762 11.002L9.5 11.64V9.61096C9.9687 9.83396 10.4811 9.94897 11 9.94897C11.5189 9.94897 12.0313 9.83396 12.5 9.61096V11.64L11.2238 11.002ZM7.5 10.449C7.5 10.582 7.44732 10.709 7.35355 10.803C7.25979 10.897 7.13261 10.949 7 10.949H1.5C1.23478 10.949 0.98043 10.844 0.79289 10.656C0.60536 10.469 0.5 10.214 0.5 9.94897V1.94897C0.5 1.68397 0.60536 1.42997 0.79289 1.24197C0.98043 1.05497 1.23478 0.948975 1.5 0.948975H12.5C12.7652 0.948975 13.0196 1.05497 13.2071 1.24197C13.3946 1.42997 13.5 1.68397 13.5 1.94897C13.5 2.08197 13.4473 2.20896 13.3536 2.30296C13.2598 2.39696 13.1326 2.44897 13 2.44897C12.8674 2.44897 12.7402 2.39696 12.6464 2.30296C12.5527 2.20896 12.5 2.08197 12.5 1.94897H1.5V9.94897H7C7.13261 9.94897 7.25979 10.002 7.35355 10.096C7.44732 10.189 7.5 10.317 7.5 10.449ZM6.5 6.94897C6.5 7.08197 6.44732 7.20896 6.35355 7.30296C6.25979 7.39696 6.13261 7.44897 6 7.44897H3.5C3.36739 7.44897 3.24021 7.39696 3.14645 7.30296C3.05268 7.20896 3 7.08197 3 6.94897C3 6.81697 3.05268 6.68896 3.14645 6.59596C3.24021 6.50196 3.36739 6.44897 3.5 6.44897H6C6.13261 6.44897 6.25979 6.50196 6.35355 6.59596C6.44732 6.68896 6.5 6.81697 6.5 6.94897ZM6.5 4.94897C6.5 5.08197 6.44732 5.20896 6.35355 5.30296C6.25979 5.39696 6.13261 5.44897 6 5.44897H3.5C3.36739 5.44897 3.24021 5.39696 3.14645 5.30296C3.05268 5.20896 3 5.08197 3 4.94897C3 4.81697 3.05268 4.68896 3.14645 4.59596C3.24021 4.50196 3.36739 4.44897 3.5 4.44897H6C6.13261 4.44897 6.25979 4.50196 6.35355 4.59596C6.44732 4.68896 6.5 4.81697 6.5 4.94897Z" fill="#4B4F58"/>
</svg>