<svg width="15" height="13" viewBox="0 0 15 13" fill="none" xmlns="http://www.w3.org/2000/svg">
<path d="M8.00562 2.93412C8.03364 2.54612 8.16179 2.17212 8.37756 1.84812C8.59332 1.52412 8.88934 1.26212 9.23671 1.08712C9.58408 0.91212 9.97094 0.829122 10.3595 0.848122C10.7481 0.867122 11.1251 0.987122 11.4537 1.19512C11.4913 1.22012 11.5216 1.25412 11.5414 1.29412C11.5611 1.33412 11.5697 1.37911 11.5661 1.42411C11.5625 1.46911 11.5469 1.51212 11.521 1.54812C11.4951 1.58512 11.4598 1.61412 11.4187 1.63212C10.8474 1.88912 10.3625 2.30612 10.0221 2.83212C9.68172 3.35812 9.50044 3.97111 9.5 4.59711C9.5 4.67111 9.5 4.74411 9.5075 4.81611C9.51095 4.86111 9.50191 4.90612 9.48137 4.94712C9.46084 4.98812 9.42957 5.02212 9.39097 5.04612C9.35236 5.07012 9.30788 5.08411 9.26233 5.08411C9.21677 5.08511 9.17188 5.07311 9.1325 5.05111C8.76417 4.84011 8.46292 4.52911 8.26353 4.15511C8.06414 3.78011 7.97473 3.35712 8.00562 2.93412ZM15 9.38612C15.0009 9.67112 14.9217 9.95212 14.7715 10.1951C14.6213 10.4381 14.406 10.6341 14.15 10.7611L14.1225 10.7731L11.6956 11.8071C11.6716 11.8171 11.6467 11.8261 11.6213 11.8321L7.62125 12.8321C7.58163 12.8421 7.54091 12.8471 7.5 12.8471H1C0.734784 12.8471 0.48043 12.7421 0.292893 12.5551C0.105357 12.3671 0 12.1131 0 11.8471V9.34711C0 9.08211 0.105357 8.82811 0.292893 8.64011C0.48043 8.45311 0.734784 8.34711 1 8.34711H2.79312L4.20687 6.93311C4.39225 6.74711 4.61269 6.59911 4.85546 6.49911C5.09822 6.39811 5.3585 6.34711 5.62125 6.34711H8.75C9.01411 6.34711 9.2748 6.40712 9.51253 6.52212C9.75026 6.63712 9.95887 6.80511 10.1227 7.01211C10.2866 7.21911 10.4014 7.46012 10.4586 7.71812C10.5158 7.97612 10.514 8.24412 10.4531 8.50112L13.0681 7.89912C13.2958 7.83912 13.5342 7.83212 13.7651 7.87812C13.996 7.92512 14.2131 8.02312 14.3998 8.16712C14.5864 8.31112 14.7376 8.49511 14.8417 8.70611C14.9457 8.91811 14.9999 9.15012 15 9.38612ZM14 9.38612C13.9999 9.30312 13.9808 9.22112 13.9441 9.14712C13.9074 9.07312 13.8542 9.00911 13.7885 8.95811C13.7227 8.90811 13.6464 8.87412 13.5652 8.85812C13.4841 8.84212 13.4004 8.84512 13.3206 8.86712L13.3013 8.87211L9.11375 9.83512C9.07702 9.84312 9.03951 9.84711 9.00187 9.84711H7C6.86739 9.84711 6.74021 9.79512 6.64645 9.70112C6.55268 9.60712 6.5 9.48011 6.5 9.34711C6.5 9.21511 6.55268 9.08812 6.64645 8.99412C6.74021 8.90012 6.86739 8.84711 7 8.84711H8.75C8.94891 8.84711 9.13968 8.76812 9.28033 8.62812C9.42098 8.48712 9.5 8.29611 9.5 8.09711C9.5 7.89911 9.42098 7.70812 9.28033 7.56712C9.13968 7.42612 8.94891 7.34711 8.75 7.34711H5.62125C5.48988 7.34711 5.35974 7.37312 5.23839 7.42312C5.11703 7.47312 5.0069 7.54712 4.91437 7.64112L3.5 9.05412V11.8471H7.4375L11.3394 10.8721L13.7144 9.86111C13.8008 9.81511 13.8731 9.74711 13.9235 9.66311C13.9738 9.57911 14.0003 9.48312 14 9.38612ZM10.5 4.59711C10.5 5.04211 10.632 5.47711 10.8792 5.84711C11.1264 6.21711 11.4778 6.50611 11.889 6.67611C12.3001 6.84611 12.7525 6.89112 13.189 6.80412C13.6254 6.71712 14.0263 6.50312 14.341 6.18812C14.6557 5.87412 14.87 5.47311 14.9568 5.03611C15.0436 4.60011 14.999 4.14811 14.8287 3.73611C14.6584 3.32511 14.37 2.97412 14 2.72712C13.63 2.47912 13.195 2.34711 12.75 2.34711C12.1533 2.34711 11.581 2.58411 11.159 3.00611C10.7371 3.42811 10.5 4.00111 10.5 4.59711Z" fill="#92722A"/>
</svg>
