<svg width="15" height="13" viewBox="0 0 15 13" fill="none" xmlns="http://www.w3.org/2000/svg">
<path d="M14.3956 8.16411C14.2096 8.02111 13.993 7.92211 13.7628 7.87711C13.5325 7.83111 13.2948 7.8391 13.0681 7.9001L10.4531 8.50112C10.514 8.24412 10.5158 7.9761 10.4586 7.7191C10.4014 7.4611 10.2866 7.2191 10.1227 7.0121C9.95887 6.8051 9.75026 6.63711 9.51253 6.52211C9.2748 6.40711 9.01411 6.34812 8.75 6.34812H5.62125C5.3585 6.34712 5.09822 6.3981 4.85546 6.4991C4.61269 6.5991 4.39225 6.74711 4.20687 6.93311L2.79312 8.34812H1C0.734784 8.34812 0.48043 8.45312 0.292893 8.64112C0.105357 8.82812 0 9.08212 0 9.34812V11.8481C0 12.1131 0.105357 12.3671 0.292893 12.5551C0.48043 12.7421 0.734784 12.8481 1 12.8481H7.5C7.54088 12.8481 7.58161 12.8431 7.62125 12.8331L11.6213 11.8331C11.6467 11.8271 11.6716 11.8181 11.6956 11.8081L14.125 10.7741L14.1525 10.7611C14.386 10.6451 14.5859 10.4711 14.7335 10.2551C14.881 10.0401 14.9713 9.79111 14.9959 9.53111C15.0205 9.27111 14.9785 9.00911 14.8739 8.77011C14.7693 8.53111 14.6056 8.32211 14.3981 8.16411H14.3956ZM1 9.34812H2.5V11.8481H1V9.34812ZM13.7144 9.8611L11.3394 10.8721L7.4375 11.8481H3.5V9.0551L4.91437 7.64112C5.0069 7.54812 5.11703 7.47411 5.23839 7.42311C5.35974 7.37311 5.48988 7.34712 5.62125 7.34812H8.75C8.94891 7.34812 9.13968 7.42711 9.28033 7.56711C9.42098 7.70811 9.5 7.89912 9.5 8.09812C9.5 8.29712 9.42098 8.48712 9.28033 8.62812C9.13968 8.76912 8.94891 8.84812 8.75 8.84812H7C6.86739 8.84812 6.74021 8.90011 6.64645 8.99411C6.55268 9.08811 6.5 9.21512 6.5 9.34812C6.5 9.48012 6.55268 9.60711 6.64645 9.70111C6.74021 9.79511 6.86739 9.84812 7 9.84812H9C9.03763 9.84812 9.07514 9.84312 9.11187 9.83512L13.2994 8.8721L13.3188 8.86711C13.4466 8.83211 13.583 8.84512 13.7018 8.90412C13.8206 8.96312 13.9134 9.06411 13.9622 9.18711C14.0111 9.31011 14.0126 9.44711 13.9665 9.57211C13.9204 9.69611 13.8299 9.7991 13.7125 9.8611H13.7144ZM10.25 5.34812C10.3735 5.34812 10.4969 5.3381 10.6187 5.3181C10.7558 5.7251 11.0067 6.08411 11.3416 6.35311C11.6765 6.62311 12.0815 6.79011 12.5086 6.83711C12.9358 6.88311 13.3673 6.80611 13.7521 6.61511C14.1369 6.42411 14.459 6.1261 14.6801 5.7581C14.9013 5.3901 15.0124 4.9661 15.0002 4.5361C14.9881 4.1071 14.8532 3.69011 14.6115 3.33411C14.3699 2.97911 14.0315 2.70011 13.6365 2.53111C13.2415 2.36211 12.8064 2.31011 12.3825 2.38011C12.2505 1.98811 12.0128 1.6391 11.6956 1.3741C11.3784 1.1081 10.994 0.93411 10.5846 0.87311C10.1752 0.81111 9.75684 0.864103 9.37543 1.0251C8.99402 1.1851 8.66439 1.44811 8.42282 1.78511C8.18125 2.12111 8.0371 2.5171 8.00623 2.9301C7.97537 3.3431 8.05898 3.7561 8.24788 4.1241C8.43677 4.4931 8.72362 4.80211 9.07686 5.01811C9.43011 5.23311 9.83604 5.34812 10.25 5.34812ZM14 4.59812C14 4.84512 13.9267 5.08712 13.7893 5.29212C13.652 5.49812 13.4568 5.65812 13.2284 5.75312C12.9999 5.84712 12.7486 5.87211 12.5061 5.82411C12.2637 5.77511 12.0409 5.6561 11.8661 5.4821C11.6913 5.3071 11.5722 5.0841 11.524 4.8421C11.4758 4.5991 11.5005 4.34811 11.5952 4.11911C11.6898 3.89111 11.85 3.69611 12.0555 3.55811C12.2611 3.42111 12.5028 3.34812 12.75 3.34812C13.0815 3.34812 13.3995 3.47911 13.6339 3.71411C13.8683 3.94811 14 4.26612 14 4.59812ZM10.25 1.84812C10.5227 1.84812 10.7879 1.93711 11.0051 2.10211C11.2223 2.26711 11.3796 2.49811 11.4531 2.76111C11.197 2.94111 10.9814 3.1731 10.82 3.4411C10.6585 3.7091 10.5549 4.00811 10.5156 4.31911C10.4283 4.33811 10.3393 4.34712 10.25 4.34812C9.91848 4.34812 9.60054 4.2161 9.36612 3.9821C9.1317 3.7471 9 3.42912 9 3.09812C9 2.76612 9.1317 2.44811 9.36612 2.21411C9.60054 1.97911 9.91848 1.84812 10.25 1.84812Z" fill="#4B4F58"/>
</svg>
