<svg width="15" height="12" viewBox="0 0 15 12" fill="none" xmlns="http://www.w3.org/2000/svg">
<path d="M14.9998 6.6441C14.9998 6.7767 14.9472 6.9039 14.8534 6.9977C14.7596 7.0914 14.6324 7.1441 14.4998 7.1441H11.4998C11.3672 7.1441 11.2401 7.0914 11.1463 6.9977C11.0525 6.9039 10.9998 6.7767 10.9998 6.6441C10.9998 6.5115 11.0525 6.3843 11.1463 6.2905C11.2401 6.1968 11.3672 6.1441 11.4998 6.1441H14.4998C14.6324 6.1441 14.7596 6.1968 14.8534 6.2905C14.9472 6.3843 14.9998 6.5115 14.9998 6.6441ZM11.383 10.3222C11.4683 10.4238 11.5098 10.5552 11.4983 10.6874C11.4869 10.8196 11.4233 10.9419 11.3217 11.0272C11.2201 11.1126 11.0887 11.1541 10.9565 11.1426C10.8243 11.1311 10.7021 11.0676 10.6167 10.966C9.3592 9.4685 7.63046 8.6441 5.74984 8.6441C3.86921 8.6441 2.14046 9.4685 0.882961 10.966C0.797601 11.0675 0.675391 11.131 0.543241 11.1424C0.411091 11.1538 0.279801 11.1123 0.178281 11.0269C0.0767506 10.9415 0.0132907 10.8193 0.00186066 10.6872C-0.00956634 10.555 0.0319706 10.4238 0.117341 10.3222C1.05109 9.211 2.21234 8.4216 3.50296 7.9991C2.71915 7.5109 2.11566 6.7807 1.7838 5.919C1.45193 5.0573 1.40974 4.111 1.66362 3.2231C1.91749 2.3353 2.45362 1.5543 3.19088 0.998299C3.92814 0.442299 4.82643 0.141602 5.74984 0.141602C6.67325 0.141602 7.57153 0.442299 8.30879 0.998299C9.0461 1.5543 9.5822 2.3353 9.8361 3.2231C10.0899 4.111 10.0477 5.0573 9.7159 5.919C9.384 6.7807 8.78052 7.5109 7.99671 7.9991C9.2873 8.4216 10.4486 9.211 11.383 10.3222ZM5.74984 7.6441C6.39263 7.6441 7.02098 7.4535 7.55544 7.0964C8.0899 6.7393 8.50646 6.2317 8.75245 5.6378C8.99843 5.044 9.0628 4.3905 8.93739 3.7601C8.81199 3.1296 8.50245 2.5505 8.04793 2.096C7.59341 1.6415 7.01432 1.332 6.38388 1.2065C5.75344 1.0811 5.09998 1.1455 4.50612 1.3915C3.91226 1.6375 3.40468 2.054 3.04756 2.5885C2.69045 3.123 2.49984 3.7513 2.49984 4.3941C2.50083 5.2558 2.84356 6.0818 3.45284 6.6911C4.06211 7.3004 4.88819 7.6431 5.74984 7.6441Z" fill="#4B4F58"/>
</svg>
