<svg width="15" height="12" viewBox="0 0 15 12" fill="none" xmlns="http://www.w3.org/2000/svg">
<path d="M11.383 10.6622C11.4443 10.7341 11.4836 10.8217 11.4961 10.9148C11.5086 11.0078 11.4938 11.1025 11.4536 11.1877C11.4133 11.2727 11.3492 11.3447 11.2689 11.3951C11.1885 11.4455 11.0952 11.4722 10.9999 11.4722H0.499882C0.404662 11.4722 0.311432 11.4453 0.231142 11.3949C0.150862 11.3444 0.0868717 11.2724 0.0466917 11.1874C0.00651169 11.1022 -0.00817824 11.0076 0.00434176 10.9146C0.0168718 10.8216 0.0560817 10.7341 0.117382 10.6622C1.05113 9.5672 2.21238 8.7893 3.50301 8.37295C2.7192 7.89186 2.11571 7.17229 1.78384 6.32314C1.45197 5.47399 1.40979 4.54147 1.66366 3.6665C1.91754 2.79163 2.45366 2.02201 3.19093 1.4741C3.92819 0.926201 4.82647 0.629883 5.74988 0.629883C6.67329 0.629883 7.57158 0.926201 8.30884 1.4741C9.0461 2.02201 9.5822 2.79163 9.8361 3.6665C10.09 4.54147 10.0478 5.47399 9.7159 6.32314C9.3841 7.17229 8.78057 7.89186 7.99676 8.37295C9.2874 8.7893 10.4486 9.5672 11.383 10.6622ZM14.4999 6.54497H11.4999C11.3673 6.54497 11.2401 6.5969 11.1463 6.68923C11.0526 6.78167 10.9999 6.90702 10.9999 7.03768C10.9999 7.16835 11.0526 7.2937 11.1463 7.38613C11.2401 7.47847 11.3673 7.5304 11.4999 7.5304H14.4999C14.6325 7.5304 14.7597 7.47847 14.8534 7.38613C14.9472 7.2937 14.9999 7.16835 14.9999 7.03768C14.9999 6.90702 14.9472 6.78167 14.8534 6.68923C14.7597 6.5969 14.6325 6.54497 14.4999 6.54497Z" fill="#997722"/>
</svg>
