<svg width="15" height="12" viewBox="0 0 15 12" fill="none" xmlns="http://www.w3.org/2000/svg">
<path d="M7.99908 8.08701C8.78289 7.59901 9.38642 6.86899 9.71822 6.00699C10.0501 5.14499 10.0923 4.199 9.83842 3.311C9.58452 2.423 9.04842 1.642 8.31116 1.086C7.5739 0.529999 6.67561 0.229004 5.75221 0.229004C4.8288 0.229004 3.93051 0.529999 3.19325 1.086C2.45599 1.642 1.91986 2.423 1.66599 3.311C1.41211 4.199 1.4543 5.14499 1.78617 6.00699C2.11803 6.86899 2.72152 7.59901 3.50533 8.08701C2.21471 8.50901 1.05346 9.299 0.119714 10.41C0.0759637 10.46 0.0426237 10.518 0.0216437 10.581C0.000673704 10.645 -0.00751927 10.711 -0.00244927 10.777C0.00262373 10.844 0.0208538 10.908 0.0511738 10.967C0.0815038 11.027 0.123314 11.079 0.174164 11.122C0.225014 11.165 0.283884 11.197 0.347334 11.217C0.410784 11.236 0.477544 11.243 0.543704 11.237C0.609864 11.231 0.674094 11.211 0.732644 11.18C0.791194 11.148 0.842894 11.106 0.884714 11.054C2.13971 9.55599 3.86846 8.73199 5.74908 8.73199C7.62971 8.73199 9.35842 9.55599 10.6159 11.054C10.7013 11.155 10.8235 11.219 10.9558 11.231C11.088 11.242 11.2193 11.2 11.3209 11.115C11.4225 11.03 11.4861 10.908 11.4976 10.775C11.5091 10.643 11.4676 10.512 11.3822 10.41C10.4478 9.299 9.28662 8.50901 7.99908 8.08701ZM2.49908 4.48199C2.49908 3.83899 2.68969 3.21099 3.04681 2.67599C3.40392 2.14199 3.9115 1.725 4.50536 1.479C5.09922 1.233 5.75269 1.16901 6.38313 1.29401C7.01356 1.42001 7.59266 1.72899 8.04718 2.18399C8.5017 2.63799 8.81123 3.21799 8.93663 3.84799C9.06202 4.47799 8.99768 5.13201 8.75169 5.72601C8.50571 6.32001 8.08914 6.82699 7.55468 7.18399C7.02022 7.54099 6.39187 7.73199 5.74908 7.73199C4.88743 7.73099 4.06136 7.38799 3.45208 6.77899C2.8428 6.16999 2.50007 5.34399 2.49908 4.48199ZM14.2647 7.17401L13.9734 7.00601C14.0076 6.82501 14.0076 6.63901 13.9734 6.45801L14.2647 6.29001C14.3796 6.22401 14.4634 6.11499 14.4977 5.98599C14.5321 5.85799 14.5141 5.72199 14.4478 5.60699C14.3815 5.49199 14.2723 5.40799 14.1442 5.37399C14.0161 5.33999 13.8796 5.35801 13.7647 5.42401L13.4728 5.59299C13.3331 5.47299 13.1725 5.37999 12.9991 5.31799V4.98199C12.9991 4.84899 12.9464 4.72199 12.8526 4.62799C12.7588 4.53499 12.6317 4.48199 12.4991 4.48199C12.3665 4.48199 12.2393 4.53499 12.1455 4.62799C12.0517 4.72199 11.9991 4.84899 11.9991 4.98199V5.31799C11.8256 5.37999 11.665 5.47299 11.5253 5.59299L11.2334 5.42401C11.1766 5.39101 11.1138 5.36999 11.0487 5.36099C10.9835 5.35299 10.9174 5.35699 10.8539 5.37399C10.7905 5.39099 10.7311 5.41999 10.679 5.45999C10.6269 5.49999 10.5831 5.54999 10.5503 5.60699C10.5175 5.66399 10.4962 5.72699 10.4876 5.79199C10.479 5.85699 10.4834 5.92299 10.5004 5.98599C10.5174 6.04999 10.5467 6.10901 10.5867 6.16101C10.6267 6.21401 10.6766 6.25701 10.7334 6.29001L11.0247 6.45801C10.9905 6.63901 10.9905 6.82501 11.0247 7.00601L10.7334 7.17401C10.6186 7.24001 10.5347 7.349 10.5004 7.478C10.4661 7.606 10.484 7.74199 10.5503 7.85699C10.6166 7.97199 10.7258 8.056 10.8539 8.09C10.9821 8.124 11.1186 8.10601 11.2334 8.04001L11.5253 7.871C11.665 7.991 11.8256 8.084 11.9991 8.146V8.48199C11.9991 8.615 12.0517 8.742 12.1455 8.836C12.2393 8.929 12.3665 8.98199 12.4991 8.98199C12.6317 8.98199 12.7588 8.929 12.8526 8.836C12.9464 8.742 12.9991 8.615 12.9991 8.48199V8.146C13.1725 8.084 13.3331 7.991 13.4728 7.871L13.7647 8.04001C13.8406 8.08401 13.9269 8.10699 14.0147 8.10699C14.1248 8.10699 14.2318 8.071 14.3192 8.004C14.4066 7.937 14.4694 7.84299 14.4978 7.73599C14.5263 7.62999 14.5189 7.51698 14.4768 7.41599C14.4346 7.31398 14.3601 7.22901 14.2647 7.17401ZM11.9991 6.73199C11.9991 6.63299 12.0284 6.53601 12.0833 6.45401C12.1383 6.37201 12.2164 6.30799 12.3077 6.26999C12.3991 6.23199 12.4996 6.222 12.5966 6.242C12.6936 6.261 12.7827 6.30899 12.8526 6.37799C12.9225 6.44799 12.9702 6.537 12.9895 6.634C13.0087 6.731 12.9988 6.832 12.961 6.923C12.9232 7.015 12.8591 7.09301 12.7768 7.14801C12.6946 7.20301 12.598 7.23199 12.4991 7.23199C12.3665 7.23199 12.2393 7.179 12.1455 7.086C12.0517 6.992 11.9991 6.86499 11.9991 6.73199Z" fill="#4B4F58"/>
</svg>
