<svg width="15" height="12" viewBox="0 0 15 12" fill="none" xmlns="http://www.w3.org/2000/svg">
<path d="M11.383 10.438C11.4443 10.5099 11.4836 10.5976 11.4961 10.6903C11.5086 10.7839 11.4938 10.8785 11.4536 10.9632C11.4133 11.049 11.3492 11.1209 11.2689 11.1712C11.1885 11.2214 11.0952 11.248 10.9999 11.248H0.499882C0.404662 11.248 0.311432 11.2214 0.231142 11.1712C0.150862 11.1199 0.0868717 11.048 0.0466917 10.9632C0.00651169 10.8785 -0.00817824 10.7839 0.00434176 10.6903C0.0168718 10.5976 0.0560817 10.5099 0.117382 10.438C1.05113 9.34319 2.21238 8.56469 3.50301 8.14884C2.7192 7.66795 2.11571 6.94856 1.78384 6.09911C1.45197 5.24967 1.40979 4.31746 1.66366 3.44239C1.91754 2.56732 2.45366 1.79769 3.19093 1.24979C3.92819 0.701885 4.82647 0.405273 5.74988 0.405273C6.67329 0.405273 7.57158 0.701885 8.30884 1.24979C9.0461 1.79769 9.5822 2.56732 9.8361 3.44239C10.09 4.31746 10.0478 5.24967 9.7159 6.09911C9.3841 6.94856 8.78057 7.66795 7.99676 8.14884C9.2874 8.56469 10.4486 9.34319 11.383 10.438ZM14.4486 7.92218C14.4047 7.99707 14.3415 8.05917 14.2653 8.10253C14.1892 8.14588 14.1028 8.16854 14.0149 8.16854C13.9271 8.16854 13.8408 8.14588 13.7649 8.10253L13.473 7.93598C13.3333 8.05423 13.1727 8.14587 12.9993 8.20697V8.53808C12.9993 8.66914 12.9466 8.79429 12.8528 8.88692C12.759 8.97857 12.6319 9.03079 12.4993 9.03079C12.3666 9.03079 12.2395 8.97857 12.1457 8.88692C12.0519 8.79429 11.9993 8.66914 11.9993 8.53808V8.20697C11.8258 8.14587 11.6652 8.05423 11.5255 7.93598L11.2336 8.10253C11.1577 8.14588 11.0714 8.16854 10.9836 8.16854C10.8735 8.16854 10.7665 8.13306 10.6791 8.06704C10.5918 8.00102 10.529 7.90838 10.5005 7.80294C10.472 7.69848 10.4794 7.58712 10.5215 7.48759C10.5637 7.38708 10.6383 7.30334 10.7336 7.24914L11.0249 7.08359C10.9907 6.90522 10.9907 6.72193 11.0249 6.54356L10.7336 6.37801C10.6768 6.34549 10.6269 6.30312 10.5869 6.25089C10.5469 6.19965 10.5176 6.14149 10.5006 6.07842C10.4836 6.01634 10.4792 5.9513 10.4878 5.88725C10.4964 5.82319 10.5177 5.76111 10.5505 5.70494C10.5833 5.64877 10.6271 5.5995 10.6791 5.56008C10.7312 5.52066 10.7907 5.49209 10.8541 5.47534C10.9176 5.45858 10.9837 5.45464 11.0489 5.46252C11.114 5.47139 11.1768 5.49211 11.2336 5.52463L11.5255 5.69114C11.6652 5.57289 11.8258 5.48125 11.9993 5.42015V5.08905C11.9993 4.95798 12.0519 4.83283 12.1457 4.7402C12.2395 4.64855 12.3666 4.59633 12.4993 4.59633C12.6319 4.59633 12.759 4.64855 12.8528 4.7402C12.9466 4.83283 12.9993 4.95798 12.9993 5.08905V5.42015C13.1727 5.48125 13.3333 5.57289 13.473 5.69114L13.7649 5.52463C13.8218 5.49211 13.8845 5.47139 13.9497 5.46252C14.0148 5.45464 14.0809 5.45858 14.1444 5.47534C14.2078 5.49209 14.2673 5.52066 14.3194 5.56008C14.3715 5.5995 14.4152 5.64877 14.448 5.70494C14.4808 5.76111 14.5021 5.82319 14.5107 5.88725C14.5193 5.9513 14.5149 6.01634 14.4979 6.07842C14.4809 6.14149 14.4516 6.19965 14.4116 6.25089C14.3716 6.30312 14.3218 6.34549 14.2649 6.37801L13.9736 6.54356C14.0078 6.72193 14.0078 6.90522 13.9736 7.08359L14.2649 7.24914C14.3218 7.28166 14.3717 7.32402 14.4118 7.37527C14.4519 7.42651 14.4813 7.48562 14.4983 7.54771C14.5154 7.61077 14.5198 7.67582 14.5113 7.73987C14.5027 7.80393 14.4815 7.86601 14.4486 7.92218ZM12.4999 7.30628C12.5988 7.30628 12.6954 7.27772 12.7777 7.22352C12.8599 7.16932 12.924 7.09245 12.9618 7.00179C12.9997 6.91211 13.0096 6.81258 12.9903 6.717C12.971 6.62141 12.9234 6.53369 12.8534 6.46471C12.7835 6.39672 12.6944 6.34943 12.5974 6.33071C12.5004 6.311 12.3999 6.32084 12.3085 6.35828C12.2172 6.39573 12.1391 6.45882 12.0841 6.53962C12.0292 6.62043 11.9999 6.716 11.9999 6.81356C11.9999 6.94462 12.0526 7.06978 12.1463 7.16241C12.2401 7.25405 12.3673 7.30628 12.4999 7.30628Z" fill="#997722"/>
</svg>
