<svg width="15" height="15" viewBox="0 0 15 15" fill="none" xmlns="http://www.w3.org/2000/svg">
<path d="M14.208 0.792701C14.0823 0.667001 13.9253 0.577102 13.7532 0.532302C13.5812 0.487502 13.4003 0.489302 13.2293 0.537702H13.2199L1.22362 4.1777C1.02834 4.2338 0.854803 4.3481 0.726116 4.5054C0.597429 4.6626 0.519698 4.8554 0.503273 5.0579C0.486848 5.2604 0.532509 5.4631 0.634176 5.6391C0.735843 5.815 0.888691 5.9558 1.07237 6.0427L6.42362 8.577L8.958 13.9283C9.03801 14.0997 9.16538 14.2446 9.32507 14.3459C9.48477 14.4472 9.67012 14.5008 9.85925 14.5002C9.888 14.5002 9.91674 14.4989 9.94549 14.4964C10.1473 14.4801 10.3393 14.4024 10.4957 14.2738C10.6521 14.1452 10.7654 13.9719 10.8205 13.777L14.458 1.7808C14.458 1.7777 14.458 1.7745 14.458 1.7714C14.507 1.6008 14.5096 1.4202 14.4657 1.2482C14.4217 1.0761 14.3328 0.918901 14.208 0.792701ZM9.86487 13.4908L9.86174 13.4995L7.40174 8.3064L10.3543 5.3533C10.4441 5.2588 10.4934 5.1329 10.4917 5.0025C10.4901 4.8721 10.4375 4.7476 10.3453 4.6554C10.2531 4.5632 10.1285 4.5106 9.99816 4.5089C9.86778 4.5073 9.7419 4.5566 9.64737 4.6464L6.69424 7.5989L1.50049 5.1389H1.50924L13.5005 1.5002L9.86487 13.4908Z" fill="#4B4F58"/>
</svg>
