<svg width="15" height="15" viewBox="0 0 15 15" fill="none" xmlns="http://www.w3.org/2000/svg">
<path d="M14.4632 1.77152C14.4632 1.77152 14.4632 1.77772 14.4632 1.78082L10.8257 13.7771C10.7707 13.9719 10.6573 14.1453 10.5009 14.2739C10.3445 14.4024 10.1526 14.4801 9.95073 14.4965C9.92198 14.499 9.89323 14.5002 9.86448 14.5002C9.67535 14.5008 9.49 14.4473 9.33031 14.3459C9.17062 14.2446 9.04325 14.0997 8.96323 13.9283L6.73136 9.21652C6.70932 9.16982 6.70224 9.11762 6.71108 9.06682C6.71992 9.01602 6.74424 8.96912 6.78073 8.93272L10.3595 5.35332C10.4493 5.25882 10.4986 5.13292 10.497 5.00252C10.4953 4.87222 10.4428 4.74762 10.3506 4.65542C10.2584 4.56322 10.1338 4.51073 10.0034 4.50903C9.87301 4.50733 9.74714 4.55662 9.6526 4.64652L6.06823 8.22522C6.0318 8.26172 5.98498 8.28603 5.93418 8.29493C5.88338 8.30373 5.8311 8.29662 5.78448 8.27462L1.09698 6.05403C0.912881 5.96963 0.757952 5.83253 0.651811 5.66013C0.545669 5.48763 0.493089 5.28762 0.500728 5.08522C0.510908 4.87722 0.586203 4.67772 0.715967 4.51492C0.84573 4.35202 1.0234 4.23412 1.22386 4.17772L13.2201 0.540224H13.2295C13.4003 0.492224 13.5808 0.490524 13.7525 0.535324C13.9241 0.580124 14.0808 0.669824 14.2064 0.795124C14.3319 0.920424 14.4219 1.07693 14.4671 1.24853C14.5122 1.42013 14.5109 1.60062 14.4632 1.77152Z" fill="#92722A"/>
</svg>
