<svg width="14" height="14" viewBox="0 0 14 14" fill="none" xmlns="http://www.w3.org/2000/svg">
<path d="M13.4998 9.5H2.99106C3.15731 9.1725 3.32419 8.8356 3.49106 8.4931C4.42481 8.5962 5.52981 7.9431 6.78731 6.5419C6.82481 6.6456 6.86669 6.7525 6.91231 6.8606C7.31919 7.8137 7.84419 8.3569 8.47482 8.4762C9.1211 8.6012 9.7611 8.2744 10.4173 7.4875C10.8436 7.9919 11.7186 8.5 13.4998 8.5C13.6324 8.5 13.7596 8.4473 13.8534 8.3536C13.9471 8.2598 13.9998 8.1326 13.9998 8C13.9998 7.8674 13.9471 7.7402 13.8534 7.6464C13.7596 7.5527 13.6324 7.5 13.4998 7.5C11.5854 7.5 11.0279 6.8381 10.9998 6.4862C10.9968 6.3699 10.9533 6.2583 10.8768 6.1706C10.8003 6.083 10.6956 6.0247 10.5808 6.0059C10.466 5.9871 10.3482 6.0089 10.2477 6.0676C10.1473 6.1263 10.0704 6.2182 10.0304 6.3275C9.2698 7.4681 8.81919 7.5237 8.65544 7.4937C8.13482 7.3956 7.65044 6.1856 7.48732 5.3994C7.46597 5.3001 7.41489 5.2096 7.34087 5.1401C7.26685 5.0705 7.17341 5.0252 7.07298 5.01C6.97255 4.9949 6.86988 5.0107 6.77866 5.0554C6.68744 5.1 6.61197 5.1714 6.56231 5.26C5.32481 6.7988 4.49481 7.3225 3.97419 7.4563C4.50481 6.2763 4.90107 5.2406 5.15482 4.3688C5.58107 2.9037 5.61231 1.8794 5.24919 1.2375C5.06169 0.902499 4.66856 0.5031 3.87981 0.5H3.86419C2.86419 0.5069 2.07669 1.4562 1.70044 3.1062C1.47606 4.0881 1.43919 5.1806 1.59856 6.1062C1.75794 7.0319 2.08981 7.7006 2.57044 8.0994C2.33794 8.5825 2.09981 9.0544 1.86856 9.5013H0.499809C0.367209 9.5013 0.240029 9.5539 0.146259 9.6477C0.0524889 9.7415 -0.000186134 9.8686 -0.000186134 10.0013C-0.000186134 10.1339 0.0524889 10.261 0.146259 10.3548C0.240029 10.4486 0.367209 10.5013 0.499809 10.5013H1.33794C0.630439 11.8138 0.0804388 12.7287 0.0716888 12.7437C0.0360388 12.8001 0.0120088 12.8629 0.00100882 12.9286C-0.0100002 12.9944 -0.00775616 13.0616 0.00760884 13.1265C0.0229688 13.1913 0.0511388 13.2524 0.0904588 13.3062C0.129779 13.36 0.179449 13.4054 0.236569 13.4398C0.293689 13.4741 0.357089 13.4967 0.423049 13.5061C0.489009 13.5156 0.556209 13.5118 0.620669 13.4949C0.685139 13.4781 0.745589 13.4485 0.798469 13.4079C0.851339 13.3674 0.895569 13.3166 0.928559 13.2587C0.937939 13.2425 1.63294 12.0844 2.47231 10.5013H13.4998C13.6324 10.5013 13.7596 10.4486 13.8534 10.3548C13.9471 10.261 13.9998 10.1339 13.9998 10.0013C13.9998 9.8686 13.9471 9.7415 13.8534 9.6477C13.7596 9.5539 13.6324 9.5013 13.4998 9.5013V9.5ZM10.9998 6.5V6.4862C11.0002 6.4905 11.0002 6.4956 10.9998 6.5Z" fill="#92722A"/>
</svg>
