<svg width="12" height="14" viewBox="0 0 12 14" fill="none" xmlns="http://www.w3.org/2000/svg">
<path d="M11 0.9646H1C0.73478 0.9646 0.48043 1.06906 0.29289 1.25333C0.10536 1.43859 0 1.6889 0 1.95004V5.57053C0 11.089 4.73875 12.9199 5.6875 13.2313C5.89014 13.2993 6.10986 13.2993 6.3125 13.2313C7.2625 12.9199 12 11.089 12 5.57053V1.95004C12 1.6889 11.8946 1.43859 11.7071 1.25333C11.5196 1.06906 11.2652 0.9646 11 0.9646ZM8.8538 5.25519L5.35375 8.70422C5.30731 8.75053 5.25217 8.78699 5.19147 8.81163C5.13077 8.83627 5.06571 8.84908 5 8.84908C4.93429 8.84908 4.86923 8.83627 4.80853 8.81163C4.74783 8.78699 4.69269 8.75053 4.64625 8.70422L3.14625 7.22606C3.05243 7.13343 2.99972 7.00828 2.99972 6.87722C2.99972 6.74714 3.05243 6.621 3.14625 6.52936C3.24007 6.43673 3.36732 6.3845 3.5 6.3845C3.63268 6.3845 3.75993 6.43673 3.85375 6.52936L5 7.65867L8.1462 4.55848C8.1927 4.51217 8.2479 4.47571 8.3086 4.45108C8.3692 4.42644 8.4343 4.41363 8.5 4.41363C8.5657 4.41363 8.6308 4.42644 8.6914 4.45108C8.7521 4.47571 8.8073 4.51217 8.8538 4.55848C8.9002 4.60381 8.9371 4.65802 8.9622 4.71813C8.9873 4.77824 9.0003 4.84229 9.0003 4.90635C9.0003 4.97139 8.9873 5.03544 8.9622 5.09555C8.9371 5.15566 8.9002 5.20986 8.8538 5.25519Z" fill="#997722"/>
</svg>
