<svg width="12" height="13" viewBox="0 0 12 13" fill="none" xmlns="http://www.w3.org/2000/svg">
<path d="M11 0.441895H1C0.73478 0.441895 0.48043 0.547894 0.29289 0.734894C0.10536 0.922894 0 1.17689 0 1.44189V5.11589C0 10.7169 4.73875 12.5749 5.6875 12.8909C5.89014 12.9589 6.10986 12.9589 6.3125 12.8909C7.2625 12.5749 12 10.7169 12 5.11589V1.44189C12 1.17689 11.8946 0.922894 11.7071 0.734894C11.5196 0.547894 11.2652 0.441895 11 0.441895ZM11 5.11689C11 10.0179 6.85313 11.6559 6 11.9409C5.15438 11.6589 1 10.0219 1 5.11689V1.44189H11V5.11689ZM3.14625 6.79589C3.05243 6.70189 2.99972 6.57489 2.99972 6.44189C2.99972 6.30989 3.05243 6.18189 3.14625 6.08889C3.24007 5.99489 3.36732 5.94189 3.5 5.94189C3.63268 5.94189 3.75993 5.99489 3.85375 6.08889L5 7.23489L8.1462 4.08889C8.1927 4.04189 8.2479 4.0049 8.3086 3.9799C8.3692 3.9549 8.4343 3.94189 8.5 3.94189C8.5657 3.94189 8.6308 3.9549 8.6914 3.9799C8.7521 4.0049 8.8073 4.04189 8.8538 4.08889C8.9002 4.13489 8.9371 4.18989 8.9622 4.25089C8.9873 4.31189 9.0003 4.37689 9.0003 4.44189C9.0003 4.50789 8.9873 4.5729 8.9622 4.6339C8.9371 4.6949 8.9002 4.74989 8.8538 4.79589L5.35375 8.29589C5.30731 8.34289 5.25217 8.37989 5.19147 8.40489C5.13077 8.42989 5.06571 8.44289 5 8.44289C4.93429 8.44289 4.86923 8.42989 4.80853 8.40489C4.74783 8.37989 4.69269 8.34289 4.64625 8.29589L3.14625 6.79589Z" fill="#4B4F58"/>
</svg>
