<svg width="14" height="11" viewBox="0 0 14 11" fill="none" xmlns="http://www.w3.org/2000/svg">
<path d="M13 0.0429688H1C0.86739 0.0429688 0.74021 0.0955692 0.64645 0.189369C0.55268 0.283169 0.5 0.410369 0.5 0.542969V9.04297C0.5 9.30817 0.60536 9.56247 0.79289 9.75007C0.98043 9.93757 1.23478 10.043 1.5 10.043H12.5C12.7652 10.043 13.0196 9.93757 13.2071 9.75007C13.3946 9.56247 13.5 9.30817 13.5 9.04297V0.542969C13.5 0.410369 13.4473 0.283169 13.3536 0.189369C13.2598 0.0955692 13.1326 0.0429688 13 0.0429688ZM7 5.36477L2.28562 1.04297H11.7144L7 5.36477ZM5.16937 5.04297L1.5 8.40607V1.67977L5.16937 5.04297ZM5.90938 5.72107L6.65938 6.41167C6.75162 6.49637 6.87228 6.54337 6.9975 6.54337C7.12272 6.54337 7.24338 6.49637 7.33562 6.41167L8.08562 5.72107L11.7106 9.04297H2.28562L5.90938 5.72107ZM8.83062 5.04297L12.5 1.67917V8.40667L8.83062 5.04297Z" fill="#4B4F58"/>
</svg>
