<svg width="14" height="10" viewBox="0 0 14 10" fill="none" xmlns="http://www.w3.org/2000/svg">
<path d="M13 0.0375977H1C0.86739 0.0375977 0.74021 0.0894321 0.64645 0.181866C0.55268 0.2743 0.5 0.399647 0.5 0.530316V8.90653C0.5 9.16787 0.60536 9.41846 0.79289 9.60333C0.98043 9.7881 1.23478 9.89197 1.5 9.89197H12.5C12.7652 9.89197 13.0196 9.7881 13.2071 9.60333C13.3946 9.41846 13.5 9.16787 13.5 8.90653V0.530316C13.5 0.399647 13.4473 0.2743 13.3536 0.181866C13.2598 0.0894321 13.1326 0.0375977 13 0.0375977ZM5.16937 4.96478L1.5 8.2789V1.65056L5.16937 4.96478ZM5.90938 5.63301L6.65938 6.31355C6.75162 6.39701 6.87228 6.44334 6.9975 6.44334C7.12272 6.44334 7.24338 6.39701 7.33562 6.31355L8.08562 5.63301L11.7106 8.90653H2.28562L5.90938 5.63301ZM8.83062 4.96478L12.5 1.64997V8.2795L8.83062 4.96478Z" fill="#997722"/>
</svg>
