<svg width="14" height="13" viewBox="0 0 14 13" fill="none" xmlns="http://www.w3.org/2000/svg">
<path d="M7 0.0766602C5.71442 0.0766602 4.45772 0.452113 3.3888 1.15571C2.31988 1.85932 1.48676 2.85953 0.994791 4.03023C0.502821 5.20093 0.374091 6.4889 0.624901 7.73154C0.875701 8.97418 1.49477 10.1153 2.40381 11.0111C3.31285 11.9068 4.47104 12.5168 5.73192 12.7642C6.99279 13.0105 8.29973 12.8844 9.4874 12.3996C10.6752 11.9147 11.6903 11.0938 12.4046 10.0404C13.1188 8.98697 13.5 7.74829 13.5 6.482C13.4982 4.78311 12.8128 3.15516 11.5942 1.95392C10.3756 0.753654 8.72335 0.0776456 7 0.0766602ZM7 1.0621C7.88051 1.0621 8.74806 1.27101 9.5297 1.67012C10.3114 2.06922 10.9843 2.64767 11.4919 3.35719L7 5.91241V1.0621ZM7 11.9019C6.1195 11.9009 5.25194 11.692 4.47029 11.2929C3.68863 10.8938 3.01572 10.3154 2.50813 9.60585L11.9931 4.21058C12.3799 5.03637 12.5496 5.94395 12.4866 6.85154C12.4236 7.75913 12.1298 8.63618 11.6325 9.40186C11.1351 10.1685 10.4501 10.7992 9.6406 11.2358C8.831 11.6723 7.92293 11.9009 7 11.9019Z" fill="#997722"/>
</svg>
