<svg width="14" height="14" viewBox="0 0 14 14" fill="none" xmlns="http://www.w3.org/2000/svg">
<path d="M7 0.935059C5.71442 0.935059 4.45772 1.31606 3.3888 2.03006C2.31988 2.74406 1.48676 3.75905 0.994791 4.94705C0.502821 6.13505 0.374091 7.44206 0.624901 8.70306C0.875701 9.96406 1.49477 11.1221 2.40381 12.0311C3.31285 12.9401 4.47104 13.5591 5.73192 13.8101C6.99279 14.0601 8.29973 13.9321 9.4874 13.4401C10.6752 12.9481 11.6903 12.1151 12.4046 11.0461C13.1188 9.97705 13.5 8.72006 13.5 7.43506C13.4982 5.71106 12.8128 4.05906 11.5942 2.84006C10.3756 1.62206 8.72335 0.936059 7 0.935059ZM11.4919 4.26407L7.5 6.56805V1.95807C8.29263 2.03007 9.06 2.27406 9.7492 2.67206C10.4384 3.07106 11.033 3.61407 11.4919 4.26407ZM6.5 1.95807V7.14505L2.00688 9.73907C1.63803 8.93907 1.4665 8.06305 1.50672 7.18405C1.54694 6.30405 1.79773 5.44706 2.238 4.68506C2.67828 3.92206 3.29517 3.27606 4.03682 2.80206C4.77847 2.32706 5.6232 2.03807 6.5 1.95807ZM7 12.9351C6.1195 12.9341 5.25194 12.722 4.47029 12.317C3.68863 11.912 3.01572 11.3251 2.50813 10.6051L11.9931 5.13007C12.3799 5.96807 12.5496 6.88906 12.4866 7.81006C12.4236 8.73106 12.1298 9.62107 11.6325 10.3981C11.1351 11.1761 10.4501 11.8161 9.6406 12.2591C8.831 12.7021 7.92293 12.9341 7 12.9351Z" fill="#4B4F58"/>
</svg>
