<svg width="16" height="10" viewBox="0 0 16 10" fill="none" xmlns="http://www.w3.org/2000/svg">
<path d="M15.4569 4.7975C15.435 4.7481 14.9056 3.5738 13.7287 2.3969C12.1606 0.8287 10.18 0 7.99999 0C5.81999 0 3.83937 0.8287 2.27124 2.3969C1.09437 3.5738 0.562494 4.75 0.543119 4.7975C0.51469 4.8614 0.5 4.9306 0.5 5.0006C0.5 5.0706 0.51469 5.1398 0.543119 5.2037C0.564994 5.2531 1.09437 6.4269 2.27124 7.6038C3.83937 9.1713 5.81999 10 7.99999 10C10.18 10 12.1606 9.1713 13.7287 7.6038C14.9056 6.4269 15.435 5.2531 15.4569 5.2037C15.4853 5.1398 15.5 5.0706 15.5 5.0006C15.5 4.9306 15.4853 4.8614 15.4569 4.7975ZM7.99999 9C6.07624 9 4.39562 8.3006 3.00437 6.9219C2.43352 6.3542 1.94786 5.7068 1.56249 5C1.94776 4.2931 2.43343 3.6457 3.00437 3.0781C4.39562 1.6994 6.07624 1 7.99999 1C9.92374 1 11.6044 1.6994 12.9956 3.0781C13.5676 3.6456 14.0543 4.2929 14.4406 5C13.99 5.8412 12.0269 9 7.99999 9ZM7.99999 2C7.40665 2 6.82663 2.1759 6.33328 2.5056C5.83994 2.8352 5.45542 3.3038 5.22836 3.8519C5.00129 4.4001 4.94188 5.0033 5.05764 5.5853C5.17339 6.1672 5.45912 6.7018 5.87867 7.1213C6.29823 7.5409 6.83278 7.8266 7.41472 7.9424C7.99667 8.0581 8.59987 7.9987 9.14804 7.7716C9.69622 7.5446 10.1648 7.1601 10.4944 6.6667C10.824 6.1734 11 5.5933 11 5C10.9992 4.2046 10.6828 3.442 10.1204 2.8796C9.55797 2.3172 8.79539 2.0008 7.99999 2ZM7.99999 7C7.60443 7 7.21775 6.8827 6.88885 6.6629C6.55996 6.4432 6.30361 6.1308 6.15224 5.7654C6.00086 5.3999 5.96125 4.9978 6.03842 4.6098C6.11559 4.2219 6.30608 3.8655 6.58578 3.5858C6.86549 3.3061 7.22185 3.1156 7.60981 3.0384C7.99778 2.9613 8.39991 3.0009 8.76536 3.1522C9.13081 3.3036 9.44317 3.56 9.66293 3.8889C9.8827 4.2178 9.99999 4.6044 9.99999 5C9.99999 5.5304 9.78928 6.0391 9.41421 6.4142C9.03913 6.7893 8.53043 7 7.99999 7Z" fill="#4B4F58"/>
</svg>
