<svg width="16" height="10" viewBox="0 0 16 10" fill="none" xmlns="http://www.w3.org/2000/svg">
<path d="M15.4569 4.7975C15.435 4.7481 14.9056 3.5738 13.7287 2.3969C12.1606 0.8287 10.18 0 7.99999 0C5.81999 0 3.83937 0.8287 2.27124 2.3969C1.09437 3.5738 0.562494 4.75 0.543119 4.7975C0.51469 4.8614 0.5 4.9306 0.5 5.0006C0.5 5.0706 0.51469 5.1398 0.543119 5.2037C0.564994 5.2531 1.09437 6.4269 2.27124 7.6038C3.83937 9.1713 5.81999 10 7.99999 10C10.18 10 12.1606 9.1713 13.7287 7.6038C14.9056 6.4269 15.435 5.2531 15.4569 5.2037C15.4853 5.1398 15.5 5.0706 15.5 5.0006C15.5 4.9306 15.4853 4.8614 15.4569 4.7975ZM7.99999 7.5C7.50554 7.5 7.02219 7.3534 6.61107 7.0787C6.19995 6.804 5.87951 6.4135 5.6903 5.9567C5.50108 5.4999 5.45157 4.9972 5.54803 4.5123C5.64449 4.0273 5.8826 3.5819 6.23223 3.2322C6.58186 2.8826 7.02732 2.6445 7.51227 2.548C7.99722 2.4516 8.49989 2.5011 8.9567 2.6903C9.41352 2.8795 9.80396 3.2 10.0787 3.6111C10.3534 4.0222 10.5 4.5055 10.5 5C10.5 5.663 10.2366 6.2989 9.76776 6.7678C9.29892 7.2366 8.66304 7.5 7.99999 7.5Z" fill="#92722A"/>
</svg>
