<svg width="13" height="12" viewBox="0 0 13 12" fill="none" xmlns="http://www.w3.org/2000/svg">
<path d="M11.5 2.74609H1.5C1.36739 2.74609 1.24021 2.69342 1.14645 2.59965C1.05268 2.50588 1 2.3787 1 2.24609C1 2.11349 1.05268 1.98631 1.14645 1.89254C1.24021 1.79877 1.36739 1.74609 1.5 1.74609H10C10.1326 1.74609 10.2598 1.69342 10.3536 1.59965C10.4473 1.50588 10.5 1.3787 10.5 1.24609C10.5 1.11349 10.4473 0.986314 10.3536 0.892544C10.2598 0.798774 10.1326 0.746094 10 0.746094H1.5C1.10218 0.746094 0.72064 0.904134 0.43934 1.18543C0.15804 1.46674 0 1.84827 0 2.24609V10.2461C0 10.6439 0.15804 11.0254 0.43934 11.3068C0.72064 11.5881 1.10218 11.7461 1.5 11.7461H11.5C11.7652 11.7461 12.0196 11.6407 12.2071 11.4532C12.3946 11.2657 12.5 11.0113 12.5 10.7461V3.74609C12.5 3.48088 12.3946 3.22652 12.2071 3.03899C12.0196 2.85145 11.7652 2.74609 11.5 2.74609ZM11.5 10.7461H1.5C1.36739 10.7461 1.24021 10.6934 1.14645 10.5996C1.05268 10.5059 1 10.3787 1 10.2461V3.66047C1.16055 3.71738 1.32966 3.74634 1.5 3.74609H11.5V10.7461ZM8.5 6.99609C8.5 6.84776 8.544 6.70275 8.6264 6.57942C8.7088 6.45608 8.8259 6.35995 8.963 6.30318C9.1 6.24642 9.2508 6.23157 9.3963 6.2605C9.5418 6.28944 9.6754 6.36087 9.7803 6.46576C9.8852 6.57065 9.9566 6.70429 9.9856 6.84978C10.0145 6.99526 9.9997 7.14606 9.9429 7.28311C9.8861 7.42015 9.79 7.53728 9.6667 7.6197C9.5433 7.70211 9.3983 7.74609 9.25 7.74609C9.0511 7.74609 8.8603 7.66708 8.7197 7.52642C8.579 7.38577 8.5 7.19501 8.5 6.99609Z" fill="#4B4F58"/>
</svg>
