<svg width="13" height="12" viewBox="0 0 13 12" fill="none" xmlns="http://www.w3.org/2000/svg">
<path d="M11.5 2.67693H1.5C1.36739 2.67693 1.24021 2.62503 1.14645 2.53262C1.05268 2.44022 1 2.31489 1 2.18421C1 2.05354 1.05268 1.92821 1.14645 1.83581C1.24021 1.7434 1.36739 1.69149 1.5 1.69149H10C10.1326 1.69149 10.2598 1.63959 10.3536 1.54718C10.4473 1.45478 10.5 1.32945 10.5 1.19877C10.5 1.0681 10.4473 0.942776 10.3536 0.850372C10.2598 0.757968 10.1326 0.706055 10 0.706055H1.5C1.10218 0.706055 0.72064 0.861793 0.43934 1.139C0.15804 1.41621 0 1.79218 0 2.18421V10.0677C0 10.4597 0.15804 10.8357 0.43934 11.113C0.72064 11.3902 1.10218 11.5459 1.5 11.5459H11.5C11.7652 11.5459 12.0196 11.442 12.2071 11.2572C12.3946 11.0725 12.5 10.8218 12.5 10.5604V3.66237C12.5 3.40102 12.3946 3.15036 12.2071 2.96556C12.0196 2.78075 11.7652 2.67693 11.5 2.67693ZM9.25 7.60411C9.1017 7.60411 8.9567 7.56077 8.8333 7.47956C8.71 7.39834 8.6139 7.28292 8.5571 7.14788C8.5003 7.01282 8.4855 6.86422 8.5144 6.72086C8.5434 6.57749 8.6148 6.44579 8.7197 6.34243C8.8246 6.23907 8.9582 6.16868 9.1037 6.14016C9.2492 6.11165 9.4 6.12628 9.537 6.18222C9.6741 6.23816 9.7912 6.33289 9.8736 6.45443C9.956 6.57597 10 6.71887 10 6.86504C10 7.06106 9.921 7.24904 9.7803 7.38764C9.6397 7.52625 9.4489 7.60411 9.25 7.60411Z" fill="#997722"/>
</svg>
